<svg xmlns="http://www.w3.org/2000/svg" width="139.764" height="200" xml:space="preserve"><path d="M139.76 14.459V185.54c0 4.013-1.407 7.43-4.214 10.24-2.81 2.811-6.227 4.219-10.24 4.219H14.459c-4.017 0-7.433-1.408-10.244-4.219C1.404 192.971 0 189.554 0 185.541V14.46c0-4.013 1.404-7.43 4.215-10.24C7.025 1.408 10.438 0 14.459 0h110.843c4.013 0 7.429 1.408 10.24 4.219 2.811 2.815 4.219 6.227 4.219 10.24zM125.303 7.23H14.459c-2.09 0-3.82.686-5.183 2.05-1.367 1.367-2.049 3.097-2.049 5.182v171.082c0 2.085.682 3.816 2.05 5.183 1.362 1.363 3.093 2.049 5.182 2.049h110.843c2.085 0 3.815-.686 5.183-2.05 1.363-1.366 2.048-3.097 2.048-5.182V14.46c0-2.085-.685-3.816-2.048-5.183-1.368-1.359-3.098-2.045-5.183-2.045z"/><path style="fill:#870000" d="M26.408 107.941c0 .081-.041.12-.12.12-.16 0-.717-.398-1.673-1.195a7.042 7.042 0 0 0-1.165-.688 35.022 35.022 0 0 0-1.105-.508c-.279-.119-.418-.199-.418-.239 0-.08.159-.119.478-.119.636.04 1.284.259 1.941.657.657.399 1.165.787 1.523 1.165.359.38.539.649.539.807zm-3.645-5.078c.239 0 .637.1 1.195.298.557.2 1.264.618 2.121 1.255a7.247 7.247 0 0 1 2.061 2.39c.159.399.239.618.239.657 0 .12-.04.179-.119.179l-.657-.657c-2.231-2.19-3.864-3.484-4.899-3.883-.12-.04-.179-.099-.179-.179-.001-.039.078-.06.238-.06zm2.629 6.034c-.319 0-.867-.09-1.644-.269-.776-.179-1.165-.368-1.165-.567 0-.08.219-.12.657-.12.199 0 .487.07.867.209.378.14.707.279.986.418.278.14.418.229.418.269 0 .041-.04.06-.119.06zm1.553-1.493c0-.039.039-.06.12-.06.119 0 .438.26.956.777.517.518.777.917.777 1.195 0 .279-.12.418-.358.418-.319 0-.717-.099-1.195-.299-.478-.199-.717-.358-.717-.478 0-.039.06-.06.179-.06.12 0 .329.04.627.12.299.08.468.119.508.119.08 0 .12-.039.12-.119 0-.159-.17-.448-.508-.867-.34-.418-.509-.666-.509-.746zm5.497 14.279c0 .119-.08.179-.239.179-.081 0-.19-.05-.329-.149-.14-.099-.249-.129-.329-.09-.04 0-.398.23-1.075.687-.678.458-1.116.688-1.314.688-.119 0-.179-.06-.179-.18 0-.04.188-.239.568-.597.378-.358.567-.557.567-.598 0-.039-.04-.06-.12-.06-.239 0-.528.03-.866.09-.339.06-.528.089-.567.089-.12 0-.18-.039-.18-.12 0-.278.737-.497 2.211-.657.278-.04.457-.139.538-.299.079-.159.12-.577.12-1.255 0-.278-.03-.567-.09-.866a5.241 5.241 0 0 1-.089-.508c0-.079.06-.12.179-.12.438 0 .756.16.956.478.039.08.06.239.06.478 0 .836-.1 1.553-.299 2.151.317.241.477.46.477.659zm3.047-1.494c0 .558.049.926.149 1.105.099.18.338.299.717.359.378.06.707.17.986.329 0 .04.03.08.09.119.06.041.089.081.089.12 0 .081-.1.12-.299.12-.08 0-.369-.039-.866-.12-.499-.079-.827-.12-.986-.12-.04 0-.249.149-.627.448-.379.299-.667.448-.867.448-.08 0-.119-.06-.119-.18 0-.04.079-.14.239-.298.318-.398.418-.598.299-.598-.04 0-.29.1-.747.299-.458.2-.767.299-.926.299-.12 0-.179-.039-.179-.12 0-.12.358-.408 1.075-.866s1.076-.986 1.076-1.583c0-.159-.01-.348-.03-.567-.02-.218-.05-.458-.089-.717a4.281 4.281 0 0 1-.06-.627c-.041-.12 0-.179.119-.179h.06c.677 0 1.016.2 1.016.597 0 .16-.021.448-.06.867-.041.417-.06.707-.06.865z" transform="translate(-66.745 -322.33) scale(4.03315)"/><path d="M44.336 67.955c0-.319-.359-.88-1.084-1.686a146.961 146.961 0 0 1-2.53-2.892c-.963-1.121-1.685-1.928-2.17-2.408-6.59-8.994-9.88-14.616-9.88-16.866 0-.484.242-.726.722-.726.322 0 .722.242 1.206.726 9.316 13.974 14.454 20.964 15.422 20.964.319 0 .484-.161.484-.484 0-.484-2.133-3.53-6.384-9.16-4.26-5.622-6.385-9.316-6.385-11.083 0-.484.242-.725.722-.725.319 0 2.57 3.053 6.748 9.159 4.174 6.106 6.586 9.16 7.227 9.16.319 0 .48-.082.48-.243 0-.641-1.887-3.654-5.662-9.038-3.78-5.38-5.663-8.474-5.663-9.276 0-.48.242-.722.722-.722.641 0 2.488 2.573 5.541 7.711 3.05 5.142 4.82 7.711 5.304 7.711.319 0 .48-.157.48-.484 0-.318-.883-2.085-2.65-5.3-1.766-3.21-2.65-5.299-2.65-6.267 0-.64.158-.964.484-.964.484 0 1.848 2.372 4.098 7.107 2.247 4.739 3.452 7.11 3.614 7.11.318 0 .48-.322.48-.964 0-.64-.964-3.13-2.892-7.469-1.928-4.34-2.892-6.828-2.892-7.473 0-.48.242-.722.722-.722.319 0 1.525 2.33 3.614 6.989l3.372 6.985c.963 1.287 1.6 1.686 1.927 1.206 0-.161-1.004-3.654-3.012-10.482-2.009-6.824-3.013-11.361-3.013-13.612 0-.964.242-1.444.722-1.444.641 0 1.887 3.735 3.735 11.205 1.847 7.473 3.012 11.204 3.492 11.204.642 0 .964-.4.964-1.206 0-.642-.722-3.412-2.17-8.313-1.444-4.9-2.17-8.953-2.17-12.168 0-1.605.158-2.411.48-2.411 1.122 0 2.328 3.416 3.614 10.244 1.283 6.828 2.085 10.24 2.412 10.24.48 0 .722-.803.722-2.412 0-.641-.282-3.049-.843-7.227-.565-4.175-.843-6.986-.843-8.434 0-2.569.242-3.855.722-3.855.641 0 1.283 1.968 1.928 5.904.641 3.937.964 7.752.964 11.446 0 2.412.399 3.614 1.206 3.614.484 0 .722-1.283.722-3.856 0-1.448-.121-3.775-.36-6.99-.241-3.21-.362-5.38-.362-6.505 0-1.927.242-2.891.722-2.891.802 0 1.403 3.214 1.806 9.639.4 6.429.843 9.64 1.327 9.64.803 0 1.206-2.413 1.206-7.228 0-4.977.158-7.47.484-7.47 1.121 0 1.686 2.573 1.686 7.712 0 .645-.04 1.686-.12 3.13-.086 1.443-.122 2.492-.122 3.133 0 1.444.4 1.847 1.206 1.206.319-.161.48-.4.48-.722.161-.323.484-1.605.964-3.856.48-2.246 1-4.174 1.565-5.783.56-1.601 1.165-2.408 1.807-2.408.48 0 .722.565.722 1.686 0 .807-.404 2.529-1.206 5.183-.807 2.65-1.206 4.456-1.206 5.42 0 .323.242.484.722.484.484 0 1.847-3.372 4.097-10.123 2.247-6.748 3.695-10.12 4.336-10.12.484 0 .722 1.203.722 3.614-.161 1.287-.686 3.215-1.569 5.784a490.238 490.238 0 0 1-2.408 6.868c-.722 2.013-1.085 3.094-1.085 3.255 0 .48.242.722.722.722.484 0 2.05-3.255 4.699-9.76 2.654-6.506 4.376-9.756 5.182-9.756.323 0 .484.322.484.964 0 1.77-1.084 5.061-3.254 9.88-2.17 4.82-3.255 7.555-3.255 8.192.161.161.323.242.484.242.48 0 2.206-2.69 5.183-8.07 2.968-5.38 4.617-8.07 4.94-8.07.484 0 .722.326.722.963 0 .807-.722 2.73-2.17 5.784a108.645 108.645 0 0 1-3.013 5.183 304.654 304.654 0 0 0-2.286 3.734c-.484.807-.722 1.287-.722 1.444 0 .323.242.484.722.484.64 0 2.17-2.049 4.577-6.146 2.408-4.098 3.771-6.143 4.098-6.143.484 0 .722.323.722.964 0 1.287-1.125 3.614-3.372 6.99l-3.614 5.057c0 .484.158.726.48.726.323 0 1.646-1.605 3.977-4.82 2.327-3.21 3.815-4.82 4.457-4.82.322 0 .48.323.48.965 0 .964-1.489 3.097-4.457 6.384-2.972 3.295-4.457 5.102-4.457 5.42l.484.485c1.122 0 4.336-2.65 9.64-7.954 4.82-5.3 7.473-7.953 7.953-7.953.323 0 .484.327.484.964 0 1.766-2.613 4.98-7.832 9.64-5.223 4.661-7.829 7.07-7.829 7.227 0 .322.158.48.48.48 1.283 0 4.78-2.57 10.482-7.712 5.7-5.138 8.873-7.711 9.519-7.711.322 0 .484.242.484.722 0 1.129-3.054 4.218-9.16 9.28-6.106 5.057-9.155 7.752-9.155 8.07 0 .48.036.722.121.722h.601c.48 0 3.287-1.887 8.433-5.662 5.139-3.771 8.111-5.663 8.914-5.663.322 0 .484.161.484.484 0 .641-.484 1.363-1.444 2.17-4.82 3.533-9.156 6.505-13.011 8.913-1.448.964-2.17 1.686-2.17 2.17s.157.722.48.722c.161 0 2.29-1.283 6.384-3.856 4.098-2.569 6.784-3.855 8.07-3.855.803 0 .965.403.48 1.201-.16.484-1.201 1.25-3.13 2.291-1.927 1.045-4.016 2.17-6.263 3.372-2.254 1.206-3.698 2.049-4.34 2.529-.806.806-.564 1.206.723 1.206.318 0 2.085-.884 5.3-2.65 3.21-1.767 5.38-2.654 6.505-2.654.802 0 1.202.327 1.202.964 0 .323-1.969 1.367-5.905 3.134-3.936 1.766-5.9 2.972-5.9 3.613 0 .484.318.722.963.722.162 0 1.965-.44 5.425-1.327 3.448-.879 5.42-1.326 5.9-1.326 1.283 0 1.928.326 1.928.963 0 .646-2.492 1.53-7.469 2.65-4.981 1.126-7.47 1.928-7.47 2.408 0 .645.243.964.723.964.802 0 2.968-.44 6.505-1.323 3.529-.883 5.699-1.327 6.505-1.327.803 0 1.206.242 1.206.722s-.363.843-1.085 1.085c-.726.242-2.21.565-4.456.964-2.255.403-4.42.924-6.506 1.565-.484.161-.843.403-1.085.722-.242.326-.242.6 0 .843.242.242.601.359 1.085.359.803 0 2.57-.319 5.3-.964 2.73-.642 4.336-.964 4.82-.964.802 0 1.205.242 1.205.722 0 .964-3.613 2.012-10.84 3.134-.327 0-.602.16-.844.483-.242.323-.242.642 0 .964.242.323.682.484 1.327.484.48 0 1.807-.242 3.973-.722 2.17-.484 3.654-.721 4.457-.721.484 0 .722.084.722.242 0 .806-1.771 1.564-5.3 2.29-3.533.722-5.3 1.323-5.3 1.807s.561.722 1.686.722c.803 0 2.085-.242 3.856-.722l2.65-.484c.802 0 1.206.242 1.206.726 0 .807-2.287 1.529-6.869 2.17-4.577.645-6.868 1.529-6.868 2.65.157.161.399.242.722.242.318 0 1.161-.158 2.528-.484 1.364-.319 2.368-.48 3.013-.48.964 0 1.444.323 1.444.964 0 .484-1.125.883-3.372 1.206-2.25.322-3.698.484-4.335.484-.807 0-1.206.242-1.206.722 0 .322.242.48.722.48.641 0 1.524-.081 2.65-.242 1.12-.162 1.766-.242 1.927-.242.642 0 .964.242.964.722 0 1.125-2.254 1.685-6.747 1.685-.48.162-.722.726-.722 1.686.323 0 .883-.04 1.686-.12.802-.081 1.403-.162 1.807-.243.399-.08.677-.036.843.121 0 .484-.363.843-1.085 1.085s-1.686.524-2.892.843c-1.206.327-2.21.807-3.013 1.448-1.605 1.444-3.335 2.287-5.182 2.529-1.848.242-3.094.443-3.735.6-.162 0-1.565 1.17-4.219 3.493-2.65 2.332-5.263 3.493-7.828 3.493-.646 0-1.767-.278-3.372-.843-1.605-.56-2.811-.843-3.614-.843-.48 0-1.444.242-2.891.722-1.444.484-2.65.722-3.614.722-1.77 0-3.372-.681-4.82-2.049a237.394 237.394 0 0 1-2.412-2.286c-.16 0-.923-.202-2.286-.601-1.368-.4-2.493-.803-3.372-1.206-.887-.4-1.327-.843-1.327-1.327 0-.323.157-.48.484-.48.48 0 1.202.201 2.17.6.964.404 1.601.602 1.928.602.318 0 .48-.158.48-.484 0-.48-1.368-1.04-4.098-1.686-2.735-.641-4.098-1.283-4.098-1.928 0-.319.242-.484.722-.484.641 0 1.686.165 3.134.484l2.17.722c.802 0 1.206-.08 1.206-.242 0-.964-.565-1.444-1.686-1.444-6.59-1.121-9.881-2.327-9.881-3.614 0-.48.242-.722.722-.722s1.964.484 4.456 1.444c2.489.964 4.058 1.444 4.703 1.444.48 0 .722-.157.722-.48 0-.484-.601-.964-1.807-1.444a108.142 108.142 0 0 0-4.578-1.685c-1.847-.642-3.335-1.283-4.456-1.928-3.053-1.928-6.107-4.417-9.16-7.47-3.053-3.049-4.577-4.977-4.577-5.783 0-.642.242-.964.722-.964.318 0 2.008 1.407 5.057 4.214 3.05 2.816 5.062 4.22 6.026 4.22.322 0 .484-.243.484-.727 0-.318-.525-.88-1.565-1.686-1.049-.802-2.372-1.928-3.977-3.371-1.609-1.444-2.972-2.973-4.097-4.578-.48-.641-.763-1.206-.843-1.686-.081-.484-.081-.883 0-1.206.08-.322.201-.484.363-.484.322 0 1.964 1.65 4.94 4.94 2.969 3.296 4.94 4.941 5.9 4.941.323 0 .485-.157.485-.484 0-.318-1.77-2.488-5.3-6.505-3.533-4.013-5.3-6.582-5.3-7.711 0-.484.158-.722.485-.722.318 0 2.125 1.891 5.42 5.662 3.291 3.78 5.501 5.663 6.627 5.663l.242-.484c0-.158-1.928-2.412-5.784-6.748-3.856-4.34-5.784-7.388-5.784-9.159 0-.319.081-.48.242-.48.484 0 2.489 2.287 6.026 6.869 3.533 4.577 5.703 6.868 6.505 6.868.48 0 .722-.161.722-.484 0-.48-.923-1.883-2.77-4.215a631.623 631.623 0 0 0-6.026-7.469c-2.17-2.65-3.577-4.457-4.219-5.42-.964-1.606-.883-2.412.242-2.412.319 0 2.247 2.25 5.784 6.747 3.533 4.501 5.783 6.748 6.747 6.748.331.008.492-.073.492-.234zm5.304 12.53c-1.287 0-2.65.52-4.098 1.565-1.444 1.05-2.17 2.856-2.17 5.421 0 .645.122 1.287.36 1.928.241.645.883 1.327 1.927 2.049 1.045.722 2.368 1.085 3.977 1.085 4.497 0 6.747-1.848 6.747-5.546 0-1.766-.685-3.291-2.048-4.578-1.364-1.278-2.928-1.923-4.695-1.923zm.242 3.614c1.605 0 2.412.964 2.412 2.892 0 1.287-.883 1.928-2.65 1.928-1.605 0-2.408-.641-2.408-1.928-.004-1.928.875-2.892 2.646-2.892zm11.805-12.773c0-1.766-.645-3.331-1.928-4.698-1.286-1.364-2.734-2.05-4.335-2.05-2.09 0-3.856.602-5.3 1.808s-2.17 2.855-2.17 4.94c0 4.179 2.327 6.264 6.986 6.264 1.766 0 3.331-.641 4.698-1.928 1.363-1.279 2.05-2.726 2.05-4.336zm-9.397 0c0-.641.322-1.282.964-1.928.641-.64 1.282-.963 1.928-.963.64 0 1.242.322 1.806.963.561.646.843 1.287.843 1.928 0 1.444-.964 2.17-2.891 2.17-1.767 0-2.65-.722-2.65-2.17zm15.423 29.882c0-4.178-2.013-6.268-6.026-6.268-3.856 0-5.783 1.686-5.783 5.062 0 1.605.604 3.053 1.806 4.336 1.206 1.286 2.852 1.927 4.941 1.927 3.376.005 5.062-1.681 5.062-5.057zm-2.65-21.686c-1.77 0-3.215.685-4.336 2.049-1.125 1.367-1.686 2.936-1.686 4.698 0 4.017 2.57 6.026 7.712 6.026 1.928 0 3.412-.722 4.456-2.17 1.04-1.444 1.565-2.807 1.565-4.098 0-4.335-2.573-6.505-7.711-6.505zm-5.542 21.206c0-1.605.803-2.412 2.412-2.412 1.601 0 2.408.887 2.408 2.65 0 1.287-.722 1.928-2.17 1.928-1.77 0-2.65-.722-2.65-2.166zm13.975-42.655c0-1.12-.524-2.246-1.565-3.371-1.048-1.122-2.371-1.686-3.976-1.686-4.663 0-6.99 2.25-6.99 6.747 0 1.287.601 2.287 1.807 3.013s2.367 1.085 3.493 1.085c1.766 0 3.412-.641 4.94-1.928 1.529-1.286 2.291-2.569 2.291-3.86zm-5.3 28.196c0 1.287-.721 1.928-2.17 1.928-1.77 0-2.649-.641-2.649-1.928 0-1.766.803-2.65 2.408-2.65s2.412.884 2.412 2.65zm-.963-25.542c-1.77 0-2.654-.802-2.654-2.412 0-1.6 1.044-2.407 3.134-2.407 1.447 0 2.17.721 2.17 2.17-.005 1.766-.888 2.65-2.65 2.65zm5.78 17.589c.483 0 1.165-.121 2.048-.36.883-.241 1.888-.963 3.013-2.169 1.121-1.206 1.686-2.775 1.686-4.699 0-2.085-.601-3.573-1.807-4.456-1.206-.884-2.372-1.327-3.497-1.327-1.444 0-3.13.484-5.058 1.444-1.927.964-2.891 2.573-2.891 4.82 0 1.77.641 3.335 1.928 4.698 1.282 1.367 2.807 2.049 4.577 2.049zm.483-8.672c1.767 0 2.65.807 2.65 2.408 0 1.605-.883 2.412-2.65 2.412-1.77 0-2.65-.803-2.65-2.412 0-1.605.88-2.408 2.65-2.408zm9.64 30.842c0-1.767-.763-3.05-2.287-3.856-1.529-.802-3.013-1.206-4.457-1.206-3.533 0-5.3 2.25-5.3 6.748 0 3.533 1.767 5.3 5.3 5.3a8.35 8.35 0 0 0 2.412-.364c.802-.242 1.722-.923 2.77-2.048 1.037-1.118 1.561-2.646 1.561-4.574zm-5.784-.964c1.444 0 2.17.645 2.17 1.928 0 1.928-.807 2.892-2.412 2.892-1.444 0-2.17-.88-2.17-2.65 0-1.448.803-2.17 2.412-2.17zm-2.17-15.18c0 1.77.641 3.133 1.928 4.097a7.039 7.039 0 0 0 4.335 1.444c4.018 0 6.026-1.847 6.026-5.546 0-1.444-.52-2.77-1.565-3.976-1.044-1.206-2.371-1.807-3.973-1.807-2.093 0-3.734.564-4.94 1.686-1.21 1.129-1.811 2.496-1.811 4.101zm7.953-20.485c1.122 0 2.448-.484 3.977-1.448 1.525-.964 2.287-2.488 2.287-4.578 0-3.371-1.767-5.061-5.3-5.061-4.34 0-6.505 1.847-6.505 5.541 0 1.77.52 3.134 1.565 4.098 1.044.968 2.367 1.448 3.976 1.448zm-1.448 18.072c1.602 0 2.412.964 2.412 2.892 0 1.444-.887 2.17-2.654 2.17-1.443 0-2.17-.803-2.17-2.408.005-1.766.807-2.654 2.412-2.654zm1.686-21.202c-1.444 0-2.17-.722-2.17-2.17 0-1.766.803-2.65 2.412-2.65 1.601 0 2.412.722 2.412 2.17 0 1.767-.887 2.65-2.654 2.65zm1.69 34.697c0 1.126.722 2.17 2.17 3.134 1.444.964 2.65 1.444 3.614 1.444 1.444 0 2.77-.52 3.976-1.565 1.202-1.044 1.807-2.13 1.807-3.255 0-1.448-.6-2.77-1.807-3.976-1.205-1.206-2.613-1.807-4.218-1.807-1.444 0-2.735.645-3.856 1.928-1.125 1.29-1.686 2.654-1.686 4.097zm1.202-26.505c0 3.698 1.928 5.545 5.784 5.545 1.6 0 3.089-.52 4.456-1.569 1.363-1.04 2.05-2.367 2.05-3.976 0-3.856-1.848-5.784-5.542-5.784-1.928 0-3.533.6-4.82 1.807-1.287 1.206-1.928 2.529-1.928 3.977zm6.748 25.783c0 .484-.242.964-.722 1.444s-.884.722-1.206.722c-1.605 0-2.412-.56-2.412-1.686 0-1.766.722-2.65 2.17-2.65s2.17.723 2.17 2.17zM90.605 69.16c0-1.766.802-2.65 2.412-2.65 1.443 0 2.17.807 2.17 2.409 0 1.609-.884 2.411-2.65 2.411-1.295-.004-1.932-.726-1.932-2.17zm5.783 18.795c4.34 0 6.506-1.767 6.506-5.3 0-1.443-.484-2.807-1.448-4.097-.964-1.283-2.331-1.928-4.098-1.928-1.286 0-2.65.48-4.097 1.444-1.444.964-2.17 2.412-2.17 4.34 0 1.443.484 2.734 1.444 3.855.972 1.125 2.254 1.686 3.863 1.686zm.964-2.892c-1.928 0-2.892-.722-2.892-2.17 0-.802.32-1.484.964-2.048.642-.561 1.283-.843 1.928-.843 1.283 0 1.928.883 1.928 2.65 0 1.609-.645 2.411-1.928 2.411z"/><path style="fill:#133f00" d="M35.907 116.664c-.319 0-.797-.06-1.434-.179-.638-.119-1.096-.179-1.374-.179-.2 0-.598.119-1.195.358-.598.239-1.076.359-1.434.359-.2 0-.618-.049-1.255-.149-.637-.099-1.096-.149-1.374-.149-2.351 0-4.421.339-6.213 1.016-.081-.159-.12-.397-.12-.717 0-1.673.557-3.116 1.673-4.332 1.115-1.215 2.23-1.822 3.346-1.822.318 0 .677.06 1.076.179.397.12.617.179.657.179.159 0 .239-.06.239-.179 0-.039-.05-.129-.149-.269-.1-.139-.149-.229-.149-.269 0-.199.04-.299.12-.299.08 0 .179.08.299.239.12.16.229.429.329.807.099.379.149.787.149 1.225 0 .2-.01.559-.03 1.076-.021.518-.03.836-.03.956 0 1.354.418 2.031 1.254 2.031.278 0 .756-.129 1.434-.389.676-.258 1.234-.388 1.673-.388.119 0 .258.01.418.03.159.021.278.03.358.03.637 0 .956-.438.956-1.314 0-.278-.17-.547-.508-.807-.339-.259-.667-.389-.986-.389-.398 0-.866.339-1.404 1.016-.538.678-.986 1.016-1.345 1.016-.637 0-.956-.478-.956-1.434 0-.397.109-.956.329-1.673.218-.717.329-1.255.329-1.613 0-.478-.11-.826-.329-1.045-.22-.218-.448-.348-.687-.388-.239-.04-.359-.08-.359-.12 0-.08.12-.12.359-.12.397 0 .756.209 1.075.627.318.418.517.627.598.627.079 0 .239-.179.478-.538.239-.359.597-.707 1.075-1.046.478-.338 1.055-.508 1.732-.508.796 0 1.454.369 1.972 1.105.518.737.796 1.105.836 1.105l.896-.239c.598-.199 1.334-.299 2.211-.299 1.195 0 2.45.618 3.764 1.853 1.314 1.235 1.972 2.769 1.972 4.6l-.18 1.016c-.08 0-.817-.12-2.21-.358-1.395-.239-2.53-.358-3.405-.358-1.395 0-2.43.021-3.107.06-.677.04-1.135.059-1.374.059zm-11.232-.477c0-.159-.239-.239-.717-.239-.358 0-.667.041-.926.12-.259.081-.438.179-.538.299-.1.119-.149.219-.149.298 0 .16.08.239.239.239.199 0 .598-.089 1.195-.269.597-.18.896-.329.896-.448zm-1.972-1.016c0 .16.199.239.598.239.278 0 .606-.06.986-.179.378-.12.567-.218.567-.299 0-.199-.239-.298-.717-.298-.956-.001-1.434.179-1.434.537zm1.733-1.793c-.717 0-1.076.119-1.076.358 0 .2.358.299 1.076.299.637 0 .956-.099.956-.299 0-.238-.319-.358-.956-.358zm-.18-.776c0 .239.438.358 1.315.358.278 0 .418-.06.418-.179 0-.318-.339-.478-1.016-.478-.477 0-.717.1-.717.299zm.897-.896c0 .2.378.298 1.135.298.239 0 .358-.06.358-.179 0-.239-.299-.358-.896-.358-.398-.001-.597.08-.597.239zm3.226 4.062c-2.031 0-3.047.1-3.047.299 0 .16.258.239.777.239.159 0 .458-.01.896-.03.438-.02.777-.03 1.016-.03.517 0 .777-.08.777-.239-.001-.158-.141-.239-.419-.239zm.18-.657c0-.318-.777-.478-2.331-.478-.478 0-.717.1-.717.298 0 .081.02.13.06.149.039.021.128.04.269.06.139.021.278.03.418.03h.688c.318 0 .617.021.896.06.477.041.717 0 .717-.119zm-.06-.956c0-.318-.538-.478-1.613-.478-.518 0-.776.1-.776.298 0 .2.617.299 1.852.299.357 0 .537-.039.537-.119zm-1.912-1.075c0 .04.258.11.776.209.517.1.816.149.896.149.159 0 .239-.02.239-.06 0-.08-.06-.159-.179-.239a2.355 2.355 0 0 0-.538-.239 2.275 2.275 0 0 0-.717-.12c-.318.001-.477.101-.477.3zm.418-.896c0 .119.209.239.627.358.418.119.726.179.926.179.079 0 .119-.039.119-.12 0-.079-.149-.199-.448-.358a1.845 1.845 0 0 0-.866-.239c-.238 0-.358.06-.358.18zm1.613-.359c0-.278-.279-.418-.836-.418-.239 0-.359.04-.359.12 0 .12.139.219.418.298.278.081.478.12.598.12s.179-.04.179-.12zm1.255-1.135c0 .119-.06.179-.179.179s-.259-.12-.418-.358c-.16-.239-.239-.438-.239-.598 0-.079.039-.12.119-.12.159 0 .318.11.478.329.158.22.239.409.239.568zm1.374 2.628c0-.239-.14-.358-.418-.358-.319 0-.478.299-.478.896 0 .239.08.358.239.358.079 0 .209-.109.388-.329.179-.217.269-.407.269-.567zm.717.598c0-.199-.06-.299-.179-.299-.16 0-.349.13-.567.388-.22.26-.329.469-.329.628 0 .16.08.239.239.239.12 0 .289-.12.508-.358.218-.24.328-.438.328-.598zm-.299-1.075c.08 0 .169-.08.269-.239.099-.159.149-.278.149-.358 0-.318-.14-.478-.418-.478-.478 0-.717.2-.717.598 0 .318.239.477.717.477zm1.255-3.167c0-.159-.12-.239-.359-.239-.398 0-.597.179-.597.538 0 .199.119.298.358.298.398 0 .598-.198.598-.597zm-.478 2.032c.278 0 .418-.159.418-.478 0-.278-.14-.418-.418-.418-.319 0-.478.16-.478.478 0 .278.159.418.478.418zm.119.776c-.08 0-.169.06-.269.18-.1.119-.149.219-.149.298 0 .279.139.418.418.418.278 0 .418-.179.418-.538 0-.238-.14-.358-.418-.358zm.777-3.824c-.319 0-.478.12-.478.359s.159.358.478.358c.079.04.159.03.239-.03.08-.06.12-.149.12-.269 0-.278-.12-.418-.359-.418zm0 2.211c.278 0 .418-.139.418-.418 0-.278-.14-.418-.418-.418-.279 0-.418.14-.418.418 0 .279.139.418.418.418zm.537 1.195c0-.318-.14-.478-.418-.478-.358 0-.538.14-.538.418 0 .319.159.478.478.478.319 0 .478-.139.478-.418zm.299-1.374c-.319 0-.478.16-.478.478-.041.119.009.229.149.328.139.1.249.15.329.15.318 0 .478-.14.478-.418 0-.359-.159-.538-.478-.538zm-.059-.598c.358 0 .538-.159.538-.478 0-.239-.14-.358-.418-.358-.319 0-.478.16-.478.478-.001.239.118.358.358.358zm.119-1.733c-.279 0-.418.1-.418.299 0 .2.139.299.418.299.239 0 .358-.099.358-.299.001-.199-.119-.299-.358-.299zm1.733 7.887c.239 0 .965-.09 2.181-.269a23.26 23.26 0 0 1 3.376-.269c.557 0 .836-.08.836-.239 0-.318-.379-.478-1.135-.478-.439 0-1.116.081-2.032.239-.917.16-1.474.239-1.673.239-.16 0-.239-.02-.239-.06 0-.199.517-.408 1.553-.627 1.036-.218 1.772-.329 2.211-.329.438 0 .657-.099.657-.298 0-.199-.2-.299-.597-.299-.399 0-1.006.1-1.822.299-.817.199-1.325.298-1.523.298-.12 0-.179-.039-.179-.119 0-.278.916-.558 2.748-.837.438-.039.657-.159.657-.358 0-.12-.12-.18-.358-.18-.279 0-.787.11-1.523.329-.738.22-1.165.329-1.285.329-.239 0-.219-.099.06-.299a.937.937 0 0 1 .239-.179c.239-.08.498-.169.777-.269.278-.099.487-.169.627-.209l.418-.12c.139-.039.229-.09.269-.149.04-.06.06-.109.06-.149 0-.12-.1-.179-.299-.179-.239 0-.648.11-1.225.329-.578.219-.907.329-.986.329-.12 0-.179-.02-.179-.06 0-.12.368-.348 1.105-.688.737-.338 1.105-.547 1.105-.627 0-.12-.08-.179-.239-.179-.12 0-.458.149-1.016.448-.558.299-.917.448-1.075.448-.081 0-.12-.039-.12-.12 0-.159.329-.408.986-.747.657-.338.986-.568.986-.687 0-.08-.08-.12-.239-.12-.279 0-.627.11-1.046.329a8.973 8.973 0 0 0-1.045.627l-.478.299c-.16 0-.239-.08-.239-.239 0-.039.069-.169.209-.388.139-.219.209-.368.209-.448 0-.159-.119-.239-.358-.239s-.678.359-1.314 1.076c-.638.717-.956 1.135-.956 1.255 0 .04.269.229.807.567.538.339.807.827.807 1.464 0 .597-.179 1.075-.538 1.434.317.08.596.119.835.119zm-.359-5.975c0-.239-.179-.358-.538-.358-.08 0-.179.06-.298.179-.12.12-.179.239-.179.358 0 .239.159.358.478.358.12 0 .239-.06.359-.179.118-.118.178-.238.178-.358zm-.358-1.732c-.279 0-.418.16-.418.478 0 .2.12.298.358.298.358 0 .538-.139.538-.418 0-.239-.16-.358-.478-.358zm1.075 1.075c0-.199-.1-.299-.299-.299-.239 0-.358.1-.358.299 0 .239.099.359.299.359.239 0 .358-.12.358-.359zm1.912-1.135c1.115-1.234 2.271-2.23 3.465-2.988 1.195-.756 2.111-1.135 2.749-1.135.239 0 .358.08.358.239 0 .081-.04.14-.119.179-.2.16-.618.388-1.255.687-.638.299-1.056.508-1.255.627a51.071 51.071 0 0 0-2.181 1.494c-.658.478-1.115.807-1.374.986-.26.179-.428.269-.508.269-.159 0-.119-.119.12-.358zm2.032 2.509c0 .16.079.239.239.239 1.036 0 1.554-.139 1.554-.418 0-.159-.16-.239-.478-.239-.2 0-.469.05-.807.149-.339.1-.508.19-.508.269zm.059-2.569c0-.039.229-.229.687-.568a12.536 12.536 0 0 1 1.673-1.016c.657-.338 1.165-.508 1.524-.508.358 0 .538.06.538.18 0 .119-1.335.737-4.003 1.852-.32.16-.459.18-.419.06zm2.271 3.107c-.917 0-1.374.159-1.374.478 0 .12.119.18.358.18.119 0 .338-.01.657-.03.318-.02.517-.03.597-.03.239 0 .359-.079.359-.239 0-.239-.2-.359-.597-.359zm-1.196-2.509c0-.04.129-.129.389-.269.259-.139.587-.269.986-.389.398-.119.736-.179 1.016-.179.358 0 .598.119.717.358.04.08.02.13-.06.149-.08.02-.259.03-.538.03-.439.04-.847.089-1.225.149-.379.06-.648.11-.807.15-.16.04-.259.06-.298.06-.12.001-.18-.019-.18-.059zm.598 4.063c0 .16.517.239 1.554.239.358 0 .538-.06.538-.179 0-.239-.319-.359-.956-.359-.758 0-1.136.1-1.136.299zm2.987 1.374c0-.358-.518-.538-1.553-.538-.319 0-.538.021-.657.06-.12.041-.16.12-.12.239 0 .12.289.229.867.329.577.1.945.149 1.105.149.239 0 .358-.08.358-.239zm-.358.956a4.21 4.21 0 0 0-1.016-.12c-.359 0-.538.06-.538.179 0 .359.617.598 1.852.717.199.04.299-.02.299-.179.001-.318-.2-.517-.597-.597z" transform="translate(-66.745 -322.33) scale(4.03315)"/></svg>