<svg xmlns="http://www.w3.org/2000/svg" width="139.764" height="200" xml:space="preserve"><path d="M139.764 14.455v171.086c0 4.013-1.408 7.43-4.215 10.24-2.811 2.811-6.227 4.219-10.24 4.219H14.459c-4.017 0-7.433-1.408-10.244-4.219C1.404 192.971 0 189.554 0 185.541V14.455c0-4.013 1.404-7.43 4.215-10.24C7.025 1.404 10.438 0 14.459 0h110.846c4.013 0 7.429 1.408 10.24 4.215 2.811 2.81 4.219 6.227 4.219 10.24zm-14.46-7.227H14.46c-2.09 0-3.82.685-5.183 2.048-1.367 1.368-2.048 3.098-2.048 5.183v171.086c0 2.085.681 3.815 2.048 5.183 1.364 1.363 3.094 2.048 5.183 2.048h110.846c2.085 0 3.815-.685 5.182-2.048 1.363-1.368 2.05-3.098 2.05-5.183V14.455c0-2.085-.687-3.815-2.05-5.183-1.367-1.359-3.097-2.044-5.182-2.044z"/><path style="fill:#870000" d="M27.871 182.415c-1.653-1.652-2.479-3.654-2.479-6.004 0-2.35.826-4.352 2.479-6.005 1.652-1.652 3.654-2.479 6.004-2.479 2.35 0 4.352.827 6.005 2.479 1.652 1.653 2.479 3.655 2.479 6.005 0 2.351-.827 4.352-2.479 6.004-1.653 1.653-3.655 2.479-6.005 2.479s-4.352-.826-6.004-2.479zm-1.284-6.124h3.584c0-.239.02-.397.06-.478l-2.211-.418.06-.299 2.21.479c0-.08.039-.239.119-.479l-3.345-1.374-1.494 1.016zm.478 2.808 3.345-1.374c-.08-.239-.119-.398-.119-.479l-2.21.479-.06-.299 2.211-.418c-.041-.079-.06-.239-.06-.478h-3.584l-1.016 1.553zm.119-5.557 3.346 1.314c.08-.158.159-.278.239-.358l-1.972-1.254.179-.239 1.912 1.255c.08-.08.159-.199.239-.359l-2.509-2.569-1.792.358zm1.434 7.947 2.509-2.569a1.452 1.452 0 0 0-.239-.358l-1.912 1.254-.179-.239 1.972-1.254a1.34 1.34 0 0 1-.239-.359l-3.346 1.314-.358 1.853zm.179-10.337 2.569 2.509c.159-.08.278-.158.359-.239l-1.255-1.912.239-.179 1.255 1.972c.08-.08.199-.159.358-.239l-1.314-3.346-1.852-.358zm2.211 11.95 1.314-3.346a1.363 1.363 0 0 1-.358-.239l-1.255 1.972-.239-.18 1.255-1.912c-.081-.08-.2-.159-.359-.239l-2.569 2.509.358 1.792zm.478-9.082c-.678.678-1.016 1.474-1.016 2.39 0 .917.338 1.713 1.016 2.39.677.678 1.473 1.016 2.39 1.016.916 0 1.712-.338 2.39-1.016.677-.677 1.016-1.473 1.016-2.39 0-.916-.339-1.712-1.016-2.39-.678-.677-1.474-1.016-2.39-1.016-.917 0-1.713.339-2.39 1.016zm0 2.928-.478-.239v-.298c0-.717.259-1.334.777-1.852l.418.06 1.016 1.254c-.12.2-.18.379-.18.538zm-.299-7.349 1.374 3.345c.239-.079.398-.119.478-.119l-.478-2.21.299-.06.418 2.211c.079-.039.239-.06.478-.06v-3.584l-1.553-1.016zm2.569 14.1v-3.585c-.239 0-.399-.02-.478-.06l-.418 2.211-.299-.06.478-2.21c-.08 0-.239-.039-.478-.12l-1.374 3.346 1.016 1.494zm-.179-4.84-.298.358c-.757-.158-1.374-.617-1.852-1.374l.239-.418 1.554-.478c.119.119.239.2.358.239v1.673zm-.836-5.078c.318-.159.696-.239 1.135-.239.438 0 .816.081 1.135.239l.06.478-.956 1.374c-.04-.039-.12-.06-.239-.06s-.2.021-.239.06l-.956-1.374zm1.134 2.927c-.2 0-.299-.099-.299-.298 0-.199.099-.299.299-.299.199 0 .299.101.299.299 0 .2-.099.298-.299.298zm.12-7.587v3.584c.239 0 .398.021.478.06l.418-2.211.298.06-.478 2.21c.079 0 .239.041.478.119l1.375-3.345-1.016-1.494zm2.569 14.1-1.375-3.346c-.239.081-.398.12-.478.12l.478 2.21-.298.06-.418-2.211c-.08.041-.239.06-.478.06v3.585l1.553 1.016zm-2.39-4.362v-1.673a.928.928 0 0 0 .358-.239l1.554.478.239.418c-.478.757-1.096 1.216-1.852 1.374zm2.569-2.151-.478.239-1.553-.538c0-.159-.06-.338-.18-.538l1.016-1.254.418-.06c.517.518.776 1.135.776 1.852v.299zm0-6.99-1.314 3.346c.159.081.278.16.358.239l1.254-1.972.239.179-1.255 1.912c.08.081.199.159.359.239l2.569-2.509-.358-1.792zm2.211 11.949-2.569-2.509c-.16.08-.279.16-.359.239l1.255 1.912-.239.18-1.254-1.972c-.081.08-.2.159-.358.239l1.314 3.346 1.853.358zm.179-10.335-2.509 2.569c.08.16.159.279.239.359l1.912-1.255.179.239-1.972 1.254c.079.081.159.2.239.358l3.346-1.314.358-1.852zm1.434 7.945-3.346-1.314c-.08.16-.16.279-.239.359l1.972 1.254-.179.239-1.912-1.254c-.081.08-.16.2-.239.358l2.509 2.569 1.792-.359zm.12-5.556-3.346 1.374c.08.24.12.399.12.479l2.21-.479.06.299-2.211.418c.04.081.06.239.06.478h3.584l1.016-1.553zm.478 2.809H37.58c0 .239-.021.398-.06.478l2.211.418-.06.299-2.21-.479c0 .081-.04.239-.12.479l3.346 1.374 1.494-1.016z" transform="translate(-66.746 -611.503) scale(4.03323)"/><path style="fill:#00082d" d="M24.227 186.059c-2.688-2.688-4.033-5.905-4.033-9.649 0-3.744 1.344-6.961 4.033-9.649 2.688-2.689 5.905-4.033 9.649-4.033 3.744 0 6.96 1.344 9.649 4.033 2.688 2.688 4.033 5.905 4.033 9.649 0 3.744-1.344 6.96-4.033 9.649-2.689 2.688-5.906 4.033-9.649 4.033-3.745 0-6.961-1.344-9.649-4.033zm.627-18.671c-2.509 2.509-3.764 5.518-3.764 9.022 0 3.505 1.255 6.512 3.764 9.021 2.509 2.509 5.517 3.764 9.021 3.764 3.504 0 6.513-1.254 9.022-3.764 2.509-2.51 3.764-5.517 3.764-9.021 0-3.504-1.254-6.513-3.764-9.022-2.509-2.509-5.518-3.764-9.022-3.764-3.504 0-6.512 1.255-9.021 3.764zm.388 17.655c-2.37-2.37-3.555-5.248-3.555-8.633 0-3.385 1.185-6.264 3.555-8.633 2.37-2.37 5.248-3.555 8.633-3.555 3.385 0 6.263 1.186 8.634 3.555 2.369 2.37 3.554 5.248 3.554 8.633 0 3.386-1.185 6.264-3.554 8.633-2.371 2.37-5.249 3.554-8.634 3.554-3.385.001-6.263-1.183-8.633-3.554zm-2.837-11.859-.359 1.613 1.613-.538-.896 1.852h1.375l.418-.418c.08-.956.278-1.832.598-2.629l-1.195-.478zm1.553 7.049 1.195-.478a9.074 9.074 0 0 1-.598-2.629l-.418-.418h-1.375l.896 1.853-1.613-.538.359 1.613zm2.569-10.813-1.016-1.016-.657.179a19.112 19.112 0 0 0-1.434 2.091l.478 1.254 1.254.538.299-.179c.199-.438.457-.896.776-1.375l-1.494-.418zm-.299 12.487c-.16-.239-.298-.458-.418-.658a2.687 2.687 0 0 1-.209-.388 1.874 1.874 0 0 0-.09-.209c-.04-.079-.08-.128-.119-.149a2.556 2.556 0 0 1-.239-.149l-1.254.538-.478 1.254c.397.717.916 1.434 1.553 2.151l.538.119 1.016-1.016-1.792-1.075zm1.225-11.92c-1.773 1.773-2.659 3.913-2.659 6.423 0 2.509.886 4.65 2.659 6.422 1.772 1.772 3.913 2.659 6.422 2.659 2.51 0 4.65-.886 6.423-2.659 1.772-1.772 2.659-3.913 2.659-6.422 0-2.51-.887-4.65-2.659-6.423-1.773-1.772-3.913-2.659-6.423-2.659-2.509.001-4.65.887-6.422 2.659zm.926-1.225a18.1 18.1 0 0 1 .658-.418c.198-.119.328-.188.388-.209.06-.02.129-.049.209-.089.079-.04.129-.08.149-.12.02-.039.069-.119.149-.239l-.538-1.254-1.254-.478c-.717.398-1.434.917-2.151 1.553l-.12.538 1.016 1.016 1.076-1.792zm-1.494 14.997-1.016 1.016.179.657c.598.478 1.294.956 2.091 1.434l1.254-.479.538-1.254-.179-.299a9.891 9.891 0 0 1-1.375-.776l-.418 1.494zm6.274-16.669.418-.418v-1.374l-1.852.896.538-1.613-1.613.359-.597 1.553.478 1.195a9.052 9.052 0 0 1 2.628-.598zm-2.51 20.791 1.613.358-.538-1.613 1.852.896v-1.374l-.418-.418a9.034 9.034 0 0 1-2.629-.598l-.478 1.195zm3.525-21.21.418.418c.956.08 1.832.279 2.628.597l.478-1.195-.597-1.553-1.613-.359.538 1.613-1.852-.896zm3.525 19.657-.478-1.195a9.075 9.075 0 0 1-2.628.598l-.418.418v1.374l1.852-.896-.538 1.613 1.613-.358zm1.674-17.566.418-1.493 1.075 1.792 1.016-1.016-.179-.658a18.92 18.92 0 0 0-2.091-1.434l-1.254.478-.538 1.254.179.299c.437.202.896.46 1.374.778zm0 15.296c-.239.16-.458.298-.658.418s-.328.189-.388.209c-.06.021-.129.05-.209.09-.08.04-.13.081-.149.12-.021.04-.07.119-.149.239l.538 1.254 1.254.479a12.083 12.083 0 0 0 2.151-1.554l.119-.538-1.016-1.016-1.075 1.792zm2.15-13.145c.159.239.298.458.418.658s.188.329.209.388c.02.06.049.13.09.209.039.08.079.129.119.149.04.021.12.07.239.149l1.254-.538.478-1.254a12.176 12.176 0 0 0-1.553-2.151l-.538-.119-1.016 1.016 1.792 1.075zm-.298 12.487 1.016 1.016.657-.179c.478-.597.956-1.293 1.434-2.091l-.478-1.254-1.254-.538-.299.18c-.2.438-.458.896-.776 1.374l1.494.418zm2.568-10.814-1.195.478a9.14 9.14 0 0 1 .598 2.629l.418.418h1.374l-.896-1.852 1.613.538-.359-1.613zm1.554 7.05.359-1.613-1.613.538.896-1.853h-1.374l-.418.418a9.107 9.107 0 0 1-.598 2.629l1.195.478z" transform="translate(-66.746 -611.503) scale(4.03323)"/></svg>