<svg xmlns="http://www.w3.org/2000/svg" width="139.764" height="200" xml:space="preserve"><path d="M139.757 14.459V185.54c0 4.013-1.408 7.43-4.215 10.24-2.811 2.811-6.227 4.219-10.24 4.219H14.459c-4.017 0-7.433-1.408-10.244-4.219C1.404 192.971 0 189.554 0 185.541V14.46c0-4.013 1.404-7.43 4.215-10.24C7.025 1.408 10.438 0 14.459 0h110.843c4.013 0 7.429 1.408 10.24 4.219 2.807 2.815 4.215 6.227 4.215 10.24zm-14.46-7.228H14.46c-2.09 0-3.82.686-5.183 2.05-1.367 1.367-2.049 3.097-2.049 5.182v171.082c0 2.085.682 3.816 2.05 5.183 1.362 1.363 3.093 2.049 5.182 2.049h110.843c2.085 0 3.815-.686 5.183-2.05 1.363-1.366 2.048-3.097 2.048-5.182V14.46c0-2.085-.685-3.816-2.048-5.183-1.372-1.359-3.098-2.045-5.187-2.045z"/><path style="fill:#133f00" d="M68.528 87.27c0-.836 1.195-1.255 3.584-1.255 2.39 0 3.585.418 3.585 1.255 0 .678-.499 1.275-1.494 1.792v3.764c.995.319 1.494.797 1.494 1.434 0 .638-.499 1.116-1.494 1.434v3.764c.995.518 1.494 1.116 1.494 1.792 0 .836-1.195 1.254-3.585 1.254-2.39 0-3.584-.418-3.584-1.254 0-.677.498-1.274 1.494-1.792v-3.764c-.996-.318-1.494-.796-1.494-1.434 0-.637.498-1.115 1.494-1.434v-3.764c-.996-.518-1.494-1.115-1.494-1.792Zm0 20.911c0-.837 1.195-1.255 3.584-1.255 2.39 0 3.585.418 3.585 1.255 0 .678-.499 1.275-1.494 1.792v3.764c.995.319 1.494.797 1.494 1.434 0 .637-.499 1.115-1.494 1.434v3.764c.995.518 1.494 1.115 1.494 1.792 0 .836-1.195 1.254-3.585 1.254-2.39 0-3.584-.418-3.584-1.254 0-.677.498-1.274 1.494-1.792v-3.764c-.996-.318-1.494-.796-1.494-1.434 0-.637.498-1.115 1.494-1.434v-3.764c-.996-.517-1.494-1.115-1.494-1.792zm2.689-20.911v5.258c.199-.04.498-.06.896-.06s.697.021.896.06V87.27c-.2-.039-.499-.06-.896-.06-.399 0-.697.02-.896.06zm0 8.125c.12 0 .278.011.478.03.199.021.338.03.418.03.08 0 .219-.009.418-.03.199-.02.358-.03.478-.03v-2.27c-.12 0-.279-.009-.478-.03-.2-.02-.339-.03-.418-.03-.08 0-.219.01-.418.03-.2.021-.358.03-.478.03zm1.792 5.855v-5.258c-.2.04-.499.06-.896.06-.398 0-.697-.02-.896-.06v5.258c.199.04.498.06.896.06s.697-.02.896-.06zm-1.792 6.931v5.257c.199-.039.498-.06.896-.06s.697.021.896.06v-5.257c-.2-.04-.499-.06-.896-.06-.399 0-.697.02-.896.06zm0 8.125c.12 0 .278.01.478.03.199.021.338.03.418.03.08 0 .219-.009.418-.03.199-.02.358-.03.478-.03v-2.271c-.12 0-.279-.009-.478-.03-.2-.02-.339-.03-.418-.03-.08 0-.219.01-.418.03-.2.021-.358.03-.478.03zm1.792 5.855v-5.258c-.2.04-.499.06-.896.06-.398 0-.697-.02-.896-.06v5.258c.199.04.498.06.896.06s.697-.02.896-.06z" transform="translate(-220.964 -322.33) scale(4.03315)"/></svg>