<svg xmlns="http://www.w3.org/2000/svg" width="139.764" height="200" xml:space="preserve"><path d="M0 185.545V14.455c0-4.013 1.404-7.43 4.215-10.24C7.025 1.404 10.438 0 14.459 0h110.846c4.013 0 7.429 1.408 10.24 4.215 2.807 2.81 4.215 6.227 4.215 10.24v171.086c0 4.013-1.408 7.43-4.215 10.24-2.811 2.811-6.227 4.219-10.24 4.219H14.459c-4.017 0-7.433-1.408-10.244-4.219C1.404 192.971 0 189.558 0 185.545zm14.46 7.227h110.845c2.085 0 3.815-.685 5.182-2.048 1.363-1.368 2.05-3.098 2.05-5.183V14.455c0-2.085-.687-3.815-2.05-5.183-1.367-1.363-3.097-2.048-5.182-2.048H14.459c-2.09 0-3.82.685-5.183 2.048-1.367 1.368-2.048 3.098-2.048 5.183v171.086c0 2.085.681 3.815 2.048 5.183 1.364 1.363 3.094 2.048 5.183 2.048z"/><path style="fill:#00082d" d="M77.43 161.533c1.473 1.474 2.21 3.247 2.21 5.317 0 2.072-.737 3.844-2.21 5.318-1.474 1.474-3.247 2.21-5.317 2.21-2.071 0-3.844-.737-5.317-2.21-1.474-1.474-2.211-3.246-2.211-5.318 0-2.07.737-3.843 2.211-5.317 1.473-1.473 3.246-2.21 5.317-2.21s3.844.738 5.317 2.21zm0 19.119c1.473 1.474 2.21 3.247 2.21 5.317 0 2.071-.737 3.844-2.21 5.317-1.474 1.474-3.247 2.21-5.317 2.21-2.071 0-3.844-.736-5.317-2.21-1.474-1.473-2.211-3.246-2.211-5.317 0-2.07.737-3.843 2.211-5.317 1.473-1.473 3.246-2.21 5.317-2.21 2.071-.001 3.844.737 5.317 2.21zm-.746-9.231c1.254-1.254 1.882-2.778 1.882-4.57 0-1.792-.627-3.316-1.882-4.57-1.255-1.255-2.778-1.882-4.571-1.882-1.793 0-3.315.627-4.57 1.882-1.254 1.254-1.882 2.778-1.882 4.57 0 1.792.628 3.316 1.882 4.57 1.255 1.255 2.778 1.882 4.57 1.882 1.792 0 3.316-.627 4.571-1.882zm0 19.119c1.254-1.255 1.882-2.778 1.882-4.571 0-1.793-.627-3.316-1.882-4.57-1.255-1.255-2.778-1.882-4.571-1.882-1.793 0-3.315.627-4.57 1.882-1.254 1.254-1.882 2.778-1.882 4.57 0 1.792.628 3.316 1.882 4.571 1.255 1.254 2.778 1.882 4.57 1.882 1.792 0 3.316-.628 4.571-1.882zm-.508-27.752c1.115 1.115 1.673 2.47 1.673 4.063 0 1.593-.558 2.948-1.673 4.063-1.116 1.116-2.47 1.673-4.063 1.673-1.593 0-2.948-.558-4.063-1.673-1.116-1.114-1.673-2.469-1.673-4.063 0-1.592.557-2.947 1.673-4.063 1.115-1.115 2.469-1.673 4.063-1.673 1.593 0 2.947.558 4.063 1.673zm0 19.119c1.115 1.115 1.673 2.47 1.673 4.063 0 1.594-.558 2.948-1.673 4.063-1.116 1.115-2.47 1.672-4.063 1.672-1.593 0-2.948-.557-4.063-1.672-1.116-1.115-1.673-2.469-1.673-4.063 0-1.593.557-2.947 1.673-4.063 1.115-1.115 2.469-1.673 4.063-1.673 1.593-.001 2.947.558 4.063 1.673zm-6.214-15.296c0-.079.02-.188.06-.329.039-.139.079-.248.12-.328l-1.972-1.136-1.255.598a5.923 5.923 0 0 0-.179 1.434c0 .478.06.956.179 1.434l1.255.597 1.972-1.135a1.759 1.759 0 0 1-.12-.328 1.274 1.274 0 0 1-.06-.329H68.05v-.479h1.912zm0 19.119c0-.08.02-.188.06-.329.039-.139.079-.249.12-.329l-1.972-1.135-1.255.598a5.917 5.917 0 0 0-.179 1.434c0 .478.06.956.179 1.434l1.255.597 1.972-1.135a1.772 1.772 0 0 1-.12-.329c-.04-.14-.06-.249-.06-.329H68.05v-.478h1.912zm1.912-21.03v-2.271l-1.135-.777c-.996.24-1.813.717-2.449 1.435l.06 1.374 2.031 1.135c.12-.199.278-.358.478-.478l-.956-1.673.358-.239.956 1.673c.08-.04.188-.08.329-.12.139-.039.248-.059.328-.059zm0 4.302c-.08 0-.189-.02-.329-.061a1.888 1.888 0 0 1-.329-.119l-.956 1.673-.358-.239.956-1.673a1.36 1.36 0 0 1-.478-.478l-2.031 1.135-.06 1.374c.636.717 1.453 1.195 2.449 1.434l1.135-.776v-2.27zm0 14.816v-2.27l-1.135-.777c-.996.239-1.813.717-2.449 1.434l.06 1.375 2.031 1.135c.12-.199.278-.359.478-.479l-.956-1.672.358-.239.956 1.673c.08-.039.188-.08.329-.119.139-.04.248-.061.328-.061zm0 4.302c-.08 0-.189-.02-.329-.06a1.878 1.878 0 0 1-.329-.12l-.956 1.673-.358-.239.956-1.672c-.2-.12-.358-.278-.478-.478l-2.031 1.135-.06 1.375c.636.717 1.453 1.195 2.449 1.434l1.135-.776v-2.272zm-1.046-22.554c-.338.338-.508.767-.508 1.284 0 .518.169.947.508 1.285.338.339.767.508 1.285.508.518 0 .946-.169 1.285-.508.338-.338.508-.767.508-1.285 0-.517-.17-.946-.508-1.284-.339-.338-.767-.508-1.285-.508-.518.001-.946.17-1.285.508zm0 19.119c-.338.339-.508.768-.508 1.285 0 .518.169.947.508 1.285.338.339.767.508 1.285.508.518 0 .946-.169 1.285-.508.338-.338.508-.767.508-1.285 0-.517-.17-.945-.508-1.285-.339-.337-.767-.508-1.285-.508-.518 0-.946.17-1.285.508zm1.285-16.998c-.558 0-.836-.278-.836-.836 0-.557.278-.836.836-.836.558 0 .837.279.837.836 0 .558-.28.836-.837.836zm0 19.119c-.558 0-.836-.278-.836-.836 0-.557.278-.836.836-.836.558 0 .837.279.837.836 0 .557-.28.836-.837.836zm1.852-23.6.358.239-.956 1.673c.199.12.358.279.478.478l2.031-1.135.06-1.374c-.638-.717-1.454-1.195-2.449-1.435l-1.135.777v2.271c.079 0 .188.021.329.06.139.041.248.081.329.12zm.359 7.05-.358.239-.956-1.673c-.081.04-.189.08-.329.119-.14.041-.25.061-.329.061v2.27l1.135.776c.995-.239 1.812-.717 2.449-1.434l-.06-1.374-2.031-1.135c-.12.2-.279.358-.478.478zm-.359 12.069.358.239-.956 1.672c.199.12.358.279.478.479l2.031-1.135.06-1.375c-.638-.716-1.454-1.195-2.449-1.434l-1.135.777v2.27a2.145 2.145 0 0 1 .658.179zm.359 7.05-.358.239-.956-1.673a1.91 1.91 0 0 1-.329.12c-.14.04-.25.06-.329.06v2.271l1.135.776c.995-.239 1.812-.717 2.449-1.434l-.06-1.375-2.031-1.135c-.12.2-.279.358-.478.478zm1.852-22.764v.479h-1.912c0 .08-.021.189-.06.329-.04.14-.08.249-.12.328l1.972 1.135 1.255-.597c.119-.478.179-.956.179-1.434s-.06-.956-.179-1.434l-1.255-.598-1.972 1.136c.04.08.08.189.12.328.039.14.06.25.06.329h1.912zm0 19.119v.478h-1.912c0 .081-.021.189-.06.329-.04.14-.08.249-.12.329L76.056 188l1.255-.598c.119-.478.179-.956.179-1.434s-.06-.956-.179-1.434l-1.255-.598-1.972 1.135c.04.08.08.189.12.329.039.14.06.249.06.329h1.912z" transform="translate(-220.969 -611.503) scale(4.03323)"/></svg>