<svg xmlns="http://www.w3.org/2000/svg" width="139.764" height="200" xml:space="preserve"><path d="M139.76 14.46v171.085c0 4.013-1.408 7.43-4.215 10.24-2.811 2.807-6.227 4.215-10.24 4.215H14.459c-4.017 0-7.433-1.408-10.244-4.215C1.404 192.975 0 189.558 0 185.545V14.459c0-4.013 1.404-7.43 4.215-10.24C7.025 1.408 10.438 0 14.459 0h110.846c4.013 0 7.429 1.408 10.24 4.219 2.807 2.81 4.215 6.223 4.215 10.24zM125.3 7.227H14.46c-2.09 0-3.82.685-5.184 2.048-1.367 1.368-2.048 3.098-2.048 5.183v171.086c0 2.085.681 3.815 2.048 5.183 1.364 1.363 3.094 2.048 5.183 2.048h110.846c2.085 0 3.815-.685 5.182-2.048 1.363-1.368 2.05-3.098 2.05-5.183V14.459c0-2.085-.687-3.815-2.05-5.183-1.371-1.363-3.097-2.048-5.187-2.048z"/><path d="M39.518 70.36c4.82 0 13.737-2.368 26.748-7.107 13.011-4.735 21.364-7.11 25.059-7.11 5.622 0 11.123 1.085 16.508 3.254 5.38 2.17 8.07 4.623 8.07 7.349 0 1.444-.762 2.856-2.287 4.215-1.528 1.367-3.255 2.049-5.183 2.049-.645 0-3.734-1.041-9.276-3.134-5.542-2.085-10.482-3.13-14.818-3.13-5.784 0-14.54 1.847-26.264 5.542-11.73 3.698-19.122 5.541-22.171 5.541-5.627 0-9.64-1.282-12.047-3.855.48-1.448 2.968-2.892 7.47-4.34.802 0 2.084.12 3.855.363 1.766.246 3.21.363 4.336.363zm2.17-20.481c0-1.283 4.34-3.13 13.015-5.542a95.281 95.281 0 0 1 3.372-.722 1948.46 1948.46 0 0 1 6.985-1.927l9.64-3.013c3.855-1.206 6.949-2.17 9.28-2.892 2.327-.726 3.977-1.085 4.94-1.085 1.445 0 2.17.327 2.17.964 0 .964-.201 1.928-.6 2.892a17.248 17.248 0 0 1-1.565 2.892c-.646.963-1.049 1.528-1.206 1.685-24.421 6.43-38.155 9.64-41.204 9.64-3.222 0-4.827-.964-4.827-2.892z"/><path style="fill:#870000" d="M69.843 44.133c-.16 0-.478.1-.956.299l-.239.478a4.128 4.128 0 0 1-.538.717c-.597-.358-.896-1.513-.896-3.465 0-1.513.079-2.608.239-3.286 1.473-.239 3.097-.598 4.87-1.076 1.771-.478 2.877-.717 3.316-.717.836 0 1.254.279 1.254.836l-.418 1.553a12.357 12.357 0 0 0-.418 3.227c0 .637.039 1.314.12 2.031.756.04 1.573.16 2.45.358.875.2 1.782.598 2.718 1.195.936.598 1.404 1.295 1.404 2.091 0 .678-.259 1.195-.776 1.553-.519.358-1.175.538-1.972.538-.2 0-.648.13-1.344.389-.697.258-1.225.388-1.583.388-.518 0-1.463-.269-2.838-.807-1.374-.538-2.34-.986-2.897-1.344-.2.08-.409.209-.627.388-.219.18-.389.269-.508.269-.2 0-.836-.159-1.912-.478 0 .041-.011.16-.03.358-.021.2-.04.349-.06.448-.021.1-.04.219-.06.358a.567.567 0 0 1-.149.329.406.406 0 0 1-.299.12c-.12 0-.25-.08-.388-.239a2.047 2.047 0 0 1-.359-.627c-.1-.258-.2-.508-.299-.747a7.046 7.046 0 0 1-.269-.777 4.465 4.465 0 0 0-.179-.538h-.717a5.93 5.93 0 0 1-2.091-.358c-.638-.239-.956-.577-.956-1.016 0-.039.009-.099.03-.179.02-.08.03-.159.03-.239.359 0 .856.04 1.494.12.637.08 1.135.12 1.494.12h.239a18.74 18.74 0 0 0-.239-1.344l-.298-1.434c-.081-.378-.12-.667-.12-.866 0-.079.08-.199.239-.358.478.08.826.309 1.045.687.218.379.408.906.567 1.583.159.678.359 1.235.598 1.673.557 0 1.314-.159 2.27-.478 0-.119.009-.397.03-.836.018-.439.028-.738.028-.897zm7.468-8.185c-1.195 0-2.968.349-5.317 1.045-2.351.697-3.904 1.045-4.66 1.045-2.39 0-3.943-.438-4.66-1.314.717-.438 1.254-.657 1.613-.657.398 0 1.005.1 1.822.299.816.2 1.503.298 2.062.298.796 0 1.334-.079 1.613-.239.278-.159.418-.517.418-1.076 0-.119-.11-.209-.329-.269-.219-.06-.369-.149-.448-.269 0-.159.03-.278.09-.358.06-.079.159-.188.298-.329.139-.139.249-.289.329-.448.079-.12.229-.368.448-.747.219-.378.398-.637.538-.777a.693.693 0 0 1 .508-.209c.278 0 .418.2.418.597 0 .319-.03.648-.089.986a8.14 8.14 0 0 1-.299 1.135 6.78 6.78 0 0 0-.269.986c.08.2.219.299.418.299.239 0 .587-.458 1.046-1.375.458-.916.687-1.573.687-1.971 0-.239-.13-.468-.388-.687-.26-.219-.429-.389-.508-.508.318-.717 1.016-1.274 2.091-1.673.796.279 1.195 1.016 1.195 2.21 0 .398-.169.876-.508 1.434-.339.559-.528 1.076-.567 1.554.318-.04.756-.12 1.314-.239.557-.12 1.115-.209 1.673-.269.557-.06 1.155-.09 1.792-.09 1.274 0 2.011.14 2.211.418a2.68 2.68 0 0 1-1.314 1.254c-.52-.036-1.596-.056-3.228-.056zm-9.56 11.65c.159.398.299.717.418.956.557-.12 1.195-.338 1.912-.657-.2-.239-.299-.557-.299-.956zm.896-7.887v1.076h.12l.12.06 1.076-.179c0-.318.039-.717.119-1.195zm1.196 1.972c-.239.041-.499.081-.777.12-.239 0-.369.021-.388.06a.605.605 0 0 0-.03.239v.239c0 .081.01.219.03.418.02.2.03.339.03.418.199 0 .577-.039 1.135-.119zm1.493-2.509c0 .2-.03.418-.09.658-.06.239-.089.438-.089.597.397-.08.856-.169 1.374-.269.517-.099.896-.169 1.135-.209 0-.199.009-.438.03-.717.02-.278.03-.498.03-.657a20.2 20.2 0 0 0-1.254.329 8.634 8.634 0 0 1-1.136.268zm-.179 2.27v1.314c.557-.04 1.354-.219 2.39-.538 0-.598.02-1.055.06-1.375-.877.281-1.694.48-2.45.599zm.119 2.39v1.613a11.548 11.548 0 0 0 2.33-.657c0-.677-.021-1.195-.06-1.553-.2.08-.548.179-1.045.299-.498.119-.906.219-1.225.298zm.06 2.688c0 .638.099.956.299.956.159 0 .329-.03.508-.089.179-.06.418-.149.717-.269.299-.12.587-.218.866-.299-.08-.438-.1-.756-.06-.956-.239.041-1.015.26-2.33.657zm5.019-.716c0 .081.03.26.089.538.06.279.09.519.09.717 0 .2-.06.418-.179.657-.757.518-1.494.776-2.21.776-.041-.039-.1-.159-.179-.358a7.026 7.026 0 0 0-.18-.418c-.239.08-.508.219-.806.418-.299.2-.548.339-.747.418.159.239.558.488 1.195.747.637.26 1.135.389 1.494.389.239 0 .468-.05.688-.149.218-.099.457-.249.717-.448.258-.199.467-.338.627-.418.199-.08.587-.139 1.166-.18.577-.039 1.015-.149 1.314-.328.299-.18.448-.488.448-.926 0-.318-.418-.627-1.254-.926-.836-.299-1.596-.469-2.273-.509z" transform="translate(-220.969 -33.177) scale(4.03323)"/></svg>