<svg xmlns="http://www.w3.org/2000/svg" width="139.764" height="200" xml:space="preserve"><path d="M139.76 14.46v171.085c0 4.013-1.408 7.43-4.215 10.24-2.811 2.807-6.227 4.215-10.245 4.215H14.455c-4.017 0-7.43-1.408-10.24-4.215C1.404 192.975 0 189.558 0 185.545V14.459c0-4.013 1.404-7.43 4.215-10.24C7.025 1.408 10.438 0 14.455 0H125.3c4.018 0 7.43 1.408 10.245 4.219 2.807 2.81 4.215 6.223 4.215 10.24zM125.3 7.227H14.455c-2.09 0-3.815.685-5.179 2.048-1.367 1.368-2.048 3.098-2.048 5.183v171.086c0 2.085.681 3.815 2.048 5.183 1.364 1.363 3.09 2.048 5.18 2.048H125.3c2.09 0 3.816-.685 5.183-2.048 1.363-1.368 2.05-3.098 2.05-5.183V14.459c0-2.085-.687-3.815-2.05-5.183-1.367-1.363-3.093-2.048-5.183-2.048z"/><path d="M74.458 71.566c-2.574 0-8.357 1.569-17.351 4.698-8.999 3.134-16.867 4.7-23.615 4.7-5.945 0-9.079-.88-9.397-2.65 0-.642 1.326-1.485 3.976-2.53 2.65-1.04 5.179-1.726 7.59-2.048.965-.158 2.808-.36 5.543-.601 2.73-.242 5.703-.642 8.913-1.206 3.21-.565 6.828-1.408 10.845-2.53a255.573 255.573 0 0 0 12.29-3.496 786.48 786.48 0 0 1 8.191-2.529 64.966 64.966 0 0 1 4.578-1.206c1.444-.318 2.65-.484 3.614-.484 1.448 0 4.34 1.049 8.675 3.134 2.085.964 4.856 2.013 8.313 3.134 3.452 1.125 5.82 2.17 7.106 3.13 1.283.964 1.928 2.33 1.928 4.097 0 1.444-.6 3.175-1.807 5.183-1.206 2.013-2.529 3.013-3.977 3.013-1.286 0-4.904-1.686-10.845-5.058-5.945-3.371-10.12-5.38-12.527-6.025-3.368-.484-7.385-.726-12.043-.726zM37.11 60.962c0-.641 1.327-1.6 3.977-2.891 2.65-1.283 4.376-1.928 5.182-1.928.158 0 .642.04 1.444.12.803.085 1.767.122 2.892.122 3.05 0 9.64-1.602 19.759-4.82 10.12-3.21 16.145-4.82 18.073-4.82 1.282 0 1.928.645 1.928 1.928 0 2.09-1.448 4.336-4.34 6.748-16.867 6.106-28.838 9.155-35.904 9.155-2.57 0-5.38-.319-8.433-.964-3.054-.637-4.578-1.52-4.578-2.65zm3.372-17.831c0-.48 1.085-1.282 3.254-2.407 2.17-1.122 3.816-1.686 4.941-1.686.641 0 1.444.084 2.412.242a16.19 16.19 0 0 0 2.65.242c2.892 0 7.55-.803 13.975-2.412 6.425-1.601 12.29-3.21 17.589-4.82 5.3-1.601 8.11-2.408 8.433-2.408 1.448 0 2.17.646 2.17 1.928 0 .964-.843 2.408-2.529 4.336-1.685 1.928-3.335 3.372-4.94 4.34-4.663.806-11.29 2.286-19.88 4.456-8.595 2.17-14.258 3.255-16.988 3.255-2.255 0-4.662-.56-7.228-1.686-2.577-1.125-3.86-2.254-3.86-3.38z"/><path style="fill:#870000" d="M108.08 44.133c-.16 0-.478.1-.956.299l-.239.478c-.2.319-.379.558-.538.717-.598-.358-.896-1.513-.896-3.465 0-1.513.08-2.608.239-3.286 1.473-.239 3.096-.598 4.869-1.076 1.772-.478 2.877-.717 3.316-.717.836 0 1.255.279 1.255.836l-.418 1.553a12.357 12.357 0 0 0-.418 3.227c0 .637.039 1.314.12 2.031.756.04 1.573.16 2.449.358.876.2 1.782.598 2.719 1.195.935.598 1.404 1.295 1.404 2.091 0 .678-.259 1.195-.777 1.553-.518.358-1.175.538-1.972.538-.2 0-.647.13-1.344.389-.698.258-1.225.388-1.583.388-.518 0-1.464-.269-2.838-.807-1.375-.538-2.34-.986-2.898-1.344-.2.08-.409.209-.627.388-.219.18-.388.269-.508.269-.199 0-.836-.159-1.912-.478 0 .041-.01.16-.03.358-.021.2-.04.349-.06.448-.021.1-.04.219-.06.358a.573.573 0 0 1-.149.329.405.405 0 0 1-.299.12c-.119 0-.249-.08-.388-.239a2.046 2.046 0 0 1-.358-.627c-.1-.258-.2-.508-.299-.747a7.046 7.046 0 0 1-.269-.777 4.465 4.465 0 0 0-.179-.538h-.717c-.757 0-1.455-.12-2.091-.358-.637-.239-.956-.577-.956-1.016 0-.039.009-.099.03-.179.02-.08.03-.159.03-.239.358 0 .856.04 1.494.12.637.08 1.135.12 1.494.12h.239c-.041-.318-.12-.767-.239-1.344l-.298-1.434c-.081-.378-.12-.667-.12-.866 0-.079.08-.199.239-.358.478.08.826.309 1.045.687.219.379.408.906.568 1.583.159.678.358 1.235.597 1.673.557 0 1.314-.159 2.271-.478 0-.119.009-.397.03-.836.017-.439.028-.738.028-.897zm7.468-8.185c-1.195 0-2.967.349-5.317 1.045-2.351.697-3.904 1.045-4.66 1.045-2.39 0-3.943-.438-4.66-1.314.717-.438 1.255-.657 1.613-.657.397 0 1.005.1 1.822.299.816.2 1.503.298 2.061.298.796 0 1.334-.079 1.613-.239.278-.159.418-.517.418-1.076 0-.119-.11-.209-.328-.269-.22-.06-.369-.149-.448-.269 0-.159.03-.278.089-.358a3.66 3.66 0 0 1 .299-.329c.139-.139.249-.289.329-.448.08-.12.229-.368.448-.747.218-.378.397-.637.538-.777a.691.691 0 0 1 .508-.209c.278 0 .418.2.418.597 0 .319-.03.648-.09.986a8.14 8.14 0 0 1-.299 1.135c-.14.418-.229.747-.269.986.079.2.218.299.418.299.239 0 .587-.458 1.045-1.375.458-.916.688-1.573.688-1.971 0-.239-.13-.468-.389-.687-.259-.219-.429-.389-.508-.508.318-.717 1.016-1.274 2.091-1.673.796.279 1.195 1.016 1.195 2.21 0 .398-.17.876-.508 1.434-.339.559-.528 1.076-.568 1.554.318-.04.756-.12 1.315-.239.557-.12 1.114-.209 1.672-.269.558-.06 1.155-.09 1.792-.09 1.274 0 2.011.14 2.211.418a2.68 2.68 0 0 1-1.314 1.254c-.517-.036-1.592-.056-3.225-.056zm-9.559 11.65c.159.398.298.717.418.956.558-.12 1.195-.338 1.912-.657-.2-.239-.299-.557-.299-.956zm.896-7.887v1.076h.12l.12.06 1.075-.179c0-.318.04-.717.12-1.195zm1.195 1.972c-.239.041-.499.081-.777.12-.239 0-.369.021-.389.06a.605.605 0 0 0-.03.239v.239c0 .081.009.219.03.418.02.2.03.339.03.418.199 0 .577-.039 1.136-.119zm1.493-2.509c0 .2-.03.418-.089.658-.06.239-.09.438-.09.597.398-.08.856-.169 1.375-.269.517-.099.896-.169 1.135-.209 0-.199.01-.438.03-.717.02-.278.03-.498.03-.657-.359.08-.777.189-1.255.329a8.671 8.671 0 0 1-1.136.268zm-.179 2.27v1.314c.558-.04 1.354-.219 2.39-.538 0-.598.02-1.055.06-1.375-.877.281-1.694.48-2.45.599zm.12 2.39v1.613a11.566 11.566 0 0 0 2.33-.657c0-.677-.021-1.195-.06-1.553-.2.08-.548.179-1.046.299-.498.119-.906.219-1.224.298zm.059 2.688c0 .638.099.956.299.956.159 0 .329-.03.508-.089.179-.06.418-.149.717-.269a9.14 9.14 0 0 1 .867-.299c-.081-.438-.1-.756-.06-.956-.239.041-1.016.26-2.331.657zm5.019-.716c0 .081.03.26.09.538.06.279.089.519.089.717 0 .2-.06.418-.179.657-.757.518-1.494.776-2.21.776-.04-.039-.1-.159-.179-.358a7.207 7.207 0 0 0-.179-.418c-.239.08-.508.219-.807.418-.299.2-.548.339-.747.418.159.239.557.488 1.195.747.637.26 1.135.389 1.494.389.239 0 .468-.05.687-.149.218-.099.458-.249.717-.448a4.26 4.26 0 0 1 .627-.418c.199-.08.587-.139 1.165-.18.577-.039 1.016-.149 1.314-.328.299-.18.448-.488.448-.926 0-.318-.418-.627-1.255-.926-.837-.299-1.593-.469-2.27-.509z" transform="translate(-375.188 -33.177) scale(4.03323)"/></svg>