<svg xmlns="http://www.w3.org/2000/svg" width="139.764" height="200" xml:space="preserve"><path d="M139.76 14.46v171.085c0 4.013-1.408 7.43-4.215 10.24-2.811 2.807-6.227 4.215-10.245 4.215H14.455c-4.017 0-7.43-1.408-10.24-4.215C1.404 192.975 0 189.558 0 185.545V14.459c0-4.013 1.404-7.43 4.215-10.24C7.025 1.408 10.438 0 14.455 0H125.3c4.018 0 7.43 1.408 10.245 4.219 2.803 2.81 4.215 6.223 4.215 10.24zM125.3 7.227H14.455c-2.09 0-3.815.685-5.179 2.048-1.367 1.368-2.048 3.098-2.048 5.183v171.086c0 2.085.681 3.815 2.048 5.183 1.364 1.363 3.09 2.048 5.18 2.048H125.3c2.09 0 3.816-.685 5.183-2.048 1.363-1.368 2.05-3.098 2.05-5.183V14.459c0-2.085-.687-3.815-2.05-5.183-1.371-1.363-3.097-2.048-5.183-2.048z"/><path style="fill:#870000" d="M146.317 44.133c-.16 0-.478.1-.956.299l-.239.478c-.2.319-.379.558-.538.717-.598-.358-.896-1.513-.896-3.465 0-1.513.08-2.608.239-3.286 1.473-.239 3.096-.598 4.869-1.076 1.772-.478 2.877-.717 3.316-.717.836 0 1.255.279 1.255.836l-.418 1.553a12.357 12.357 0 0 0-.418 3.227c0 .637.039 1.314.12 2.031.756.04 1.573.16 2.449.358.876.2 1.782.598 2.719 1.195.935.598 1.404 1.295 1.404 2.091 0 .678-.259 1.195-.777 1.553-.518.358-1.175.538-1.972.538-.2 0-.647.13-1.344.389-.698.258-1.225.388-1.583.388-.518 0-1.464-.269-2.838-.807-1.375-.538-2.34-.986-2.898-1.344-.2.08-.409.209-.627.388-.219.18-.388.269-.508.269-.199 0-.836-.159-1.912-.478 0 .041-.01.16-.03.358-.021.2-.04.349-.06.448-.021.1-.04.219-.06.358a.573.573 0 0 1-.149.329.405.405 0 0 1-.299.12c-.119 0-.249-.08-.388-.239a2.046 2.046 0 0 1-.358-.627c-.1-.258-.2-.508-.299-.747a7.046 7.046 0 0 1-.269-.777 4.465 4.465 0 0 0-.179-.538h-.717c-.757 0-1.455-.12-2.091-.358-.637-.239-.956-.577-.956-1.016 0-.039.009-.099.03-.179.02-.08.03-.159.03-.239.358 0 .856.04 1.494.12.637.08 1.135.12 1.494.12h.239c-.041-.318-.12-.767-.239-1.344l-.298-1.434c-.081-.378-.12-.667-.12-.866 0-.079.08-.199.239-.358.478.08.826.309 1.045.687.219.379.408.906.568 1.583.159.678.358 1.235.597 1.673.557 0 1.314-.159 2.271-.478 0-.119.009-.397.03-.836.018-.439.028-.738.028-.897zm7.468-8.185c-1.195 0-2.967.349-5.317 1.045-2.351.697-3.904 1.045-4.66 1.045-2.39 0-3.943-.438-4.66-1.314.717-.438 1.255-.657 1.613-.657.397 0 1.005.1 1.822.299.816.2 1.503.298 2.061.298.796 0 1.334-.079 1.613-.239.278-.159.418-.517.418-1.076 0-.119-.11-.209-.328-.269-.22-.06-.369-.149-.448-.269 0-.159.03-.278.089-.358a3.66 3.66 0 0 1 .299-.329c.139-.139.249-.289.329-.448.08-.12.229-.368.448-.747.218-.378.397-.637.538-.777a.691.691 0 0 1 .508-.209c.278 0 .418.2.418.597 0 .319-.03.648-.09.986a8.14 8.14 0 0 1-.299 1.135c-.14.418-.229.747-.269.986.079.2.218.299.418.299.239 0 .587-.458 1.045-1.375.458-.916.688-1.573.688-1.971 0-.239-.13-.468-.389-.687-.259-.219-.429-.389-.508-.508.318-.717 1.016-1.274 2.091-1.673.796.279 1.195 1.016 1.195 2.21 0 .398-.17.876-.508 1.434-.339.559-.528 1.076-.568 1.554.318-.04.756-.12 1.315-.239.557-.12 1.114-.209 1.672-.269.558-.06 1.155-.09 1.792-.09 1.274 0 2.011.14 2.211.418a2.68 2.68 0 0 1-1.314 1.254c-.516-.036-1.592-.056-3.225-.056zm-9.559 11.65c.159.398.298.717.418.956.558-.12 1.195-.338 1.912-.657-.2-.239-.299-.557-.299-.956zm.896-7.887v1.076h.12l.12.06 1.075-.179c0-.318.04-.717.12-1.195zm1.195 1.972c-.239.041-.499.081-.777.12-.239 0-.369.021-.389.06a.605.605 0 0 0-.03.239v.239c0 .081.009.219.03.418.02.2.03.339.03.418.199 0 .577-.039 1.136-.119zm1.494-2.509c0 .2-.03.418-.089.658-.06.239-.09.438-.09.597.398-.08.856-.169 1.375-.269.517-.099.896-.169 1.135-.209 0-.199.01-.438.03-.717.019-.278.03-.498.03-.657-.359.08-.777.189-1.255.329a8.708 8.708 0 0 1-1.136.268zm-.18 2.27v1.314c.558-.04 1.354-.219 2.39-.538 0-.598.02-1.055.06-1.375-.877.281-1.693.48-2.45.599zm.12 2.39v1.613a11.566 11.566 0 0 0 2.33-.657c0-.677-.021-1.195-.06-1.553-.2.08-.548.179-1.046.299-.498.119-.906.219-1.224.298zm.06 2.688c0 .638.099.956.299.956.159 0 .329-.03.508-.089.179-.06.418-.149.717-.269a9.14 9.14 0 0 1 .867-.299c-.081-.438-.1-.756-.06-.956-.24.041-1.017.26-2.331.657zm5.018-.716c0 .081.03.26.09.538.06.279.089.519.089.717 0 .2-.06.418-.179.657-.757.518-1.494.776-2.21.776-.04-.039-.1-.159-.179-.358a7.207 7.207 0 0 0-.179-.418c-.239.08-.508.219-.807.418-.299.2-.548.339-.747.418.159.239.557.488 1.195.747.637.26 1.135.389 1.494.389.239 0 .468-.05.687-.149.218-.099.458-.249.717-.448a4.26 4.26 0 0 1 .627-.418c.199-.08.587-.139 1.165-.18.577-.039 1.016-.149 1.314-.328.299-.18.448-.488.448-.926 0-.318-.418-.627-1.255-.926-.837-.299-1.593-.469-2.27-.509z" transform="translate(-529.41 -33.177) scale(4.03323)"/><path d="M20.719 50.843c.637-1.121 1.524-1.686 2.65-1.686 1.443 0 5.38 1.206 11.805 3.614 17.67-7.066 30.52-11.406 38.558-13.011.157-.323.399-1.045.721-2.17.32-1.121.642-1.928.964-2.408.323-.484.722-.722 1.206-.722s1.085.323 1.807.964a28.962 28.962 0 0 1 2.17 2.17c.722.806 1.166 1.286 1.327 1.444a108.856 108.856 0 0 1 22.65 4.34c5.623 1.605 9.434 3.335 11.447 5.182 2.009 1.847 3.013 4.699 3.013 8.555 0 2.089-1.928 4.94-5.784 8.554s-7.348 6.47-10.482 8.555a589.114 589.114 0 0 1-8.07 5.3c-.965-.158-2.332-.682-4.098-1.566-1.771-.883-3.735-1.605-5.905-2.17-2.17-.56-4.784-.842-7.833-.842-4.82 0-9.64 1.367-14.455 4.097-4.82 2.735-7.873 4.098-9.16 4.098a7.24 7.24 0 0 1-2.286-.359c-.722-.242-1.488-.681-2.29-1.327-.808-.641-1.409-1.202-1.808-1.686a73.602 73.602 0 0 0-1.928-2.17 82.519 82.519 0 0 0-1.807-1.927c-1.605-1.606-3.654-3.53-6.142-5.784-2.493-2.247-4.26-3.933-5.3-5.058-1.044-1.121-2.529-2.851-4.457-5.183-1.932-2.335-4.101-5.27-6.513-8.804zm24.34 4.578c-2.573 0-4.178.161-4.82.48.642 1.125 1.243 2.049 1.807 2.774a23.275 23.275 0 0 0 1.928 2.17c.722.722 2.247 2.332 4.578 4.82 2.327 2.493 5.017 5.344 8.07 8.555l2.892-1.444c-.165-2.73-.645-5.941-1.448-9.64-.806-3.694-1.201-5.94-1.201-6.747 0-1.602-.404-2.73-1.206-3.372-.964.165-2.13.484-3.497.964s-2.61.843-3.735 1.085a16.197 16.197 0 0 1-3.368.355zm20.001-5.542c1.444 4.662 2.17 7.393 2.17 8.196 0 2.891-.565 7.312-1.686 13.253.641-.162 1.565-.4 2.77-.726 1.207-.319 2.05-.56 2.53-.722.641-10.277 1.206-17.67 1.686-22.17-2.574 0-5.062.725-7.47 2.169zm13.733 19.279c1.767 0 3.892.12 6.385.359 2.488.242 4.618.484 6.384.722 1.767.242 2.731.359 2.892.359.964 0 2.73-2.17 5.3-6.506 2.57-4.34 3.856-6.99 3.856-7.953 0-1.283-2.408-3.134-7.228-5.542-4.82-2.412-8.675-3.775-11.567-4.098 0 .161.036.403.12.722.082.323.122.565.122.722 0 1.125-.887 4.098-2.65 8.913-1.77 4.832-2.972 8.926-3.614 12.302z"/></svg>