<svg xmlns="http://www.w3.org/2000/svg" width="139.764" height="200" xml:space="preserve"><path d="M139.76 14.46v171.085c0 4.013-1.408 7.43-4.215 10.24-2.811 2.807-6.227 4.215-10.245 4.215H14.455c-4.017 0-7.43-1.408-10.24-4.215C1.404 192.975 0 189.558 0 185.545V14.459c0-4.013 1.404-7.43 4.215-10.24C7.025 1.408 10.438 0 14.455 0H125.3c4.018 0 7.43 1.408 10.245 4.219 2.807 2.81 4.215 6.223 4.215 10.24zM125.3 7.227H14.455c-2.09 0-3.815.685-5.179 2.048-1.367 1.368-2.048 3.098-2.048 5.183v171.086c0 2.085.681 3.815 2.048 5.183 1.364 1.363 3.09 2.048 5.18 2.048H125.3c2.09 0 3.816-.685 5.183-2.048 1.363-1.368 2.05-3.098 2.05-5.183V14.459c0-2.085-.687-3.815-2.05-5.183-1.367-1.363-3.097-2.048-5.183-2.048z"/><path d="M49.637 66.746c-4.017 4.017-8.837 7.712-14.46 11.083-5.626 3.372-9.72 5.062-12.288 5.062-1.287 0-2.17-.323-2.65-.964 6.905-3.376 13.814-8.272 20.723-14.701 6.904-6.425 10.36-12.047 10.36-16.867 0-.803-.12-1.525-.358-2.17-.242-.641-.686-1.403-1.327-2.29-.645-.88-1.049-1.485-1.206-1.808.964-.964 1.726-2.125 2.29-3.492.562-1.364 1.086-2.368 1.566-3.013.641-.642 1.565-1.327 2.77-2.05 1.203-.721 2.05-1.326 2.53-1.806.318.323 1.326 1.045 3.012 2.17s2.932 2.331 3.735 3.614c3.695 0 9.918-1.928 18.674-5.784s13.213-5.784 13.374-5.784c11.567 0 17.347 1.606 17.347 4.82 0 4.178-1.528 6.264-4.578 6.264-1.286 0-3.295-.4-6.025-1.202-2.735-.803-4.82-1.206-6.268-1.206-2.408 0-6.985 1.605-13.733 4.82-5.142 2.573-8.115 6.666-8.918 12.289 5.139-1.601 8.273-2.892 9.402-3.856 1.121-.964 1.843-2.489 2.17-4.578 3.21.323 5.3 1.605 6.263 3.856.642.48.722 1.686.242 3.614-.484 1.928-.726 3.13-.726 3.614 0 1.609.323 4.9.964 9.881 2.247 1.125 6.103 2.735 11.568 4.82 5.46 2.089 9.397 3.94 11.809 5.541 2.408 1.61 3.614 3.614 3.614 6.026 0 1.61-.525 3.013-1.565 4.219-1.049 1.206-2.291 1.807-3.735 1.807-.964 0-3.94-1.565-8.913-4.699-4.981-3.134-9.801-4.703-14.46-4.703-.963 0-2.012.121-3.133.363-1.126.242-1.848.363-2.17.363-1.125 0-1.686-.322-1.686-.964 0-.157.08-.641.242-1.444.161-.802.242-1.766.242-2.891a136.826 136.826 0 0 1-8.797 3.254 574.542 574.542 0 0 0-7.11 2.408 48.847 48.847 0 0 0-4.699 1.928c-1.528.722-2.613 1.444-3.255 2.17a3.679 3.679 0 0 0-.964 2.529c-.165.326-.722.48-1.686.48-2.734 0-4.9-.88-6.505-2.65-1.605-1.767-2.408-3.937-2.408-6.506 0-1.12.4-2.569 1.202-4.335.803-1.767 1.206-3.21 1.206-4.34.004-1.444-.56-2.408-1.682-2.892zm6.506-5.058c-.162.484-.242 1.206-.242 2.17 0 1.287.278 2.936.843 4.94.56 2.013.843 3.336.843 3.978 0 .161-.045.363-.121.6a1.988 1.988 0 0 0-.121.602c.802.645 1.685.806 2.65.48 1.766-1.767 3.29-5.542 4.577-11.326-.161 0-.484.04-.964.121a7.156 7.156 0 0 1-1.206.121c-3.368 0-5.457-.56-6.26-1.686zm8.195-20c0 .326-.04 1.65-.12 3.976-.082 2.331-.36 4.457-.844 6.385-.48 1.928-1.206 3.134-2.17 3.614.319 1.444.803 2.17 1.444 2.17 1.444 0 3.134-.561 5.062-1.686 2.408-5.784 3.614-9.236 3.614-10.362 0-1.282-.763-2.287-2.287-3.013-1.533-.726-3.098-1.084-4.699-1.084zm3.372 32.77c3.694 0 9.236-1.928 16.629-5.784-.165-.641-.242-1.686-.242-3.13 0-.641.036-1.565.121-2.77.08-1.207.12-1.965.12-2.292 0-3.049-.806-4.577-2.41-4.577-.485 0-1.247.326-2.288.964a322.914 322.914 0 0 0-3.856 2.411c-1.528.964-2.855 1.686-3.976 2.17-2.735 4.977-4.098 9.313-4.098 13.008z"/><path style="fill:#870000" d="M184.555 44.133c-.16 0-.478.1-.956.299l-.239.478c-.2.319-.379.558-.538.717-.598-.358-.896-1.513-.896-3.465 0-1.513.08-2.608.239-3.286 1.473-.239 3.096-.598 4.869-1.076 1.772-.478 2.877-.717 3.316-.717.836 0 1.255.279 1.255.836l-.418 1.553a12.357 12.357 0 0 0-.418 3.227c0 .637.039 1.314.12 2.031.756.04 1.573.16 2.449.358.876.2 1.782.598 2.719 1.195.935.598 1.404 1.295 1.404 2.091 0 .678-.259 1.195-.777 1.553-.518.358-1.175.538-1.972.538-.2 0-.647.13-1.344.389-.698.258-1.225.388-1.583.388-.518 0-1.464-.269-2.838-.807-1.375-.538-2.34-.986-2.898-1.344-.2.08-.409.209-.627.388-.219.18-.388.269-.508.269-.199 0-.836-.159-1.912-.478 0 .041-.01.16-.03.358-.021.2-.04.349-.06.448-.021.1-.04.219-.06.358a.573.573 0 0 1-.149.329.405.405 0 0 1-.299.12c-.119 0-.249-.08-.388-.239a2.046 2.046 0 0 1-.358-.627c-.1-.258-.2-.508-.299-.747a7.046 7.046 0 0 1-.269-.777 4.465 4.465 0 0 0-.179-.538h-.717c-.757 0-1.455-.12-2.091-.358-.637-.239-.956-.577-.956-1.016 0-.039.009-.099.03-.179.02-.08.03-.159.03-.239.358 0 .856.04 1.494.12.637.08 1.135.12 1.494.12h.239c-.041-.318-.12-.767-.239-1.344l-.298-1.434c-.081-.378-.12-.667-.12-.866 0-.079.08-.199.239-.358.478.08.826.309 1.045.687.219.379.408.906.568 1.583.159.678.358 1.235.597 1.673.557 0 1.314-.159 2.271-.478 0-.119.009-.397.03-.836.017-.439.028-.738.028-.897zm7.467-8.185c-1.195 0-2.967.349-5.317 1.045-2.351.697-3.904 1.045-4.66 1.045-2.39 0-3.943-.438-4.66-1.314.717-.438 1.255-.657 1.613-.657.397 0 1.005.1 1.822.299.816.2 1.503.298 2.061.298.796 0 1.334-.079 1.613-.239.278-.159.418-.517.418-1.076 0-.119-.11-.209-.328-.269-.22-.06-.369-.149-.448-.269 0-.159.03-.278.089-.358a3.66 3.66 0 0 1 .299-.329c.139-.139.249-.289.329-.448.08-.12.229-.368.448-.747.218-.378.397-.637.538-.777a.691.691 0 0 1 .508-.209c.278 0 .418.2.418.597 0 .319-.03.648-.09.986a8.14 8.14 0 0 1-.299 1.135c-.14.418-.229.747-.269.986.079.2.218.299.418.299.239 0 .587-.458 1.045-1.375.458-.916.688-1.573.688-1.971 0-.239-.13-.468-.389-.687-.259-.219-.429-.389-.508-.508.318-.717 1.016-1.274 2.091-1.673.796.279 1.195 1.016 1.195 2.21 0 .398-.17.876-.508 1.434-.339.559-.528 1.076-.568 1.554.318-.04.756-.12 1.315-.239.557-.12 1.114-.209 1.672-.269.558-.06 1.155-.09 1.792-.09 1.274 0 2.011.14 2.211.418a2.68 2.68 0 0 1-1.314 1.254c-.516-.036-1.592-.056-3.225-.056zm-9.559 11.65c.159.398.298.717.418.956.558-.12 1.195-.338 1.912-.657-.2-.239-.299-.557-.299-.956zm.896-7.887v1.076h.12l.12.06 1.075-.179c0-.318.04-.717.12-1.195zm1.196 1.972c-.239.041-.499.081-.777.12-.239 0-.369.021-.389.06a.605.605 0 0 0-.03.239v.239c0 .081.009.219.03.418.02.2.03.339.03.418.199 0 .577-.039 1.136-.119zm1.493-2.509c0 .2-.03.418-.089.658-.06.239-.09.438-.09.597.398-.08.856-.169 1.375-.269.517-.099.896-.169 1.135-.209 0-.199.01-.438.03-.717.019-.278.03-.498.03-.657-.359.08-.777.189-1.255.329a8.708 8.708 0 0 1-1.136.268zm-.179 2.27v1.314c.558-.04 1.354-.219 2.39-.538 0-.598.02-1.055.06-1.375-.878.281-1.694.48-2.45.599zm.119 2.39v1.613a11.566 11.566 0 0 0 2.33-.657c0-.677-.021-1.195-.06-1.553-.2.08-.548.179-1.046.299-.498.119-.905.219-1.224.298zm.06 2.688c0 .638.099.956.299.956.159 0 .329-.03.508-.089.179-.06.418-.149.717-.269a9.14 9.14 0 0 1 .867-.299c-.081-.438-.1-.756-.06-.956-.24.041-1.017.26-2.331.657zm5.018-.716c0 .081.03.26.09.538.06.279.089.519.089.717 0 .2-.06.418-.179.657-.757.518-1.494.776-2.21.776-.04-.039-.1-.159-.179-.358a7.207 7.207 0 0 0-.179-.418c-.239.08-.508.219-.807.418-.299.2-.548.339-.747.418.159.239.557.488 1.195.747.637.26 1.135.389 1.494.389.239 0 .468-.05.687-.149.218-.099.458-.249.717-.448a4.26 4.26 0 0 1 .627-.418c.199-.08.587-.139 1.165-.18.577-.039 1.016-.149 1.314-.328.299-.18.448-.488.448-.926 0-.318-.418-.627-1.255-.926-.837-.299-1.592-.469-2.27-.509z" transform="translate(-683.63 -33.177) scale(4.03323)"/></svg>