<svg xmlns="http://www.w3.org/2000/svg" width="139.764" height="200" xml:space="preserve"><path d="M139.764 14.455v171.086c0 4.013-1.412 7.43-4.22 10.24-2.81 2.811-6.226 4.219-10.244 4.219H14.455c-4.017 0-7.43-1.408-10.24-4.219C1.404 192.971 0 189.554 0 185.541V14.455c0-4.013 1.404-7.43 4.215-10.24C7.025 1.404 10.438 0 14.455 0H125.3c4.018 0 7.43 1.408 10.245 4.215 2.807 2.81 4.219 6.227 4.219 10.24zM125.3 7.228H14.455c-2.09 0-3.815.685-5.179 2.048-1.367 1.368-2.048 3.098-2.048 5.183v171.086c0 2.085.681 3.815 2.048 5.183 1.364 1.363 3.09 2.048 5.18 2.048H125.3c2.09 0 3.816-.685 5.183-2.048 1.363-1.368 2.05-3.098 2.05-5.183V14.455c0-2.085-.683-3.815-2.05-5.183-1.367-1.359-3.093-2.044-5.183-2.044z"/><path style="fill:#00082d" d="M215.204 181.189c0-1.394.498-2.588 1.494-3.584.995-.995 2.19-1.494 3.584-1.494 1.076 0 2.051.31 2.928.927a4.956 4.956 0 0 1 1.852 2.419 4.946 4.946 0 0 1 1.852-2.419 4.97 4.97 0 0 1 2.928-.927c1.394 0 2.589.499 3.584 1.494.995.996 1.494 2.191 1.494 3.584a4.968 4.968 0 0 1-.926 2.928 4.949 4.949 0 0 1-2.42 1.852 4.95 4.95 0 0 1 2.42 1.853c.617.876.926 1.852.926 2.927 0 1.395-.499 2.59-1.494 3.584-.996.995-2.19 1.494-3.584 1.494a4.968 4.968 0 0 1-2.928-.926 4.94 4.94 0 0 1-1.852-2.42 4.945 4.945 0 0 1-1.852 2.42 4.968 4.968 0 0 1-2.928.926c-1.395 0-2.589-.499-3.584-1.494-.996-.995-1.494-2.189-1.494-3.584 0-1.076.308-2.051.926-2.927a4.952 4.952 0 0 1 2.42-1.853 4.944 4.944 0 0 1-2.42-1.852 4.96 4.96 0 0 1-.926-2.928zm2.121-2.957c-.816.816-1.225 1.803-1.225 2.957 0 1.156.408 2.142 1.225 2.958.816.816 1.802 1.224 2.958 1.224 1.155 0 2.141-.408 2.958-1.224.816-.816 1.225-1.802 1.225-2.958 0-1.154-.409-2.141-1.225-2.957-.817-.816-1.803-1.225-2.958-1.225-1.157 0-2.142.41-2.958 1.225zm0 9.56c-.816.817-1.225 1.803-1.225 2.958 0 1.155.408 2.142 1.225 2.958.816.816 1.802 1.225 2.958 1.225 1.155 0 2.141-.409 2.958-1.225.816-.816 1.225-1.802 1.225-2.958 0-1.155-.409-2.141-1.225-2.958-.817-.816-1.803-1.225-2.958-1.225-1.157-.001-2.142.409-2.958 1.225zm4.69-1.823c1.473.558 2.489 1.574 3.047 3.047.557-1.474 1.573-2.489 3.047-3.047-1.474-.557-2.49-1.573-3.047-3.047-.558 1.474-1.574 2.49-3.047 3.047zm4.869-7.737c-.817.816-1.225 1.803-1.225 2.957 0 1.156.408 2.142 1.225 2.958.816.816 1.802 1.224 2.958 1.224 1.155 0 2.141-.408 2.958-1.224.815-.816 1.225-1.802 1.225-2.958 0-1.154-.409-2.141-1.225-2.957-.817-.816-1.803-1.225-2.958-1.225-1.156 0-2.142.41-2.958 1.225zm0 9.56c-.817.817-1.225 1.803-1.225 2.958 0 1.155.408 2.142 1.225 2.958.816.816 1.802 1.225 2.958 1.225 1.155 0 2.141-.409 2.958-1.225.815-.816 1.225-1.802 1.225-2.958 0-1.155-.409-2.141-1.225-2.958-.817-.816-1.803-1.225-2.958-1.225-1.156-.001-2.142.409-2.958 1.225zm-10.186-22.136c-.996-.995-1.494-2.19-1.494-3.584 0-1.394.498-2.589 1.494-3.585.995-.995 2.19-1.494 3.584-1.494a4.97 4.97 0 0 1 2.928.926 4.963 4.963 0 0 1 1.852 2.42 4.957 4.957 0 0 1 1.852-2.42 4.968 4.968 0 0 1 2.928-.926c1.394 0 2.589.499 3.584 1.494.995.996 1.494 2.191 1.494 3.585 0 1.395-.499 2.589-1.494 3.584-.996.996-2.19 1.494-3.584 1.494a4.961 4.961 0 0 1-2.928-.926 4.942 4.942 0 0 1-1.852-2.419 4.943 4.943 0 0 1-1.852 2.419 4.961 4.961 0 0 1-2.928.926c-1.394-.001-2.589-.498-3.584-1.494zm.627-6.543c-.816.817-1.225 1.803-1.225 2.958 0 1.156.408 2.141 1.225 2.957.816.817 1.802 1.225 2.958 1.225 1.155 0 2.141-.408 2.958-1.225.816-.816 1.225-1.801 1.225-2.957 0-1.155-.409-2.141-1.225-2.958-.817-.816-1.803-1.225-2.958-1.225-1.157.001-2.142.409-2.958 1.225zm.657 5.259c-.657-.658-.986-1.424-.986-2.3 0-.876.329-1.643.986-2.301.658-.657 1.424-.985 2.3-.985.876 0 1.643.328 2.3.985.657.658.986 1.425.986 2.301 0 .876-.329 1.643-.986 2.3-.657.657-1.424.985-2.3.985-.876 0-1.642-.329-2.3-.985zm.03-1.704c.398-.079.658-.278.777-.597 0-.239.049-.458.149-.658a2.33 2.33 0 0 0 .209-.657l-.359-.478h-.538a2.695 2.695 0 0 0-.657 1.792v.239zm1.852.837a2.026 2.026 0 0 1-.836-.597l-.358-.18-.538.18-.18.538c.478.677 1.055 1.096 1.733 1.254l.478-.299v-.597zm.896-2.868.418-.06.359-.478-.179-.479a2.393 2.393 0 0 0-1.076-.239c-.398 0-.757.081-1.075.239l-.179.479.358.478.418.06c.08-.039.239-.06.478-.06s.398.021.478.06zm-1.105.807a.86.86 0 0 0-.269.627c0 .239.089.448.269.627a.863.863 0 0 0 1.254 0 .86.86 0 0 0 .269-.627.856.856 0 0 0-.269-.627.861.861 0 0 0-1.254 0zm.627.926c-.2 0-.299-.099-.299-.298 0-.199.099-.299.299-.299.199 0 .299.1.299.299 0 .199-.1.298-.299.298zm1.614.358c-.478.2-.977.559-1.494 1.076v.597l.478.299c.677-.159 1.254-.577 1.732-1.254l-.179-.538zm-.479-1.971c.04.239.109.458.209.657.099.2.149.418.149.658l.239.418.538.179.418-.358v-.239c0-.677-.219-1.274-.657-1.792h-.538zm5.467-1.644c-.817.817-1.225 1.803-1.225 2.958 0 1.156.408 2.141 1.225 2.957.816.817 1.802 1.225 2.958 1.225 1.155 0 2.141-.408 2.958-1.225.815-.816 1.225-1.801 1.225-2.957 0-1.155-.409-2.141-1.225-2.958-.817-.816-1.803-1.225-2.958-1.225-1.156.001-2.142.409-2.958 1.225zm.658 5.259c-.657-.658-.986-1.424-.986-2.3 0-.876.329-1.643.986-2.301.657-.657 1.424-.985 2.3-.985.875 0 1.643.328 2.3.985.658.658.986 1.425.986 2.301 0 .876-.329 1.643-.986 2.3-.657.657-1.424.985-2.3.985-.877 0-1.643-.329-2.3-.985zm.029-1.704c.397-.079.657-.278.777-.597 0-.239.049-.458.149-.658a2.33 2.33 0 0 0 .209-.657l-.358-.478h-.538a2.695 2.695 0 0 0-.657 1.792v.239zm1.852.837a2.032 2.032 0 0 1-.836-.597l-.358-.18-.538.18-.179.538c.478.677 1.055 1.096 1.732 1.254l.478-.299v-.597zm.897-2.868.418-.06.358-.478-.179-.479a2.392 2.392 0 0 0-1.075-.239c-.398 0-.757.081-1.076.239l-.179.479.358.478.418.06c.08-.039.239-.06.478-.06.24 0 .398.021.479.06zm-1.106.807a.86.86 0 0 0-.269.627c0 .239.09.448.269.627a.86.86 0 0 0 .627.269.86.86 0 0 0 .627-.269.856.856 0 0 0 .269-.627.856.856 0 0 0-.269-.627.863.863 0 0 0-1.254 0zm.628.926c-.2 0-.299-.099-.299-.298 0-.199.099-.299.299-.299.199 0 .299.1.299.299 0 .199-.1.298-.299.298zm1.613.358c-.478.2-.976.559-1.494 1.076v.597l.478.299c.677-.159 1.254-.577 1.733-1.254l-.179-.538zm-.478-1.971c.04.239.109.458.209.657.1.2.15.418.15.658l.239.418.538.179.418-.358v-.239c0-.677-.219-1.274-.657-1.792h-.538z" transform="translate(-837.848 -611.503) scale(4.03323)"/><path style="fill:#870000" d="M217.982 183.49c-.657-.657-.986-1.424-.986-2.3 0-.875.329-1.643.986-2.3.658-.657 1.424-.986 2.3-.986.876 0 1.643.329 2.3.986.657.657.986 1.424.986 2.3 0 .876-.329 1.643-.986 2.3-.657.658-1.424.986-2.3.986-.876 0-1.642-.329-2.3-.986zm0 9.559c-.657-.657-.986-1.423-.986-2.3 0-.876.329-1.643.986-2.3.658-.657 1.424-.986 2.3-.986.876 0 1.643.329 2.3.986.657.657.986 1.424.986 2.3 0 .876-.329 1.643-.986 2.3-.657.658-1.424.986-2.3.986-.876 0-1.642-.328-2.3-.986zm.03-11.262c.398-.08.658-.278.777-.598 0-.239.049-.457.149-.657.099-.199.169-.418.209-.658l-.359-.478h-.538a2.693 2.693 0 0 0-.657 1.792v.239zm0 9.559c.398-.079.658-.278.777-.597 0-.239.049-.458.149-.657a2.33 2.33 0 0 0 .209-.657l-.359-.478h-.538a2.697 2.697 0 0 0-.657 1.792v.239zm1.852-8.722a2.01 2.01 0 0 1-.836-.598l-.358-.179-.538.179-.18.538c.478.678 1.055 1.096 1.733 1.254l.478-.298v-.598zm0 9.559a2.02 2.02 0 0 1-.836-.598l-.358-.179-.538.179-.18.538c.478.678 1.055 1.096 1.733 1.255l.478-.299v-.598zm.896-12.427.418-.06.359-.479-.179-.478a2.38 2.38 0 0 0-1.076-.239c-.398 0-.757.08-1.075.239l-.179.478.358.479.418.06c.08-.039.239-.06.478-.06s.398.021.478.06zm0 9.559.418-.06.359-.478-.179-.478a2.38 2.38 0 0 0-1.076-.239c-.398 0-.757.08-1.075.239l-.179.478.358.478.418.06c.08-.039.239-.06.478-.06s.398.021.478.06zm-1.105-8.753a.861.861 0 0 0 0 1.254.86.86 0 0 0 .627.269.856.856 0 0 0 .627-.269.86.86 0 0 0 .269-.627.856.856 0 0 0-.269-.627.861.861 0 0 0-1.254 0zm0 9.56a.861.861 0 0 0 0 1.254.863.863 0 0 0 1.254 0 .861.861 0 0 0 0-1.254.86.86 0 0 0-.627-.269.856.856 0 0 0-.627.269zm.627-8.633c-.2 0-.299-.1-.299-.299 0-.199.099-.298.299-.298.199 0 .299.1.299.298 0 .199-.1.299-.299.299zm0 9.559c-.2 0-.299-.099-.299-.299 0-.199.099-.299.299-.299.199 0 .299.1.299.299 0 .2-.1.299-.299.299zm1.614-9.201c-.478.2-.977.559-1.494 1.076v.598l.478.298c.677-.159 1.254-.577 1.732-1.254l-.179-.538zm0 9.559c-.478.2-.977.558-1.494 1.075v.598l.478.299c.677-.159 1.254-.577 1.732-1.255l-.179-.538zm-.479-11.531c.04.239.109.458.209.658.099.2.149.418.149.657l.239.418.538.179.418-.358v-.239c0-.677-.219-1.274-.657-1.792h-.538zm0 9.56c.04.239.109.458.209.657.099.2.149.418.149.657l.239.418.538.179.418-.358v-.239c0-.677-.219-1.274-.657-1.792h-.538zm6.125-5.945c-.657-.657-.986-1.424-.986-2.3 0-.875.329-1.643.986-2.3.657-.657 1.424-.986 2.3-.986.875 0 1.643.329 2.3.986.658.657.986 1.424.986 2.3 0 .876-.329 1.643-.986 2.3-.657.658-1.424.986-2.3.986-.877 0-1.643-.329-2.3-.986zm0 9.559c-.657-.657-.986-1.423-.986-2.3 0-.876.329-1.643.986-2.3.657-.657 1.424-.986 2.3-.986.875 0 1.643.329 2.3.986.658.657.986 1.424.986 2.3 0 .876-.329 1.643-.986 2.3-.657.658-1.424.986-2.3.986-.877 0-1.643-.328-2.3-.986zm.029-11.262c.397-.08.657-.278.777-.598 0-.239.049-.457.149-.657.099-.199.169-.418.209-.658l-.358-.478h-.538a2.693 2.693 0 0 0-.657 1.792v.239zm0 9.559c.397-.079.657-.278.777-.597 0-.239.049-.458.149-.657a2.33 2.33 0 0 0 .209-.657l-.358-.478h-.538a2.697 2.697 0 0 0-.657 1.792v.239zm1.852-8.722a2.017 2.017 0 0 1-.836-.598l-.358-.179-.538.179-.179.538c.478.678 1.055 1.096 1.732 1.254l.478-.298v-.598zm0 9.559a2.026 2.026 0 0 1-.836-.598l-.358-.179-.538.179-.179.538c.478.678 1.055 1.096 1.732 1.255l.478-.299v-.598zm.897-12.427.418-.06.358-.479-.179-.478a2.379 2.379 0 0 0-1.075-.239c-.398 0-.757.08-1.076.239l-.179.478.358.479.418.06c.08-.039.239-.06.478-.06.24 0 .398.021.479.06zm0 9.559.418-.06.358-.478-.179-.478a2.379 2.379 0 0 0-1.075-.239c-.398 0-.757.08-1.076.239l-.179.478.358.478.418.06c.08-.039.239-.06.478-.06.24 0 .398.021.479.06zm-1.106-8.753a.861.861 0 0 0 0 1.254c.179.18.388.269.627.269a.856.856 0 0 0 .627-.269.856.856 0 0 0 .269-.627.856.856 0 0 0-.269-.627.863.863 0 0 0-1.254 0zm0 9.56a.861.861 0 0 0 0 1.254.86.86 0 0 0 .627.269.856.856 0 0 0 .627-.269.857.857 0 0 0 .269-.627.856.856 0 0 0-.269-.627.86.86 0 0 0-.627-.269.86.86 0 0 0-.627.269zm.628-8.633c-.2 0-.299-.1-.299-.299 0-.199.099-.298.299-.298.199 0 .299.1.299.298 0 .199-.1.299-.299.299zm0 9.559c-.2 0-.299-.099-.299-.299 0-.199.099-.299.299-.299.199 0 .299.1.299.299 0 .2-.1.299-.299.299zm1.613-9.201c-.478.2-.976.559-1.494 1.076v.598l.478.298c.677-.159 1.254-.577 1.733-1.254l-.179-.538zm0 9.559c-.478.2-.976.558-1.494 1.075v.598l.478.299c.677-.159 1.254-.577 1.733-1.255l-.179-.538zm-.478-11.531c.04.239.109.458.209.658.1.2.15.418.15.657l.239.418.538.179.418-.358v-.239c0-.677-.219-1.274-.657-1.792h-.538zm0 9.56c.04.239.109.458.209.657.1.2.15.418.15.657l.239.418.538.179.418-.358v-.239c0-.677-.219-1.274-.657-1.792h-.538z" transform="translate(-837.848 -611.503) scale(4.03323)"/></svg>