<svg xmlns="http://www.w3.org/2000/svg" width="139.764" height="200" xml:space="preserve"><path d="M139.764 14.46v171.085c0 4.013-1.412 7.43-4.22 10.24-2.81 2.807-6.226 4.215-10.244 4.215H14.455c-4.017 0-7.43-1.408-10.24-4.215C1.404 192.975 0 189.558 0 185.545V14.459c0-4.013 1.404-7.43 4.215-10.24C7.025 1.408 10.438 0 14.455 0H125.3c4.018 0 7.43 1.408 10.245 4.219 2.807 2.81 4.219 6.223 4.219 10.24zM125.3 7.227H14.455c-2.09 0-3.815.685-5.179 2.048-1.367 1.368-2.048 3.098-2.048 5.183v171.086c0 2.085.681 3.815 2.048 5.183 1.364 1.363 3.09 2.048 5.18 2.048H125.3c2.09 0 3.816-.685 5.183-2.048 1.363-1.368 2.05-3.098 2.05-5.183V14.459c0-2.085-.683-3.815-2.05-5.183-1.367-1.363-3.093-2.048-5.183-2.048z"/><path d="M49.637 67.472c.319-.484.682-1.045 1.085-1.686.4-.641.722-1.206.964-1.686.242-.484.6-.964 1.085-1.448.48-.48.964-.879 1.444-1.202.802-.64 1.569-1.044 2.29-1.206.723-.157 1.646-.278 2.771-.363 1.122-.08 1.928-.197 2.412-.359 2.892 1.606 5.941 4.502 9.156 8.676-.162.807-.48 1.488-.964 2.049a95.162 95.162 0 0 1-2.287 2.529 33.867 33.867 0 0 0-2.77 3.371c-2.255 0-7.434 1.327-15.545 3.977-8.115 2.65-13.535 3.977-16.266 3.977-4.017 0-6.506-.484-7.47-1.448.803-.803 2.489-1.484 5.058-2.049 2.57-.56 4.417-1.085 5.546-1.565 10.12-3.694 15.18-6.344 15.18-7.953-.003-1.287-.568-2.493-1.689-3.614z"/><path d="M82.17 49.399c-.162 0-5.946 1.847-17.348 5.542-11.41 3.698-18.557 5.541-21.449 5.541-1.286 0-3.214-.516-5.783-1.565-2.573-1.04-3.856-1.806-3.856-2.286 0-.803 1.085-1.57 3.255-2.291 2.17-.722 3.815-1.085 4.94-1.085.32 0 1 .04 2.05.12 1.04.086 1.806.122 2.286.122 4.013 0 8.349-.88 13.011-2.65.484-1.767.642-2.73.484-2.892-.806-1.444-2.65-3.452-5.545-6.025 0-4.014-.404-6.99-1.202-8.918.641-.641 1.444-1.722 2.408-3.25.964-1.525 1.686-2.449 2.17-2.776.48-.48.963-.802 1.443-.964.484-.157 1.283-.242 2.408-.242 1.122 0 2.009-.08 2.65-.242 4.34 4.663 6.506 8.277 6.506 10.846 0 2.089-.722 4.178-2.17 6.263-1.444 2.09-2.17 3.534-2.17 4.336 0 .323.121.686.359 1.085.242.403.363.686.363.843a206.781 206.781 0 0 0 12.047-4.578c3.856-1.6 6.667-2.77 8.434-3.492 1.766-.722 3.133-1.085 4.097-1.085.803 0 1.888.242 3.255.722 1.363.48 3.09 1.125 5.183 1.927a724.4 724.4 0 0 0 5.058 1.928c.322.162.923.444 1.807.843.883.404 1.484.686 1.806.843.319.162.843.404 1.565.722.722.323 1.206.601 1.444.843.242.242.56.524.964.843.4.323.682.645.843.964.161.323.319.686.484 1.085.157.403.242.843.242 1.323 0 1.928-.565 3.614-1.69 5.062-1.125 1.447-2.492 2.17-4.098 2.17-.964 0-4.9-1.602-11.809-4.82-6.893-3.207-11.712-4.812-14.443-4.812z"/><path style="fill:#870000" d="M222.792 44.133c-.16 0-.478.1-.956.299l-.239.478c-.2.319-.379.558-.538.717-.598-.358-.896-1.513-.896-3.465 0-1.513.08-2.608.239-3.286 1.473-.239 3.096-.598 4.869-1.076 1.772-.478 2.877-.717 3.316-.717.836 0 1.255.279 1.255.836l-.418 1.553a12.357 12.357 0 0 0-.418 3.227c0 .637.039 1.314.12 2.031.756.04 1.573.16 2.449.358.875.2 1.782.598 2.718 1.195.936.598 1.404 1.295 1.404 2.091 0 .678-.26 1.195-.777 1.553-.518.358-1.175.538-1.971.538-.2 0-.648.13-1.344.389-.698.258-1.225.388-1.583.388-.518 0-1.464-.269-2.838-.807-1.375-.538-2.34-.986-2.898-1.344-.2.08-.409.209-.627.388-.219.18-.388.269-.508.269-.199 0-.836-.159-1.912-.478 0 .041-.01.16-.03.358-.021.2-.04.349-.06.448-.021.1-.04.219-.06.358a.573.573 0 0 1-.149.329.405.405 0 0 1-.299.12c-.119 0-.249-.08-.388-.239a2.046 2.046 0 0 1-.358-.627c-.1-.258-.2-.508-.299-.747a7.046 7.046 0 0 1-.269-.777 4.465 4.465 0 0 0-.179-.538h-.717c-.757 0-1.455-.12-2.091-.358-.637-.239-.956-.577-.956-1.016 0-.039.009-.099.03-.179.02-.08.03-.159.03-.239.358 0 .856.04 1.494.12.637.08 1.135.12 1.494.12h.239c-.041-.318-.12-.767-.239-1.344l-.298-1.434c-.081-.378-.12-.667-.12-.866 0-.079.08-.199.239-.358.478.08.826.309 1.045.687.219.379.408.906.568 1.583.159.678.358 1.235.597 1.673.557 0 1.314-.159 2.271-.478 0-.119.009-.397.03-.836.017-.439.028-.738.028-.897zm7.468-8.185c-1.195 0-2.967.349-5.317 1.045-2.351.697-3.904 1.045-4.66 1.045-2.39 0-3.943-.438-4.66-1.314.717-.438 1.255-.657 1.613-.657.397 0 1.005.1 1.822.299.816.2 1.503.298 2.061.298.796 0 1.334-.079 1.613-.239.278-.159.418-.517.418-1.076 0-.119-.11-.209-.328-.269-.22-.06-.369-.149-.448-.269 0-.159.03-.278.089-.358a3.66 3.66 0 0 1 .299-.329c.139-.139.249-.289.329-.448.08-.12.229-.368.448-.747.218-.378.397-.637.538-.777a.691.691 0 0 1 .508-.209c.278 0 .418.2.418.597 0 .319-.03.648-.09.986a8.14 8.14 0 0 1-.299 1.135c-.14.418-.229.747-.269.986.079.2.218.299.418.299.239 0 .587-.458 1.045-1.375.458-.916.688-1.573.688-1.971 0-.239-.13-.468-.389-.687-.259-.219-.429-.389-.508-.508.318-.717 1.016-1.274 2.091-1.673.796.279 1.195 1.016 1.195 2.21 0 .398-.17.876-.508 1.434-.339.559-.528 1.076-.568 1.554.318-.04.756-.12 1.315-.239.557-.12 1.114-.209 1.672-.269.558-.06 1.155-.09 1.792-.09 1.274 0 2.011.14 2.21.418a2.675 2.675 0 0 1-1.314 1.254c-.516-.036-1.591-.056-3.224-.056zm-9.559 11.65c.159.398.299.717.418.956.558-.12 1.195-.338 1.912-.657-.2-.239-.299-.557-.299-.956zm.896-7.887v1.076h.12l.12.06 1.075-.179c0-.318.04-.717.12-1.195zm1.195 1.972c-.239.041-.499.081-.777.12-.239 0-.369.021-.389.06a.605.605 0 0 0-.03.239v.239c0 .081.009.219.03.418.02.2.03.339.03.418.199 0 .577-.039 1.136-.119zm1.493-2.509c0 .2-.03.418-.089.658-.06.239-.09.438-.09.597.398-.08.856-.169 1.375-.269.517-.099.896-.169 1.135-.209 0-.199.01-.438.03-.717.019-.278.03-.498.03-.657-.359.08-.777.189-1.255.329a8.708 8.708 0 0 1-1.136.268zm-.179 2.27v1.314c.558-.04 1.354-.219 2.39-.538 0-.598.02-1.055.06-1.375-.877.281-1.694.48-2.45.599zm.12 2.39v1.613a11.566 11.566 0 0 0 2.33-.657c0-.677-.021-1.195-.06-1.553-.2.08-.548.179-1.046.299-.498.119-.906.219-1.224.298zm.059 2.688c0 .638.099.956.299.956.159 0 .329-.03.508-.089.179-.06.418-.149.717-.269a9.14 9.14 0 0 1 .867-.299c-.081-.438-.1-.756-.06-.956-.24.041-1.016.26-2.331.657zm5.019-.716c0 .081.03.26.09.538.06.279.089.519.089.717 0 .2-.06.418-.179.657-.757.518-1.494.776-2.21.776-.04-.039-.1-.159-.179-.358a7.207 7.207 0 0 0-.179-.418c-.239.08-.508.219-.807.418-.299.2-.548.339-.747.418.159.239.557.488 1.195.747.637.26 1.135.389 1.494.389.239 0 .468-.05.687-.149.218-.099.458-.249.717-.448a4.26 4.26 0 0 1 .627-.418c.199-.08.587-.139 1.165-.18.577-.039 1.016-.149 1.314-.328.299-.18.448-.488.448-.926 0-.318-.418-.627-1.254-.926-.836-.299-1.594-.469-2.271-.509z" transform="translate(-837.848 -33.177) scale(4.03323)"/><path d="M70.844 61.204c5.94 0 12.249 2.05 18.916 6.143 6.663 4.098 9.998 7.671 9.998 10.724 0 1.767-.48 3.533-1.444 5.3-.964 1.77-1.847 2.815-2.654 3.134-3.856-2.085-8.514-5.86-13.975-11.326-5.46-5.456-9.075-10.119-10.841-13.975z"/></svg>