<svg xmlns="http://www.w3.org/2000/svg" width="139.764" height="200" xml:space="preserve"><path d="M139.76 14.459V185.54c0 4.013-1.407 7.43-4.214 10.24-2.81 2.811-6.227 4.219-10.244 4.219H14.459c-4.017 0-7.433-1.408-10.244-4.219C1.404 192.971 0 189.554 0 185.541V14.46c0-4.013 1.404-7.43 4.215-10.24C7.025 1.408 10.438 0 14.459 0h110.843c4.013 0 7.429 1.408 10.244 4.219 2.807 2.815 4.215 6.227 4.215 10.24zM125.307 7.23H14.463c-2.093 0-3.82.686-5.183 2.05-1.367 1.367-2.049 3.097-2.049 5.182v171.082c0 2.085.682 3.816 2.05 5.183 1.362 1.363 3.089 2.049 5.182 2.049h110.843c2.09 0 3.815-.686 5.179-2.05 1.363-1.366 2.048-3.097 2.048-5.182V14.46c0-2.085-.685-3.816-2.048-5.183-1.368-1.359-3.094-2.045-5.179-2.045z"/><path style="fill:#870000" d="M259.834 85.059c0-.836 1.155-1.254 3.465-1.254 2.31 0 3.466.418 3.466 1.254 0 .678-.499 1.275-1.494 1.792v1.972c.996.319 1.494.797 1.494 1.434 0 .637-.499 1.115-1.494 1.434v1.972c.996.519 1.494 1.116 1.494 1.792 0 .836-1.156 1.255-3.466 1.255-2.31 0-3.465-.418-3.465-1.255 0-.677.497-1.274 1.494-1.792V91.69c-.997-.318-1.494-.796-1.494-1.434 0-.637.497-1.115 1.494-1.434V86.85c-.997-.516-1.494-1.113-1.494-1.791zm2.569 0v3.465c.198-.039.497-.06.896-.06.398 0 .696.021.896.06v-3.465c-.2-.039-.499-.06-.896-.06-.399 0-.697.021-.896.06zm0 6.333c.119 0 .278.01.478.03.199.021.338.03.418.03.08 0 .219-.009.418-.03.199-.02.358-.03.478-.03v-2.271c-.12 0-.279-.009-.478-.03-.2-.02-.339-.03-.418-.03-.08 0-.219.01-.418.03-.2.021-.358.03-.478.03zm1.792 4.063V91.99c-.2.041-.499.06-.896.06-.398 0-.697-.02-.896-.06v3.465c.198.04.497.06.896.06.398 0 .696-.02.896-.06z" transform="translate(-992.043 -322.33) scale(4.03315)"/><path style="fill:#133f00" d="M250.454 99.517c0-.836 1.155-1.254 3.465-1.254 2.31 0 3.465.418 3.465 1.254 0 .678-.499 1.275-1.494 1.792v1.972c.995.319 1.494.797 1.494 1.434 0 .637-.499 1.115-1.494 1.434v1.972c.995.518 1.494 1.116 1.494 1.792 0 .836-1.156 1.255-3.465 1.255-2.311 0-3.465-.418-3.465-1.255 0-.677.498-1.274 1.494-1.792v-1.972c-.997-.318-1.494-.796-1.494-1.434 0-.637.498-1.115 1.494-1.434v-1.972c-.997-.517-1.494-1.114-1.494-1.792zm0 14.459c0-.836 1.155-1.254 3.465-1.254 2.31 0 3.465.418 3.465 1.254 0 .678-.499 1.275-1.494 1.792v1.972c.995.319 1.494.797 1.494 1.434 0 .637-.499 1.115-1.494 1.434v1.972c.995.518 1.494 1.115 1.494 1.792 0 .836-1.156 1.255-3.465 1.255-2.311 0-3.465-.418-3.465-1.255 0-.678.498-1.275 1.494-1.792v-1.972c-.997-.318-1.494-.796-1.494-1.434 0-.637.498-1.115 1.494-1.434v-1.972c-.997-.517-1.494-1.115-1.494-1.792zm2.569-14.459v3.465c.199-.039.498-.06.896-.06.397 0 .696.021.896.06v-3.465c-.2-.039-.499-.06-.896-.06-.398.001-.697.021-.896.06zm0 6.334c.079 0 .218.01.418.03.199.021.358.03.478.03s.278-.009.478-.03c.199-.02.338-.03.418-.03v-2.271c-.08 0-.219-.009-.418-.03-.2-.02-.358-.03-.478-.03s-.279.01-.478.03c-.2.021-.339.03-.418.03zm1.792 4.062v-3.465c-.2.04-.499.06-.896.06-.398 0-.697-.02-.896-.06v3.465c.199.04.498.06.896.06.397 0 .696-.02.896-.06zm-1.792 4.063v3.465c.199-.039.498-.06.896-.06.397 0 .696.021.896.06v-3.465c-.2-.039-.499-.06-.896-.06-.398 0-.697.021-.896.06zm0 6.333c.079 0 .218.01.418.03.199.021.358.03.478.03s.278-.009.478-.03c.199-.02.338-.03.418-.03v-2.27c-.08 0-.219-.009-.418-.03-.2-.02-.358-.03-.478-.03s-.279.011-.478.03c-.2.021-.339.03-.418.03zm1.792 4.063v-3.465c-.2.04-.499.06-.896.06-.398 0-.697-.02-.896-.06v3.465c.199.039.498.06.896.06.397-.001.696-.021.896-.06zm5.019-24.855c0-.836 1.155-1.254 3.465-1.254 2.31 0 3.466.418 3.466 1.254 0 .678-.499 1.275-1.494 1.792v1.972c.996.319 1.494.797 1.494 1.434 0 .637-.499 1.115-1.494 1.434v1.972c.996.518 1.494 1.116 1.494 1.792 0 .836-1.156 1.255-3.466 1.255-2.31 0-3.465-.418-3.465-1.255 0-.677.497-1.274 1.494-1.792v-1.972c-.997-.318-1.494-.796-1.494-1.434 0-.637.497-1.115 1.494-1.434v-1.972c-.997-.517-1.494-1.114-1.494-1.792zm0 14.459c0-.836 1.155-1.254 3.465-1.254 2.31 0 3.466.418 3.466 1.254 0 .678-.499 1.275-1.494 1.792v1.972c.996.319 1.494.797 1.494 1.434 0 .637-.499 1.115-1.494 1.434v1.972c.996.518 1.494 1.115 1.494 1.792 0 .836-1.156 1.255-3.466 1.255-2.31 0-3.465-.418-3.465-1.255 0-.678.497-1.275 1.494-1.792v-1.972c-.997-.318-1.494-.796-1.494-1.434 0-.637.497-1.115 1.494-1.434v-1.972c-.997-.517-1.494-1.115-1.494-1.792zm2.569-14.459v3.465c.198-.039.497-.06.896-.06.398 0 .696.021.896.06v-3.465c-.2-.039-.499-.06-.896-.06-.399.001-.697.021-.896.06zm0 6.334c.119 0 .278.01.478.03.199.021.338.03.418.03.08 0 .219-.009.418-.03.199-.02.358-.03.478-.03v-2.271c-.12 0-.279-.009-.478-.03-.2-.02-.339-.03-.418-.03-.08 0-.219.01-.418.03-.2.021-.358.03-.478.03zm1.792 4.062v-3.465c-.2.04-.499.06-.896.06-.398 0-.697-.02-.896-.06v3.465c.198.04.497.06.896.06.398 0 .696-.02.896-.06zm-1.792 4.063v3.465c.198-.039.497-.06.896-.06.398 0 .696.021.896.06v-3.465c-.2-.039-.499-.06-.896-.06-.399 0-.697.021-.896.06zm0 6.333c.119 0 .278.01.478.03.199.021.338.03.418.03.08 0 .219-.009.418-.03.199-.02.358-.03.478-.03v-2.27c-.12 0-.279-.009-.478-.03-.2-.02-.339-.03-.418-.03-.08 0-.219.011-.418.03-.2.021-.358.03-.478.03zm1.792 4.063v-3.465c-.2.04-.499.06-.896.06-.398 0-.697-.02-.896-.06v3.465c.198.039.497.06.896.06.398-.001.696-.021.896-.06zm5.019-24.855c0-.836 1.155-1.254 3.465-1.254 2.31 0 3.465.418 3.465 1.254 0 .678-.499 1.275-1.494 1.792v1.972c.996.319 1.494.797 1.494 1.434 0 .637-.499 1.115-1.494 1.434v1.972c.996.518 1.494 1.116 1.494 1.792 0 .836-1.156 1.255-3.465 1.255-2.311 0-3.465-.418-3.465-1.255 0-.677.498-1.274 1.494-1.792v-1.972c-.996-.318-1.494-.796-1.494-1.434 0-.637.498-1.115 1.494-1.434v-1.972c-.997-.517-1.494-1.114-1.494-1.792zm0 14.459c0-.836 1.155-1.254 3.465-1.254 2.31 0 3.465.418 3.465 1.254 0 .678-.499 1.275-1.494 1.792v1.972c.996.319 1.494.797 1.494 1.434 0 .637-.499 1.115-1.494 1.434v1.972c.996.518 1.494 1.115 1.494 1.792 0 .836-1.156 1.255-3.465 1.255-2.311 0-3.465-.418-3.465-1.255 0-.678.498-1.275 1.494-1.792v-1.972c-.996-.318-1.494-.796-1.494-1.434 0-.637.498-1.115 1.494-1.434v-1.972c-.997-.517-1.494-1.115-1.494-1.792zm2.569-14.459v3.465c.199-.039.498-.06.896-.06.397 0 .697.021.896.06v-3.465a5.029 5.029 0 0 0-.896-.06c-.398.001-.697.021-.896.06zm0 6.334c.079 0 .218.01.418.03.199.021.358.03.478.03s.278-.009.478-.03c.199-.02.338-.03.418-.03v-2.271c-.08 0-.219-.009-.418-.03-.2-.02-.358-.03-.478-.03s-.279.01-.478.03c-.2.021-.339.03-.418.03zm1.792 4.062v-3.465c-.199.04-.499.06-.896.06-.398 0-.697-.02-.896-.06v3.465c.199.04.498.06.896.06s.697-.02.896-.06zm-1.792 4.063v3.465c.199-.039.498-.06.896-.06.397 0 .697.021.896.06v-3.465a5.029 5.029 0 0 0-.896-.06c-.398 0-.697.021-.896.06zm0 6.333c.079 0 .218.01.418.03.199.021.358.03.478.03s.278-.009.478-.03c.199-.02.338-.03.418-.03v-2.27c-.08 0-.219-.009-.418-.03-.2-.02-.358-.03-.478-.03s-.279.011-.478.03c-.2.021-.339.03-.418.03zm1.792 4.063v-3.465c-.199.04-.499.06-.896.06-.398 0-.697-.02-.896-.06v3.465c.199.039.498.06.896.06.398-.001.697-.021.896-.06z" transform="translate(-992.043 -322.33) scale(4.03315)"/></svg>