<svg xmlns="http://www.w3.org/2000/svg" width="139.764" height="200" xml:space="preserve"><path d="M139.764 14.455v171.086c0 4.013-1.408 7.43-4.215 10.24-2.811 2.811-6.227 4.219-10.244 4.219H14.459c-4.017 0-7.433-1.408-10.244-4.219C1.404 192.971 0 189.554 0 185.541V14.455c0-4.013 1.404-7.43 4.215-10.24C7.025 1.404 10.438 0 14.459 0h110.846c4.013 0 7.429 1.408 10.244 4.215 2.807 2.81 4.215 6.227 4.215 10.24zm-14.455-7.227H14.463c-2.093 0-3.82.685-5.183 2.048-1.367 1.368-2.048 3.098-2.048 5.183v171.086c0 2.085.681 3.815 2.048 5.183 1.364 1.363 3.09 2.048 5.183 2.048H125.31c2.089 0 3.815-.685 5.178-2.048 1.363-1.368 2.05-3.098 2.05-5.183V14.455c0-2.085-.687-3.815-2.05-5.183-1.367-1.359-3.093-2.044-5.178-2.044z"/><path style="fill:#870000" d="M256.219 183.49c-.658-.657-.986-1.424-.986-2.3 0-.875.328-1.643.986-2.3.657-.657 1.424-.986 2.3-.986.875 0 1.643.329 2.3.986.657.657.986 1.424.986 2.3 0 .876-.329 1.643-.986 2.3-.657.658-1.425.986-2.3.986-.876 0-1.643-.329-2.3-.986zm0 9.559c-.658-.657-.986-1.423-.986-2.3 0-.876.328-1.643.986-2.3.657-.657 1.424-.986 2.3-.986.875 0 1.643.329 2.3.986.657.657.986 1.424.986 2.3 0 .876-.329 1.643-.986 2.3-.657.658-1.425.986-2.3.986-.876 0-1.643-.328-2.3-.986zm.03-11.262c.397-.08.657-.278.776-.598 0-.239.05-.457.15-.657.099-.199.168-.418.209-.658l-.359-.478h-.537a2.69 2.69 0 0 0-.658 1.792v.239zm0 9.559c.397-.079.657-.278.776-.597 0-.239.05-.458.15-.657.099-.199.168-.418.209-.657l-.359-.478h-.537a2.693 2.693 0 0 0-.658 1.792v.239zm1.852-8.722a2.017 2.017 0 0 1-.836-.598l-.359-.179-.538.179-.179.538c.478.678 1.055 1.096 1.732 1.254l.478-.298v-.598zm0 9.559a2.026 2.026 0 0 1-.836-.598l-.359-.179-.538.179-.179.538c.478.678 1.055 1.096 1.732 1.255l.478-.299v-.598zm.896-12.427.418-.06.358-.479-.179-.478a2.376 2.376 0 0 0-1.075-.239c-.399 0-.757.08-1.075.239l-.179.478.358.479.418.06c.08-.039.24-.06.479-.06s.397.021.477.06zm0 9.559.418-.06.358-.478-.179-.478a2.376 2.376 0 0 0-1.075-.239c-.399 0-.757.08-1.075.239l-.179.478.358.478.418.06c.08-.039.24-.06.479-.06s.397.021.477.06zm-1.105-8.753a.861.861 0 0 0 0 1.254c.179.18.389.269.627.269a.857.857 0 0 0 .627-.269.86.86 0 0 0 .269-.627.856.856 0 0 0-.269-.627.863.863 0 0 0-1.254 0zm0 9.56a.861.861 0 0 0 0 1.254.861.861 0 0 0 1.254 0 .861.861 0 0 0 0-1.254.861.861 0 0 0-1.254 0zm.628-8.633c-.2 0-.299-.1-.299-.299 0-.199.099-.298.299-.298.199 0 .298.1.298.298 0 .199-.1.299-.298.299zm0 9.559c-.2 0-.299-.099-.299-.299 0-.199.099-.299.299-.299.199 0 .298.1.298.299 0 .2-.1.299-.298.299zm1.612-9.201c-.478.2-.976.559-1.494 1.076v.598l.478.298c.677-.159 1.255-.577 1.733-1.254l-.179-.538zm0 9.559c-.478.2-.976.558-1.494 1.075v.598l.478.299c.677-.159 1.255-.577 1.733-1.255l-.179-.538zm-.477-11.531c.039.239.109.458.209.658.099.2.149.418.149.657l.24.418.537.179.418-.358v-.239c0-.677-.219-1.274-.657-1.792h-.538zm0 9.56c.039.239.109.458.209.657.099.2.149.418.149.657l.24.418.537.179.418-.358v-.239c0-.677-.219-1.274-.657-1.792h-.538zm6.123-5.945c-.657-.657-.985-1.424-.985-2.3 0-.875.329-1.643.985-2.3.657-.657 1.424-.986 2.3-.986.875 0 1.643.329 2.3.986.657.657.986 1.424.986 2.3 0 .876-.329 1.643-.986 2.3-.657.658-1.425.986-2.3.986-.876 0-1.642-.329-2.3-.986zm0 9.559c-.657-.657-.985-1.423-.985-2.3 0-.876.329-1.643.985-2.3.657-.657 1.424-.986 2.3-.986.875 0 1.643.329 2.3.986.657.657.986 1.424.986 2.3 0 .876-.329 1.643-.986 2.3-.657.658-1.425.986-2.3.986-.876 0-1.642-.328-2.3-.986zm.031-11.262c.397-.08.657-.278.777-.598 0-.239.049-.457.149-.657.099-.199.169-.418.209-.658l-.358-.478h-.538a2.688 2.688 0 0 0-.657 1.792v.239zm0 9.559c.397-.079.657-.278.777-.597 0-.239.049-.458.149-.657a2.33 2.33 0 0 0 .209-.657l-.358-.478h-.538a2.692 2.692 0 0 0-.657 1.792v.239zm1.852-8.722a2.01 2.01 0 0 1-.836-.598l-.358-.179-.538.179-.179.538c.478.678 1.055 1.096 1.733 1.254l.478-.298v-.598zm0 9.559a2.02 2.02 0 0 1-.836-.598l-.358-.179-.538.179-.179.538c.478.678 1.055 1.096 1.733 1.255l.478-.299v-.598zm.896-12.427.418-.06.358-.479-.179-.478a2.38 2.38 0 0 0-1.076-.239c-.398 0-.757.08-1.075.239l-.179.478.358.479.418.06c.079-.039.239-.06.478-.06s.399.021.479.06zm0 9.559.418-.06.358-.478-.179-.478a2.38 2.38 0 0 0-1.076-.239c-.398 0-.757.08-1.075.239l-.179.478.358.478.418.06c.079-.039.239-.06.478-.06s.399.021.479.06zm-1.106-8.753a.861.861 0 0 0 0 1.254c.179.18.389.269.627.269a.857.857 0 0 0 .627-.269.86.86 0 0 0 .269-.627.86.86 0 0 0-.269-.627.861.861 0 0 0-1.254 0zm0 9.56a.861.861 0 0 0 0 1.254.861.861 0 0 0 1.254 0 .861.861 0 0 0 0-1.254.861.861 0 0 0-1.254 0zm.628-8.633c-.2 0-.298-.1-.298-.299 0-.199.099-.298.298-.298.199 0 .299.1.299.298-.001.199-.1.299-.299.299zm0 9.559c-.2 0-.298-.099-.298-.299 0-.199.099-.299.298-.299.199 0 .299.1.299.299-.001.2-.1.299-.299.299zm1.613-9.201c-.478.2-.977.559-1.494 1.076v.598l.478.298c.677-.159 1.254-.577 1.732-1.254l-.179-.538zm0 9.559c-.478.2-.977.558-1.494 1.075v.598l.478.299c.677-.159 1.254-.577 1.732-1.255l-.179-.538zm-.478-11.531c.04.239.109.458.209.658.099.2.15.418.15.657l.239.418.538.179.418-.358v-.239c0-.677-.22-1.274-.658-1.792h-.537zm0 9.56c.04.239.109.458.209.657.099.2.15.418.15.657l.239.418.538.179.418-.358v-.239c0-.677-.22-1.274-.658-1.792h-.537z" transform="translate(-992.063 -611.503) scale(4.03323)"/><path style="fill:#00082d" d="M253.441 181.189c0-1.394.498-2.588 1.494-3.584.996-.995 2.19-1.494 3.585-1.494 1.075 0 2.051.31 2.928.927a4.962 4.962 0 0 1 1.852 2.419 4.952 4.952 0 0 1 1.852-2.419 4.972 4.972 0 0 1 2.928-.927c-1.195-1.075-1.792-2.369-1.792-3.883 0-.479.06-.956.18-1.434-.877.757-1.933 1.135-3.167 1.135-1.395 0-2.589-.498-3.584-1.493-.996-.995-1.494-2.19-1.494-3.585 0-.478.06-.956.179-1.434-.876.757-1.933 1.135-3.167 1.135-1.395 0-2.589-.498-3.585-1.493-.996-.995-1.493-2.19-1.493-3.585 0-1.394.498-2.589 1.493-3.585.996-.995 2.19-1.494 3.585-1.494 1.394 0 2.589.499 3.584 1.494.995.996 1.494 2.191 1.494 3.585 0 .478-.06.956-.18 1.434.876-.756 1.932-1.135 3.167-1.135 1.394 0 2.589.499 3.585 1.494.995.996 1.494 2.19 1.494 3.584 0 .478-.06.956-.179 1.434.875-.756 1.932-1.135 3.167-1.135 1.394 0 2.588.499 3.585 1.494.995.996 1.493 2.191 1.493 3.585 0 1.395-.498 2.589-1.493 3.584-.997.996-2.191 1.494-3.585 1.494 1.195 1.076 1.792 2.37 1.792 3.883a4.968 4.968 0 0 1-.926 2.928 4.957 4.957 0 0 1-2.42 1.852 4.96 4.96 0 0 1 2.42 1.853c.617.876.926 1.852.926 2.927 0 1.395-.499 2.59-1.494 3.584-.996.995-2.191 1.494-3.585 1.494a4.97 4.97 0 0 1-2.928-.926 4.945 4.945 0 0 1-1.852-2.42 4.94 4.94 0 0 1-1.852 2.42 4.97 4.97 0 0 1-2.928.926c-1.395 0-2.589-.499-3.585-1.494s-1.494-2.189-1.494-3.584c0-1.076.308-2.051.926-2.927a4.954 4.954 0 0 1 2.419-1.853 4.942 4.942 0 0 1-2.419-1.852 4.964 4.964 0 0 1-.926-2.929zm-1.165-22.673c-.817.817-1.225 1.802-1.225 2.958 0 1.156.408 2.141 1.225 2.958.816.817 1.802 1.225 2.958 1.225 1.155 0 2.141-.408 2.958-1.225.816-.816 1.225-1.802 1.225-2.958 0-1.155-.409-2.141-1.225-2.958-.817-.816-1.803-1.225-2.958-1.225-1.156 0-2.142.409-2.958 1.225zm.627 5.258c-.638-.658-.956-1.424-.956-2.3 0-.876.318-1.643.956-2.3a3.122 3.122 0 0 1 2.33-.986c.916 0 1.692.329 2.33.986.637.657.956 1.424.956 2.3 0 .876-.319 1.643-.956 2.3a3.125 3.125 0 0 1-2.33.985 3.12 3.12 0 0 1-2.33-.985zm.06-1.703c.398-.08.657-.279.777-.598 0-.239.049-.458.149-.657a2.33 2.33 0 0 0 .209-.657l-.359-.478h-.538a2.693 2.693 0 0 0-.657 1.792v.239zm1.852.837a2.026 2.026 0 0 1-.836-.598l-.358-.179-.538.179-.179.538c.478.678 1.055 1.096 1.732 1.255l.479-.299v-.598zm.896-2.868.418-.06.358-.478-.179-.478a2.38 2.38 0 0 0-1.076-.239c-.398 0-.757.08-1.075.239l-.18.478.359.478.418.06c.08-.04.239-.06.478-.06s.399.02.479.06zm-1.105.806a.856.856 0 0 0-.269.627c0 .239.089.448.269.627.179.18.388.269.627.269a.856.856 0 0 0 .627-.269.86.86 0 0 0 .269-.627.86.86 0 0 0-.269-.627.861.861 0 0 0-1.254 0zm.956 17.386c-.816.816-1.224 1.803-1.224 2.957 0 1.156.408 2.142 1.224 2.958.816.816 1.802 1.224 2.958 1.224 1.155 0 2.141-.408 2.957-1.224.816-.816 1.225-1.802 1.225-2.958 0-1.154-.409-2.141-1.225-2.957-.816-.816-1.802-1.225-2.957-1.225-1.156 0-2.142.41-2.958 1.225zm0 9.56c-.816.817-1.224 1.803-1.224 2.958 0 1.155.408 2.142 1.224 2.958.816.816 1.802 1.225 2.958 1.225 1.155 0 2.141-.409 2.957-1.225.816-.816 1.225-1.802 1.225-2.958 0-1.155-.409-2.141-1.225-2.958-.816-.816-1.802-1.225-2.957-1.225-1.156-.001-2.142.409-2.958 1.225zm-.329-26.02c-.2 0-.299-.099-.299-.299 0-.199.099-.299.299-.299.199 0 .299.1.299.299 0 .2-.099.299-.299.299zm1.614.359c-.478.2-.977.558-1.494 1.075v.598l.478.299c.677-.159 1.255-.577 1.733-1.255l-.179-.538zm-.478-1.972c.039.239.109.458.209.657.099.2.149.418.149.657l.239.418.538.179.418-.359v-.239c0-.677-.219-1.274-.657-1.792h-.538zm3.973 3.734c-.817.817-1.225 1.803-1.225 2.958 0 1.156.408 2.142 1.225 2.958.815.817 1.802 1.225 2.957 1.225 1.155 0 2.141-.408 2.958-1.225.815-.816 1.225-1.802 1.225-2.958 0-1.154-.409-2.141-1.225-2.958-.817-.816-1.803-1.225-2.958-1.225-1.155 0-2.142.409-2.957 1.225zm.657 5.258c-.657-.657-.986-1.423-.986-2.3 0-.875.329-1.643.986-2.3.657-.658 1.423-.986 2.3-.986.876 0 1.644.329 2.3.986.658.657.986 1.424.986 2.3 0 .877-.329 1.643-.986 2.3-.657.657-1.424.986-2.3.986-.877 0-1.643-.329-2.3-.986zm-.747 16.818c1.473.558 2.488 1.574 3.046 3.047.558-1.474 1.573-2.489 3.047-3.047-1.474-.557-2.489-1.573-3.047-3.047-.557 1.474-1.573 2.49-3.046 3.047zm.777-18.521c.397-.08.657-.278.777-.598 0-.239.049-.457.149-.657.099-.199.169-.418.208-.657l-.358-.478h-.538a2.69 2.69 0 0 0-.658 1.792v.239zm1.852.837a2.02 2.02 0 0 1-.836-.598l-.358-.179-.538.179-.179.538c.479.677 1.055 1.095 1.733 1.254l.478-.299v-.598zm.896-2.868.418-.06.358-.478-.179-.479a2.393 2.393 0 0 0-1.076-.239c-.398 0-.757.081-1.075.239l-.179.479.359.478.418.06c.079-.039.239-.06.478-.06s.398.021.478.06zm-1.106.806a.86.86 0 0 0-.268.627c0 .239.089.448.268.627a.863.863 0 0 0 1.255 0 .861.861 0 0 0 0-1.254.864.864 0 0 0-1.255 0zm.628.926c-.199 0-.298-.099-.298-.299 0-.199.099-.299.298-.299.199 0 .299.1.299.299 0 .2-.1.299-.299.299zm1.613.359c-.478.2-.977.558-1.493 1.075v.598l.478.299c.677-.159 1.254-.577 1.733-1.254l-.179-.538zm.21 10.724c-.817.816-1.225 1.803-1.225 2.957 0 1.156.408 2.142 1.225 2.958.816.816 1.801 1.224 2.957 1.224 1.155 0 2.141-.408 2.958-1.224.816-.816 1.225-1.802 1.225-2.958 0-1.154-.409-2.141-1.225-2.957-.817-.816-1.803-1.225-2.958-1.225-1.156 0-2.141.41-2.957 1.225zm0 9.56c-.817.817-1.225 1.803-1.225 2.958 0 1.155.408 2.142 1.225 2.958.816.816 1.801 1.225 2.957 1.225 1.155 0 2.141-.409 2.958-1.225.816-.816 1.225-1.802 1.225-2.958 0-1.155-.409-2.141-1.225-2.958-.817-.816-1.803-1.225-2.958-1.225-1.156-.001-2.141.409-2.957 1.225zm-.687-22.256c.039.239.109.458.208.657.1.2.15.418.15.657l.239.418.538.179.418-.358v-.239a2.69 2.69 0 0 0-.658-1.792h-.537zm3.972 3.734c-.816.817-1.225 1.803-1.225 2.958 0 1.155.408 2.141 1.225 2.957.816.817 1.802 1.225 2.958 1.225 1.155 0 2.14-.408 2.958-1.225.816-.816 1.225-1.802 1.225-2.957 0-1.155-.409-2.141-1.225-2.958-.817-.815-1.803-1.224-2.958-1.224-1.156 0-2.142.409-2.958 1.224zm.628 5.258c-.638-.657-.956-1.423-.956-2.3 0-.876.318-1.643.956-2.3a3.12 3.12 0 0 1 2.33-.986c.916 0 1.693.329 2.331.986.636.657.955 1.424.955 2.3 0 .876-.319 1.643-.955 2.3a3.127 3.127 0 0 1-2.331.986 3.12 3.12 0 0 1-2.33-.986zm.059-1.703c.398-.08.658-.278.777-.597 0-.239.049-.458.149-.657.099-.199.169-.418.209-.658l-.358-.478h-.538a2.693 2.693 0 0 0-.657 1.792v.239zm1.853.837a2.029 2.029 0 0 1-.837-.598l-.358-.179-.538.179-.179.538c.478.677 1.055 1.096 1.733 1.254l.478-.298v-.598zm.896-2.868.418-.06.358-.478-.179-.479a2.389 2.389 0 0 0-1.075-.239c-.398 0-.757.081-1.076.239l-.179.479.358.478.418.06c.08-.039.239-.06.478-.06s.399.021.479.06zm-1.106.807a.86.86 0 0 0-.269.627c0 .239.09.448.269.627a.861.861 0 0 0 1.254 0 .857.857 0 0 0 .269-.627.856.856 0 0 0-.269-.627.856.856 0 0 0-.627-.269.857.857 0 0 0-.627.269zm.628.925c-.2 0-.299-.099-.299-.298 0-.199.099-.299.299-.299.199 0 .299.1.299.299 0 .199-.101.298-.299.298zm1.613.359c-.478.2-.977.558-1.494 1.076v.598l.479.298c.677-.158 1.254-.577 1.733-1.254l-.18-.538zm-.478-1.972c.039.239.109.458.209.658.099.2.149.418.149.657l.239.418.537.179.418-.358v-.239c0-.677-.219-1.274-.657-1.792h-.538z" transform="translate(-992.063 -611.503) scale(4.03323)"/></svg>