<svg xmlns="http://www.w3.org/2000/svg" width="139.764" height="200" xml:space="preserve"><path d="M139.764 14.46v171.085c0 4.013-1.408 7.43-4.215 10.24-2.811 2.807-6.227 4.215-10.244 4.215H14.459c-4.017 0-7.433-1.408-10.244-4.215C1.404 192.975 0 189.558 0 185.545V14.459c0-4.013 1.404-7.43 4.215-10.24C7.025 1.408 10.438 0 14.459 0h110.846c4.013 0 7.429 1.408 10.244 4.219 2.807 2.81 4.215 6.223 4.215 10.24zm-14.455-7.232H14.463c-2.093 0-3.82.685-5.183 2.048-1.367 1.368-2.048 3.098-2.048 5.183v171.086c0 2.085.681 3.815 2.048 5.183 1.364 1.363 3.09 2.048 5.183 2.048H125.31c2.089 0 3.815-.685 5.178-2.048 1.363-1.368 2.05-3.098 2.05-5.183V14.459c0-2.085-.687-3.815-2.05-5.183-1.367-1.363-3.093-2.048-5.178-2.048z"/><path d="M57.353 66.504c0-1.928-.36-4.78-1.081-8.554-.722-3.776-1.17-6.466-1.327-8.075-.162-1.928-1.126-4.053-2.892-6.385-1.77-2.327-2.65-4.779-2.65-7.348 0-4.013.641-6.824 1.928-8.434 2.892 0 6.102 1.408 9.64 4.215 3.533 2.811 5.303 5.663 5.303 8.555 0 1.125-.565 3.053-1.69 5.783-1.125 2.735-1.686 5.062-1.686 6.99 0 3.053.803 5.945 2.408 8.671 2.09-1.444 6.062-4.735 11.93-9.877 5.86-5.138 9.914-8.272 12.169-9.398 4.658-2.411 10.76-3.613 18.315-3.613 1.927 0 2.891.964 2.891 2.891 0 1.767-.403 3.175-1.201 4.215-.807 1.045-1.61 1.686-2.412 1.928-.807.242-2.17.52-4.098.843-9.317 1.605-15.343 3.134-18.069 4.578-4.017 2.089-9.482 6.909-16.387 14.459.484.641 2.09 1.407 4.82 2.287 2.73.883 4.9 1.327 6.505 1.327.803 0 1.888-.202 3.255-.601 1.363-.4 2.368-.601 3.013-.601 1.121 0 2.448.363 3.977 1.085 1.524.722 2.287 1.807 2.287 3.25 0 2.255-.964 4.38-2.892 6.385-1.928 2.013-3.94 3.013-6.026 3.013-1.928 0-4.182-.242-6.748-.726-2.569-.48-4.259-.803-5.057-.964-7.228-.641-11.729-2.65-13.495-6.026-.646 0-3.538.843-8.676 2.53-5.142 1.685-11.97 2.931-20.48 3.734 1.766-3.05 6.263-5.9 13.495-8.555 7.231-2.653 12.2-5.17 14.93-7.582z"/><path style="fill:#870000" d="M261.029 44.133c-.16 0-.478.1-.956.299l-.239.478c-.2.319-.379.558-.538.717-.598-.358-.896-1.513-.896-3.465 0-1.513.079-2.608.239-3.286 1.474-.239 3.097-.598 4.87-1.076 1.771-.478 2.877-.717 3.316-.717.836 0 1.254.279 1.254.836l-.418 1.553a12.357 12.357 0 0 0-.418 3.227c0 .637.04 1.314.12 2.031.756.04 1.573.16 2.45.358.875.2 1.782.598 2.718 1.195.936.598 1.404 1.295 1.404 2.091 0 .678-.26 1.195-.777 1.553-.518.358-1.175.538-1.972.538-.2 0-.648.13-1.344.389-.698.258-1.225.388-1.583.388-.518 0-1.464-.269-2.838-.807s-2.34-.986-2.897-1.344c-.2.08-.409.209-.627.388-.219.18-.388.269-.508.269-.2 0-.836-.159-1.912-.478 0 .041-.01.16-.03.358-.02.2-.04.349-.06.448-.021.1-.04.219-.06.358a.567.567 0 0 1-.15.329.404.404 0 0 1-.298.12c-.12 0-.25-.08-.389-.239a2.046 2.046 0 0 1-.358-.627c-.1-.258-.2-.508-.298-.747a7.046 7.046 0 0 1-.269-.777 4.465 4.465 0 0 0-.179-.538h-.717c-.757 0-1.455-.12-2.091-.358-.638-.239-.956-.577-.956-1.016 0-.039.009-.099.03-.179.019-.08.029-.159.029-.239.359 0 .856.04 1.494.12.637.08 1.135.12 1.494.12h.239a18.74 18.74 0 0 0-.239-1.344l-.299-1.434c-.081-.378-.12-.667-.12-.866 0-.079.079-.199.239-.358.478.08.826.309 1.045.687.219.379.408.906.568 1.583.159.678.359 1.235.598 1.673.557 0 1.314-.159 2.27-.478 0-.119.01-.397.03-.836.018-.439.029-.738.029-.897zm7.468-8.185c-1.195 0-2.967.349-5.317 1.045-2.351.697-3.904 1.045-4.66 1.045-2.39 0-3.943-.438-4.661-1.314.717-.438 1.255-.657 1.614-.657.397 0 1.005.1 1.822.299.816.2 1.503.298 2.062.298.796 0 1.334-.079 1.613-.239.278-.159.418-.517.418-1.076 0-.119-.11-.209-.329-.269-.22-.06-.369-.149-.448-.269 0-.159.03-.278.089-.358.061-.079.159-.188.299-.329.139-.139.248-.289.329-.448.079-.12.229-.368.448-.747.219-.378.398-.637.538-.777a.691.691 0 0 1 .508-.209c.278 0 .418.2.418.597 0 .319-.03.648-.089.986a8.14 8.14 0 0 1-.299 1.135 6.78 6.78 0 0 0-.269.986c.08.2.218.299.418.299.239 0 .587-.458 1.045-1.375.457-.916.687-1.573.687-1.971 0-.239-.129-.468-.388-.687-.26-.219-.429-.389-.508-.508.318-.717 1.016-1.274 2.091-1.673.796.279 1.195 1.016 1.195 2.21 0 .398-.169.876-.508 1.434-.338.559-.528 1.076-.567 1.554.318-.04.756-.12 1.314-.239.558-.12 1.115-.209 1.673-.269.557-.06 1.155-.09 1.792-.09 1.274 0 2.011.14 2.21.418a2.68 2.68 0 0 1-1.314 1.254c-.518-.036-1.593-.056-3.226-.056zm-9.559 11.65c.159.398.299.717.418.956.557-.12 1.195-.338 1.912-.657-.2-.239-.299-.557-.299-.956zm.896-7.887v1.076h.119l.12.06 1.075-.179c0-.318.04-.717.12-1.195zm1.195 1.972c-.239.041-.499.081-.776.12-.24 0-.369.021-.389.06a.605.605 0 0 0-.03.239v.239c0 .081.009.219.03.418.02.2.03.339.03.418.199 0 .577-.039 1.135-.119zm1.493-2.509c0 .2-.03.418-.09.658-.06.239-.089.438-.089.597.397-.08.856-.169 1.374-.269.517-.099.896-.169 1.135-.209 0-.199.009-.438.03-.717.02-.278.03-.498.03-.657-.358.08-.777.189-1.254.329a8.708 8.708 0 0 1-1.136.268zm-.179 2.27v1.314c.557-.04 1.354-.219 2.39-.538 0-.598.02-1.055.06-1.375-.877.281-1.693.48-2.45.599zm.12 2.39v1.613a11.566 11.566 0 0 0 2.33-.657c0-.677-.021-1.195-.06-1.553-.2.08-.548.179-1.045.299-.499.119-.907.219-1.225.298zm.059 2.688c0 .638.099.956.299.956.159 0 .329-.03.508-.089.179-.06.418-.149.717-.269.299-.12.587-.218.866-.299-.08-.438-.1-.756-.06-.956-.238.041-1.015.26-2.33.657zm5.019-.716c0 .081.03.26.089.538.06.279.09.519.09.717 0 .2-.06.418-.179.657-.757.518-1.494.776-2.211.776-.04-.039-.1-.159-.179-.358a7.207 7.207 0 0 0-.179-.418c-.239.08-.508.219-.806.418-.299.2-.548.339-.747.418.158.239.557.488 1.195.747.637.26 1.135.389 1.493.389.239 0 .468-.05.687-.149.219-.099.458-.249.717-.448.258-.199.468-.338.627-.418.199-.08.587-.139 1.165-.18.577-.039 1.016-.149 1.314-.328.298-.18.448-.488.448-.926 0-.318-.418-.627-1.254-.926-.836-.299-1.593-.469-2.27-.509z" transform="translate(-992.063 -33.177) scale(4.03323)"/></svg>