<svg xmlns="http://www.w3.org/2000/svg" width="139.764" height="200" xml:space="preserve"><path d="M139.76 14.459V185.54c0 4.013-1.407 7.43-4.214 10.24-2.81 2.811-6.227 4.219-10.244 4.219H14.459c-4.017 0-7.433-1.408-10.244-4.219C1.404 192.971 0 189.554 0 185.541V14.46c0-4.013 1.404-7.43 4.215-10.24C7.025 1.408 10.438 0 14.459 0h110.843c4.013 0 7.43 1.408 10.244 4.219 2.811 2.815 4.215 6.227 4.215 10.24zM125.307 7.23H14.463c-2.093 0-3.82.686-5.183 2.05-1.367 1.367-2.049 3.097-2.049 5.182v171.082c0 2.085.682 3.816 2.05 5.183 1.363 1.363 3.089 2.049 5.182 2.049h110.843c2.09 0 3.815-.686 5.179-2.05 1.363-1.366 2.048-3.097 2.048-5.182V14.46c0-2.085-.685-3.816-2.048-5.183-1.364-1.359-3.094-2.045-5.179-2.045z"/><path style="fill:#133f00" d="M304.882 92.945c.637-.278 1.135-.239 1.494.12.397.398.438.896.119 1.494l2.21 2.21v-1.076c-.996-.318-1.493-.796-1.493-1.434 0-.637.498-1.115 1.493-1.434v-3.764c-.996-.518-1.493-1.115-1.493-1.792 0-.836 1.195-1.255 3.584-1.255 2.39 0 3.585.418 3.585 1.255 0 .678-.499 1.275-1.494 1.792v3.764c.996.319 1.494.797 1.494 1.434 0 .638-.499 1.116-1.494 1.434v3.764c.996.518 1.494 1.116 1.494 1.792 0 .836-1.195 1.254-3.585 1.254-2.39 0-3.584-.418-3.584-1.254 0-.358.199-.737.598-1.135l-3.406-3.405c-.638.279-1.135.239-1.494-.12-.399-.398-.439-.896-.12-1.494l-1.255-1.255-1.254 1.255c.278.597.239 1.075-.12 1.434-.398.398-.896.458-1.493.179l-3.406 3.405c.398.398.598.777.598 1.135 0 .836-1.195 1.254-3.584 1.254-2.39 0-3.585-.418-3.585-1.254 0-.677.498-1.274 1.494-1.792v-3.764c-.997-.318-1.494-.796-1.494-1.434 0-.637.498-1.115 1.494-1.434V89.06c-.997-.518-1.494-1.115-1.494-1.792 0-.836 1.195-1.255 3.585-1.255 2.39 0 3.584.418 3.584 1.255 0 .678-.498 1.275-1.493 1.792v3.764c.995.319 1.493.797 1.493 1.434 0 .638-.498 1.116-1.493 1.434v1.076l2.21-2.21c-.319-.598-.279-1.095.12-1.494.358-.359.855-.398 1.493-.12l1.375-1.314c-.319-.438-.478-.875-.478-1.314 0-.756.338-1.135 1.016-1.135.557 0 1.035.18 1.434.538a2.071 2.071 0 0 1 1.434-.538c.677 0 1.016.379 1.016 1.135 0 .439-.16.876-.478 1.314zm-6.692 23.54c-.638.279-1.135.239-1.493-.119-.399-.398-.439-.896-.12-1.494l-2.21-2.21v1.075c.995.319 1.493.797 1.493 1.434 0 .637-.498 1.115-1.493 1.434v3.764c.995.518 1.493 1.115 1.493 1.792 0 .836-1.195 1.254-3.584 1.254-2.39 0-3.585-.418-3.585-1.254 0-.677.498-1.274 1.494-1.792v-3.764c-.997-.318-1.494-.796-1.494-1.434 0-.637.498-1.115 1.494-1.434v-3.764c-.997-.518-1.494-1.115-1.494-1.792 0-.837 1.195-1.255 3.585-1.255 2.39 0 3.584.418 3.584 1.255 0 .358-.2.737-.598 1.135l3.406 3.406c.637-.278 1.135-.239 1.493.12.398.398.438.896.12 1.494l1.254 1.254 1.255-1.254c-.279-.598-.239-1.076.12-1.434.398-.397.896-.458 1.494-.179l3.406-3.406c-.399-.397-.598-.776-.598-1.135 0-.837 1.195-1.255 3.584-1.255 2.39 0 3.585.418 3.585 1.255 0 .678-.499 1.275-1.494 1.792v3.764c.996.319 1.494.797 1.494 1.434 0 .637-.499 1.115-1.494 1.434v3.764c.996.518 1.494 1.115 1.494 1.792 0 .836-1.195 1.254-3.585 1.254-2.39 0-3.584-.418-3.584-1.254 0-.677.498-1.274 1.493-1.792v-3.764c-.996-.318-1.493-.796-1.493-1.434 0-.637.498-1.115 1.493-1.434v-1.075l-2.21 2.21c.318.597.278 1.096-.119 1.494-.358.358-.857.398-1.494.119l-1.375 1.315c.318.438.478.876.478 1.314 0 .757-.339 1.135-1.016 1.135a2.066 2.066 0 0 1-1.434-.538 2.071 2.071 0 0 1-1.434.538c-.678 0-1.016-.378-1.016-1.135 0-.438.159-.875.478-1.314zm-6.81-29.215v5.258c.199-.04.498-.06.896-.06.397 0 .697.021.896.06V87.27a5.029 5.029 0 0 0-.896-.06c-.399 0-.697.02-.896.06zm0 8.125c.079 0 .218.011.418.03.199.021.358.03.478.03s.278-.009.478-.03c.199-.02.338-.03.418-.03v-2.27c-.08 0-.219-.009-.418-.03-.2-.02-.358-.03-.478-.03s-.279.01-.478.03c-.2.021-.339.03-.418.03zm1.792 5.855v-5.258c-.199.04-.499.06-.896.06-.398 0-.697-.02-.896-.06v5.258c.199.04.498.06.896.06.397 0 .697-.02.896-.06zm-1.792 6.931v5.257c.199-.039.498-.06.896-.06.397 0 .697.021.896.06v-5.257c-.199-.04-.499-.06-.896-.06-.399 0-.697.02-.896.06zm1.792 5.855c-.08 0-.219-.009-.418-.03-.2-.02-.358-.03-.478-.03s-.279.01-.478.03c-.2.021-.339.03-.418.03v2.271c.079 0 .218.01.418.03.199.021.358.03.478.03s.278-.009.478-.03c.199-.02.338-.03.418-.03zm0 8.125v-5.258c-.199.04-.499.06-.896.06-.398 0-.697-.02-.896-.06v5.258c.199.04.498.06.896.06.397 0 .697-.02.896-.06zm4.78-25.99a2.774 2.774 0 0 1-.836-.836l-2.748 2.688v1.434l.179.12zm-.837 17.924c.239-.358.517-.637.836-.836l-3.405-3.406-.179.12v1.434zm.419-19.178c.039.04.089.1.149.179.06.08.129.16.209.239.079.081.158.149.239.209.08.06.159.13.239.209l1.016-1.016a2.113 2.113 0 0 1-.208-.239 2.463 2.463 0 0 0-.209-.239l-.179-.179a.979.979 0 0 0-.239-.18zm.836 18.76c-.08.08-.159.149-.239.209-.081.06-.16.13-.239.209-.081.04-.13.081-.15.12-.02.04-.05.089-.089.149-.04.06-.08.11-.119.149l1.016 1.016a.925.925 0 0 0 .239-.179l.179-.179c.08-.08.149-.159.209-.239.06-.079.129-.159.208-.239zm4.899-19.358c.318-.397.598-.677.836-.836l-1.972-2.031v-1.314a1.989 1.989 0 0 0-.598-.12c-.16 0-.358.041-.597.12v1.314l-1.972 2.031c.239.16.517.439.836.836l1.732-1.732zm-3.465 20.792c-.319.399-.598.678-.836.836l1.972 2.031v1.315c.239.08.438.119.597.119.159 0 .359-.039.598-.119v-1.315l1.972-2.031c-.239-.159-.518-.438-.836-.836l-1.733 1.733zm4.899-19.358c.079-.079.159-.149.239-.209.08-.06.159-.129.239-.209.08-.039.129-.079.15-.119.019-.04.049-.09.089-.149a.97.97 0 0 1 .119-.149l-1.016-1.016a.96.96 0 0 0-.239.18l-.179.179c-.081.08-.149.16-.209.239-.06.081-.13.16-.209.239zm.836 18.761a1.633 1.633 0 0 1-.149-.179 2.35 2.35 0 0 0-.448-.448 2.14 2.14 0 0 1-.239-.209l-1.016 1.016c.079.08.149.16.209.239.06.081.128.16.209.239l.179.179c.08.08.159.14.239.179zm.419-19.179a2.785 2.785 0 0 1-.836.836l3.405 3.406.179-.12v-1.434zm-.837 17.924c.318.2.598.478.836.836l2.748-2.688v-1.434l-.179-.12zm4.78-25.989v5.258c.199-.04.498-.06.896-.06s.696.021.896.06V87.27c-.2-.039-.498-.06-.896-.06-.399 0-.697.02-.896.06zm0 8.125c.079 0 .218.011.418.03.199.021.358.03.478.03s.278-.009.478-.03c.199-.02.338-.03.418-.03v-2.27c-.08 0-.219-.009-.418-.03-.2-.02-.358-.03-.478-.03s-.279.01-.478.03c-.2.021-.339.03-.418.03zm1.792 5.855v-5.258c-.2.04-.498.06-.896.06s-.697-.02-.896-.06v5.258c.199.04.498.06.896.06s.696-.02.896-.06zm-1.792 6.931v5.257c.199-.039.498-.06.896-.06s.696.021.896.06v-5.257c-.2-.04-.498-.06-.896-.06-.399 0-.697.02-.896.06zm1.792 5.855c-.08 0-.219-.009-.418-.03-.2-.02-.358-.03-.478-.03s-.279.01-.478.03c-.2.021-.339.03-.418.03v2.271c.079 0 .218.01.418.03.199.021.358.03.478.03s.278-.009.478-.03c.199-.02.338-.03.418-.03zm0 8.125v-5.258c-.2.04-.498.06-.896.06s-.697-.02-.896-.06v5.258c.199.04.498.06.896.06s.696-.02.896-.06z" transform="translate(-1146.258 -322.33) scale(4.03315)"/></svg>