<svg xmlns="http://www.w3.org/2000/svg" width="139.764" height="200" xml:space="preserve"><path d="M139.764 14.455v171.086c0 4.013-1.408 7.43-4.215 10.24-2.811 2.811-6.227 4.219-10.244 4.219H14.459c-4.017 0-7.433-1.408-10.244-4.219C1.404 192.971 0 189.554 0 185.541V14.455c0-4.013 1.404-7.43 4.215-10.24C7.025 1.404 10.438 0 14.459 0h110.846c4.013 0 7.429 1.408 10.244 4.215 2.807 2.81 4.215 6.227 4.215 10.24zm-14.46-7.227H14.46c-2.093 0-3.82.685-5.183 2.048-1.367 1.368-2.048 3.098-2.048 5.183v171.086c0 2.085.681 3.815 2.048 5.183 1.364 1.363 3.09 2.048 5.183 2.048h110.846c2.089 0 3.815-.685 5.178-2.048 1.363-1.368 2.05-3.098 2.05-5.183V14.455c0-2.085-.687-3.815-2.05-5.183-1.363-1.359-3.09-2.044-5.178-2.044z"/><path style="fill:#00082d" d="M327.2 179.883c-.961-.96-1.441-2.119-1.441-3.473 0-1.354.48-2.512 1.441-3.473.961-.96 2.119-1.442 3.473-1.442 1.048 0 1.987.295 2.818.885a4.841 4.841 0 0 1 1.769 2.26 4.837 4.837 0 0 1 1.77-2.26c.83-.59 1.77-.885 2.817-.885 1.049 0 1.988.295 2.818.885a4.85 4.85 0 0 1 1.77 2.26c.348-.917.938-1.671 1.769-2.26.829-.59 1.77-.885 2.818-.885 1.353 0 2.511.481 3.473 1.442.96.961 1.441 2.119 1.441 3.473 0 1.354-.481 2.513-1.441 3.473-.962.961-2.12 1.441-3.473 1.441-1.048 0-1.989-.294-2.818-.884-.83-.59-1.42-1.343-1.769-2.261a4.857 4.857 0 0 1-1.77 2.261c-.83.59-1.769.884-2.818.884-1.048 0-1.988-.294-2.817-.884a4.84 4.84 0 0 1-1.77-2.261 4.848 4.848 0 0 1-1.769 2.261c-.831.59-1.77.884-2.818.884-1.355 0-2.512-.48-3.473-1.441zm.688-6.258c-.765.765-1.147 1.693-1.147 2.785s.382 2.021 1.147 2.785c.764.765 1.692 1.146 2.785 1.146 1.092 0 2.02-.382 2.785-1.146.764-.764 1.147-1.693 1.147-2.785s-.383-2.02-1.147-2.785c-.765-.764-1.693-1.147-2.785-1.147s-2.021.383-2.785 1.147zm9.174 0c-.765.765-1.147 1.693-1.147 2.785s.382 2.021 1.147 2.785c.764.765 1.692 1.146 2.785 1.146 1.092 0 2.02-.382 2.785-1.146.764-.764 1.147-1.693 1.147-2.785s-.383-2.02-1.147-2.785c-.765-.764-1.693-1.147-2.785-1.147-1.093 0-2.021.383-2.785 1.147zm9.174 0c-.765.765-1.147 1.693-1.147 2.785s.382 2.021 1.147 2.785c.764.765 1.692 1.146 2.785 1.146 1.091 0 2.02-.382 2.785-1.146.764-.764 1.147-1.693 1.147-2.785s-.383-2.02-1.147-2.785c-.765-.764-1.693-1.147-2.785-1.147-1.093 0-2.021.383-2.785 1.147z" transform="translate(-1300.504 -611.503) scale(4.03323)"/><path style="fill:#870000" d="M328.347 178.736c-.634-.633-.951-1.409-.951-2.326s.316-1.693.951-2.327c.633-.632 1.409-.95 2.326-.95s1.693.317 2.327.95c.633.634.95 1.409.95 2.327 0 .917-.317 1.693-.95 2.326-.634.633-1.409.95-2.327.95-.917.001-1.693-.316-2.326-.95zm.688-2.391c0-.394.13-.721.393-.983 0-.349-.131-.655-.393-.917l-.59.065c-.481.569-.72 1.203-.72 1.901v.196l.458.458c.349-.043.633-.283.852-.72zm1.245 1.637a1.382 1.382 0 0 1-.983-.721l-.524-.131-.459.197-.131.655c.48.699 1.07 1.114 1.769 1.245l.59-.262v-.525zm-.983-3.734c.131.393.394.612.787.655.262-.086.458-.13.589-.13.131 0 .328.044.59.13.393-.042.655-.262.787-.655l-.263-.59c-.306-.131-.678-.196-1.114-.196-.437 0-.809.065-1.114.196zm.459 1.245a1.255 1.255 0 0 0-.394.917c0 .35.131.655.394.917.262.262.567.394.917.394.349 0 .655-.131.917-.394s.394-.567.394-.917c0-.349-.131-.655-.394-.917a1.257 1.257 0 0 0-.917-.393c-.35 0-.655.131-.917.393zm.917 1.572c-.437 0-.655-.218-.655-.655 0-.437.218-.655.655-.655.436 0 .655.219.655.655 0 .437-.219.655-.655.655zm.721 2.163c.698-.131 1.288-.546 1.77-1.245l-.132-.655-.458-.197-.523.131a1.39 1.39 0 0 1-.983.721l-.262.458v.525zm.918-2.883c.218.437.501.678.852.72l.458-.458v-.196c0-.698-.241-1.332-.721-1.901l-.589-.065a1.258 1.258 0 0 0-.394.917c.262.262.394.589.394.983zm5.209 2.391c-.634-.633-.95-1.409-.95-2.326s.316-1.693.95-2.327c.633-.632 1.409-.95 2.326-.95s1.692.317 2.326.95c.633.634.951 1.409.951 2.327 0 .917-.317 1.693-.951 2.326-.634.633-1.409.95-2.326.95-.917.001-1.694-.316-2.326-.95zm.687-2.391c0-.394.131-.721.393-.983 0-.349-.131-.655-.393-.917l-.589.065c-.482.569-.721 1.203-.721 1.901v.196l.458.458c.35-.043.633-.283.852-.72zm1.246 1.637a1.384 1.384 0 0 1-.983-.721l-.524-.131-.459.197-.131.655c.48.699 1.07 1.114 1.77 1.245l.589-.262v-.525zm-.983-3.734c.131.393.394.612.787.655.262-.086.458-.13.589-.13.131 0 .328.044.59.13.393-.042.655-.262.787-.655l-.262-.59c-.306-.131-.678-.196-1.114-.196-.436 0-.809.065-1.114.196zm.459 1.245a1.255 1.255 0 0 0-.394.917c0 .35.131.655.394.917.262.262.567.394.917.394.349 0 .656-.131.917-.394.263-.262.394-.567.394-.917 0-.349-.131-.655-.394-.917a1.257 1.257 0 0 0-.917-.393c-.35 0-.655.131-.917.393zm.917 1.572c-.437 0-.655-.218-.655-.655 0-.437.218-.655.655-.655.437 0 .656.219.656.655-.001.437-.22.655-.656.655zm.721 2.163c.698-.131 1.288-.546 1.769-1.245l-.13-.655-.459-.197-.524.131a1.388 1.388 0 0 1-.983.721l-.262.458v.525zm.917-2.883c.218.437.501.678.852.72l.458-.458v-.196c0-.698-.24-1.332-.721-1.901l-.589-.065a1.258 1.258 0 0 0-.394.917c.263.262.394.589.394.983zm5.21 2.391c-.634-.633-.95-1.409-.95-2.326s.316-1.693.95-2.327c.632-.632 1.409-.95 2.326-.95s1.692.317 2.326.95c.633.634.95 1.409.95 2.327 0 .917-.317 1.693-.95 2.326-.634.633-1.409.95-2.326.95-.917.001-1.694-.316-2.326-.95zm.688-2.391c0-.394.13-.721.393-.983 0-.349-.131-.655-.393-.917l-.59.065c-.481.569-.721 1.203-.721 1.901v.196l.458.458c.349-.043.634-.283.853-.72zm1.245 1.637a1.382 1.382 0 0 1-.983-.721l-.524-.131-.459.197-.131.655c.48.699 1.07 1.114 1.77 1.245l.589-.262v-.525zm-.983-3.734c.131.393.394.612.787.655.262-.086.458-.13.59-.13.132 0 .328.044.589.13.394-.042.656-.262.787-.655l-.263-.59c-.306-.131-.678-.196-1.114-.196-.438 0-.809.065-1.114.196zm.459 1.245a1.258 1.258 0 0 0-.394.917c0 .35.132.655.394.917s.567.394.917.394c.349 0 .655-.131.917-.394.263-.262.394-.567.394-.917 0-.349-.131-.655-.394-.917a1.257 1.257 0 0 0-.917-.393c-.35 0-.656.131-.917.393zm.917 1.572c-.438 0-.656-.218-.656-.655 0-.437.218-.655.656-.655.436 0 .655.219.655.655 0 .437-.219.655-.655.655zm.721 2.163c.698-.131 1.288-.546 1.77-1.245l-.131-.655-.459-.197-.523.131a1.39 1.39 0 0 1-.983.721l-.262.458v.525zm.917-2.883c.218.437.502.678.852.72l.458-.458v-.196c0-.698-.24-1.332-.721-1.901l-.59-.065a1.257 1.257 0 0 0-.393.917c.263.262.394.589.394.983z" transform="translate(-1300.504 -611.503) scale(4.03323)"/><path style="fill:#00082d" d="M327.2 165.139c-.961-.96-1.441-2.119-1.441-3.473 0-1.354.48-2.511 1.441-3.473.961-.961 2.119-1.442 3.473-1.442 1.048 0 1.987.295 2.818.885a4.844 4.844 0 0 1 1.769 2.261 4.844 4.844 0 0 1 1.77-2.261c.83-.59 1.77-.885 2.817-.885 1.049 0 1.988.295 2.818.885a4.852 4.852 0 0 1 1.77 2.261c.348-.917.938-1.671 1.769-2.261.829-.59 1.77-.885 2.818-.885 1.353 0 2.511.481 3.473 1.442.96.961 1.441 2.119 1.441 3.473 0 1.354-.481 2.513-1.441 3.473-.962.961-2.12 1.442-3.473 1.442-1.048 0-1.989-.295-2.818-.885-.83-.59-1.42-1.344-1.769-2.261a4.857 4.857 0 0 1-1.77 2.261 4.751 4.751 0 0 1-2.818.885c-1.048 0-1.988-.295-2.817-.885a4.844 4.844 0 0 1-1.77-2.261 4.848 4.848 0 0 1-1.769 2.261 4.756 4.756 0 0 1-2.818.885c-1.355 0-2.512-.48-3.473-1.442zm0 29.487c-.961-.96-1.441-2.118-1.441-3.473 0-1.354.48-2.512 1.441-3.473.961-.961 2.119-1.442 3.473-1.442 1.048 0 1.987.295 2.818.885a4.839 4.839 0 0 1 1.769 2.261 4.844 4.844 0 0 1 1.77-2.261c.83-.59 1.77-.885 2.817-.885 1.049 0 1.988.295 2.818.885a4.847 4.847 0 0 1 1.77 2.261c.348-.917.938-1.671 1.769-2.261.829-.59 1.77-.885 2.818-.885 1.353 0 2.511.481 3.473 1.442.96.961 1.441 2.119 1.441 3.473 0 1.354-.481 2.513-1.441 3.473-.962.962-2.12 1.442-3.473 1.442-1.048 0-1.989-.295-2.818-.884-.83-.59-1.42-1.344-1.769-2.261a4.857 4.857 0 0 1-1.77 2.261 4.75 4.75 0 0 1-2.818.884 4.748 4.748 0 0 1-2.817-.884 4.844 4.844 0 0 1-1.77-2.261 4.848 4.848 0 0 1-1.769 2.261 4.755 4.755 0 0 1-2.818.884c-1.355 0-2.512-.48-3.473-1.442zm.688-35.745c-.765.765-1.147 1.693-1.147 2.785 0 1.093.382 2.021 1.147 2.785.764.765 1.692 1.146 2.785 1.146 1.092 0 2.02-.382 2.785-1.146.764-.764 1.147-1.692 1.147-2.785 0-1.092-.383-2.02-1.147-2.785-.765-.764-1.693-1.147-2.785-1.147s-2.021.383-2.785 1.147zm0 29.488c-.765.765-1.147 1.693-1.147 2.785 0 1.093.382 2.021 1.147 2.785.764.765 1.692 1.147 2.785 1.147 1.092 0 2.02-.382 2.785-1.147.764-.763 1.147-1.692 1.147-2.785 0-1.092-.383-2.02-1.147-2.785-.765-.764-1.693-1.147-2.785-1.147s-2.021.383-2.785 1.147zm.459-24.377c-.634-.633-.951-1.409-.951-2.326s.316-1.692.951-2.326c.633-.633 1.409-.95 2.326-.95s1.693.317 2.327.95c.633.634.95 1.409.95 2.326s-.317 1.693-.95 2.326c-.634.634-1.409.951-2.327.951-.917 0-1.693-.317-2.326-.951zm0 29.488c-.634-.633-.951-1.409-.951-2.326s.316-1.692.951-2.327c.633-.633 1.409-.95 2.326-.95s1.693.317 2.327.95c.633.634.95 1.41.95 2.327s-.317 1.693-.95 2.326c-.634.634-1.409.951-2.327.951-.917 0-1.693-.317-2.326-.951zm.688-31.879c0-.394.13-.721.393-.983 0-.35-.131-.656-.393-.918l-.59.066c-.481.568-.72 1.202-.72 1.9v.197l.458.458c.349-.043.633-.283.852-.72zm0 29.488c0-.394.13-.722.393-.983 0-.349-.131-.656-.393-.917l-.59.065c-.481.568-.72 1.202-.72 1.9v.197l.458.458c.349-.043.633-.284.852-.72zm1.245-27.85a1.385 1.385 0 0 1-.983-.721l-.524-.13-.459.196-.131.655c.48.7 1.07 1.114 1.769 1.245l.59-.262v-.524zm0 29.488a1.385 1.385 0 0 1-.983-.721l-.524-.131-.459.196-.131.656c.48.699 1.07 1.114 1.769 1.245l.59-.262v-.524zm-.983-33.223c.131.393.394.612.787.655.262-.086.458-.131.589-.131.131 0 .328.044.59.131.393-.043.655-.262.787-.655l-.263-.59c-.306-.131-.678-.197-1.114-.197-.437 0-.809.065-1.114.197zm0 29.488c.131.393.394.612.787.655.262-.086.458-.131.589-.131.131 0 .328.045.59.131.393-.043.655-.262.787-.655l-.263-.59c-.306-.131-.678-.197-1.114-.197-.437 0-.809.066-1.114.197zm.459-28.243a1.255 1.255 0 0 0-.394.917c0 .351.131.655.394.917.262.263.567.393.917.393.349 0 .655-.13.917-.393.262-.262.394-.567.394-.917 0-.349-.131-.655-.394-.917a1.258 1.258 0 0 0-.917-.394c-.35 0-.655.132-.917.394zm0 29.488a1.255 1.255 0 0 0-.394.917c0 .351.131.655.394.917.262.263.567.394.917.394.349 0 .655-.131.917-.394.262-.262.394-.566.394-.917 0-.349-.131-.655-.394-.917a1.253 1.253 0 0 0-.917-.393c-.35 0-.655.13-.917.393zm.917-27.916c-.437 0-.655-.218-.655-.655 0-.436.218-.655.655-.655.436 0 .655.219.655.655 0 .437-.219.655-.655.655zm0 29.488c-.437 0-.655-.218-.655-.655 0-.436.218-.655.655-.655.436 0 .655.219.655.655 0 .437-.219.655-.655.655zm.721-27.325c.698-.131 1.288-.545 1.77-1.245l-.132-.655-.458-.196-.523.13a1.39 1.39 0 0 1-.983.721l-.262.458v.524zm0 29.487c.698-.131 1.288-.545 1.77-1.245l-.132-.656-.458-.196-.523.131c-.22.393-.547.634-.983.721l-.262.458v.524zm.918-32.37c.218.437.501.677.852.72l.458-.458v-.197c0-.698-.241-1.332-.721-1.9l-.589-.066a1.259 1.259 0 0 0-.394.918c.262.262.394.589.394.983zm0 29.488c.218.436.501.677.852.72l.458-.458v-.197c0-.698-.241-1.332-.721-1.9l-.589-.065a1.258 1.258 0 0 0-.394.917c.262.261.394.589.394.983zm4.75-32.208c-.765.765-1.147 1.693-1.147 2.785 0 1.093.382 2.021 1.147 2.785.764.765 1.692 1.146 2.785 1.146 1.092 0 2.02-.382 2.785-1.146.764-.764 1.147-1.692 1.147-2.785 0-1.092-.383-2.02-1.147-2.785-.765-.764-1.693-1.147-2.785-1.147-1.093 0-2.021.383-2.785 1.147zm0 29.488c-.765.765-1.147 1.693-1.147 2.785 0 1.093.382 2.021 1.147 2.785.764.765 1.692 1.147 2.785 1.147 1.092 0 2.02-.382 2.785-1.147.764-.763 1.147-1.692 1.147-2.785 0-1.092-.383-2.02-1.147-2.785-.765-.764-1.693-1.147-2.785-1.147-1.093 0-2.021.383-2.785 1.147zm.459-24.377c-.634-.633-.95-1.409-.95-2.326s.316-1.692.95-2.326c.633-.633 1.409-.95 2.326-.95s1.692.317 2.326.95c.633.634.951 1.409.951 2.326s-.317 1.693-.951 2.326c-.634.634-1.409.951-2.326.951s-1.694-.317-2.326-.951zm0 29.488c-.634-.633-.95-1.409-.95-2.326s.316-1.692.95-2.327c.633-.633 1.409-.95 2.326-.95s1.692.317 2.326.95c.633.634.951 1.41.951 2.327s-.317 1.693-.951 2.326c-.634.634-1.409.951-2.326.951s-1.694-.317-2.326-.951zm.687-31.879c0-.394.131-.721.393-.983 0-.35-.131-.656-.393-.918l-.589.066c-.482.568-.721 1.202-.721 1.9v.197l.458.458c.35-.043.633-.283.852-.72zm0 29.488c0-.394.131-.722.393-.983 0-.349-.131-.656-.393-.917l-.589.065c-.482.568-.721 1.202-.721 1.9v.197l.458.458c.35-.043.633-.284.852-.72zm1.246-27.85a1.387 1.387 0 0 1-.983-.721l-.524-.13-.459.196-.131.655c.48.7 1.07 1.114 1.77 1.245l.589-.262v-.524zm0 29.488a1.387 1.387 0 0 1-.983-.721l-.524-.131-.459.196-.131.656c.48.699 1.07 1.114 1.77 1.245l.589-.262v-.524zm-.983-33.223c.131.393.394.612.787.655.262-.086.458-.131.589-.131.131 0 .328.044.59.131.393-.043.655-.262.787-.655l-.262-.59c-.306-.131-.678-.197-1.114-.197-.436 0-.809.065-1.114.197zm0 29.488c.131.393.394.612.787.655.262-.086.458-.131.589-.131.131 0 .328.045.59.131.393-.043.655-.262.787-.655l-.262-.59c-.306-.131-.678-.197-1.114-.197-.436 0-.809.066-1.114.197zm.459-28.243a1.255 1.255 0 0 0-.394.917c0 .351.131.655.394.917.262.263.567.393.917.393.349 0 .656-.13.917-.393.263-.262.394-.567.394-.917 0-.349-.131-.655-.394-.917a1.258 1.258 0 0 0-.917-.394c-.35 0-.655.132-.917.394zm0 29.488a1.255 1.255 0 0 0-.394.917c0 .351.131.655.394.917.262.263.567.394.917.394.349 0 .656-.131.917-.394.263-.262.394-.566.394-.917 0-.349-.131-.655-.394-.917a1.253 1.253 0 0 0-.917-.393c-.35 0-.655.13-.917.393zm.917-27.916c-.437 0-.655-.218-.655-.655 0-.436.218-.655.655-.655.437 0 .656.219.656.655-.001.437-.22.655-.656.655zm0 29.488c-.437 0-.655-.218-.655-.655 0-.436.218-.655.655-.655.437 0 .656.219.656.655-.001.437-.22.655-.656.655zm.721-27.325c.698-.131 1.288-.545 1.769-1.245l-.13-.655-.459-.196-.524.13a1.388 1.388 0 0 1-.983.721l-.262.458v.524zm0 29.487c.698-.131 1.288-.545 1.769-1.245l-.13-.656-.459-.196-.524.131a1.391 1.391 0 0 1-.983.721l-.262.458v.524zm.917-32.37c.218.437.501.677.852.72l.458-.458v-.197c0-.698-.24-1.332-.721-1.9l-.589-.066a1.259 1.259 0 0 0-.394.918c.263.262.394.589.394.983zm0 29.488c.218.436.501.677.852.72l.458-.458v-.197c0-.698-.24-1.332-.721-1.9l-.589-.065a1.258 1.258 0 0 0-.394.917c.263.261.394.589.394.983zm4.751-32.208c-.765.765-1.147 1.693-1.147 2.785 0 1.093.382 2.021 1.147 2.785.764.765 1.692 1.146 2.785 1.146 1.091 0 2.02-.382 2.785-1.146.764-.764 1.147-1.692 1.147-2.785 0-1.092-.383-2.02-1.147-2.785-.765-.764-1.693-1.147-2.785-1.147-1.093 0-2.021.383-2.785 1.147zm0 29.488c-.765.765-1.147 1.693-1.147 2.785 0 1.093.382 2.021 1.147 2.785.764.765 1.692 1.147 2.785 1.147 1.091 0 2.02-.382 2.785-1.147.764-.763 1.147-1.692 1.147-2.785 0-1.092-.383-2.02-1.147-2.785-.765-.764-1.693-1.147-2.785-1.147-1.093 0-2.021.383-2.785 1.147zm.459-24.377c-.634-.633-.95-1.409-.95-2.326s.316-1.692.95-2.326c.632-.633 1.409-.95 2.326-.95s1.692.317 2.326.95c.633.634.95 1.409.95 2.326s-.317 1.693-.95 2.326c-.634.634-1.409.951-2.326.951s-1.694-.317-2.326-.951zm0 29.488c-.634-.633-.95-1.409-.95-2.326s.316-1.692.95-2.327c.632-.633 1.409-.95 2.326-.95s1.692.317 2.326.95c.633.634.95 1.41.95 2.327s-.317 1.693-.95 2.326c-.634.634-1.409.951-2.326.951s-1.694-.317-2.326-.951zm.688-31.879c0-.394.13-.721.393-.983 0-.35-.131-.656-.393-.918l-.59.066c-.481.568-.721 1.202-.721 1.9v.197l.458.458c.349-.043.634-.283.853-.72zm0 29.488c0-.394.13-.722.393-.983 0-.349-.131-.656-.393-.917l-.59.065c-.481.568-.721 1.202-.721 1.9v.197l.458.458c.349-.043.634-.284.853-.72zm1.245-27.85a1.385 1.385 0 0 1-.983-.721l-.524-.13-.459.196-.131.655c.48.7 1.07 1.114 1.77 1.245l.589-.262v-.524zm0 29.488a1.385 1.385 0 0 1-.983-.721l-.524-.131-.459.196-.131.656c.48.699 1.07 1.114 1.77 1.245l.589-.262v-.524zm-.983-33.223c.131.393.394.612.787.655.262-.086.458-.131.59-.131.132 0 .328.044.589.131.394-.043.656-.262.787-.655l-.263-.59c-.306-.131-.678-.197-1.114-.197-.438 0-.809.065-1.114.197zm0 29.488c.131.393.394.612.787.655.262-.086.458-.131.59-.131.132 0 .328.045.589.131.394-.043.656-.262.787-.655l-.263-.59c-.306-.131-.678-.197-1.114-.197-.438 0-.809.066-1.114.197zm.459-28.243a1.258 1.258 0 0 0-.394.917c0 .351.132.655.394.917.262.263.567.393.917.393.349 0 .655-.13.917-.393.263-.262.394-.567.394-.917 0-.349-.131-.655-.394-.917a1.258 1.258 0 0 0-.917-.394c-.35 0-.656.132-.917.394zm0 29.488a1.258 1.258 0 0 0-.394.917c0 .351.132.655.394.917.262.263.567.394.917.394.349 0 .655-.131.917-.394.263-.262.394-.566.394-.917 0-.349-.131-.655-.394-.917a1.253 1.253 0 0 0-.917-.393c-.35 0-.656.13-.917.393zm.917-27.916c-.438 0-.656-.218-.656-.655 0-.436.218-.655.656-.655.436 0 .655.219.655.655 0 .437-.219.655-.655.655zm0 29.488c-.438 0-.656-.218-.656-.655 0-.436.218-.655.656-.655.436 0 .655.219.655.655 0 .437-.219.655-.655.655zm.721-27.325c.698-.131 1.288-.545 1.77-1.245l-.131-.655-.459-.196-.523.13a1.39 1.39 0 0 1-.983.721l-.262.458v.524zm0 29.487c.698-.131 1.288-.545 1.77-1.245l-.131-.656-.459-.196-.523.131c-.22.393-.547.634-.983.721l-.262.458v.524zm.917-32.37c.218.437.502.677.852.72l.458-.458v-.197c0-.698-.24-1.332-.721-1.9l-.59-.066a1.258 1.258 0 0 0-.393.918c.263.262.394.589.394.983zm0 29.488c.218.436.502.677.852.72l.458-.458v-.197c0-.698-.24-1.332-.721-1.9l-.59-.065a1.257 1.257 0 0 0-.393.917c.263.261.394.589.394.983z" transform="translate(-1300.504 -611.503) scale(4.03323)"/></svg>