<svg xmlns="http://www.w3.org/2000/svg" viewBox="0 0 490.975 490.975" style="enable-background:new 0 0 490.975 490.975" xml:space="preserve"><path style="fill:#f9b233" d="M307.665 483.475H121.518V18.107l54.291 46.537h85.319l46.537-46.537v46.537z"/><circle style="fill:#fad399" cx="214.591" cy="289.572" r="46.537"/><path style="fill:#fad399" d="m168.054 64.644 46.537 54.293 46.537-54.293zm93.074 7.756h31.025V41.376c-.001 0-31.025 31.865-31.025 31.024zM137.03 41.376s31.025 31.865 31.025 31.025H137.03m100.83 69.804c-7.379 0-14.065 2.683-19.39 6.985-5.325-4.302-12.012-6.985-19.39-6.985-17.135 0-31.025 13.89-31.025 31.025 0 17.134 13.89 31.024 31.025 31.024 7.379 0 14.065-2.683 19.39-6.985 5.325 4.302 12.012 6.985 19.39 6.985 17.135 0 31.024-13.89 31.024-31.024 0-17.135-13.89-31.025-31.024-31.025z"/><path style="fill:#1d1d1b" d="M168.311 320.34h-8.013v-15h23.013v170.635h15.768v15h-30.768zm92.561 0h8.012v-15h-23.012v170.635h-15.768v15h30.768zm-92.818-208.903h15.513v15h-15.513zm77.562 0h15.513v15h-15.513zm-46.537 46.025h8.012v23.524h15v-23.524h8.013v-15h-31.025z"/><path style="fill:#1d1d1b" d="M385.226 165.218v-15h-70.062V0l-57.142 57.144H171.16L114.018 0v150.218H43.956v15h70.062v8.268H90.493v15h23.525v302.489h46.28v-15h-31.28V188.486h54.549v-15h-54.549v-8.268h54.549v-15h-54.549V36.214l35.929 35.93h99.288l35.929-35.93v114.004h-54.549v15h54.549v8.268h-54.549v15h54.549v287.489h-31.28v15h46.28V188.486h23.526v-15h-23.526v-8.268z"/><path style="fill:#1d1d1b" d="M338.69 490.975h-15.513v-15h15.513c8.694 0 15.769-7.074 15.769-15.768V312.84c0-25.52 20.762-46.281 46.28-46.281 25.519 0 46.28 20.761 46.28 46.281h-15c0-17.248-14.032-31.281-31.28-31.281s-31.28 14.033-31.28 31.281v147.367c-.001 16.965-13.804 30.768-30.769 30.768z"/></svg>