<svg xmlns="http://www.w3.org/2000/svg" width="139.764" height="200" xml:space="preserve"><path d="M139.76 14.459V185.54c0 4.013-1.41 7.43-4.218 10.24-2.811 2.807-6.227 4.219-10.244 4.219H14.455c-4.017 0-7.43-1.412-10.24-4.219C1.404 192.971 0 189.554 0 185.541V14.46c0-4.013 1.404-7.43 4.215-10.244C7.025 1.408 10.438 0 14.455 0h110.843c4.017 0 7.429 1.408 10.244 4.215 2.807 2.815 4.219 6.23 4.219 10.244zM125.299 7.23H14.455c-2.09 0-3.816.686-5.179 2.05-1.367 1.367-2.049 3.093-2.049 5.182v171.082c0 2.085.682 3.816 2.05 5.183 1.362 1.363 3.089 2.049 5.178 2.049h110.843c2.09 0 3.815-.686 5.183-2.05 1.363-1.366 2.048-3.097 2.048-5.182V14.463c0-2.09-.681-3.815-2.048-5.183-1.368-1.367-3.094-2.049-5.183-2.049z"/><path style="fill:#133f00" d="M232.59 252.585c-.159.399-.936.598-2.33.598-.2 0-.508-.009-.926-.03-.418-.02-.747-.03-.986-.03-.081 0-.229.01-.448.03-.219.021-.388.03-.508.03-.239 2.191-.418 3.386-.538 3.585-.279.398-.947.906-2.001 1.523-1.056.618-1.763.926-2.121.926-.2 0-.388-.079-.568-.239-.179-.159-.269-.338-.269-.538 0-.239.289-.558.866-.956.577-.398 1.195-.945 1.852-1.643a4.298 4.298 0 0 0 1.165-2.479c-.16.04-.578.089-1.254.149-.678.06-1.175.129-1.494.209a53.51 53.51 0 0 0-.807 1.703c-.299.658-.528 1.156-.687 1.494-.16.338-.349.687-.568 1.045-.219.358-.448.618-.687.777a1.475 1.475 0 0 1-.836.239c-.279 0-.578-.099-.896-.299a3.658 3.658 0 0 1-.777-.627c-.2-.219-.478-.547-.836-.986a14.496 14.496 0 0 0-.776-.896c-.2.08-.638.12-1.315.12-.637 0-1.155-.696-1.553-2.091 1.036.438 1.733.657 2.091.657.318 0 1.453-.438 3.405-1.314 1.951-.875 3.026-1.414 3.227-1.613-.041-.318-.379-.696-1.016-1.135-.399.081-.917.409-1.554.986-.638.578-1.135.866-1.494.866-.478 0-.817-.159-1.016-.478.278-.159.916-.598 1.912-1.314.995-.717 1.792-1.195 2.39-1.434.318-.397.478-.875.478-1.434a1.34 1.34 0 0 0-.598-.12c-.358 0-.857.2-1.494.598-1.275 1.514-2.39 2.599-3.346 3.256-.956.657-2.191 1.125-3.704 1.404 3.226-2.589 5.616-4.899 7.169-6.931-.12-.239-.667-.826-1.643-1.762-.977-.936-1.484-1.683-1.523-2.241.637.081 1.394.448 2.271 1.105.875.657 1.513 1.205 1.912 1.643 1.115-1.354 1.892-2.649 2.33-3.884-.438.04-1.056.26-1.852.658-.797.398-1.415.597-1.852.597-.319 0-.558-.08-.717-.239.039-.039.308-.239.806-.598.498-.358 1.055-.756 1.673-1.195a17.652 17.652 0 0 0 1.464-1.135c.239-.239.508-.558.807-.956.299-.398.568-.717.807-.956.239-.239.478-.358.717-.358s.478.089.717.269c.239.179.358.388.358.627 0 .04-.14.438-.418 1.195.12.2.498.657 1.135 1.374.358-.478.796-1.474 1.314-2.987.517-1.513.875-2.369 1.076-2.569.199.08.457.349.776.806.318.458.478.847.478 1.166 0 .119-.09.259-.269.418-.179.16-.309.319-.388.478-.478 1.235-1.195 2.53-2.151 3.883.677 1.036 1.095 1.634 1.255 1.792.836-.836 1.374-1.673 1.613-2.509.358.04.696.219 1.016.538.318.319.479.618.479.896 0 .279-.1.418-.299.418a1.29 1.29 0 0 0-.717.24 4.325 4.325 0 0 0-.747.657 5.47 5.47 0 0 1-.627.598c1.195 1.594 2.21 2.808 3.047 3.644.836.837 1.414 1.325 1.733 1.464.318.14.736.568 1.254 1.285.517.717 1.175 1.892 1.972 3.525-.399 0-.907-.158-1.523-.478a38.188 38.188 0 0 1-2.3-1.314c-.917-.557-1.713-.996-2.39-1.315-.239-.358-.538-1.045-.896-2.061s-1.016-2.3-1.971-3.854c-.319.16-.658.239-1.016.239.397-.677.597-1.036.597-1.076-1.075-2.07-2.052-3.564-2.928-4.48-.558 1.115-1.813 3.206-3.764 6.273.239.239.517.358.836.358.159 0 .378-.09.657-.269.278-.179.498-.269.657-.269.478 0 .796.16.956.479-.081.159-.2.298-.359.418-.16.12-.339.23-.538.329-.2.1-.358.189-.478.269-.239.399-.319.817-.239 1.254a5.486 5.486 0 0 0 1.971-.777c.518-1.871.777-3.465.777-4.779 0-.318-.021-.617-.06-.896.995.638 1.494 1.354 1.494 2.151 0 .279-.03.498-.089.657-.06.159-.14.319-.239.478-.1.16-.26.529-.478 1.105a36.286 36.286 0 0 0-.747 2.24c.198.239.358.359.478.359.278 0 .726-.159 1.344-.478.617-.318 1.145-.478 1.583-.478.398 0 .677.299.836.896-.081.08-.369.179-.866.298-.499.12-.866.26-1.105.418-.12.717-.2 1.474-.239 2.271.397 0 .836-.02 1.314-.06.478-.039.756-.06.836-.06.159 0 .348-.069.567-.208.218-.139.408-.189.567-.15.84.2 1.437.538 1.796 1.015zm-15.952 3.287c.637.638 1.473.956 2.51.956.397 0 .896-.418 1.493-1.254.598-.837.896-1.414.896-1.733 0-.239-.12-.438-.359-.597-1.991.916-3.505 1.791-4.54 2.628zm7.289-5.019c0-.12.03-.259.09-.418.06-.159.139-.389.239-.687.099-.299.169-.547.209-.747-1.037.16-1.893.578-2.569 1.255.079.358.259.627.538.806.278.179.438.309.478.389.318.677.498 1.075.538 1.195.199-.039 1.076-.179 2.629-.418a11.35 11.35 0 0 0 .239-2.211c-.518 0-.936-.06-1.254-.179-.56.637-.939.976-1.137 1.015zm4.839 4.481c.239-.239.737-.358 1.494-.358.916 0 1.792.239 2.629.717.836.478 1.255 1.016 1.255 1.613s-.309 1.085-.926 1.463a3.658 3.658 0 0 1-1.942.568c-.04 0-.09-.01-.149-.03a.494.494 0 0 0-.149-.03c-.199-.278-.438-.756-.717-1.434-.28-.676-.778-1.513-1.495-2.509z" transform="translate(-837.831 -900.643) scale(4.03315)"/></svg>