<svg xmlns="http://www.w3.org/2000/svg" width="139.764" height="200" xml:space="preserve"><path d="M139.757 14.455V185.54c0 4.013-1.408 7.43-4.215 10.24-2.811 2.807-6.227 4.219-10.244 4.219H14.455c-4.017 0-7.43-1.412-10.24-4.219C1.404 192.971 0 189.554 0 185.541V14.455c0-4.01 1.404-7.43 4.215-10.24C7.025 1.408 10.438 0 14.455 0h110.843c4.017 0 7.429 1.408 10.244 4.215 2.807 2.81 4.215 6.23 4.215 10.24zm-14.46-7.228H14.456c-2.09 0-3.816.686-5.179 2.05-1.367 1.366-2.049 3.093-2.049 5.178V185.54c0 2.09.682 3.811 2.05 5.183 1.362 1.363 3.089 2.049 5.178 2.049h110.843c2.09 0 3.815-.686 5.183-2.05 1.363-1.37 2.048-3.097 2.048-5.182V14.455c0-2.09-.685-3.812-2.048-5.179-1.368-1.363-3.094-2.049-5.183-2.049z"/><path style="fill:#003a37" d="M388.026 251.036h-.819c-.058 0-.13.032-.216.096l-.173.096c-.72.772-1.18 1.288-1.381 1.546-.087.258-.252.579-.497.964-.245.386-.367.645-.367.772l.475-.337c.345-.258.647-.531.907-.821.719-.514 1.179-.9 1.381-1.158.346-.258.519-.45.519-.58v-.192zm3.28 0c-.115-.127-.288-.194-.518-.194h-1.208c-.23 0-.417.13-.561.386-.432.258-.82.838-1.165 1.738v.194c0 .128-.058.192-.173.192l-.346.58c-.431 1.063-.719 1.707-.863 1.931 1.267-1.417 2.475-2.639 3.626-3.669.23-.258.46-.45.69-.58.346-.256.518-.449.518-.578z" transform="translate(-1541.193 -881.47) scale(4.03315)"/><path style="fill:#870000" d="M388.229 223.251c.47 0 .882.411 1.234 1.234-.118.589-.412 1.354-.881 2.294h.176c.442-.353.735-.544.882-.573h.706l.177.22v.177c-.471 1.765-.706 2.764-.706 3v.353h.176l.882-2.294h.177l-.706 4.413-.529.353c-.56-.353-.854-1.119-.883-2.294l.353-2.648c-1.176 1.177-1.897 1.766-2.162 1.766-.088 0-.192-.236-.309-.706v-.353c.941-1.501 1.412-2.912 1.412-4.235v-.707z" transform="translate(-1541.193 -881.47) scale(4.03315)"/><path style="fill:#003a37" d="M391.998 241.38c-.115 0-.404-.194-.864-.58a1.565 1.565 0 0 1-.518-.58c-.115 0-.202-.064-.259-.192a.93.93 0 0 1-.086-.386c-.576-.772-1.497-1.674-2.762-2.704.23.13.431.42.604.87.173.451.317.805.432 1.063.546.9.892 1.48 1.036 1.738.115.386.173.644.173.772l.172.337c.115.162.173.307.173.435l-.087.192a.939.939 0 0 0-.086.387c0 .129.115.258.345.388.115.128.23.192.345.192.202 0 .489-.064.863-.192.346-.258.519-.645.519-1.16zm3.97 10.235c0-.128-.115-.386-.345-.772-.345-.386-.749-1.158-1.208-2.316-.72-1.546-1.123-2.705-1.209-3.477v-1.352c0-.225-.188-.354-.561-.386-.922 0-1.482.065-1.684.194-.432.096-.663.289-.691.578 0 .129.173.452.518.966 1.237 2.703 1.856 4.185 1.856 4.441.46 1.514.705 2.351.733 2.51v.386c0 .388.287.58.864.58h.173c.431 0 .719-.064.863-.192.461-.291.691-.676.691-1.16zm-3.97.772h-.519c-.115.13-.23.452-.345.966-.115.482-.172 1.062-.172 1.738v3.477c.345-.901.748-2.125 1.209-3.671 0-.128.028-.353.086-.675a4.57 4.57 0 0 0 .086-.676c0-.513-.115-.901-.345-1.159z" transform="translate(-1541.193 -881.47) scale(4.03315)"/><path style="fill:#870000" d="M392.464 222.191c.823.325 1.411.736 1.765 1.235v.177c0 .236-.295 1-.883 2.294h.176c1.529-.471 2.706-.707 3.53-.707.852.236 1.264.472 1.234.707 0 .205-.882.308-2.646.308l-.706.397-.221-.177-1.544.177h-.176c-.559.854-1.147 1.265-1.765 1.236v-.178c.735-.852 1.323-2.206 1.765-4.058v-.353z" transform="translate(-1541.193 -881.47) scale(4.03315)"/><path style="fill:#870000" d="M394.582 226.956c.706.825 1.059 1.765 1.059 2.825-.236 3.175-.765 4.763-1.588 4.763h-.177c-.118 0-.235-.234-.353-.706-1.059-.558-1.587-1.147-1.587-1.764.706.353 1.234.529 1.587.529h.353c.354 0 .589-1.059.707-3.177l-.353-1.941c.116-.354.234-.529.352-.529z" transform="translate(-1541.193 -881.47) scale(4.03315)"/><path style="fill:#003a37" d="M398.904 262.043c-.547-1.414-1.065-3.539-1.554-6.371-.115-.935-.288-1.513-.518-1.739a2.99 2.99 0 0 0-1.9-.772c-.317 0-.49.515-.518 1.544 0 .386.021.772.065 1.159.043.386.186.772.431 1.158.244.386.424.646.54.774.691 1.641 1.036 3.315 1.036 5.021v1.158c0 .225.23.354.69.386.691 0 1.324-.322 1.9-.966.23-.258.345-.45.345-.579zm1.9-19.504c-.115-.258-.403-.386-.864-.386l-.69.386c-.921.514-1.842 1.931-2.763 4.249.346-.258.892-.708 1.641-1.352.748-.645 1.352-1.095 1.813-1.353.546-.354.892-.676 1.037-.964v-.194c-.001-.129-.06-.258-.174-.386zm11.396-5.022c-3.454.935-6.562 2.737-9.324 5.408-1.382 1.416-2.476 2.832-3.281 4.249a29.31 29.31 0 0 0-2.59 4.249c-.23.482-.345.868-.345 1.158v.386l.259.194.259.192.346-.386V252c.114-.352.331-.804.647-1.35.229-.516.864-1.738 1.899-3.67.834-1.415 1.884-2.768 3.151-4.055 2.532-2.317 5.526-4.119 8.979-5.408zm-10.188 3.863c0-.128-.086-.29-.259-.484-.172-.192-.317-.288-.432-.288-.115-.129-.288-.194-.518-.194-1.151 0-2.245.386-3.281 1.158h1.467c.749 0 1.295.066 1.641.194.345.128.632.192.863.192.346-.031.519-.224.519-.578zm.173 14.678c0-.098-.115-.162-.345-.194l-.863.386c-.115 0-.345.194-.691.58-.201.514-.604 1.416-1.208 2.703l2.072-2.316c.46-.386.748-.645.863-.772zm1.899 1.544c0-.128-.116-.29-.345-.482-.231-.194-.461-.29-.691-.29-.576.128-.979.45-1.209.966-.72.9-1.065 2.317-1.036 4.247 0 .612.058 1.256.173 1.932.23-.806.518-1.642.863-2.51.432-1.158.777-1.932 1.037-2.318.115-.128.23-.288.345-.482.115-.194.23-.354.345-.482.346-.259.518-.452.518-.581z" transform="translate(-1541.193 -881.47) scale(4.03315)"/><path style="fill:#003a37" d="M405.811 247.56c-.202-.386-.72-.58-1.554-.58-1.151 0-1.727.194-1.727.58 0 .096.087.217.26.363.172.145.259.281.259.41.115.258.173.58.173.966v.772c0 .128-.029.322-.087.58-.058.258-.086.45-.086.578v.386c.115.098.173.29.173.58 0 .128-.029.29-.087.482a1.754 1.754 0 0 0-.086.484v3.475l.173-.192 1.036-1.158.519-.388c0 .13.115.194.345.194.23 0 .345-.194.345-.58 0-.256-.029-.61-.086-1.062a8.78 8.78 0 0 1-.086-1.063v-.192l.086-.194a.936.936 0 0 0 .086-.386v-1.496c0-.804.043-1.401.13-1.787l.129-.192a.933.933 0 0 0 .086-.388v-.192zm.345-6.76c-.69.482-1.266.935-1.727 1.353-.345.386-.59.579-.733.579v1.16a.682.682 0 0 0-.13.386v.772h-.172c-.116.128-.173.258-.173.386 0 .096.057.226.173.386.114.386.345.58.69.58h.518c.23 0 .46-.064.691-.194l.518-.192c.23-.258.345-.45.345-.58l-.172-.194v-.965c0-1.03.057-1.933.172-2.705a.44.44 0 0 1 .087-.264.534.534 0 0 0 .086-.314c0-.128-.058-.194-.173-.194zm.518-6.373c-.115 0-.345.065-.69.194h-.518c-.46 0-.749.064-.864.192l-.172.966a48.775 48.775 0 0 1-.518 3.477c0 .096-.036.282-.108.555-.072.273-.107.476-.107.604v1.158h.388c.345-.224.849-.676 1.511-1.352l.388-.192.345-.194v-.964c.114-.386.201-.804.259-1.256.057-.45.086-.74.086-.868v-.58c0-.256.057-.45.172-.58l.173-.386c.001-.516-.114-.774-.345-.774zm1.209-11.201h-.173c-.115 0-.172-.064-.172-.194-.547.13-1.008.29-1.382.484-.374.192-.561.482-.561.868l.129.194.086.192v.194c-.115.354-.23.999-.345 1.931a211.99 211.99 0 0 0-.518 4.249v1.158c-.116.386-.173.693-.173.917v.435c.23.13.403.258.518.386h.518c.95 0 1.468-.192 1.554-.578l-.172-.58v-.58c0-.128-.029-.29-.087-.482a1.741 1.741 0 0 1-.086-.482c0-1.03.23-2.962.69-5.795v-.868c0-.064.058-.16.173-.29l.345-.386c.002-.129-.114-.387-.344-.773zm-.863 33.99-.259-.194a2.834 2.834 0 0 1-.432-.386h-.733c-.547 0-.82.065-.82.194l.173.192v.194l-.173.192v.194c0 .482.173.804.518.966.114.128.258.258.431.386.173.127.316.257.432.386l.345.192c.23.13.403.258.519.388.115.224.287.61.518 1.158l.518 1.158.863 2.705h.173v-.966c-.001-3.219-.692-5.471-2.073-6.759zm5.353 2.511c-.46-1.19-1.036-2.157-1.727-2.896 0-.128-.288-.515-.863-1.158-.432-.645-.777-.967-1.036-.967l-.346.096-.345.096-.172-.192h-.087c-.058 0-.144.032-.258.096l-.173.096c-.345.13-.519.452-.519.966 0 .484.231.742.691.772h.258c.058 0 .202.065.432.194.46.128 1.266.772 2.417 1.93.114 0 .345.162.691.484.345.322.632.61.863.869l.345.386c.001-.16-.057-.418-.171-.772zm-3.626-17.188c-.346-.258-.576-.386-.691-.386-.23-.128-.576-.194-1.036-.194.115.258.23.58.345.966 0 .128.058.258.173.386.115.129.172.258.172.386.46.515.805.772 1.036.772.316 0 .546-.192.691-.578.115-.128.173-.258.173-.386-.029-.258-.317-.58-.863-.966zm5.353.966c-.115 0-.288-.162-.518-.484a9.599 9.599 0 0 0-.519-.677 28.937 28.937 0 0 1-1.036-.964c-.921-.804-1.727-1.32-2.417-1.546a2.333 2.333 0 0 0-.864-.192c-.231 0-.461.064-.691.192-.345.13-.518.386-.518.774 0 .128.172.322.518.578.23.13.575.258 1.037.386.46.13.748.194.863.194.346.096 1.727.677 4.145 1.739z" transform="translate(-1541.193 -881.47) scale(4.03315)"/></svg>