<svg xmlns="http://www.w3.org/2000/svg" width="139.764" height="200" xml:space="preserve"><path d="M139.757 14.455V185.54c0 4.013-1.408 7.43-4.215 10.24-2.81 2.807-6.227 4.219-10.244 4.219H14.455c-4.017 0-7.43-1.412-10.24-4.219C1.404 192.971 0 189.554 0 185.541V14.455c0-4.01 1.404-7.43 4.215-10.24C7.025 1.408 10.438 0 14.455 0h110.843c4.017 0 7.429 1.408 10.244 4.215 2.807 2.81 4.215 6.23 4.215 10.24zm-14.455-7.228H14.459c-2.09 0-3.815.686-5.179 2.05-1.367 1.366-2.049 3.093-2.049 5.178V185.54c0 2.09.682 3.811 2.05 5.183 1.363 1.363 3.089 2.049 5.178 2.049h110.843c2.09 0 3.815-.686 5.183-2.05 1.363-1.37 2.048-3.097 2.048-5.182V14.455c0-2.09-.685-3.812-2.048-5.179-1.372-1.363-3.098-2.049-5.183-2.049z"/><path style="fill:#560042" d="M307.751 261.934c0-.127-.256-.256-.767-.383h-1.532c-.64.256-1.023.575-1.15.958l-.095.288c-.064.19-.096.352-.096.479v.192c.127.479.574.861 1.342 1.149.126 0 .383-.127.766-.383.127-.128.51-.702 1.15-1.725l.192-.19c.126-.161.19-.288.19-.385zm2.826-4.981c0-.511-.304-.766-.91-.766-.895.128-1.342.416-1.342.863 0 .446.255.67.766.67h.192c.384 0 .639-.063.767-.192.351-.127.527-.32.527-.575zm.431 2.683h-.191c-1.149 0-1.916.448-2.299 1.341v.383c0 .479.255.734.766.766.255 0 .447-.192.576-.575.126 0 .191-.063.191-.191v-.383c0-.256.175-.639.527-1.149z" transform="translate(-1209.163 -881.47) scale(4.03315)"/><path style="fill:#870000" d="M305.107 222.85h.178c.946.208 1.42.445 1.42.71l-.177 2.31h.711c.355 0 .533.119.533.357 0 .118-.488.473-1.466 1.065v1.065l.755-.888v.178l-.755 2.132v.178h.222c1.776 0 2.665-.355 2.665-1.065.236-.445.355-.859.355-1.245l-.177-.178c.71-.444 1.775-.74 3.197-.887 1.066.118 1.599.651 1.599 1.598v.533h-.178v.179h.178l1.42-.179c.445.088.918.385 1.422.889v.177l-.178.178-2.842-.355-.711 3.199.355.177h.178v-.4h.178c.592 1.214.888 1.94.888 2.176v.178l-.355.179c-.237 0-.77-.416-1.599-1.244-.355.947-.666 1.42-.932 1.42-1.066-.561-1.585-1.095-1.555-1.599l.888.355c.237 0 .459-.294.667-.887-1.51-.712-2.562-1.067-3.154-1.067l-.889.178-.177-.355v-.178l.533-1.065-.888.178c-.592-.208-.889-.445-.889-.712h-.222v.357l.222 4.085c-.119.474-.297.71-.533.71-.237 0-.474-.473-.71-1.42v-2.844l-1.244 1.244h-.178c-.355-.237-.533-.593-.533-1.065 1.184-1.541 1.836-2.783 1.955-3.732l-.533.178h-.533c-.741-.118-1.096-.295-1.066-.533 1.42-.326 2.25-.622 2.487-.887 0-2.133-.178-3.199-.533-3.199v-.179zm4.797 0h.133c.118 0 .311.296.577.889v.355l-.177.888h.177c1.303-.473 2.19-.71 2.665-.71h.533l.178.355v.177c0 .208-1.126.622-3.376 1.244l.178-.355c-1.065.74-1.718 1.095-1.954 1.065l-.355-.888c.947-1.451 1.421-2.457 1.421-3.02zm-.711 8.527.71.178.71-1.777c-.946.119-1.42.651-1.42 1.599zm1.066-3.375v.355l-.355 1.066c.828 0 1.243-.414 1.243-1.244l-.177-.533h.177c.829.118 1.244.355 1.244.71l-.178.711c.473 0 .71-.059.71-.177v-1.067c0-.355-.119-.591-.355-.71h-.178c-.236 0-.947.297-2.131.889zm.355 3.73 1.777.534.533-2.665h-.932z" transform="translate(-1209.163 -881.47) scale(4.03315)"/><path style="fill:#560042" d="M314.649 249.098h-.384c-.128 0-.224.033-.287.097l-.096.095h-.191c-.383 0-.575.161-.575.479 0 .319.192.48.575.48.383 0 .575-.129.575-.385 0-.222-.128-.413-.383-.574.127 0 .255.032.383.095l.192.096c.223 0 .351-.064.383-.191zm1.724-1.342c0-.223-.319-.542-.958-.957-.256 0-.383-.063-.383-.192v-.191c0-.255-.192-.383-.575-.383-.256 0-.383.127-.383.383 0 .511.127.767.383.767.127 0 .255-.063.383-.192l.192-.383c.127.129.35.353.67.671l.67.671c.127 0 .191-.032.191-.095v-.097h-.19zm.575-.191v-.192c-.128 0-.208-.063-.24-.191l-.144-.192c-.128-.127-.191-.254-.191-.383l-.383-.191v-.383c0-.351-.128-.543-.383-.575-.256 0-.383.192-.383.575 0 .256.127.383.383.383h.383l.383.574c0 .256.063.448.191.575 0 .095.128.161.384.191zm-.24-1.532a.86.86 0 0 0-.144-.431c0 .127.024.262.072.406.049.144.072.281.072.408.127.383.271.703.431.958l.192.192v-.192c-.033-.384-.24-.831-.623-1.341zm1.581-.767-.191-.191c-.128-.127-.256-.192-.383-.192h-.192c-.128 0-.191.065-.191.192-.128.127-.192.256-.192.383 0 .096.064.224.192.383h.191v.958c0 .256.064.383.192.383l.191.191v-1.532h.191v-.383zm.862-.096c-.064-.064-.224-.096-.479-.096-.128 0-.191.064-.191.191-.128 0-.192.097-.192.288 0 .192.063.287.192.287v.192l-.192.383c-.128.383-.191.64-.191.767s.063.191.191.191v.192l.192-.192v-.191c0-.127.032-.352.096-.671l.095-.479h.383l.192-.192v-.287c0-.19-.033-.318-.096-.383z" transform="translate(-1209.163 -881.47) scale(4.03315)"/><path style="fill:#560042" d="M318.672 246.99c0 .129.048.192.144.192.127 0 .271-.063.432-.192 0-.127.031-.286.095-.479l.097-.288-.384.383z" transform="translate(-1209.163 -881.47) scale(4.03315)"/><path style="fill:#560042" d="M327.677 245.841c0-.605-.319-1.244-.958-1.915-.384-.224-.895-.415-1.533-.576h-.958c-.799 0-1.501.065-2.107.193-.128.222-.256.351-.383.383v-.576c0-.797-.256-1.308-.767-1.532-.223-.127-.734-.192-1.532-.192-.128 0-.353.032-.671.095-.32.065-.544.097-.671.097-1.149.383-1.98 1.022-2.491 1.915l-.191.192c-.256-.127-.447-.192-.575-.192-.352-.095-.799-.159-1.342-.19-.894 0-1.596.127-2.107.383-.766.51-1.149 1.149-1.149 1.915 0 .129.063.383.191.766.223.512.606.958 1.149 1.342l.191.192c-.127 0-.255.063-.383.19-.894.256-1.469.639-1.724 1.149-.257.607-.384 1.183-.384 1.725 0 .351.063.607.191.766l.384.383c.383.385.702.575.958.575.127 0 .702.065 1.725.193l.239.095a.595.595 0 0 0 .335.095c.255 0 .575-.063.958-.19l.191-.097.192-.096c0 .256.192.512.575.766.638.607 1.467.927 2.49.958.255 0 .446-.063.575-.192 1.533-.254 2.746-.957 3.641-2.108.383-.383.574-.638.574-.766.127-.51.192-.83.192-.957 0-.256-.064-.703-.192-1.342-.127 0-.191-.063-.191-.192.478.128.862.192 1.149.192.383 0 .942-.127 1.677-.383.511 0 .91-.127 1.197-.383a7.61 7.61 0 0 0 1.15-.958c.257-.508.385-1.084.385-1.723zm-6.898-1.341-.287.192c-.192.127-.288.256-.288.383-.511.479-.766 1.054-.766 1.725 0 .383.127.639.383.766v.191h-.191c-1.662.258-3.066.831-4.215 1.725 0 .129-.064.192-.192.192l-.191-.192c-.353 0-.544.192-.575.575v.192h.192v.191l-.192.192v.766c-.128.127-.192.207-.192.239v.096h-.766c-.127 0-.351.04-.67.121-.319.08-.543.118-.67.118h-.192c-.511 0-.894-.127-1.149-.383-.353-.127-.544-.447-.575-.957v-.192c0-.479.255-.925.766-1.341 0-.127.191-.254.575-.383.383-.127.639-.191.767-.191h.336l-.144.191c.095.383.287.575.574.575.255 0 .446-.063.575-.192l.096-.191.095-.192h.575l.575.192h.191l-.191-.383c-.225-.127-.416-.192-.575-.192-.128 0-.224.032-.287.095l-.096.097h-.192c-.128 0-.191-.032-.191-.097v-.285.19h.191c.127 0 .255-.127.383-.383v-.095c0-.064.032-.097.096-.097.063 0 .127.033.192.097a1.1 1.1 0 0 0 .288.19l.192.097c.127 0 .254.063.383.19l.191.192h.383a2.27 2.27 0 0 0-.383-.575c-.128-.127-.447-.192-.958-.192-.128 0-.225-.03-.288-.096-.064-.063-.096-.159-.096-.287-.128-.127-.256-.191-.383-.191-.383 0-.574.191-.574.574 0 .129.063.258.191.385-.127-.127-.416-.288-.862-.48-.447-.19-.734-.415-.862-.67-.383-.383-.574-.766-.574-1.149 0-.223.191-.542.574-.958a4.918 4.918 0 0 1 1.917-.383h.767c.479.128.925.383 1.341.766l.575.336h.191c0-.096.048-.144.144-.144v-.192c0-.127-.056-.286-.167-.479-.112-.19-.168-.351-.168-.478 0-.256.112-.511.335-.766.798-.798 1.772-1.181 2.922-1.151h.957c.224.256.352.576.383.958v.193c-.034.381-.098.7-.194.955zm.766 5.939a1.82 1.82 0 0 1-.766 1.532c-.383.383-.894.703-1.532.958-.767.256-1.406.383-1.916.383-1.023 0-1.661-.318-1.916-.958-.128-.254-.192-.461-.192-.622 0-.605.255-1.164.767-1.676.255-.222.766-.542 1.533-.958.638-.383 1.213-.574 1.725-.574h.383c.127.127.287.223.478.286.192.065.352.097.479.097.352.255.607.446.767.574.127.256.19.575.19.958zm4.79-4.598c0 .639-.32 1.149-.958 1.533-.128.128-.702.255-1.725.383-.256.129-.639.192-1.149.192-.511 0-.894-.063-1.15-.192l-.191-.191c-.128 0-.287-.063-.479-.192a3.016 3.016 0 0 1-.479-.383v-.383c0-.383.192-.766.575-1.149.606-.639 1.492-.958 2.659-.958 1.165 0 1.939.169 2.322.503.384.333.575.614.575.837z" transform="translate(-1209.163 -881.47) scale(4.03315)"/><path style="fill:#00082d" d="M317.906 257.145a2.125 2.125 0 0 0-1.198-.383h-.527c-.255 0-.383-.063-.383-.192l.192-.191c-.256-.351-.703-.543-1.341-.575-.256 0-.575.129-.958.383-.128 0-.256.065-.383.192l-.192.191c-.256.512-.448.766-.574.766h-.383c-1.916.48-3.641 1.183-5.174 2.107-.766.256-1.149.576-1.149.958s.191.576.574.576c.224 0 .543-.127.958-.383 1.787-.895 3.257-1.534 4.406-1.917.256-.127.511-.19.768-.19l.144.19c.127.8.398 1.183.813 1.151.127 0 .383-.128.767-.385l1.15-1.34c.127-.224.223-.343.288-.359a1.57 1.57 0 0 0 .287-.121.856.856 0 0 1 .383-.095c.127 0 .511-.127 1.15-.383zm-2.683 4.789h.958c.127 0 .703-.127 1.725-.383.893-.383 1.469-.574 1.725-.574.51 0 .766-.127.766-.383 0-.127-.032-.224-.096-.288l-.096-.095.383-.575c.224-.383.415-.703.575-.959l.191-.574.191.191h.384c.127.129.894.319 2.299.575 1.404.256 2.363.639 2.874 1.149l.192.288c.127.191.223.319.288.383.063.063.159.095.287.095.255 0 .502-.127.743-.383.239-.254.359-.447.359-.574 0-.128-.024-.256-.073-.385a.925.925 0 0 1-.071-.286c0-.063.063-.161.191-.288l.287-.288.096-.095c0-.256-.144-.51-.431-.766-.096 0-.336-.032-.719-.097-.383-.063-.639-.159-.766-.288-.352-.127-.607-.318-.766-.574l-.191-.192h-.096c-.064 0-.16-.063-.288-.191l-.766-.766-.766-.768.575-.191.191-.192a.652.652 0 0 1 .479-.191c.191 0 .35-.032.479-.095l.192-.097.191-.383c0-.127.063-.317.191-.573.095-.256.159-.448.191-.576l-.383-.383c0-.256-.064-.4-.191-.432h-.767c-.256 0-.383-.024-.383-.072 0-.047-.072-.136-.215-.263-.144-.127-.215-.256-.215-.383-.224-.256-.335-.446-.335-.575l.096-.096c.063-.063.096-.161.096-.288 0-.127-.064-.192-.192-.192s-.256.065-.383.192c-.128.127-.191.319-.191.576-.128.383-.192.639-.192.766s.064.319.192.573c0 .129.031.225.095.288.063.065.096.161.096.288 0 .127-.064.256-.191.383-1.533 1.149-2.811 2.237-3.833 3.257l-.574.575c0 .127-.064.191-.191.191l-.192.192-1.15 1.149a32.15 32.15 0 0 0-3.257 3.832h.192zm15.519-39.851a746.535 746.535 0 0 1-3.64 7.472l-.191.192v-.192c-.383-.352-.767-.542-1.15-.574h-.575c-.224.351-.352.605-.383.766l.144.574c.255.383.527.639.814.768.127 0 .255.063.383.191a.453.453 0 0 0-.191.383 19.638 19.638 0 0 1-2.107 2.874c-1.022 1.149-1.724 1.854-2.107 2.108a2.993 2.993 0 0 1-.767.575c-.351.127-.542.256-.574.383v.191c0 .129.063.256.191.383l.192.192c.096.256.223.622.383 1.102l-.192-.144c-.766-.383-1.277-.83-1.532-1.341-.256-.478-.463-.734-.624-.766h-.144c-.383 0-.575.191-.575.574 0 .129.127.32.383.576.479.639 1.181 1.005 2.107 1.102.352 0 .543.081.575.239.127 0 .191.256.191.766 0 .256.063.766.191 1.532.128.8.384 1.183.767 1.151.255 0 .383-.256.383-.768v-.766c-.128-.605-.256-1.054-.383-1.341-.127-1.277-.383-2.108-.767-2.491h-.191v-.191c.256-.095.447-.222.575-.383a35.158 35.158 0 0 0 2.682-2.683c2.301-2.808 4.344-6.96 6.132-12.454zm-5.173 35.445h-.192a4.48 4.48 0 0 1-1.34-.192c-.128 0-.576.065-1.342.192h-.574l-.096.095-.096.097c0-.127.063-.256.192-.385.766-1.149 1.467-1.916 2.107-2.298h.191c.127.607.303 1.118.527 1.532l.623.575v.191z" transform="translate(-1209.163 -881.47) scale(4.03315)"/><path style="fill:#560042" d="M327.485 233.339c-.256-.096-.448-.144-.575-.144-1.182 0-1.756.319-1.725.958 0 .129.063.319.191.576.127.255.192.446.192.573.255.225.574.354.958.383.478 0 .854-.127 1.125-.383.271-.254.407-.51.407-.766.002-.541-.19-.941-.573-1.197zm3.257-6.275c-.128-.637-.383-.958-.766-.958s-.719.192-1.006.575v.383c0 .225.072.504.215.838.144.336.343.503.599.503.638.001.958-.446.958-1.341z" transform="translate(-1209.163 -881.47) scale(4.03315)"/></svg>