<svg xmlns="http://www.w3.org/2000/svg" width="139.764" height="200" xml:space="preserve"><path d="M139.757 14.455V185.54c0 4.013-1.408 7.43-4.215 10.24-2.81 2.807-6.227 4.219-10.244 4.219H14.455c-4.017 0-7.43-1.412-10.24-4.219C1.404 192.971 0 189.554 0 185.541V14.455c0-4.01 1.404-7.43 4.215-10.24C7.025 1.408 10.438 0 14.455 0h110.843c4.017 0 7.43 1.408 10.244 4.215 2.807 2.81 4.215 6.23 4.215 10.24zm-14.459-7.228H14.455c-2.09 0-3.815.686-5.179 2.05-1.367 1.366-2.049 3.093-2.049 5.178V185.54c0 2.09.682 3.811 2.05 5.183 1.363 1.363 3.089 2.049 5.178 2.049h110.843c2.09 0 3.815-.686 5.183-2.05 1.363-1.37 2.048-3.097 2.048-5.182V14.455c0-2.09-.685-3.812-2.048-5.179-1.368-1.363-3.094-2.049-5.183-2.049z"/><path style="fill:#00082d" d="M435.074 249.267c0-.123-.088-.217-.263-.28l-.263-.092a2.468 2.468 0 0 0-.438-.652 3.498 3.498 0 0 0-.525-.467c-.175-.124-.322-.186-.438-.186h-.35c-.351.218-.525.403-.525.559v.186l-.175.187v.373c0 .249.175.558.525.931l.35.374c.117.124.466.25 1.051.373h1.052c.321-.249.497-.498.525-.747-.03-.125-.205-.31-.526-.559zm6.484 6.895a9.06 9.06 0 0 0-.525-.932c-.322-.373-.848-.622-1.577-.745l-.175-.187h-.219c.35-.248.89-.559 1.621-.931 0-.124.028-.187.087-.187.058 0 .116-.032.175-.093.058-.062.087-.155.087-.28a.782.782 0 0 0-.526.188 362.237 362.237 0 0 0-2.979 2.235l-.087.092c-.059.063-.162.095-.307.095l-.132.185c-.117-.124-.175-.309-.175-.558a5.755 5.755 0 0 0-.876-.746c-.234 0-.41-.063-.525-.186l-.088-.233-.088-.328c-.234-.62-.832-.93-1.796-.93-.322 0-.541.062-.657.186l-.525.56c-.35.342-.526.551-.526.627 0 .078.029.148.088.21.058.063.088.156.088.28v.372l.35.373-.35.187h-.176c-.117 0-.234.092-.351.278-.117.187-.233.28-.35.28h-.526c-.35.125-.759.498-1.227 1.118-.117 0-.175.063-.175.187v.325c-.117.125-.234.328-.351.607.233.622.642.931 1.227.931h.175c.116-.124.204-.186.262-.186.058 0 .146.093.263.28l.175.279c.233 0 .525-.187.876-.56.117-.123.176-.249.176-.372v-.188c0-.123.028-.247.087-.373.058-.124.204-.224.438-.302.233-.077.378-.118.438-.118s.118-.045.176-.138l.088-.188h1.753c0 .125-.118.233-.351.325-.467.375-.832.577-1.095.607h-.481c-.468 0-.875.186-1.227.559v.187a.718.718 0 0 0-.351.56l-.174.186h.174c-.117.125-.292.187-.525.187-.234.124-.41.372-.526.745-.117.124-.175.248-.175.374 0 .123.058.247.175.372.116 0 .175.062.175.185l-.175.375c-.117 0-.175.123-.175.372 0 .496.35.868 1.051 1.118.116.093.291.14.525.14.352-.095.526-.389.526-.885v-.373l.351-.187.175-.093a1.43 1.43 0 0 0 .351-.28c0-.093.058-.341.175-.744.321-.995.613-1.616.876-1.865l.701-.745.087-.186.088-.187c.116-.247.233-.387.351-.42v1.073a3.68 3.68 0 0 1-.351 1.584c0 .124-.059.311-.175.559-.118.249-.176.434-.176.56 0 .124.087.311.263.56.175.247.38.372.613.372.116 0 .351-.063.702-.187.116-.124.292-.373.525-.745.204-.372.307-.622.307-.746a.652.652 0 0 0-.132-.373l-.088-.094c-.058-.062-.087-.124-.087-.186 0-.063.029-.124.087-.187l.088-.093.132-.186v-.187l-.307-1.118c0-.249-.117-.45-.351-.607l-.526-.512c0-.124.175-.247.526-.373l.351-.372.307.187.394.185c.233.249.351.624.351 1.119l-.175.186v1.305l-.087.141a.961.961 0 0 0-.088.419c0 .249.175.434.526.558.116 0 .204-.03.263-.092.059-.062.117-.093.176-.093.058 0 .088.032.088.093v.092l.351-.373v-.185c.32-.342.496-.714.525-1.119 0-.62-.35-1.242-1.052-1.863-.234-.372-.525-.621-.876-.745l-.175-.187.35-.558c.467-.25.759-.435.877-.56l.351-.372c.087 0 .262.249.525.745v.932c0 .124.087.218.263.28.175.062.262.217.262.465l-.262.28c-.176.185-.263.325-.263.417 0 .125.116.288.35.49.233.203.467.302.701.302h.176c.321-.247.554-.619.701-1.118.115-.249.174-.497.174-.745v-.369zm-8.937-.932c.116 0 .175-.063.175-.186.351-.125.876-.187 1.578-.187h.175c.934 0 1.577.249 1.928.745h.176c0 .093-.03.148-.088.163-.059.016-.087.056-.087.117v.093c0 .125-.116.249-.351.373-.234.125-.351.249-.351.372l-.087-.185-.088-.187h-.525c-.117 0-.263.032-.438.094l-.262.093h-.175c-.117 0-.176-.062-.176-.187v-.186a2.21 2.21 0 0 0-.351-.56c-.117 0-.248-.031-.394-.093l-.131-.092c-.117 0-.175-.031-.175-.095 0-.062-.059-.092-.175-.092z" transform="translate(-1719.228 -881.47) scale(4.03315)"/><path style="fill:#870000" d="M436.431 221.551h.723c.361 0 .602.12.723.362l-.181.542h1.266c.873.242 1.294.541 1.264.902l-.18.182-2.71-.361c-.452.843-1.235 1.445-2.349 1.806.752-.963 1.113-1.565 1.083-1.806-1.083.241-1.625.421-1.625.541-.121.874-.242 1.295-.362 1.265h-.361c-.121 0-.302-.361-.542-1.083-.452.241-.814.361-1.084.361h-.361c-.361-.241-.618-.481-.769-.723l.226-.182.542.182 1.445-.361v-1.264c.602.602.903.964.903 1.083l.181-.36h.181v.36c1.445-.239 2.168-.48 2.168-.722v-.361l-.181-.182zm-3.478 2.89c.241.483.376.784.406.904v.542c1.807-.331 3.132-.513 3.976-.542h1.084c1.325.09 1.988.573 1.988 1.445-.482 5.06-1.265 7.589-2.35 7.589-.752 0-1.475-.663-2.167-1.988h.18c.451.241.934.423 1.445.542.753 0 1.355-1.868 1.807-5.602 0-.994-.422-1.475-1.266-1.445h-.542c-1.686 0-2.529.12-2.529.361v.181c.361.121.542.361.542.724l.362-.363v-.18l-.181-.181.181-.181h.542c.572.12.874.242.904.362v.18a8.014 8.014 0 0 1-1.807 1.085v.18l1.446-.18c.24 0 .481.18.722.541 0 .122-.783.242-2.349.362v.724c0 .12.542.302 1.626.542.481.122.903.423 1.265.904v.18l-.182.135h-.542c-.121 0-.843-.286-2.168-.858v1.265c0 .994-.121 1.477-.361 1.446h-.181c-.361-.24-.542-.602-.542-1.084l.181-1.806v-.182c-1.085.964-1.868 1.446-2.349 1.446h-.904v-.227c.873-.09 1.717-.737 2.53-1.942l-1.626.543c-.242-.331-.361-.633-.361-.904v-.182l.361.182c.481 0 1.264-.361 2.349-1.084v-.543c0-.481-.061-.722-.181-.722-.753.12-1.717.603-2.891 1.445-.122 0-.256-.3-.407-.902.602-.241 1.266-1.146 1.989-2.712zm0 2.712h.226l.18.361.723-.361v.179c-.361.845-.738 1.266-1.129 1.266l-.135-.542v-.361z" transform="translate(-1719.228 -881.47) scale(4.03315)"/><path style="fill:#00082d" d="M439.805 249.825c0-.216-.175-.465-.525-.746h-.219c0-.123-.044-.185-.131-.185-.117-.124-.176-.56-.176-1.305 0-.124.029-.25.087-.373a.866.866 0 0 0 .088-.373c0-.124-.059-.311-.176-.56-.234-.994-.935-1.49-2.103-1.49h-.176c-.584.123-.994.249-1.227.373l-.526.373c-.467.465-.701.901-.701 1.305 0 .249.292.684.877 1.304.233.249.526.497.875.746l.088.092c.058.063.175.125.35.188l.263.092.526.373 1.578.559c.321.124.554.186.701.186h.175c.235-.123.352-.31.352-.559zm-.875 2.423c-.235-.373-.41-.574-.527-.605h-.262c-.175 0-.292-.023-.35-.07-.059-.046-.088-.101-.088-.163s-.059-.154-.175-.28a1.155 1.155 0 0 0-.875-.373c-.468 0-.819.187-1.052.559v.093c0 .062-.117.14-.35.233-.234.373-.35.638-.35.792 0 .124.058.311.175.561.205.249.497.434.876.557h.175c.117 0 .314-.03.592-.092.277-.062.488-.092.635-.092h.525c0 .123.058.249.175.372.116.124.233.186.35.186.117 0 .234-.063.351-.186l.263-.28c.146-.187.22-.341.22-.465-.002-.124-.105-.373-.308-.747zm17.525-16.585c.351-.248.525-.559.525-.93v-.561a3.305 3.305 0 0 0-.876-1.118h-.351c-.234 0-.584.233-1.051.698-.556.778-.848 1.414-.876 1.911v1.12c-.117.373-.41.683-.876.93l-.701.373.176-.746c.233-1.118.35-2.174.35-3.168v-.932c.818-.373 1.461-.745 1.929-1.117.583-.465.978-1.087 1.183-1.863v-.467c0-.062.065-.155.197-.278.131-.124.255-.187.373-.187.116-.25.175-.435.175-.56 0-.124-.117-.373-.351-.745l-.175-.233a.585.585 0 0 1-.219-.326 3.889 3.889 0 0 1-.307-.56 2.221 2.221 0 0 0-.35-.56l-.263-.092a1.376 1.376 0 0 0-.438-.093c-.35 0-.701.185-1.051.558-.351.498-.526.933-.526 1.305 0 .249.058.436.175.559l.088.28.087.278v.559l.176.188c.116.123.175.249.175.373l-.088.092-.087.093c.116.125.234.279.351.467l.131.278v.559c-.087.342-.481.776-1.183 1.305v-.187c0-.123-.058-.185-.174-.185-.234-1.367-.876-2.795-1.928-4.287l-.176-.186c0-.124.058-.187.176-.187h.174c.351-.124.644-.373.877-.746a2.36 2.36 0 0 0 .525-.933c0-.588-.117-1.086-.35-1.49-.234-.496-.468-.745-.701-.745a1.493 1.493 0 0 0-.701-.188h-.35l-.176.188h-.175l-.174-.093-.175-.094h-.176c-.234 0-.409.188-.526.56l.526.56c.117.124.314.279.592.466.277.186.482.372.613.559.131.186.255.403.372.651 0 .249-.117.607-.35 1.072 0 .125-.073.201-.219.233-.088-.216-.366-.527-.832-.931l-.352-.375c0-.124.029-.216.088-.278l.087-.095c0-.247-.175-.558-.526-.93l-.393-.188c-.088 0-.132-.123-.132-.372l-.263-.279c-.059-.062-.146-.093-.263-.093a2.24 2.24 0 0 0-.35-.56c-.352-.217-.819-.34-1.402-.373h-.701c0 .125-.059.187-.175.187-.235 0-.468.063-.702.186-.234.249-.351.436-.351.56 0 .124.176.373.525.745v.373c.322.343.672.591 1.053.745l.087-.092c.058-.062.146-.093.263-.093.116 0 .291.063.525.185l.525.56a.576.576 0 0 0 .438.188h.263c1.051 0 1.753.185 2.103.558.117 0 .204.093.263.28.058.187.131.28.219.28.964 1.367 1.621 2.671 1.971 3.913.233.901.351 1.445.351 1.629v.42c0 .25-.059.684-.175 1.305-.701 2.952-1.812 5.249-3.331 6.895-.234.249-.351.435-.351.558l.176.187h.088c.059 0 .146-.092.262-.279.117-.186.234-.28.352-.28 1.051-1.118 1.81-2.297 2.278-3.54 0-.373.116-.622.35-.746h.351c.729 0 1.314-.062 1.752-.187l.175-.093a.74.74 0 0 1 .351-.092h.526c.233-.094.467-.216.701-.373.233-.124.351-.559.351-1.305v-.558z" transform="translate(-1719.228 -881.47) scale(4.03315)"/><path style="fill:#00082d" d="M450.671 237.34c0-.496-.351-.745-1.051-.745h-.527c-.234 0-.482-.062-.744-.186-.323-.125-.833-.188-1.535-.188h-.35c-.35 0-.643.062-.875.188-.585.373-.936.684-1.053.931l-.175.187c0 .124.059.311.175.559l.351.187.176.186-.088.28a1.613 1.613 0 0 0-.088.467l.176.185v.187a1.2 1.2 0 0 1 .526.373h.525c.321 0 .613-.078.875-.232a.92.92 0 0 0 .263-.327c.059-.124.146-.185.263-.185h.351c.32-.249.554-.56.701-.933v-.374h.175c.585-.216.993-.342 1.227-.373h.176l.218.186.132.188c.117-.25.176-.436.176-.561zm-.701-7.64c.117.093.219.157.307.188l-.131-.188c-.584-1.366-1.403-2.049-2.454-2.049h-.175c-1.168.093-1.87.403-2.103.932-.117.249-.176.435-.176.559 0 .374.117.685.351.932.233.373.525.683.875.932l.35.186c.233 0 .468-.124.702-.373.233-.124.466-.372.701-.745l.132-.558h1.445z" transform="translate(-1719.228 -881.47) scale(4.03315)"/><path style="fill:#00082d" d="M451.547 233.055c-.234-.775-.585-1.273-1.051-1.49-.438-.498-1.198-.747-2.278-.747-.351 0-.701.063-1.052.188-.438.249-.73.56-.876.932-.117.25-.175.435-.175.559a.85.85 0 0 0 .087.372l.087.187v.374c0 .591.409 1.025 1.227 1.305.233.124.409.185.525.185.438 0 .964-.185 1.578-.559l.262-.187c.175-.124.321-.224.438-.302.117-.077.292-.118.525-.118.351 0 .818.204 1.402.607-.115-.125-.348-.561-.699-1.306zm-1.577 24.037c-.35-.496-.701-.745-1.051-.745h-.176c-.116 0-.262.063-.437.187a2.785 2.785 0 0 0-.438.372h-.351c-.117 0-.263.031-.438.093l-.264.093c-.117 0-.234.125-.35.375-.117.249-.175.403-.175.465v.652c.117.372.292.558.525.558l.175.187c.234 0 .41-.062.526-.187.351-.247.584-.434.701-.558v-.373c.204-.249.438-.373.701-.373.467 0 .817-.123 1.051-.372v-.188c.117.125.219.188.307.188.351.216.598.341.744.372.117 0 .176-.078.176-.234.35-.092.526-.261.526-.512l-.176-.186a1.154 1.154 0 0 0-.875-.372c-.118 0-.249.062-.395.185l-.131.187z" transform="translate(-1719.228 -881.47) scale(4.03315)"/><path style="fill:#00082d" d="M449.445 258.211c-.235 0-.469.124-.702.373l-.525.558-.088.234-.087.326h-.35l-.175.187-.175.185c-.118.125-.234.437-.352.933-.117.123-.175.247-.175.372h.175c0 .341.117.589.352.745.233.124.408.187.525.187a.99.99 0 0 0 .482-.56v-.744h.218v.185c.466-.124.701-.372.701-.745l-.087-.186-.088-.187c0-.124.059-.247.175-.372 0-.093.088-.21.263-.35.175-.14.263-.271.263-.396.117 0 .175-.062.175-.187 0-.372-.176-.558-.525-.558zm2.979 3.914c0-.124-.03-.218-.088-.28-.059-.062-.087-.154-.087-.28v-.557c0-.125-.117-.435-.35-.933l-.175-.185-.176-.187-.175-.186c-.117 0-.204-.03-.262-.094a1.036 1.036 0 0 1-.175-.28 1.51 1.51 0 0 0-.263-.372h-.176l-.219-.186-.131-.373-.176.373v.186l.088.187.088.186c.087.344.131.653.131.932l-.131.373c-.117.373-.176.622-.176.745v.188c.117 0 .263.093.438.279.176.186.264.342.264.466s-.03.217-.087.28c-.059.062-.088.154-.088.28v.186c0 .373.233.604.701.699h.35c.438-.217.729-.576.877-1.072v-.375zm.175-19.1c0-.062-.059-.156-.175-.28-.117-.124-.206-.187-.263-.187-.059 0-.117.063-.175.187l-.087.186h-.175l-.176.095-.175.092v.373l-.175.188c0 .092-.059.178-.176.255a1.52 1.52 0 0 0-.262.21c-.059.061-.146.092-.263.092.964-.124 1.49-.185 1.578-.185.087-.124.203-.311.351-.56.116-.123.175-.249.175-.373v-.093zm1.753 15.932-.175-.187c-.117-.124-.234-.186-.351-.186a2.192 2.192 0 0 0-.351-.56c-.117-.124-.235-.186-.351-.186l-.175.186h-.701c-.205 0-.431-.031-.679-.092a2.55 2.55 0 0 0-.548-.093c-.35.124-.525.25-.525.373l.176.093c.116.062.204.125.263.188.058.062.117.186.175.373l.087.278.35.374h1.14c.059 0 .117.031.176.093.058.062.087.156.087.28.233.249.467.372.701.372.554 0 .846-.249.876-.745-.001-.126-.059-.312-.175-.561zm-5.609-3.727c-.234-.248-.467-.373-.701-.373h-.525c0 .125-.088.249-.263.373-.175.125-.263.249-.263.372 0 .218.176.404.526.56h.262c.058 0 .116-.03.175-.093l.175-.187c.058-.062.088-.154.088-.28.351-.123.526-.247.526-.372z" transform="translate(-1719.228 -881.47) scale(4.03315)"/><path style="fill:#e07f00" d="m447.517 248.335-.351-.186h-.351c-.117.124-.292.186-.525.186-.234 0-.409.063-.526.187l-.263.186-.263.187h-.57c-.204 0-.307-.124-.307-.373 0-.124.029-.249.088-.373a.87.87 0 0 0 .087-.374c0-.217-.059-.34-.175-.373l-.351-.373c-.117 0-.292.125-.525.373l-.35.373a2.724 2.724 0 0 0-.395 1.304v.373l-.132-.186h-.174c-.118 0-.176-.062-.176-.187-.117 0-.175-.093-.175-.28 0-.186.059-.34.175-.465v-.186c0-.59-.117-1.024-.35-1.304l-1.051-.373c-.468.124-.76.496-.877 1.118l-.175.373-.175.373v.187c0 .249.175.558.526.931.467.343.876.528 1.227.56h.875l.176.187.306-.187c.117-.124.219-.187.307-.187h.088l.175.187c.351.249.701.372 1.051.372.205 0 .497-.186.876-.559l.351-.373c.583-.373.934-.62 1.051-.745h.35c.353-.125.528-.248.528-.373zm0 1.118c0-.248-.117-.373-.351-.373v.187c-.351.25-.936.684-1.752 1.305-.936.497-1.695.745-2.278.745h-.395v-.187c-.087-.247-.249-.373-.482-.373-.117 0-.292.063-.526.187-.35.124-.525.311-.525.558 0 .095.028.18.087.257.058.078.116.116.175.116.058 0 .087.063.087.187l.351.56c.116.249.395.435.832.559h.57c.73 0 1.431-.373 2.104-1.118.729-.465 1.255-1.025 1.576-1.678.352-.404.527-.715.527-.932zm-3.506-3.913c0-.249-.087-.435-.263-.56-.175-.124-.321-.185-.438-.185-.438.123-.73.311-.876.558v.327c-.118.249-.176.451-.176.605 0 .373.117.683.35.932l.527.186c.233 0 .35-.063.35-.186l-.175-.187v-.186c0-.124.059-.311.175-.56 0-.124.087-.256.263-.396.176-.138.263-.256.263-.348zm2.454 2.05a1.177 1.177 0 0 1-.525-.56 1.732 1.732 0 0 1-.176-.745v-.605a.332.332 0 0 0-.087-.233c-.059-.062-.146-.094-.262-.094h-.351c-.117.125-.293.374-.527.747v.746c.088.249.205.373.351.373.234.465.584.714 1.052.745h.525v.187l.175-.374-.087-.138zm.35-4.286c-.321-.249-.554-.374-.7-.374-.584 0-.993.311-1.228.932v.56c0 .373.059.558.176.558l.351-.185c.35-.373.642-.56.875-.56h.35l.35-.373c.001-.123-.057-.308-.174-.558zm1.227 1.863a1.186 1.186 0 0 0-.525-.56h-.527l-.525.746a1.552 1.552 0 0 0-.175.747c0 .496.059.868.175 1.118.204.341.438.528.701.558l.351-.186c0-.124-.059-.28-.175-.465l-.176-.28c0-.373.117-.622.351-.745l.087-.187.088-.233c0-.092.058-.202.175-.327zm.876 4.658c0-.216-.059-.465-.176-.746l-.175-.185c-.117-.124-.218-.187-.307-.187h-.043c-.351.372-.585.932-.701 1.677 0 .499-.117.995-.351 1.491-.118.125-.234.28-.351.467a3.038 3.038 0 0 1-.35.465c-.117.125-.175.373-.175.745v.188c.117.496.351.746.701.746l.702-.373c.438-.25.729-.561.876-.932.116-.124.233-.684.351-1.678v-1.678zm.876-4.145c-.116-.342-.292-.512-.526-.512-.35.124-.701.373-1.051.745-.235.498-.351.871-.351 1.118 0 .125.058.249.175.373.117.218.219.343.308.373.115 0 .247-.062.393-.186.73-.622 1.081-1.179 1.052-1.677zm.176 2.842-.175-.187h.175-.175c.701-.124 1.167-.309 1.402-.56.233-.34.35-.774.35-1.303-.117-.373-.35-.56-.701-.56h-.174c-.234.125-.41.31-.526.56v.559c-.117.249-.41.498-.877.745-.35.125-.526.251-.526.374 0 .124.058.186.176.186h.702l-.175.187h.175v.186a2.794 2.794 0 0 0 1.927.745h.701v.187h1.402c-.234.218-.351.465-.351.745v.746l-.175.187c0 .124-.234.186-.701.186-.206 0-.438-.062-.701-.186l-.088-.187-.088-.186c-.467-.622-.76-.932-.875-.932-.234-.217-.468-.342-.702-.373l-.175.186c0 .374.117.559.351.559 0 .125.043.311.131.56 0 .124.131.435.395.931.116.498.35.809.7.932.118 0 .351.063.702.188.554.249 1.022.373 1.402.373a.616.616 0 0 0 .328-.095c.103-.062.219-.154.351-.278.131-.124.255-.188.372-.188l.176-.093.175-.093c.467-.249.701-.574.701-.979 0-.093-.087-.233-.262-.42-.175-.186-.264-.31-.264-.373s-.028-.248-.087-.558a4.11 4.11 0 0 1-.088-.652c-.118-.124-.292-.187-.525-.187h-.395l.22-.186c.233-.123.35-.248.35-.372 0-.249-.117-.497-.35-.746-.117-.123-.292-.187-.526-.187h-.175l-.351.373v.187h.175l-.35.373c-.117 0-.204.031-.263.092-.059.063-.146.093-.263.093.116 0 .175-.123.175-.372 0-.497-.175-.745-.526-.745l-.175.092-.175.094c-.351.249-.833.373-1.446.373-.088-.124-.19-.187-.307-.187v.186zm2.629 5.03c-.118 0-.234.064-.351.188-.117.124-.234.186-.35.186-.468 0-.818-.186-1.052-.558-.233-.373-.423-.947-.569-1.725a.459.459 0 0 1-.131-.326v-.372c-.117-.249-.292-.373-.525-.373-.117 0-.234.124-.352.373-.117.124-.175.356-.175.698 0 .249.029.567.088.955.058.389.087.708.087.954.117.591.176.964.176 1.118l.525.561.526.559c.233.124.466.186.701.186.233 0 .584-.124 1.051-.373.584-.372.876-.807.876-1.304.001-.498-.175-.747-.525-.747zm-2.629-5.217h-.175l.175.187zm3.329-1.677c-.35-.247-.584-.373-.7-.373-.323 0-.498.125-.526.373 0 .125-.03.218-.088.279-.059.064-.087.125-.087.188s-.059.093-.175.093c-.117 0-.205.031-.263.093l-.088.093c0 .125.059.187.175.187.117.092.351.156.701.186.351 0 .642-.062.876-.186.233-.25.351-.435.351-.56 0-.124-.059-.248-.176-.373z" transform="translate(-1719.228 -881.47) scale(4.03315)"/><path style="fill:#00082d" d="M458.382 242.93c-.117-.62-.468-1.054-1.052-1.303h-.525c-.351 0-.658.124-.92.373l-.087.186c-.031.125-.045.25-.045.373l-.175.187h-.175l-.351.745c.233-.373.351-.683.351-.932 0-.124-.087-.309-.263-.559-.175-.249-.381-.373-.614-.373-.234 0-.424.124-.57.373-.204 0-.306.062-.306.186h.175v.187c-.351.776-.76 1.336-1.227 1.678-.323.249-.614.373-.876.373 0 .124.058.185.175.185a.72.72 0 0 0 .35-.093.638.638 0 0 1 .263-.092c.058 0 .146.062.263.185l.176.188c.467.249 1.168.373 2.103.373h.351c.116 0 .226-.062.328-.188a.467.467 0 0 1 .373-.185l.175-.188h.351c.583-.123.934-.247 1.051-.373.35-.28.585-.715.701-1.306zm-.876 2.983c-.351-.466-.643-.714-.876-.745-.117 0-.264.093-.438.279l-.307.233h-.219c-.059 0-.146-.014-.263-.047l-.175-.092c-.117 0-.292.062-.525.187-.234.123-.351.249-.351.373l.351.373.35.373h.176l.35.373h.701c.351 0 .642-.062.876-.187.351-.373.584-.62.7-.745z" transform="translate(-1719.228 -881.47) scale(4.03315)"/></svg>