<svg xmlns="http://www.w3.org/2000/svg" width="139.764" height="200" xml:space="preserve"><path d="M139.757 14.455V185.54c0 4.013-1.408 7.43-4.215 10.24-2.811 2.807-6.227 4.219-10.244 4.219H14.455c-4.017 0-7.43-1.412-10.24-4.219C1.403 192.971 0 189.554 0 185.541V14.455c0-4.01 1.403-7.43 4.215-10.24C7.025 1.408 10.438 0 14.455 0h110.843c4.017 0 7.429 1.408 10.244 4.215 2.807 2.81 4.215 6.23 4.215 10.24zm-14.46-7.228H14.456c-2.09 0-3.816.686-5.179 2.05-1.367 1.366-2.049 3.093-2.049 5.178V185.54c0 2.09.682 3.811 2.05 5.183 1.362 1.363 3.089 2.049 5.178 2.049h110.843c2.09 0 3.815-.686 5.183-2.05 1.363-1.37 2.048-3.097 2.048-5.182V14.455c0-2.09-.685-3.812-2.048-5.179-1.368-1.363-3.094-2.049-5.183-2.049z"/><path style="fill:#3b67e2" d="M348.099 258.038a2.797 2.797 0 0 0-.512-.706h-.17c-.085 0-.143-.059-.171-.177l.086-.088c.028-.059.114-.117.256-.177l.17-.088c.228-.117.399-.235.514-.354h-.172a.748.748 0 0 1-.342-.087.648.648 0 0 0-.256-.09c-.057 0-.143.06-.256.177h-.341c-.456.118-.683.412-.683.883 0 .324.227.618.683.881h-.17l.17.177-.17.088-.171.087c-.341.119-.513.398-.513.838v.926h-.342l-.213-.176c-.314-.117-.527-.367-.641-.75-.113 0-.17-.16-.17-.485v-.175c.114-.47.455-1 1.024-1.589.114 0 .171-.117.171-.353l.855-.883c0-.117-.171-.175-.512-.175-.456 0-.798.175-1.025.528-.228.118-.342.353-.342.708 0 .235.114.353.342.353h.171-.171c0 .117-.114.236-.342.353-.34.235-.569.353-.682.353h-.857c.113-.235.17-.412.17-.53a.592.592 0 0 0 .129-.353c0-.117-.043-.294-.129-.53-.228-.353-.455-.528-.683-.528l-.17-.178.513-.175.17-.177c.199 0 .37.061.512.177h1.878c0-.089-.07-.148-.213-.177-1.139-.234-1.864-.587-2.178-1.058-.228-.236-.341-.412-.341-.531 0-.117.028-.292.085-.528.057-.235.085-.412.085-.529v-.353h.47l.384.178c.569.235 1.024.469 1.366.705l.128.176c-.314-.971-.869-1.616-1.666-1.941a2.612 2.612 0 0 0-.917-.176c-.3 0-.506.176-.619.529l.085.177.086.177c0 .117-.086.354-.257.705-.17.353-.256.574-.256.662 0 .353.057.662.171.927 0 .117.057.206.17.264.113.06.228.148.341.265h-.511c-.428.236-.655.472-.684.706v.178c.113.235.17.411.17.528.114 0 .228.06.342.177l.171.177c-.2.558-.315.97-.342 1.234 0 .119.057.294.171.53.114.235.398.413.854.53.114 0 .314-.059.599-.177.284-.117.483-.177.598-.177v.177l-.171.177c0 .558.286 1.087.854 1.587l.342.354c.228.087.569.138 1.024.154.455.015.74-.154.854-.508.228-.118.341-.411.341-.881l-.17-.178v-.176c0-.117.028-.191.085-.222h.427c.113 0 .17-.043.17-.131h.171c.343-.236.513-.471.513-.708.002-.117-.112-.292-.34-.528z" transform="translate(-1362.927 -881.47) scale(4.03315)"/><path style="fill:#3b67e2" d="M355.273 247.979h-.727c-.199 0-.356-.059-.469-.177h-.684c-1.139.118-2.163.766-3.074 1.941.797-.587 1.765-.881 2.904-.881h.682c.428 0 .712.118.854.353v.353a2.006 2.006 0 0 1-.342.528c-.456.472-.854.824-1.195 1.061-.315.235-.883.352-1.708.352-.427 0-.883-.058-1.367-.177l.171.177h.171-.171c-.114.118-.114.294 0 .529l.342.354v.704h-.854c-.228 0-.47.176-.726.529l-.128.132c0 .119-.058.192-.17.22h-.17c0-.117-.058-.191-.171-.22-.114 0-.256.037-.427.111a1.498 1.498 0 0 1-.598.109l-.171-.22c.428-.205.711-.425.854-.662l.172-.176c.113.118.227.176.341.176.227 0 .384-.235.469-.705l.384-.354v-.176l.171-.177-.341-.176c-.314 0-.599.176-.854.529l-.17.354c-.115 0-.229-.06-.343-.177-.114 0-.171-.059-.171-.177.228 0 .399-.059.514-.176l.17-.177h.171l-1.196-.353c-.797-.353-1.252-.587-1.367-.706-.342-.234-.526-.765-.555-1.589v-.706c0-.323.071-.499.213-.529.114.118.228.177.342.177l.513.132v.573l.171.53c.426.56 1.337 1.207 2.732 1.942v-.177c-1.024-.706-1.651-1.412-1.878-2.117a1.698 1.698 0 0 1-.17-.75c0-.941.455-1.691 1.366-2.25.113-.118.369-.265.769-.442.397-.175.654-.323.768-.44.228-.117.342-.236.342-.353l-.17-.178a2.983 2.983 0 0 0-.684-.176h-.171c-.341.088-.741.264-1.195.529-.912.588-1.481 1.236-1.708 1.941 0 .119-.058.236-.171.353h-.513l-.342.178-.084.175c-.058.118-.143.176-.256.176-.229 0-.456.118-.684.354-.228.207-.341.5-.341.883 0 .353.056.647.171.881 0 .206.057.501.17.883l.342.177c.228.354.569.589 1.024.706.115 0 .285.059.513.176-.341.118-.513.294-.513.53 0 .235.115.412.342.53.228 0 .342.058.342.175-.569.353-.855.706-.855 1.058v.354l.171.177c.228.353.455.53.684.53.113 0 .312-.03.598-.09.285-.058.483-.087.597-.087l.171.177h.854c.314 0 .599-.177.854-.53v-.177c.113-.118.228-.176.342-.176h.769c.028 0 .085-.059.171-.178l.086-.22.17-.132c.113-.118.171-.234.171-.353v-.528c.113-.118.171-.237.171-.354l-.171-.354c.113 0 .313.031.598.089.285.058.54.088.769.088.568 0 1.124-.294 1.665-.883.711-.587 1.125-1.117 1.238-1.588v-.529c-.002-.616-.173-1.027-.514-1.233z" transform="translate(-1362.927 -881.47) scale(4.03315)"/><path style="fill:#870000" d="M345.198 225.458c.359.24.539.418.539.539l-.179 1.255h.359c-.988 1.318-1.766 1.975-2.334 1.975l-.179-.179-.179 1.794.179 3.052c-.119.33-.24.509-.358.538-.359 0-.66-.418-.898-1.256l.359-3.95v-1.616l-.224-1.435.224-.179c.36 0 .658.299.897.896.569-.208 1.047-.329 1.436-.359l-.179-.537-1.256.537-.179-.358v-.179c-.002-.12.655-.298 1.972-.538zm2.513-3.052h.179c1.077.24 1.616.418 1.616.538l-.18.359v.18l1.257-.18c.748.121 1.106.299 1.077.539v.181c0 .119-.121.178-.36.178h-2.513c-.838.718-1.496 1.077-1.975 1.077h-.18l1.078-1.077v-.178l-2.154.537v.18c0 .329-.12.569-.359.718h-.36l-.359-.718a2.3 2.3 0 0 1-1.077.359c-.119 0-.419-.24-.897-.718h.36l1.391-.18-.135-1.077h.135l.942.718c0-.119.119-.24.359-.359v.359c1.645-.119 2.468-.299 2.468-.539v-.179h.225zm-3.949 5.744v-.18l.359-.537h-.718v.898c.837-.119 1.256-.42 1.256-.898v-.181zm6.821-3.231c.748.12 1.106.358 1.077.717l-.18 1.796.359 7.179c0 .121-.179.301-.539.539h-.179c-.599-.238-1.196-.658-1.795-1.256v-.18l1.077.18c.119 0 .18-.239.18-.718v-5.026h-1.437l-.359-.18c0 .45-.12.69-.359.72l-.179-.54-1.257.54v.358l1.436-.18c.599.121.898.358.898.717v.359c0 .45-.359 1.048-1.077 1.796l-.897-.181h-.36v.181c1.556.358 2.334.898 2.334 1.615l-.18.179c-.24 0-.897-.373-1.974-1.122h-.181l.181 1.661c0 .329-.121.509-.36.538-.449 0-.988-.419-1.615-1.256v-.18h.18l.897.359v-1.257c-.958.838-1.856 1.257-2.693 1.257v-.359c.359 0 .897-.359 1.616-1.077-.36 0-.673-.898-.942-2.692l.224-.18.54.359c.837-.119 1.256-.238 1.256-.359v-.179h-.539l.18-.18c-.6 0-.897-.06-.897-.179.119-.211.539-.389 1.256-.54l-.359-1.257h.179c.718 0 1.078.3 1.078.898h.717l.135-2.155.225-.179c.239 0 .478.24.718.718l1.033-.179c.359 0 .553.059.583.179v.18c-.449.448-.868.688-1.257.718v-.404h-.539v.763h1.796v-1.436c0-.24-.12-.42-.359-.539H350l-1.033.359h-.18l-.359-.359v-.18zm-5.205 5.025h-.18l.359 1.257.718-.179v-.358h-.18c-.358 0-.538-.06-.538-.181v-.179l.718-.18v-.181h-.897zm1.615-.359v.18l.181-.18h.538l.179.359c0 .121-.239.42-.717.898h.359c.119 0 .358-.478.718-1.436-.839.001-1.258.061-1.258.179z" transform="translate(-1362.927 -881.47) scale(4.03315)"/><path style="fill:#00082d" d="M350.383 261.92a14.218 14.218 0 0 1-.939-.618c-.242-.177-.463-.442-.662-.795 0-.234-.057-.353-.17-.353-.228.353-.341.706-.341 1.06v.175c0 .471.17.883.512 1.236.113.233.342.411.683.528.455.206 1.082.315 1.879.331a6.364 6.364 0 0 0 2.221-.331c-.115 0-.456-.088-1.025-.264-.57-.178-.976-.324-1.218-.442a10.555 10.555 0 0 1-.94-.527zm.577-3.529c0-.236-.043-.941-.129-2.119h-.17c-.456.236-.741.648-.854 1.236v.177c0 .589.228 1.117.684 1.588.113.088.626.441 1.537 1.058-.598-.94-.955-1.587-1.068-1.94z" transform="translate(-1362.927 -881.47) scale(4.03315)"/><path style="fill:#3b67e2" d="M352.198 246.743c-.228-.323-.456-.558-.683-.705l-.171-.088-.17-.088c-.115-.118-.2-.293-.257-.53l-.085-.353c-.113.235-.17.411-.17.528 0 .236.142.5.427.795.285.294.427.676.427 1.146v.353l-.171.177a3.795 3.795 0 0 0-.384.353v.353c.113 0 .24-.059.384-.175l.342-.178c.341-.205.512-.558.512-1.058v-.53z" transform="translate(-1362.927 -881.47) scale(4.03315)"/><path style="fill:#00082d" d="M353.052 253.625c-.427.206-.712.383-.854.53-.228.353-.342.941-.342 1.764 0 .971.342 1.912 1.026 2.825l.085.087.085.088c-.2-.47-.314-1.117-.342-1.939 0-.854.057-1.56.171-2.118.113-.236.198-.5.255-.794l.086-.442h-.17zm4.612-19.588c-.712-.47-1.338-.705-1.879-.705h-.17c-.341 0-.74.06-1.196.177-.114 0-.313.029-.597.088l-.428.087-.341.177h.171c.825.236 1.451.589 1.878 1.059.91.559 1.352 1.265 1.324 2.119a.787.787 0 0 1 .213.353c0 .588-.285 1.353-.854 2.294-.455.588-.683 1.176-.683 1.764-.228.706-.341 1.588-.341 2.647 0 .706.057 1.411.171 2.118.455-1.647.91-3.118 1.366-4.412.313-.735.541-1.146.683-1.236 0-.117.085-.235.256-.353.17-.117.256-.234.256-.354.91-.822 1.366-1.764 1.366-2.822 0-1.177-.399-2.177-1.195-3.001zm10.078.353c.455 1.06.683 2.236.683 3.53 0 .472-.058.824-.172 1.059-.228 1.648-.682 2.942-1.366 3.882-.569.971-1.423 1.912-2.562 2.824-.542.559-2.477 2.089-5.807 4.588-.427.353-.883.825-1.367 1.412-1.367 1.617-2.107 3.442-2.22 5.471-.114.706-.171 1.178-.171 1.411 0 1.06.171 2.235.513 3.53 0-3.412.854-6.294 2.562-8.647.541-.97 1.11-1.618 1.708-1.941.114-.117.313-.293.598-.529.285-.234.483-.353.597-.353l1.366-1.059c2.619-2.029 4.498-3.794 5.638-5.294.568-.735.854-1.147.854-1.235.427-.942.711-2 .854-3.177v-.353c-.001-1.677-.571-3.383-1.708-5.119z" transform="translate(-1362.927 -881.47) scale(4.03315)"/><path style="fill:#00082d" d="M364.325 235.097c-.114-1.382-.626-2.737-1.538-4.061-.797-1.087-1.765-1.912-2.903-2.469-1.366-.825-2.676-1.353-3.929-1.589.684.44 1.139.793 1.368 1.059.341.235.796.588 1.366 1.058l1.196 1.413c1.024.823 1.693 1.764 2.007 2.823.113.235.185.941.212 2.118v.354c0 1.175-.284 2.411-.853 3.705a99.476 99.476 0 0 1-2.22 2.824c-.684.823-1.31 1.824-1.879 3-.683 1.647-1.367 4.119-2.05 7.413v.528-.176c.91-1.765 2.05-4.176 3.417-7.235l1.024-1.765c.114-.234.342-.499.684-.793.341-.294.568-.501.683-.618 1.708-1.734 2.733-3.441 3.075-5.118.226-.559.34-1.383.34-2.471zm5.466 18.881c0-.117-.029-.25-.086-.396l-.084-.132v-.529c0-.234-.058-.47-.172-.706a5.02 5.02 0 0 0-2.392-1.412 4.892 4.892 0 0 0-1.195-.177c-.541 0-1.224.119-2.049.353-1.254.471-2.733 1.471-4.44 2.999-1.595 1.53-2.577 3.119-2.947 4.766-.084.56-.128 1.323-.128 2.294 0 1.411.171 2.883.513 4.411 0-1.618.17-3.265.512-4.941.455-1.764.967-3 1.536-3.705l1.367-1.411c.939-.971 1.964-1.735 3.074-2.295.911-.47 1.637-.705 2.177-.705h.214c.711 0 1.224.235 1.537.705.085 0 .171.088.257.264l.085.266c.227.325.341.559.341.706v.177c0 .735-.284 1.323-.854 1.764-.569.588-1.479 1.236-2.732 1.941v.177c.114 0 .227-.058.341-.177 1.794-.353 3.103-.999 3.929-1.941a5.85 5.85 0 0 0 1.025-1.411l.084-.353.086-.353v-.179z" transform="translate(-1362.927 -881.47) scale(4.03315)"/><path style="fill:#00082d" d="M363.129 257.685h-.853c-.542 0-1.054.059-1.538.176-1.68.853-2.761 2.795-3.245 5.823 1.252-1.999 2.676-3.588 4.27-4.765.684-.47 1.31-.823 1.879-1.058h-.17l-.171-.088z" transform="translate(-1362.927 -881.47) scale(4.03315)"/></svg>