<?xml version="1.0" standalone="no"?>
<!DOCTYPE svg PUBLIC "-//W3C//DTD SVG 20010904//EN"
 "http://www.w3.org/TR/2001/REC-SVG-20010904/DTD/svg10.dtd">
<svg version="1.0" xmlns="http://www.w3.org/2000/svg"
 width="1280.000000pt" height="1171.000000pt" viewBox="0 0 1280.000000 1171.000000"
 preserveAspectRatio="xMidYMid meet">
<metadata>
Created by potrace 1.15, written by Peter Selinger 2001-2017
</metadata>
<g transform="translate(0.000000,1171.000000) scale(0.100000,-0.100000)"
fill="#000000" stroke="none">
<path d="M5693 11696 c-356 -68 -694 -333 -870 -681 -25 -49 -72 -166 -105
-260 -69 -200 -129 -329 -163 -351 -17 -11 -35 -14 -57 -10 -82 16 -126 18
-148 6 -18 -10 -24 -9 -31 1 -15 22 -1 73 66 249 74 196 88 248 88 349 1 143
-49 231 -191 337 -107 79 -187 119 -272 135 -175 32 -416 -87 -650 -321 -94
-93 -131 -153 -156 -251 -44 -170 33 -376 208 -564 69 -74 71 -77 52 -94 -10
-10 -147 -132 -304 -272 -157 -139 -440 -393 -630 -564 -472 -424 -480 -431
-610 -528 -152 -114 -680 -441 -680 -422 0 2 22 42 49 87 157 268 271 536 259
609 -3 17 -7 10 -16 -29 -29 -128 -115 -322 -235 -532 -94 -165 -82 -155 -317
-274 -146 -75 -226 -121 -258 -152 -26 -24 -53 -44 -60 -44 -26 0 -152 71
-232 131 -139 105 -272 281 -342 452 -32 78 -59 109 -34 40 48 -135 149 -297
249 -402 85 -88 246 -199 345 -237 1 -1 -11 -27 -28 -59 -23 -43 -30 -70 -30
-112 l0 -56 -122 6 c-128 6 -249 28 -380 70 -43 14 -78 21 -78 16 0 -11 138
-54 257 -79 54 -11 149 -23 211 -27 104 -6 112 -7 112 -26 0 -34 37 -101 65
-118 l27 -16 -59 -22 c-122 -47 -271 -172 -331 -280 -35 -62 -12 -49 33 20 72
109 196 206 326 254 42 15 52 15 128 1 108 -21 413 -21 611 -1 351 36 387 37
780 32 413 -6 583 -18 860 -61 176 -28 311 -57 293 -63 -30 -11 -9 -20 35 -15
87 8 419 -115 644 -239 219 -120 495 -327 656 -491 56 -58 62 -67 53 -89 -5
-13 -70 -183 -145 -378 -74 -194 -136 -354 -138 -356 -2 -1 -212 -96 -467
-211 l-464 -209 -446 -404 c-245 -221 -459 -416 -475 -431 l-29 -28 49 -36
c126 -93 306 -156 449 -156 158 0 289 50 426 161 188 153 302 229 502 334 238
124 586 267 927 380 96 31 180 62 186 69 6 6 30 65 52 131 66 199 194 570 198
574 1 1 40 -19 86 -47 46 -27 171 -94 278 -147 186 -93 267 -141 337 -202 l33
-28 -161 -305 c-88 -168 -164 -309 -169 -313 -4 -5 -142 -3 -306 4 -553 23
-960 -18 -1161 -116 -81 -40 -150 -110 -256 -257 -199 -278 -220 -493 -67
-686 21 -27 56 -63 79 -81 l41 -33 78 26 c163 55 266 141 293 247 l13 52 156
-6 c85 -4 356 -12 603 -19 l447 -12 160 108 c331 222 541 391 652 525 173 209
511 758 707 1149 l41 82 38 -16 c75 -32 149 -55 247 -76 143 -30 431 -30 635
1 282 42 777 182 787 222 3 11 8 19 12 19 8 0 452 -712 447 -717 -2 -2 -53 1
-112 7 -165 17 -517 14 -659 -5 -193 -26 -341 -67 -468 -131 -221 -112 -425
-340 -530 -592 -44 -105 -86 -246 -76 -256 3 -3 144 26 314 65 171 38 667 135
1104 214 447 81 801 151 810 158 327 276 724 628 755 670 19 26 21 42 20 165
-1 147 -8 214 -55 506 -17 103 -27 191 -22 195 4 4 181 49 393 100 l385 93 39
-44 c66 -75 192 -247 236 -324 103 -180 150 -332 150 -484 0 -314 -169 -473
-880 -830 -1170 -587 -2894 -1197 -3760 -1329 -36 -6 -148 -20 -248 -31 -330
-36 -575 -87 -855 -176 -754 -242 -1419 -705 -1771 -1234 -339 -509 -318
-1125 57 -1663 77 -110 233 -277 320 -343 216 -162 607 -259 1171 -290 l129
-7 -5 65 c-8 134 -103 259 -343 451 -232 185 -328 271 -416 370 -186 210 -263
380 -262 577 2 159 52 282 183 452 356 458 1517 1000 2610 1218 695 138 2519
685 3205 959 503 202 927 487 1306 879 340 351 560 723 656 1110 37 149 39
353 4 487 -63 243 -203 460 -432 670 -97 90 -243 198 -349 259 -47 27 -86 51
-88 52 -2 1 21 69 51 151 96 257 168 530 207 781 86 560 22 1006 -194 1337
-219 336 -448 612 -646 777 -352 294 -765 427 -1615 520 -158 17 -653 17 -810
0 -753 -83 -1619 -319 -2488 -678 -98 -41 -180 -74 -182 -74 -3 0 13 29 35 65
90 147 165 315 206 460 31 110 43 291 25 377 -40 188 -206 351 -426 416 -100
30 -267 38 -372 18z"/>
</g>
</svg>
