<svg xmlns="http://www.w3.org/2000/svg" viewBox="0 0 511.992 511.992" style="enable-background:new 0 0 511.992 511.992" xml:space="preserve"><path style="fill:#ccc2b8" d="M228.05 352.91v19.844c0 8.304-6.723 15.037-15.027 15.037h-62.219c0-19.27 15.611-34.882 34.871-34.882h2.393l-88.666-4.742c-19.054-.931-36.333-8.769-49.302-21.133s-21.63-29.231-23.471-48.22a12.12 12.12 0 0 1 1.927-7.849 12.127 12.127 0 0 1 7.687-5.283l101.961-21.695 27.877-5.933c4.699-.996 9.376-2.1 14.02-3.28 96.082-24.402 180.31-83.069 240.351.542 31.916 44.463 21.143 93.376 4.385 126.666-8.704 17.278-26.383 28.202-45.73 28.202H262.629c0-19.27 15.611-34.882 34.871-34.882h27.466v-.152a45.853 45.853 0 0 1-13.078-2.252v.011l-83.838.001z"/><path style="fill:#b3b3b3" d="m179.473 232.295.628 2.479a360.544 360.544 0 0 1-14.02 3.28l-27.877 5.933-.01-.076v-61.482c-.001.001 35.78 5.911 41.279 49.866z"/><path d="M382.589 213.282a10.513 10.513 0 0 0 14.422-3.637c2.978-4.986 1.35-11.443-3.637-14.422a95.81 95.81 0 0 0-5.565-3.079c-5.173-2.644-11.508-.592-14.151 4.58-2.643 5.172-.592 11.508 4.58 14.151a76.304 76.304 0 0 1 4.351 2.407zm-273.794 69.127v11.454c0 5.809 4.708 10.517 10.517 10.517s10.517-4.708 10.517-10.517v-11.454c0-5.809-4.708-10.517-10.517-10.517s-10.517 4.709-10.517 10.517z"/><path d="M386.524 111.287a378.85 378.85 0 0 0-45.138 2.706 381.336 381.336 0 0 0-44.471 8.072c-5.643 1.376-9.103 7.065-7.728 12.708 1.376 5.643 7.065 9.102 12.708 7.728a360.393 360.393 0 0 1 42.008-7.625 357.622 357.622 0 0 1 42.62-2.556c27.894 0 54.12 10.864 73.845 30.586 19.727 19.737 30.591 45.968 30.591 73.86 0 25.265-17.032 45.625-40.083 49.683-2.049-20.62-9.36-39.827-21.88-57.269-3.161-4.402-6.472-8.546-9.84-12.316-3.87-4.332-10.517-4.708-14.85-.838-4.332 3.869-4.707 10.517-.838 14.85 2.873 3.217 5.714 6.775 8.441 10.573 31.622 44.054 15.788 91.465 3.536 115.802-6.966 13.827-20.889 22.417-36.337 22.417H275.532c3.931-8.185 12.3-13.848 21.967-13.848h27.781c.75 0 1.481-.082 2.185-.23 5.189-.646 9.208-5.063 9.208-10.427 0-5.809-4.708-10.517-10.517-10.517-.307 0-.603.001-.916-.007a35.425 35.425 0 0 1-10.116-1.745c-5.271-1.705-10.153-4.702-14.118-8.668-6.719-6.719-10.42-15.654-10.42-25.161 0-32.114 26.126-58.24 58.24-58.24 5.809 0 10.517-4.708 10.517-10.517 0-5.809-4.708-10.517-10.517-10.517-43.712 0-79.274 35.562-79.274 79.274 0 12.148 3.806 23.707 10.843 33.328h-41.829v-19.504c0-5.809-4.708-10.517-10.517-10.517-5.809 0-10.517 4.708-10.517 10.517v49.866a4.52 4.52 0 0 1-4.51 4.52H163.71c3.931-8.185 12.3-13.848 21.967-13.848h2.402c.357 0 .709-.019 1.058-.055.053-.005.103-.017.156-.023.291-.034.582-.075.866-.133.114-.023.222-.056.334-.083.219-.052.438-.102.65-.167.14-.043.273-.096.41-.144.179-.063.36-.123.534-.196.148-.061.29-.133.435-.201.157-.074.316-.144.468-.225.146-.077.285-.164.427-.247.145-.086.29-.169.43-.262.137-.09.267-.187.399-.284.137-.099.273-.198.406-.303.125-.1.243-.207.363-.312.129-.114.259-.227.383-.347.111-.109.218-.223.325-.337.121-.128.242-.257.357-.391.099-.117.192-.237.286-.358.11-.142.22-.284.323-.432.087-.125.169-.252.251-.382.097-.152.191-.305.281-.463.077-.135.147-.272.218-.41a9.723 9.723 0 0 0 .416-.926 9.804 9.804 0 0 0 .327-.973 9.512 9.512 0 0 0 .232-1.01 9.8 9.8 0 0 0 .133-1.035c.006-.087.022-.171.026-.259.005-.096-.002-.188.001-.284.002-.094.014-.184.014-.278 0-.083-.011-.164-.013-.247a10.652 10.652 0 0 0-.257-2.096 11.28 11.28 0 0 0-.282-1.005 11.5 11.5 0 0 0-.376-.961 10.835 10.835 0 0 0-.463-.908 10.175 10.175 0 0 0-.252-.415 10.598 10.598 0 0 0-.583-.828 9.432 9.432 0 0 0-.662-.77 10.362 10.362 0 0 0-.733-.702 11.36 11.36 0 0 0-.376-.314 11.754 11.754 0 0 0-.821-.587 8.978 8.978 0 0 0-.45-.273 10.005 10.005 0 0 0-1.848-.839 9.921 9.921 0 0 0-.992-.284 9.866 9.866 0 0 0-1.037-.187 11.294 11.294 0 0 0-.554-.058c-.084-.006-.166-.022-.25-.026l-88.715-4.744a66.384 66.384 0 0 1-42.559-18.241 66.38 66.38 0 0 1-20.262-41.638c-.038-.381.05-.738.296-1.112a1.623 1.623 0 0 1 1.041-.703l129.823-27.626.007-.001c4.646-.985 9.366-2.09 14.427-3.375 21.787-5.533 42.758-12.72 63.039-19.671 38.814-13.302 75.474-25.865 106.486-22.187 5.763.687 10.999-3.436 11.682-9.204.685-5.767-3.437-10.999-9.204-11.682-35.773-4.248-74.637 9.075-115.783 23.176-16.483 5.649-33.438 11.442-50.692 16.296-8.108-34.011-34.455-47.354-48.31-49.642a10.511 10.511 0 0 0-8.518 2.357 10.513 10.513 0 0 0-3.714 8.019v53.045l-93.612 19.92a22.875 22.875 0 0 0-5.802 2.093l-11.353-8.704c-4.609-3.535-11.211-2.662-14.745 1.948-3.534 4.61-2.662 11.211 1.948 14.745l12.143 9.31a22.559 22.559 0 0 0-.093 5.044 87.401 87.401 0 0 0 26.683 54.818A87.388 87.388 0 0 0 98.85 358.67l49.981 2.673c-5.362 7.454-8.533 16.585-8.533 26.449 0 5.809 4.708 10.517 10.517 10.517h62.219c14.085 0 25.544-11.464 25.544-25.554v-9.327h22.297c-5.497 7.509-8.752 16.759-8.752 26.757 0 5.809 4.708 10.517 10.517 10.517h116.47c23.44 0 44.561-13.023 55.124-33.99 6.892-13.691 15.203-34.746 16.93-59.036 34.74-4.306 60.831-33.892 60.831-70.908 0-33.508-13.05-65.019-36.749-88.73-23.702-23.701-55.21-36.751-88.722-36.751zM148.71 198.096c7.205 4.681 15.552 13.288 19.139 28.805-1.326.299-2.644.59-3.949.867l-.008.002-15.183 3.23v-32.904h.001z"/></svg>