<svg xmlns="http://www.w3.org/2000/svg" width="139.764" height="200" xml:space="preserve"><path d="M0 14.455c0-4.01 1.408-7.43 4.219-10.24C7.026 1.408 10.442 0 14.459 0h110.843c4.013 0 7.433 1.408 10.244 4.215 2.803 2.81 4.215 6.23 4.215 10.24V185.54c0 4.013-1.412 7.43-4.215 10.24-2.81 2.807-6.231 4.219-10.244 4.219H14.459c-4.017 0-7.433-1.412-10.24-4.219C1.408 192.971 0 189.554 0 185.541m7.231 0c0 2.09.682 3.811 2.05 5.183 1.362 1.363 3.089 2.049 5.178 2.049h110.843c2.09 0 3.815-.686 5.179-2.05 1.363-1.37 2.048-3.097 2.048-5.182V14.455c0-2.09-.685-3.812-2.048-5.179-1.364-1.363-3.094-2.049-5.179-2.049H14.459c-2.093 0-3.816.686-5.179 2.05-1.367 1.366-2.049 3.093-2.049 5.178"/><path style="fill:#870000" d="M570.151 225.878c.588 0 .883.235.883.706h.528c.323 0 .5.118.529.353v.177c0 .117-.353.412-1.058.881l-.53 1.94h.178c.938-.734 1.41-1.263 1.41-1.586.236 0 .53.117.883.353l.706-.707-.883 2.117c0 .323-.06.501-.176.53-.353 0-.604-.413-.751-1.235-.823.941-1.221 1.763-1.189 2.469v1.941c-.119.559-.235.853-.353.882-.235 0-.413-.353-.53-1.058l.133-1.765-1.721 1.765h-.353l-.176-.353v-.177l1.764-2.999c.323-.852.485-1.381.485-1.588-.824.088-1.633.559-2.426 1.411-.354-.117-.53-.353-.53-.705s.236-.706.707-1.058l.353.353c.823-.234 1.528-.764 2.116-1.587 0-.205-.117-.441-.353-.706.031-.118.148-.235.354-.354zm.883-2.646c.822.117 1.235.411 1.235.883l-1.588.88c-1.061.736-1.823 1.089-2.294 1.06 1.293-1.177 1.941-1.882 1.941-2.117v-.175zm3.704.353.353.178.484-.178.221.53c-.205.941-.323 2.116-.353 3.527.559-.353 1.147-.881 1.765-1.587.44 0 .91.221 1.411.661v.22c0 .118-1.118.53-3.352 1.235 0 2.911-.706 4.793-2.117 5.645-.47.235-.896.353-1.279.353h-.662v-.175c.941-.47 1.589-1.015 1.941-1.633.94-.558 1.411-2.954 1.411-7.187v-.353c0-.117-.176-.236-.528-.353v-.177c.236-.353.469-.589.705-.706zm.705 8.115c1.294 0 2.47.528 3.528 1.588l.177.528v.177c-.119.117-.294.175-.529.175h-.883l-1.411.177c.47-.441.705-.795.705-1.058-.353-.588-.881-1.06-1.587-1.412z" transform="translate(-2209.196 -882.09) scale(4.03315)"/><path style="fill:#a00283" d="M562.037 252.705c-.353.117-.528.294-.528.528v.133c0 .119.117.192.353.22.353 0 .586-.072.705-.22.118-.087.176-.191.176-.308 0-.235-.176-.353-.528-.353zm1.058-1.941c-.44 0-.793.117-1.058.353-.117.117-.176.294-.176.528 0 .471.176.707.528.707.206 0 .441-.178.705-.53l.354-.177a.42.42 0 0 0 .177-.353c0-.117-.06-.176-.177-.176-.118-.235-.235-.352-.353-.352zm.353 1.588c-.235 0-.411.117-.528.353v.353l-.178.175c0 .09.117.133.353.133s.413-.043.53-.133h.176v-.175l.177-.177v-.175c0-.237-.177-.354-.53-.354zm1.235.705-.176.175c-.118.09-.192.325-.22.706 0 .354.19.53.572.53.117 0 .176-.059.176-.176 0-.118.059-.177.177-.177.117 0 .177-.029.177-.087v-.178c0-.059.028-.117.089-.175l.087-.089v-.22c0-.205-.058-.308-.176-.308h-.706zm0-1.588a.534.534 0 0 0-.374.507c-.016.251.169.376.551.376.47 0 .705-.178.705-.53 0-.204-.176-.323-.529-.353h-.176zm7.375 1.363-.309-.883c-.353-.469-1.117-.763-2.294-.882.442.119.795.294 1.06.529.353.353.529.766.529 1.235 0 .44-.177.734-.529.881a1.563 1.563 0 0 1-.706.177c-.734 0-1.44-.25-2.116-.75l-.353-.133c-.236-.117-.354-.586-.354-1.411v-.353h-.177l-.087.22a.42.42 0 0 0-.089.221c0 .06-.031.089-.089.089h-.264l-.178-.177c-.117 0-.235.059-.353.177 0 .236.117.353.353.353h.311v.88h-.133c-.353.207-.53.442-.53.706 0 .118.06.235.178.354l.175.176c0 .119-.117.177-.353.177h-.705l-.178.176a.537.537 0 0 1-.395.177h-.133c-.118.117-.294.176-.53.176h-.353c-.235 0-.353-.059-.353-.176l.176-.353.354.353h.175c.117 0 .236-.058.353-.177l.311-.529v-.177c0-.235-.164-.353-.485-.353-.235 0-.413.117-.53.353-.235-.235-.471-.353-.705-.353a.821.821 0 0 0-.529.176l-.088.089-.089.087-.176-.177-.088-.088c-.061-.059-.089-.146-.089-.265-.118-.117-.176-.234-.176-.353-.117 0-.177-.058-.177-.175 0-.117.028-.207.088-.265.059-.059.146-.087.265-.087h.177c.235-.235.353-.411.353-.53 0-.235-.117-.411-.353-.529h-.177v-.176l.177-.177.087-.176.178-.353c.058-.117.146-.177.265-.177a1.768 1.768 0 0 1 1.058-.353h.706c.117 0 .178-.059.178-.176l-.53-.354h-.175c0-.087.117-.146.353-.175h.175c.56 0 1.029.235 1.411.706.236.235.354.413.354.529 0 .117-.089.207-.265.265l-.266.088c.941-.117 1.588-.411 1.941-.882.117-.117.175-.412.175-.883.117-.234.235-.586.354-1.058 0-1.293-.06-2.116-.177-2.469-.118 0-.207-.058-.265-.177a1.428 1.428 0 0 0-.266-.353v-.353c0-.118.117-.236.353-.353.117 0 .206-.059.266-.177l.089-.176c.233-.117.764-.53 1.586-1.235 0-.235.059-.353.178-.353.233 1.058.529 1.764.882 2.116.353.588.998 1.176 1.94 1.765l.881.528c0 .119-.116.294-.353.53-.469.323-.882.618-1.234.882l-.353.175c-.59.236-.882.824-.882 1.765v.353l.353-.177c.117-.117.346-.265.685-.44.337-.177.639-.324.903-.442.733-.321 1.204-.616 1.411-.88.088-.117.205-.236.353-.353 0-.117.029-.206.088-.265.059-.059.087-.146.087-.265.12-.205.178-.382.178-.53 0-.353-.058-.705-.178-1.058-.116-.117-.469-.292-1.058-.529-.853-.471-1.381-.941-1.587-1.412l-.177-.353a2.389 2.389 0 0 1-.353-.332c-.118-.131-.176-.256-.176-.375-.117-.353-.177-.646-.177-.882v-.529c0-.117-.061-.294-.177-.529l-.353-.176h-.353c-.236 0-.472.059-.705.176-.353.235-.766.705-1.235 1.411-.235.235-.413.354-.53.354-.117 0-.235-.06-.353-.177a6.643 6.643 0 0 1-.748-.925.419.419 0 0 1-.133-.31l-.178-.176c-.353-.117-.588-.177-.705-.177-.353 0-.53.06-.53.177-.116 0-.248.162-.395.485v1.103c0 1.175.249 2.058.748 2.646.236.205.412.382.529.529v-.176c.117.236.235.353.353.353-.353-.442-.529-1.206-.529-2.293v-1.765c.119.119.266.294.442.53l.397.53c.233 0 .366.117.396.353h-.396l-.311.353c-.117.117-.175.294-.175.528 0 .236.117.588.353 1.059l.528.529c.117.353.177.765.177 1.235v.883c-.118.734-.235 1.206-.353 1.411-.206.588-.441.882-.705.882v-.353c0-.559-.295-1.028-.883-1.412-.118 0-.206-.028-.265-.088-.059-.059-.161-.087-.308-.087h-.75c-.178 0-.353.029-.53.087l-.265.088c-1.175.353-1.999 1.001-2.469 1.94l-.353.882v.706c0 .559.116 1.089.353 1.588.44 1.177 1.323 1.882 2.646 2.116.234.119.53.177.883.177.705 0 1.292-.117 1.763-.353l.178-.177.175-.176a1.76 1.76 0 0 0 .883-1.058v-.177c.588.706 1.352 1.118 2.294 1.235.116 0 .233.03.353.088 0 0 1.439-.277 1.983-.957.546-.674.445-1.772.445-1.772z" transform="translate(-2209.196 -882.09) scale(4.03315)"/><path style="fill:#00082d" d="M550.396 244.06c.117.353.293.588.528.705h.883c.234-.117.491-.204.771-.263.279-.059.49-.148.639-.265h.353-.175l-.706 1.058c0 .117-.06.235-.177.353-.117 0-.207.029-.265.088-.06.06-.088.147-.088.265-.589.472-.941 1.177-1.059 2.118v.176c0 .941.411 1.529 1.235 1.765.117.117.233.176.353.176.118 0 .197-.029.242-.088a.287.287 0 0 0 .066-.177v-.265c0-.088.071-.146.22-.176l.178-2.293c0-.588.058-1.058.175-1.411.117-.471.295-.824.53-1.06.557-.469 1.381-.705 2.469-.705.441 0 1.029.119 1.765.353h-.353c-1.647 0-2.706.472-3.176 1.413-.117.088-.235.263-.353.528v.882l.178.485c.116.235.22.426.307.573.236.236.426.353.574.353.47 0 .763-.176.882-.529.116-.117.176-.294.176-.529v-.353c0-.353.118-.647.354-.882a5.199 5.199 0 0 1 1.411-1.764l.133-.087.175-.09c.117 0 .25.06.397.177l.178.175a12.226 12.226 0 0 1 3.174 2.293c-.734-1.175-1.499-1.999-2.294-2.469 0-.117-.058-.207-.175-.265l-.178-.087-.175-.706v-.442a.6.6 0 0 0-.178-.44v-1.765l-.087-.176a.753.753 0 0 1-.088-.353l-.178-.353c-.117-.117-.294-.177-.529-.177-.353 0-.647.118-.882.353a1.395 1.395 0 0 0-.176.705v.177c0 .588.176 1.118.529 1.588.117 0 .205.029.266.088l.175.177c.058.059.111.117.153.176a.296.296 0 0 1 .066.177c0 .058.029.147.09.265l.131.175v.178c-.117 0-.191-.059-.221-.178-.822-.234-1.396-.353-1.719-.353h-.707c-.117-.117-.176-.235-.176-.353h-.177c-.235-.353-.353-.822-.353-1.411 0-.235.058-.353.177-.353 0-.117.059-.294.176-.53.117-.236.177-.411.177-.529 0-.353-.119-.646-.353-.881a1.666 1.666 0 0 0-.751-.177l-.132.177h-.353a2.028 2.028 0 0 0-.353.528c-.235.235-.353.588-.353 1.058 0 .237.058.413.175.53l.354.662c.354.588.765 1.013 1.235 1.278a7.639 7.639 0 0 0-1.059.353l-.177.178-.176-.178c-.119 0-.235-.058-.353-.175l-.178-.089-.175-.088-1.588-.353h-.354a2.646 2.646 0 0 0-1.05 1.059zm5.292 11.996c-.236 0-.647.117-1.235.353-.472.118-.824.235-1.058.353l-.09.177-.088.176-.353.177a2.77 2.77 0 0 0-.705.528l-.178.353h.178c.353-.353.94-.528 1.763-.528h.354l.354.176v.706c0 .442.058.853.175 1.235.088.119.205.294.353.529h1.765l.177.176.353.354.176.353.529.528h.484c.353 0 1.074-.292 2.161-.88 1.177-.588 1.94-.941 2.293-1.06.118-.117.471-.234 1.06-.353h.133c-.09 0-.133-.059-.133-.176a7.951 7.951 0 0 0-1.412-.221c-.94 0-1.586.192-1.94.574l-.353.176v-.353c0-.234-.117-.47-.354-.705l-.353-.353a2.045 2.045 0 0 0-.527-.353h-.575l-.087-.087a.776.776 0 0 0-.133-.178c-.06-.059-.117-.087-.175-.087h-.354c-.06 0-.148-.059-.266-.177-.118 0-.235-.059-.353-.176-.118 0-.206-.104-.265-.31l-.088-.22c-.089-.234-.206-.411-.354-.53-.116-.119-.411-.177-.879-.177zm-1.058 4.056h-.354c-.354 0-.706.119-1.059.353-.559.442-.854.971-.881 1.587v1.413c.353.939.823 1.411 1.411 1.411h.175c-.588 0-.896-.53-.925-1.588l-.045-.221a1.541 1.541 0 0 1-.088-.485l.088-.177.045-.175.397-.883c.353-.822.764-1.235 1.236-1.235zm9.877-32.457c-.824 0-1.47.236-1.94.706l-.353.353-.529.53-.706.705c-1.058 1.293-1.705 2.706-1.94 4.233v.53l-.397-.177c-.323-.117-.602-.175-.837-.175h-.53c-.941.205-1.587.734-1.939 1.586l-.178.177v.176c0 .442.236.736.706.882.117.119.293.177.529.177.236 0 .558-.089.971-.265.41-.178.676-.265.793-.265.116-.117.353-.175.705-.175v.705c0 .706.06 1.293.177 1.764.117.118.205.264.266.44l.087.265 2.823 4.586c.706 1.06 1.294 1.824 1.764 2.293.94.941 1.765 1.471 2.47 1.588-.441-.353-1.265-1.235-2.47-2.646-.734-1.087-1.265-1.911-1.588-2.469a1.15 1.15 0 0 1-.265-.442 1.102 1.102 0 0 0-.264-.441l-.177-.309-.176-.22a133.44 133.44 0 0 1-.927-1.411c-.207-.205-.309-.382-.309-.53 0-.117.088-.265.265-.441.177-.177.264-.323.264-.44v-.089c0-.059.059-.088.177-.088h.178v.177h.175c.118 0 .295-.059.53-.177.117 0 .205-.029.264-.088.061-.059.147-.089.265-.089l.353-.353c.588-.353.883-1.058.883-2.116v-.353c0-.353-.177-.647-.53-.883a1.569 1.569 0 0 0-.705-.175c-.235 0-.47.059-.705.175v.353l-.176.178c-.119 0-.178.029-.178.087 0 .058-.028.294-.088.706-.06.413-.147.678-.265.795 0 .117-.088.263-.264.44-.177.175-.266.323-.266.44-.236.119-.354.294-.354.53l.09.088.088.087-.353.354v-.354a5.427 5.427 0 0 1-.178-1.411v-.528h.178c.117 0 .175-.074.175-.222 0-.087-.058-.308-.175-.661 0-.117-.061-.235-.178-.353v-.53l.089-.175a.638.638 0 0 0 .089-.353c.234-1.646.998-3.117 2.293-4.411.205-.353.374-.53.507-.53s.199.06.199.177c.233.117.528.175.881.175.117 0 .294-.027.529-.088.235-.059.382-.087.442-.087.058 0 .234-.03.527-.088.295-.059.501-.089.617-.089.117 0 .295-.059.53-.175.234-.205.353-.382.353-.53l-.177-.353c0-.117-.029-.205-.088-.265-.059-.059-.088-.146-.088-.263h-.22a2.929 2.929 0 0 0-1.016-.178h-.703zm-3.176 18.523c-.235-.117-.529-.178-.882-.178-.734 0-1.382.294-1.94.883-.853.706-1.265 1.352-1.234 1.94 0 .235.06.411.177.528.116.118.353.235.705.353.116.119.235.177.353.177a.818.818 0 0 0 .529-.177c.117-.088.353-.38.705-.881 0-.117.06-.235.178-.353l.175-.177a1.57 1.57 0 0 0 .178-.705.78.78 0 0 0-.088-.353l-.09-.177c.116-.586.529-.88 1.234-.88zm-2.115 8.467c-.354 0-.648.059-.883.176-.235.119-.353.413-.353.882v.353c.234.117.456.175.66.175h.221a.769.769 0 0 0 .354-.088.773.773 0 0 1 .353-.087c.117 0 .234.058.353.175.117.119.234.177.353.177a.817.817 0 0 0 .528-.177c.117-.117.177-.234.177-.353 0-.117-.06-.292-.177-.528v-.09c0-.059-.073-.146-.22-.263-.089-.117-.191-.177-.309-.177-.353-.117-.647-.176-.883-.176h-.174zm9.347 4.939v1.588c-.117-.207-.47-.442-1.058-.707v-.529c.235-.469.411-.882.529-1.235.089 0 .197.052.33.154.132.104.198.287.198.551v.178zm2.471-2.646-1.413.176.178.177c.323 0 .557.176.705.528l.088.353c.059.236.147.353.265.353l.53.177a.79.79 0 0 0 .353-.088l.132-.089c.117 0 .25-.059.398-.176l.176-.706c0-.117-.117-.294-.354-.529-.119-.118-.235-.176-.353-.176h-.353zm1.411-1.412h-.266c-.176 0-.278.06-.309.177l-.484.175c0 .119.059.178.176.178v-.178c.323.119.617.294.883.53.117.118.293.265.529.44l.528.442c.206.117.56.176 1.059.176h.529c.235 0 .397-.117.484-.353.117-.118.191-.293.221-.529v-.354c-.205-.353-.44-.528-.705-.528-.117 0-.266.029-.44.088a1.42 1.42 0 0 1-.442.087 1.353 1.353 0 0 0-.353-.263.795.795 0 0 0-.353-.089h-1.057zm-.574-1.588c0 .119.072.177.221.177v-.177zm.221.177-.221-.177h.221zm7.585-.883v-.353c-.117-.469-.353-.764-.705-.881-.117 0-.235-.06-.353-.177l-.178-.087a.78.78 0 0 0-.353-.089h-.176c-.235 0-.412.06-.529.177-.236 0-.881.294-1.94.883-.47.235-1.058.588-1.763 1.058.087 0 .233-.029.439-.088l.266-.089h2.292c.117.119.286.206.508.265.221.061.404.148.551.265h.53c.471 0 .883-.059 1.236-.177a.76.76 0 0 1 .087-.353l.088-.22zm-8.468 1.451h-.175m1.141-.409c-1.528 1.222-2.729 2.537-2.729 2.537l-.881.883c-.56.853-.971 1.617-1.235 2.293v.353h-.178l-.353-.529c-.235 0-.368-.117-.395-.353 0-.117.188-.47.572-1.058.234-.353.411-.706.528-1.058 0-.207-.059-.324-.176-.353h-.178l-.175.175-.353.178c-.118.117-.28.265-.485.44l-.221.265c-.118 0-.294.117-.529.353l-.178-.178v-.353c-.557-.823-1.675-1.292-3.351-1.411h-.529c-1.059 0-1.939.353-2.646 1.058.824-.324 1.588-.499 2.293-.528h.53c.47 0 1.176.175 2.117.528.705.235 1.175.413 1.411.53.234.236.353.411.353.528h-.178c-.235.325-.353.736-.353 1.235v.353c0 .235.09.442.266.617.177.177.265.325.265.442.117 0 .175.117.175.353a.792.792 0 0 1-.087.353.762.762 0 0 0-.088.353c0 .117.059.234.175.353.119.441.473.793 1.061 1.058h.353c.234 0 .587-.117 1.058-.353.205-.117.382-.294.53-.53.233-.235.353-.47.353-.705v-.353l.353.53.353.176c.233 0 .354.059.354.177h.131c.354 0 .721-.177 1.104-.529.354-.353.528-.764.528-1.234 0-.236-.059-.354-.175-.354-.119-.47-.354-.705-.707-.705-.118 0-.264-.03-.441-.088l-.309-.087a3.43 3.43 0 0 1-1.189-.575l-.53-.308v-.177c.117 0 .178-.059.178-.175.734-1.058 1.896-2.235 3.483-3.529.117-.234 1.19-1.116 3.219-2.646l.266-.176c.146-.118.286-.235.418-.354.133-.117.257-.176.374-.176.117 0 .647-.059 1.588-.177.353-.117.589-.234.706-.353l.354-.528v-.707c.117-.087.176-.263.176-.528 0-.117-.059-.265-.176-.441-.118-.177-.177-.323-.177-.442v-.573a2.344 2.344 0 0 0-.353-.485c-.353-.235-.604-.353-.75-.353-.323 0-.603.117-.838.353 0 .117-.029.207-.088.265-.061.059-.147.088-.265.088-.118.087-.178.265-.178.53-.235.353-.353 1-.353 1.94a.667.667 0 0 1-.109.353.666.666 0 0 0-.11.353c-.088 0-.133.117-.133.353l.133.176v.353h-.133c-.117.118-.235.177-.353.177 0-.002-1.564 1.18-3.093 2.4z" transform="translate(-2209.196 -882.09) scale(4.03315)"/></svg>