<svg xmlns="http://www.w3.org/2000/svg" width="139.764" height="200" xml:space="preserve"><path d="M0 14.455c0-4.01 1.408-7.43 4.219-10.24C7.026 1.408 10.442 0 14.459 0h110.843c4.013 0 7.433 1.408 10.244 4.215 2.803 2.81 4.215 6.23 4.215 10.24V185.54c0 4.013-1.412 7.43-4.215 10.24-2.81 2.807-6.231 4.219-10.244 4.219H14.459c-4.017 0-7.433-1.412-10.24-4.219C1.408 192.971 0 189.554 0 185.541m7.231 0c0 2.09.682 3.811 2.05 5.183 1.362 1.363 3.089 2.049 5.178 2.049h110.843c2.09 0 3.815-.686 5.179-2.05 1.363-1.37 2.048-3.097 2.048-5.182V14.455c0-2.09-.685-3.812-2.048-5.179-1.364-1.363-3.094-2.049-5.179-2.049H14.459c-2.093 0-3.816.686-5.179 2.05-1.367 1.366-2.049 3.093-2.049 5.178"/><path style="fill:#a00283" d="M601.593 250.286h-.378c-.379 0-.661.096-.851.284-.189.19-.284.475-.284.853h.379c.504-.125.882-.378 1.134-.758v-.188z" transform="translate(-2364.464 -882.478) scale(4.03315)"/><path style="fill:#870000" d="M610.419 223.48c.361.09.541.212.541.362v.18c-.603.604-.903.966-.903 1.087h.542c.361 0 .843-.121 1.447-.362.603.241.904.541.904.903-.603.242-1.326.831-2.17 1.764v.226a36.29 36.29 0 0 0 6.332 2.713l.18.182c-1.115.574-1.9.875-2.352.905-.604-.212-2.17-1.236-4.704-3.076-2.049 2.171-3.979 3.256-5.787 3.256a17.72 17.72 0 0 0 4.159-3.075l.724-.724-1.673-.724c-.09.21-.257.316-.498.316l-.18-.136c0-.602.542-1.267 1.627-1.99.843-.753 1.267-1.295 1.267-1.628zm-2.352 3.437c.602 0 1.205.122 1.808.362l1.085-1.447-.541-.181c-.695-.029-1.48.393-2.352 1.266zm1.582 3.075h.226c1.327.242 1.991.664 1.991 1.267-.212.212-.875.452-1.991.724a6.2 6.2 0 0 0-1.085 1.085c0 .211.723.453 2.17.725 1.086.604 1.63 1.146 1.63 1.627 0 .122-.122.182-.363.182-.451 0-1.598-.482-3.437-1.447l-.362-.543c0-.572.483-1.417 1.447-2.532v-.182l-.724-.724z" transform="translate(-2364.464 -882.478) scale(4.03315)"/><path style="fill:#a00283" d="M609.539 248.117a7.018 7.018 0 0 0-1.7-.189c-.789 0-1.294.063-1.516.189v-.567a1.23 1.23 0 0 0-.565-.568c-.253-.125-.443-.188-.569-.188-.788-.125-1.418-.19-1.892-.19h-.758c0-.472.128-.851.38-1.134l.095-.095.188-.19c.063-.062.125-.094.189-.094.062 0 .094-.063.094-.19 0-.125-.094-.188-.283-.188-.188 0-.41.063-.663.188-.252.127-.439.348-.566.662-.127.316-.19.537-.19.663v.567a1.8 1.8 0 0 0-1.513.757c-.757-1.134-1.892-1.829-3.406-2.081h-.757c-1.387 0-2.397.378-3.027 1.134a4.22 4.22 0 0 0-.566 1.325c0 .126.062.254.188.378.127.126.19.253.19.378l-.378.19c0 .252.126.441.378.567.125.128.188.252.188.378.252.252.693.378 1.325.378.124 0 .283.033.474.096.188.063.345.094.472.094.757 0 1.135-.126 1.135-.378 0-.253-.314-.378-.945-.378-.789-.253-1.372-.504-1.75-.757a.633.633 0 0 1-.142-.38v-.188c.095 0 .142-.063.142-.189v-.189c.378-.631.961-1.071 1.75-1.325h.758a4.21 4.21 0 0 1 2.459.757h-.566c-.601 0-1.294.127-2.083.378 1.389 0 2.334.127 2.839.378.378.127.567.315.567.568 0 .378.252.568.757.568.126 0 .253-.062.379-.19.125.128.316.19.568.19.126 0 .188-.126.188-.378l-.188-.19c-.128-.125-.191-.252-.191-.378 0-.125.063-.189.191-.189 0-.126.126-.189.377-.189a.653.653 0 0 1 .474-.189h.472v.946c.128-.22.253-.347.38-.378.252-.378.82-.568 1.702-.568h.188c.127 0 .316.127.569.378h-.19v.189l-.189.378-.567.19c0 .252.189.378.567.378.127 0 .506-.126 1.137-.378 1.224-.504 2.36-.757 3.4-.757z" transform="translate(-2364.464 -882.478) scale(4.03315)"/><path style="fill:#a00283" d="M598.943 245.186c0 .125.094.284.284.472.188.19.346.332.472.426h.759l-.19-.142c-.126-.126-.19-.253-.19-.378 0-.253.064-.442.19-.568.126-.126.567-.378 1.324-.757 1.608-.473 3.123-.914 4.542-1.325-.349-.126-.915-.188-1.704-.188 0 0-1.912-.122-3.727.636s-1.76 1.824-1.76 1.824zm10.407-.568c0-.598-.568-1.041-1.702-1.325-.127-.126-.348-.188-.663-.188h-.851a.814.814 0 0 0-.236.378c0 .126.141.19.424.19.253 0 .569.063.948.188l.756.378c.126.127.19.253.19.378v.378c0 .126-.064.315-.19.568l-.188.094a1.11 1.11 0 0 0-.284.19.317.317 0 0 0-.094.236c0 .125.062.205.188.236a.78.78 0 0 0 .568-.236c.378-.095.629-.205.757-.333l.188-.377v-.567c.125.002.189-.061.189-.188zm4.729 1.892-.235-.19a3.257 3.257 0 0 0-.237-.284l-.093-.093h-.191l-.188-.191c-.506-.251-1.199-.377-2.082-.377-.788 0-1.356.064-1.703.19a4.862 4.862 0 0 0-.853.568c-.315.252-.534.377-.66.377-.127.253-.634.567-1.516.945h.191c.628 0 1.639-.313 3.024-.945.348-.125.728-.19 1.137-.19.506 0 .932.065 1.277.19.379.378.584.632.614.757 0 .125-.063.284-.188.473-.127.19-.19.347-.19.472 0 .38.19.568.569.568h.188c.504 0 .882-.125 1.135-.378l.097-.19a.512.512 0 0 0 .095-.282v-.474c.001-.252-.065-.567-.191-.946z" transform="translate(-2364.464 -882.478) scale(4.03315)"/><path style="fill:#00082d" d="M595.729 252.936c-1.137-.881-2.146-1.387-3.028-1.513-.252-.125-.567-.19-.946-.19-.6 0-1.105.064-1.514.19-.473.378-.789.74-.946 1.087v.236c0 .128-.063.19-.188.19v.378c.125.506.313.884.567 1.135.125 0 .253.032.377.094a.82.82 0 0 0 .379.096c.126 0 .19.094.19.284 0 .188.063.283.189.283l.379.19h.329c.126.125.396.188.806.188.126 0 .37-.029.733-.094.361-.063.685-.094.969-.094 1.042 0 1.799.125 2.27.378-.6-.882-1.672-1.387-3.216-1.513-.787 0-1.231-.063-1.324-.19v-.188c0-.378.063-.568.19-.568.124-.125.378-.19.756-.19.757 0 1.702.316 2.837.947.757.252 1.577.694 2.462 1.325-.475-.854-1.23-1.673-2.271-2.461zm.945 8.514c-.503-.378-1.197-.567-2.081-.567-.504 0-.945.063-1.322.188-.129 0-.381.127-.76.378-.377.127-.708.252-.993.377l-.048.096-.093.094-.095.094c-.064.063-.158.094-.284.094-.126 0-.253.19-.378.568v.946l.189.378c0 .125.063.188.188.188 0 .126.063.19.19.19h.188l.378.142a.633.633 0 0 0 .379-.142c.125 0 .283-.032.473-.094.189-.064.378-.19.567-.378.189-.19.332-.285.426-.285l1.182-.568 1.136-.568h-.757c-.127 0-.567.063-1.324.19-.222.126-.473.19-.757.19-.127 0-.189-.064-.189-.19l.381-.378c.125 0 .282-.032.471-.094l.284-.096c1.008-.5 1.892-.753 2.649-.753zm1.326-3.784c-.127-1.261-1.265-1.892-3.407-1.892-.757 0-1.389.127-1.892.379 0 .126-.127.189-.378.189l-.189.189c-.128.094-.253.283-.379.567a12.02 12.02 0 0 0-.237.757v.188c.126.254.268.427.428.521.25.127.756.207 1.513.238.346 0 .78-.041 1.301-.12.521-.078.906-.119 1.158-.119h.757l-.093-.14-.095-.19c-.379-.378-.884-.631-1.516-.756h-1.134c.379-.253 1.01-.378 1.894-.378 1.039 0 1.794.188 2.269.567zm11.35 5.487c-1.04-.472-2.176-.725-3.403-.756h-.757c-.633 0-1.325.125-2.082.378-.252 0-.6.063-1.039.19-.444.126-.728.22-.854.283-.125.063-.379.096-.756.096-.253 0-.443-.064-.569-.19l-.472-.188c-.315-.127-.6-.19-.852-.19-.758 0-1.136.253-1.136.757 0 .126.048.253.143.378.252.378.52.568.805.568 0 .095.124.188.378.285l.378.094h1.325c.504 0 1.009-.065 1.513-.19.506-.126 1.01-.282 1.515-.473.504-.188.945-.284 1.323-.284a29.746 29.746 0 0 1 2.272-.567l.661-.096a7.02 7.02 0 0 1 1.042-.094h.565zm-1.701-3.406c-1.64-.251-3.029-.378-4.163-.378-2.65 0-4.62.442-5.913 1.325 3.814-.095 6.165-.22 7.047-.378 1.767-.379 2.776-.569 3.029-.569zm-1.703 1.325c-.127 0-.6-.031-1.419-.095a26.906 26.906 0 0 0-1.798-.094h-.947a8.01 8.01 0 0 0-3.783 1.323v.19-.19h1.133c3.122-.125 5.203-.378 6.243-.756.127 0 .285-.063.474-.188s.346-.19.475-.19h.188-.188zm-1.326-2.648a3.92 3.92 0 0 1-.661-.096 3.963 3.963 0 0 0-.663-.094 3.96 3.96 0 0 0-.661.094 3.948 3.948 0 0 1-.663.096c-1.513 0-2.774.44-3.783 1.323 1.009-.126 2.554-.283 4.636-.473 2.082-.19 3.626-.346 4.636-.472-.633-.253-1.579-.378-2.841-.378zm-2.648-1.893c.126-.252.189-.567.189-.947 0-.504-.063-1.071-.189-1.702h.758c-.127.378-.19.819-.19 1.323v.568c0 .379.063.631.19.757h-.758zm5.299-19.11c0-.253-.098-.506-.285-.759-.189-.25-.283-.44-.283-.567l-.189-.474-.188-.473c-.254-.125-.569-.188-.948-.188-.124 0-.378.063-.757.188l-.188.19v.188c-.599 1.01-1.041 1.831-1.324 2.459v3.785c0 .378-.064.568-.189.568a.488.488 0 0 1-.094.282l-.095.096c.505 0 .804-.125.899-.378.379-.253.582-.821.613-1.703v-1.325c0-.378.126-.757.378-1.135l.569-.191.095-.093.093-.094c-.124 1.135-.314 1.891-.567 2.27-.253.127-.378.236-.378.332v.236h.378c.38 0 .632-.079.759-.236.094 0 .18-.055.259-.167.079-.109.183-.228.307-.354.505-.378.819-.631.948-.758.123-.376.187-.942.187-1.699zm-3.785 19.11c.095-.252.143-.695.143-1.326a8.7 8.7 0 0 0-.143-1.513c.347-.126.599-.188.756-.188v2.461c.126.378.252.567.378.567h-1.134zm2.224-.378c0 .252.141.442.424.568-.252 0-.44-.063-.565-.189h-.379v-.189c.126 0 .188-.063.188-.189v-.947c0-.378-.062-.757-.188-1.135a.858.858 0 0 0-.096-.378.84.84 0 0 1-.095-.378h.948c0 .252-.04.663-.119 1.229-.079.568-.117.978-.117 1.231v.377zm5.533-16.651c-.127-.252-.251-.442-.378-.568-.127-.126-.379-.19-.756-.19-.601 0-1.294.316-2.081.947-.885.884-1.325 1.956-1.325 3.216.504-.882 1.325-1.766 2.459-2.648-.126.094-.221.245-.283.449-.063.204-.094.37-.094.496l-.379.38-.378.378v.378c0 .219.061.347.188.378l.945-.378c.347-.253.852-.694 1.514-1.325 0-.126.03-.22.095-.285l.284-.33c.125-.22.189-.519.189-.898zm7.19 12.866c-.125-.788-.33-1.292-.614-1.513a4.035 4.035 0 0 0-1.468-.378h-.188c-1.01 0-2.019.188-3.028.568-.502.125-1.262.566-2.27 1.323-1.767 1.01-2.965 2.209-3.594 3.597 1.607-1.516 3.372-2.665 5.298-3.455.787-.347 1.544-.521 2.271-.521.6 0 .896.065.896.189 0 .126-.173.237-.52.331-.914.505-2.112 1.026-3.596 1.561-.786.252-1.356.378-1.702.378 1.514.094 2.774.159 3.785.19h1.419c.316 0 .521-.062.613-.19.378 0 .774-.125 1.184-.378.757-.378 1.262-.946 1.514-1.702zm-2.27 5.109v-.568a2.233 2.233 0 0 0-.568-.377c-.378-.378-.788-.567-1.229-.567-.44 0-.852.188-1.23.567l-.188.189c-.127 0-.284.063-.476.188-.187.127-.377.253-.564.378a2.997 2.997 0 0 0-.475.379l-.189.19-.188.188c-.126 0-.189-.063-.189-.188-.379-.253-.946-.378-1.703-.378-.505 0-.945.063-1.324.188.914.378 1.419.632 1.512.758l.191.14h-.191l.333.426c.378.505.771.884 1.183 1.135.505.349 1.198.537 2.082.568.379 0 .628-.063.757-.188.221 0 .599-.128 1.136-.38.502-.378.881-.693 1.134-.945.125-.378.189-.819.189-1.325v-.378zm-.946 4.919a2.2 2.2 0 0 0-.566-.378c-.38-.253-.854-.41-1.418-.474a64.278 64.278 0 0 0-2.082-.188c-.822-.062-1.356-.094-1.609-.094.882.253 1.829.566 2.837.944.127 0 .315.064.569.19l.379.188c.124 0 .22.032.282.096.063.063.109.094.142.094h.142c0 .253-.124.378-.378.378-.125 0-.441-.125-.944-.378a8.605 8.605 0 0 0-.948-.19.453.453 0 0 0-.188.38l.188.188c.221.126.599.378 1.136.757.632.378 1.197.568 1.703.568h.19c.503 0 .818-.253.944-.757l.142-.378c-.002-.283-.175-.599-.521-.946zm1.325-21.57c-.128-.473-.316-.788-.568-.945-.472-.253-.851-.378-1.134-.378-.38 0-.822.125-1.326.378a6.233 6.233 0 0 1-.944.757c-1.137 1.041-1.831 2.238-2.083 3.594.252-.503.678-1.072 1.277-1.703.914-1.009 1.687-1.513 2.319-1.513.252 0 .441.062.567.188 0 .127-.097.252-.285.38l-.282.188a.853.853 0 0 1-.095.378.627.627 0 0 1-.284.285 1.423 1.423 0 0 0-.378.284l-.191.188c-.124.127-.188.252-.188.378 0 .378.188.568.566.568.125 0 .254-.063.378-.189.788-.251 1.404-.504 1.845-.757.506-.472.774-1.103.806-1.891zm-2.459 17.217c-.129.349-.569.521-1.326.521a3.16 3.16 0 0 1-.993-.14c.411-.126 1.183-.253 2.319-.381zm-15.041-13.698c.125-.125.188-.252.188-.378l.188-.095c.127-.063.191-.158.191-.284l.094-.284c.062-.19.094-.347.094-.472s.063-.222.189-.284c.128-.063.188-.158.188-.284 0-.126.018-.284.048-.473l.143-.284v-.757a46.906 46.906 0 0 0-.449-1.137c-.207-.504-.371-.757-.498-.757-.124-.378-.188-1.007-.188-1.892 0-.094.064-.852.188-2.271.127-1.639.379-2.773.757-3.405v-.188h.19c.127 0 .251.064.378.189.124 1.135.188 2.082.188 2.838 0 .599-.064 1.166-.188 1.703l-.189.378v.566c-.126.222-.252.349-.379.378l-.188-.188-.189-.19v-.188c-.379.126-.567.442-.567.947v.378c0 .125.064.188.188.188.127.253.379.378.757.378.476 0 .788-.251.946-.756l.19-.947c.126-.125.308-.378.544-.756.235-.378.433-.771.591-1.183v-1.277c0-1.388-.253-2.523-.757-3.406-.252-.378-.63-.567-1.136-.567-1.26.252-2.207 1.199-2.838 2.837-.253.6-.441 1.61-.567 3.028 0 .253-.064.378-.188.378l-.189-.19h-.38c-.346 0-.787.19-1.322.568a6.557 6.557 0 0 0-1.137 1.892c-.254.756-.379 1.768-.379 3.028.125.503.315 1.072.567 1.703.095 0 .214.125.355.378.144.253.277.441.401.567.127.127.254.19.379.19 0 .125.062.188.19.188h.188c.127.127.222.252.284.379.063.126.143.188.237.188.252.222.582.347.993.378h.379l-.189-.236-.189-.142a1.176 1.176 0 0 1-.283-.473 1.222 1.222 0 0 0-.283-.474c0-.126-.072-.251-.214-.378-.142-.125-.213-.251-.213-.378-.095-.22-.206-.663-.33-1.325-.255-.756-.379-1.198-.379-1.323v-.19c0-.251.063-.631.188-1.135.254-.472.504-.726.757-.756.127 0 .191.063.191.188v.191c.124 0 .188.062.188.188l-.188.757-.332.284c-.064.065-.095.159-.095.284v.378c0 .221.141.412.427.568.124 0 .313-.079.566-.236.126-.096.252-.458.379-1.088.125.252.313.537.566.85.253.318.378.6.378.853.126.252.253.693.381 1.325v1.323m.571 8.841c-.253 1.388-.436 2.668-.436 2.794 0 .253.031.505.094.757s.221.377.474.377h.331c.252 0 .395-.188.426-.566v-1.467c0-.631-.064-1.024-.19-1.183.507.127.946.19 1.325.19-.252.473-.379 1.041-.379 1.702 0 .505.063.821.191.947a6.972 6.972 0 0 0-2.082.946c0 .125-.064.222-.189.284a1.445 1.445 0 0 0-.378.282l-.569.38c.632-.38 1.45-.6 2.462-.663a178.45 178.45 0 0 1 4.066-.19c1.703-.063 2.745-.094 3.123-.094l.093-.094c.064-.062.158-.096.285-.096h-.188a4.873 4.873 0 0 0-1.136-.566c.252 0 .377-.378.377-1.137v-.378c-.084-1.999-.609-2.288-.609-2.599l-1.246-.155-3.011 1.039z" transform="translate(-2364.464 -882.478) scale(4.03315)"/><path style="fill:#a00283" d="M606.515 253.036c1.386-.125 2.081-.691 2.081-1.701v-.568h2.837c.252 0 .567-.125.947-.378.503-.253.757-.441.757-.568l-.19-.188c-.124-.253-.315-.378-.566-.378h-.19c-.222 0-.6.125-1.135.378-.379.125-1.136.252-2.271.378h-.756a.525.525 0 0 1-.285-.094l-.093-.096h-.569c-1.009 0-1.766.127-2.271.378-.252-.25-.504-.378-.756-.378h-.235c-.096.252-.143.442-.143.568v.188c0 .127.047.253.143.38.124.125.456.188.991.188.127 0 .189-.063.189-.188v-.568c.38 0 .759.063 1.137.188.786.253 1.166.443 1.136.568l-.285.284-.283.284c-.38.125-1.042.276-1.986.45-.946.173-1.609.401-1.988.685l-.189.095a.698.698 0 0 1-.281.094c-.065 0-.349-.063-.854-.188-.125 0-.315-.094-.567-.284-.251-.188-.441-.284-.567-.284-.473-.378-1.103-.692-1.892-.945-.253 0-.457-.063-.615-.19l.235-.188c.253-.348.505-.6.758-.759h.945c.223 0 .529-.03.923-.094.394-.063.719-.094.97-.094.474 0 .852.063 1.135.188l-.378.19c-.127.094-.189.346-.189.756v.19l.189.188h.377c.128 0 .316-.188.568-.566v-.568c0-.126-.189-.253-.568-.378-.126 0-.378-.063-.756-.19-1.008-.25-1.894-.378-2.649-.378h-.567c-1.136.128-1.893.506-2.271 1.135-.252.505-.378.884-.378 1.137v.188c0 .253.063.426.19.521.125 0 .221.041.281.119.063.079.16.117.285.117 1.011.378 1.873.492 2.46.758 3.217 1.461 4.999.132 4.999.258z" transform="translate(-2364.464 -882.478) scale(4.03315)"/></svg>