<svg xmlns="http://www.w3.org/2000/svg" width="139.764" height="200" xml:space="preserve"><path style="fill:#a00283" d="M484.11 244.617v-.089c0-.059.073-.089.222-.089l.178-.713.355-.356c.477-.445 1.129-.683 1.959-.712.119 0 .416.061.892.179.207.088.386.147.535.177a7.04 7.04 0 0 1 1.557 1.781c.236.327.37.622.401.889v.179c.118-.118.236-.179.356-.179.236-.118.414-.177.533-.177.355 0 .652.119.891.356.237.118.415.297.534.533v.891l-.09.268-.089.267-.176.178c-.12 0-.179.061-.179.179h.534c.236.118.356.297.356.533v.358c0 .238-.061.415-.179.533-.118.12-.356.179-.712.179-.119 0-.193-.059-.222-.179v-.534c0-.118-.046-.179-.135-.179h-.711c-.355 0-.594-.118-.712-.356l-.179-.355c0-.118.118-.415.355-.891l.18-.177c.117 0 .236-.059.355-.179h.356v-.222h.177v-.133c0-.238-.177-.356-.533-.356-.238 0-.416.06-.535.178h-.177v.534c0 .12-.031.209-.09.268-.059.06-.089.15-.089.268-.118.118-.238.178-.355.178-.12 0-.238-.06-.357-.178v-.89l-.087-.179a1.475 1.475 0 0 0-.269-.356c-.476-.742-.831-1.216-1.068-1.424-.237-.238-.416-.356-.534-.356-.476-.118-.773-.179-.891-.179-.327 0-.741.12-1.246.357l-.357.356h-.176v.356h-.18v.532c.118.12.18.238.18.356v.356c-.121.119-.313.224-.579.312 0 .118-.045.193-.134.222-.119 0-.179-.072-.179-.222v-.133l.179-.179c0-.593-.652-.89-1.959-.89h-.179c-.594 0-1.083.177-1.469.534-.089 0-.311.178-.668.535v.133a.551.551 0 0 0-.178.401c0 .238.059.356.178.356.119.475.475.83 1.068 1.068.119 0 .356.016.713.045l.534.132h.357v-.355c.118-.119.177-.237.177-.356.356-.474.773-.771 1.247-.889.83-.446 1.484-.682 1.958-.713.713 0 1.248.238 1.604.713.118.118.179.238.179.356 0 .356-.179.533-.534.533-.238 0-.418-.118-.535-.355-.118-.119-.415-.178-.89-.178h-.356c-.238 0-.713.118-1.425.356l-1.068.534-.179.355.179.179c.475 0 .892.179 1.247.535.089 0 .17.03.244.088.075.06.111.149.111.268h1.29c.297 0 .519.059.668.178.356.119.771.417 1.247.89-.357-.118-.891-.238-1.603-.356h-.891l.178.178.178.178v.536h.535c.444.118.859.46 1.245 1.023-.356-.207-.653-.311-.89-.311h-.888v.177l-.178.356h-.178c-.238 0-.355-.073-.355-.222v-.49c0-.475-.194-.95-.579-1.424-.564-.861-1.5-1.335-2.805-1.424h-1.96c-.238 0-.55.118-.936.356-.089 0-.193.059-.311.177-.12.12-.238.179-.356.179l-.179.178-.356.534a1.417 1.417 0 0 0-.177.712c0 .832.533 1.424 1.602 1.779.357.12.713.179 1.068.179h.358c.117 0 .325-.029.623-.089.296-.059.563-.09.801-.09.117 0 .326-.028.623-.088s.504-.089.623-.089h.891c.117 0 .711.059 1.779.177.563.12.921.238 1.068.358.594.118 1.069.297 1.425.533.089.12.199.268.333.445.134.179.26.357.38.535.117.179.295.386.533.624a8.757 8.757 0 0 0-.624-.535 10.626 10.626 0 0 0-.712-.533c-.177-.118-.444-.238-.8-.356h-1.068c-.238-.118-.713-.179-1.426-.179-.326.12-1.038.297-2.136.535a6.708 6.708 0 0 1-2.139.355c-2.284 0-3.708-.534-4.272-1.603-.356-.356-.533-.83-.533-1.424s.117-1.009.355-1.247h.178v-.356c.445-.474.861-.83 1.246-1.068a6.305 6.305 0 0 1 1.603-.535h.18v-.178l-.18-.177a2.488 2.488 0 0 1-.4-1.248c0-.206.075-.444.223-.712l.178-.535c.238-.118.535-.295.891-.533.563-.327 1.276-.505 2.137-.535.238 0 .594.06 1.068.178.237 0 .476.059.714.177h.177l.179.179c.089-.03.134-.209.134-.535zm-2.448 6.589c0-.238.059-.356.177-.356 1.188.979 1.841 1.499 1.959 1.558h-.356c-.594 0-1.067-.164-1.424-.49-.237-.118-.355-.295-.355-.533v-.179zm6.766-1.425.179-.356c0-.118-.061-.179-.179-.179l-.177.179h-.18c-.089 0-.208-.059-.355-.179-.119-.118-.178-.236-.178-.355 0-.207.059-.386.178-.535.118 0 .178.031.178.09s.029.118.089.177c.06.061.148.088.269.088h.712c.236 0 .475.12.713.358h.133v.356c0 .118-.044.356-.133.712l-.18.534c-.117.237-.237.357-.355.357-.356 0-.594-.12-.712-.357-.118-.089-.177-.266-.177-.534-.002-.118.057-.238.175-.356zm4.095.712h.178c1.068.208 1.781.564 2.137 1.068 0 .12.061.268.178.445l.18.267c.117.09.176.209.176.356 0 .238-.117.355-.355.355a1.51 1.51 0 0 0-.444.09l-.267.089h-.18l-.889.179c-.356.238-.653.356-.892.356a8.335 8.335 0 0 1-.891.533c-.594.328-1.186.505-1.779.534-.238 0-.594-.059-1.068-.179.83-.118 1.365-.236 1.603-.355.118-.118.266-.236.445-.356.176-.118.325-.236.444-.356.237-.118.711-.297 1.425-.535.119-.118.416-.236.89-.355a.662.662 0 0 0 .356-.111.665.665 0 0 1 .355-.111h.18v-.134c-.119 0-.18-.059-.18-.177-.118-.118-.237-.179-.355-.179a5.546 5.546 0 0 0-1.425-.178c-.563 0-1.097.118-1.602.356l-.534.177-.09.045-.2.2a.335.335 0 0 1-.244.111h-.535c-.119 0-.356.061-.712.179h-.177v.177h-.18v.179h-.178c.208-.474.385-.771.534-.891l.355-.355.712-.533.535-.356c.741-.326 1.32-.505 1.737-.535z" transform="translate(-1886.463 -881.47) scale(4.03315)"/><path style="fill:#870000" d="M492.523 221.821h.356l.177.179v.177c-.237.238-.414.653-.533 1.247l1.424-.534c.979 0 1.454.177 1.424.534 0 .12-.711.355-2.135.712-.861.356-1.277.594-1.247.712l-.356.713h.135l1.824-.534.713-.179c.355.12.533.238.533.357-.355.356-1.068.712-2.137 1.068v.177l.712.535 2.093-.535-.311-.712v-.178h.176l1.959.89c0 .238-1.067.593-3.205 1.069a8.418 8.418 0 0 0 4.273 2.315c.476.238.714.474.714.712v.177c-.119.356-.355.535-.714.535-1.068 0-2.256-.535-3.561-1.603v3.562c-.119.444-.297.741-.533.891h-.357c-.119 0-.237-.179-.355-.535h-.179a6.04 6.04 0 0 0-2.492.535c-.238-.12-.355-.238-.355-.358.475-.325 1.186-.622 2.136-.89h1.068v-1.292c0-1.631-.06-2.449-.178-2.449h-.179c-1.187 0-2.136.655-2.848 1.959l1.603-.533c.355 0 .651.118.889.356l-1.289 1.603h-.135l.356-1.07h-1.424v.134c0 1.217-.18 1.825-.535 1.825h-.223c-.088 0-.133-.118-.133-.355l.534-3.56h.177c.119 0 .18.177.18.533.83-.83 1.779-1.365 2.848-1.603l.356.179-.713-.712c-1.93.474-2.879.89-2.848 1.245a5.675 5.675 0 0 1-2.493 2.449l-1.247.58c1.544-1.632 2.552-2.761 3.026-3.384-.979.355-1.572.535-1.779.535l-.178-.179c0-.236.651-.712 1.957-1.424l.891-.891h-.177l-.892.356c-.236 0-.475-.177-.711-.534 1.662-.238 2.492-.712 2.492-1.424v-.178h-.89l-.892-.179v-.177c0-.118.535-.238 1.604-.356.475 0 .758-.593.847-1.781h-.49c.001-.265.416-.503 1.247-.712zm-3.561 6.411h.178c.563-.118.86-.356.891-.712-.594.356-.95.594-1.069.712zm1.959-.534c1.306-.356 1.959-.594 1.959-.712l-.535-.535c-.949.238-1.424.653-1.424 1.247z" transform="translate(-1886.463 -881.47) scale(4.03315)"/><path style="fill:#00082d" d="M472.713 243.192h-.311c-.119.119-.297.178-.535.178-.831 0-1.305-.178-1.424-.533-.119-.118-.179-.238-.179-.356v-.534c.237-.355.83-.535 1.782-.535.117 0 .207.031.266.09.059.059.117.177.179.356l.089.268.711.355.091.089.089.088v.179h-.357l-.179.177zm-.666 3.205v-.712c-.12-.236-.18-.415-.18-.533 0-.447.238-.862.713-1.247.443-.713 1.335-1.128 2.67-1.248h.18c1.779 0 3.265.417 4.45 1.248h.18c-.862-.238-1.812-.356-2.851-.356h-1.959c-.117 0-.355.177-.712.533-.741.476-1.097 1.01-1.067 1.603v.535h-.18v.357a.451.451 0 0 0-.268.067c-.059.045-.162.066-.311.066l-.311.222c-.118-.03-.237-.207-.354-.535zm11.751 13.711.179.179c0 .118-.061.297-.179.533-.118.238-.237.356-.356.356h-.178l-.178-.176-.179-.179v-.177c0-.118-.06-.238-.178-.355a2.083 2.083 0 0 0-.534-.356c-.356-.12-.83-.178-1.425-.178-.238 0-.416.059-.535.178-.117 0-.297.059-.533.177-.119 0-.178.061-.178.179v.177a3.19 3.19 0 0 1-.891.891.803.803 0 0 0-.356.088.794.794 0 0 1-.356.089l-.177.179c-.238 0-.416-.061-.535-.179l-.355-.356-.535-.534c-.118-.118-.355-.297-.712-.535a6.596 6.596 0 0 0-.935-.535 5.93 5.93 0 0 0-2.805-1.068h.357c.117 0 .229-.03.333-.089a.75.75 0 0 1 .378-.089h.355c.119 0 .357.03.713.089.357.059.652.089.891.089h.89c.83 0 1.543.061 2.136.179h.18l.177.177.356.179h.535c.117 0 .236.118.355.356.117 0 .178-.059.178-.179h.178a3.126 3.126 0 0 1 1.069-.177h.356c.118 0 .295.03.533.088l.356.089c.09 0 .2.031.334.09.134.06.26.089.378.089.12 0 .237.059.356.177.24.149.419.328.537.534zm-8.548-18.341c-.444-.118-.741-.295-.889-.533-.357-.208-.535-.505-.535-.891v-.177c0-.118.03-.208.089-.268l.089-.09c0-.118.029-.266.09-.444.06-.178.118-.296.178-.356.059-.059.192-.089.4-.089h.401c.741 0 1.157.297 1.245.89l-.088.268c-.06.178-.09.328-.09.446s.03.23.09.333a.761.761 0 0 1 .088.379v.533l.09.179.09.179h-.18c-.237-.001-.593-.121-1.068-.359zm.535 19.588c-.238 0-.535.059-.891.177l-.311.09c-.15.06-.283.089-.401.089-.237 0-.356-.179-.356-.535l.178-.356v-.355h.534c.563 0 .979.12 1.247.355h.178l.178.535h-.267zm.178-14.067c-.742-.118-1.218-.474-1.425-1.068v-1.158c0-.059.046-.147.134-.266a.602.602 0 0 1 .578-.356h.18c.117 0 .236.059.355.178.118.12.178.355.178.712v.534c0 .355.059.771.178 1.247l.178.177zm.535 14.423h.178l.178.177c-.119 0-.178.059-.178.179-.09.118-.148.296-.178.534-.119 0-.18.059-.18.178v.712c0 .118-.118.222-.355.313h-.356v.222l-.177-.222h-.18c-.237 0-.43-.045-.578-.134l-.134-.178v-.356c0-.741.238-1.156.712-1.247.356-.118.594-.177.713-.177h.535zm-.357-30.182v-.089c0-.741.06-1.098.178-1.068 0-.118.061-.178.18-.178.206-.119.348-.177.422-.177.073 0 .289.118.646.355.118 0 .238.119.355.356l.091.268.089.267c0 .118-.062.266-.18.445-.117.177-.177.326-.177.444 0 .356.177.773.533 1.247h-.533c-.356 0-.653-.177-.891-.535-.326-.474-.564-.83-.713-1.068zm7.836 27.156c0-.238-.179-.474-.535-.712-.476-.476-.949-.832-1.424-1.07l-.355-.177h-.179c0 .118.029.177.089.177.059 0 .09.061.09.179l-.179.178v.356h.179c0 .12-.12.283-.356.49-.119.12-.356.194-.713.224-.327 0-.622-.118-.891-.355 0-.358.061-.594.178-.713h.49l.579-.533v-.179h-.579a64.202 64.202 0 0 0-3.161-.533h-.534.178c-.119-.119-.297-.179-.535-.179h3.383c1.188 0 2.078.12 2.672.356.118 0 .236.061.355.179l.892.177c.324 0 .563.12.711.356l.178.179c.118.118.18.46.18 1.023 0 .238-.194.551-.579.936h-.134zm-6.056-14.246v.311c0 .118.06.193.18.222 0 .12.028.208.088.268.06.06.089.149.089.267h-.177c-.12.238-.297.356-.535.356-.237 0-.415-.118-.533-.356-.12 0-.179-.149-.179-.446 0-.295.059-.504.179-.622l.089-.09c.059-.06.146-.089.267-.089l.178-.179c.117.001.237.121.354.358zm0-3.917c.118 0 .283.059.49.177l.223.179v.133l-.133.222a.783.783 0 0 0-.09.356l.223.177v.179c0 .118-.073.179-.223.179l-.49-.179c-.355-.118-.533-.237-.533-.355v-.891h-.179c.119-.118.356-.177.712-.177zm1.248-3.562v-.535c-.238-1.186-.357-2.195-.357-3.027 0-.979.119-1.75.357-2.315v-.711h.178v-.355l.178-.179.178-.712c.563-2.047 1.632-3.294 3.205-3.739-.83.326-1.542 1.217-2.137 2.67l-.535 1.247c0 .207-.059.445-.176.712l-.357.712v1.78c0 1.307.178 2.849.533 4.629l.135.179v.177a.796.796 0 0 0 .223-.356c.237-.236.416-.355.534-.355h.891c.712 0 1.187.12 1.424.355.238 0 .461.238.669.714.118.355.193.712.222 1.067 0 .712-.178 1.306-.534 1.78a5.996 5.996 0 0 1-1.247.535h-.355c0 .118-.06.177-.178.177-.237 0-.355.061-.355.179l.177.177v.358c0 .474-.177.771-.533.889l-.356.178c-.119 0-.267-.059-.445-.178-.178-.118-.269-.237-.269-.356v-.177c0-.118.061-.238.18-.355.117-.12.178-.238.178-.358 0-.118-.074-.415-.223-.889l-.311-.891a5.688 5.688 0 0 1-.357-.979c-.119-.415-.178-.741-.178-.979a32.324 32.324 0 0 0-.359-1.069zm1.78-2.85-.579.356v.356l-.135-.177c-.117-.118-.176-.297-.176-.535 0-.355.059-.651.176-.889.091-.476.209-.713.357-.713l.178-.356h1.07c.118 0 .179.061.179.179.118.118.236.238.356.356v.535c0 .118-.061.297-.179.533h-.533l-.09.088c-.06.061-.148.09-.267.09-.119.001-.239.06-.357.177zm.178 4.274c-.237.238-.356.417-.356.535v.356c.119.118.179.208.179.267 0 .059.029.148.089.266l.089.179c0 .238.06.356.179.356.118 0 .295-.059.533-.177.446-.118.741-.594.891-1.426 0-.236-.061-.474-.179-.712h-.712c-.239 0-.475.12-.713.356zm8.548 19.72c-.238.12-.654.254-1.247.401-1.068.356-1.9.772-2.492 1.247l-.356.178v.357c-.12.237-.356.355-.714.355h-.176l-.18.177c-.117 0-.252-.059-.399-.177v-.355l.222-.714.178-.177v-.356h.356c.119-.118.357-.179.714-.179l.177-.177.18-.179.134-.178c.739-.208 1.29-.385 1.646-.535.118-.118.207-.179.267-.179h.089a4.689 4.689 0 0 1 1.736-.355h.223a.762.762 0 0 0 .355-.089l.18-.089c1.779 0 3.145.297 4.095.891.83.207 1.365.683 1.603 1.424h.179v.356l.089.088c.059.061.089.105.089.134V261c0-.118-.06-.179-.178-.179v-.355c-.239-.445-.596-.86-1.07-1.247l-.355-.177c-.117-.118-.237-.179-.355-.179v-.177l-1.068-.356h-.179c-.474-.118-1.068-.192-1.78-.224h-1.963zm-3.919-1.201c.208-.356.313-.771.313-1.245v-.713c.117 0 .252-.028.399-.089l.179-.089h.533v.178l.179.179v.712c0 .327-.119.646-.355.958a5.26 5.26 0 0 0-.535.822h-.178c-.119 0-.253.031-.401.09l-.134.088h-.177l-.179.089a.77.77 0 0 1-.355.09c0-.118.029-.208.089-.268.059-.059.178-.149.355-.267.179-.118.267-.238.267-.356zm12.642 6.767v.356c0 .118-.059.177-.177.177-.12 0-.238-.059-.356-.177h-3.74a7.772 7.772 0 0 1-1.78-.222 23.596 23.596 0 0 1-1.246-.49c-.475-.356-.83-.95-1.068-1.782v-.712c0-.236-.037-.444-.111-.623a1.212 1.212 0 0 1-.111-.444c-.208-.238-.609-.356-1.201-.356-.355-.118-.891-.179-1.603-.179.712-.236 1.306-.356 1.779-.356.356 0 .653.061.892.179.444.238.741.594.891 1.068.117.12.178.238.178.356.117.12.178.297.178.535v.712c0 .118.059.177.178.177 0 .208.117.446.355.713.564.475 1.87.771 3.917.89h.891c.95 0 1.662-.118 2.136-.356v.534zm-5.162-8.191h.889c1.307 0 2.256.179 2.85.535.238.326.355.623.355.889 0 .12-.028.328-.088.623l-.089.447-.355.355c-.12 0-.179-.074-.179-.224l.089-.132.09-.179v-.179h-.179c-.119 0-.297.061-.535.179 0 .12-.059.179-.178.179h-.178l-.357.132c-.117 0-.176-.043-.176-.132v-.179c-.121 0-.18-.029-.18-.088s.059-.208.18-.446c.117-.118.295-.178.533-.178h1.069v-.179l-.179-.177v-.179h-.178c-.119-.118-.596-.295-1.426-.533h-1.246c-.95 0-1.662.059-2.137.177-.741.208-1.351.446-1.825.712h-.313v.179a7.472 7.472 0 0 1 2.272-1.247h.133c.059 0 .147-.059.268-.177h.355c.359-.119.595-.178.715-.178zm-.891 4.986.179-.177v-1.247h-.179.179c.356.118.651.356.89.712l.179.178c.089.207.147.386.178.534v1.068l-.267.356-.09.179-.089.178a.678.678 0 0 0-.088.266v.09c-.238.236-.477.356-.713.356h-.179c-.355 0-.594-.06-.712-.178l-.179-.534c0-.208.059-.446.179-.713l.135-.177v-.088c0-.061.096-.179.289-.358.191-.178.288-.326.288-.445zm1.514-4.095h.266c.357 0 .535.06.535.177 0 .12-.119.179-.355.179l-.18.177h-.356l-.223.09-.134.088c-.118 0-.177-.059-.177-.179 0-.118.059-.177.177-.177l.356-.356h.091zm.623 5.698c0-.089.028-.201.089-.334a.942.942 0 0 0 .089-.378v-.179c0-.592-.059-.889-.178-.889.236 0 .533.118.889.355l.091.089.044.088c.237.475.371.891.4 1.248v.534c-.326.356-.622.533-.891.533-.355 0-.594-.237-.711-.712.001-.118.059-.237.178-.355zm2.316-.891h.177c.238 0 .444.09.624.267.179.179.267.327.267.445v.535c0 .356-.237.594-.712.712l-.09-.088-.089-.089c-.355-.12-.533-.356-.533-.712 0-.12.059-.178.178-.178v-.356l.179-.179v-.357z" transform="translate(-1886.463 -881.47) scale(4.03315)"/><path d="M139.757 14.455V185.54c0 4.013-1.412 7.43-4.215 10.24-2.81 2.807-6.231 4.219-10.244 4.219H14.455c-4.017 0-7.43-1.412-10.24-4.219C1.404 192.971 0 189.554 0 185.541V14.455c0-4.01 1.404-7.43 4.215-10.24C7.025 1.408 10.438 0 14.455 0h110.843c4.013 0 7.433 1.408 10.244 4.215 2.803 2.81 4.215 6.23 4.215 10.24zm-14.459-7.228H14.455c-2.09 0-3.816.686-5.179 2.05-1.367 1.366-2.049 3.093-2.049 5.178V185.54c0 2.09.682 3.811 2.05 5.183 1.362 1.363 3.093 2.049 5.178 2.049h110.843c2.09 0 3.815-.686 5.179-2.05 1.363-1.37 2.048-3.097 2.048-5.182V14.455c0-2.09-.685-3.812-2.048-5.179-1.364-1.363-3.094-2.049-5.179-2.049z"/></svg>