<svg xmlns="http://www.w3.org/2000/svg" width="139.764" height="200" xml:space="preserve"><path d="M0 14.455c0-4.01 1.408-7.43 4.219-10.24C7.026 1.408 10.442 0 14.459 0h110.843c4.013 0 7.433 1.408 10.244 4.215 2.803 2.81 4.215 6.23 4.215 10.24V185.54c0 4.013-1.412 7.43-4.215 10.24-2.81 2.807-6.231 4.219-10.244 4.219H14.459c-4.017 0-7.433-1.412-10.24-4.219C1.408 192.971 0 189.554 0 185.541m7.227 0c0 2.09.682 3.811 2.05 5.183 1.362 1.363 3.089 2.049 5.178 2.049h110.843c2.09 0 3.815-.686 5.179-2.05 1.363-1.37 2.048-3.097 2.048-5.182V14.455c0-2.09-.685-3.812-2.048-5.179-1.364-1.363-3.094-2.049-5.179-2.049H14.455c-2.093 0-3.816.686-5.179 2.05-1.367 1.366-2.049 3.093-2.049 5.178"/><path style="fill:#bc00a1" d="M525.489 241.01v.352c.471-.587.764-.939.881-1.058a12.212 12.212 0 0 0-.527 3.522c0 .852.059 1.497.176 1.937.116.118.177.235.177.352.233.235.352.412.352.529 0 .117-.177.175-.528.175-.117 0-.294-.059-.529-.175 0-.117-.059-.294-.175-.529-.323-.557-.5-1.202-.529-1.937 0-.352.059-.644.177-.879v-.352l-.528-.529c-.353-.352-.998-.704-1.938-1.056l.177.352v.352c.205.733.498 1.379.881 1.937l.088.087.088.088v.352l.177.177.175.177c.235.323.529.675.881 1.056l.088.175c.059.118.146.235.265.352v.177c0 .117-.061.175-.177.175h-.176l-.177.177c-.117.087-.294.132-.527.132l-.704-.132c-1.058-.117-1.82-.294-2.29-.529-.205-.234-.557-.645-1.057-1.231-.587-.733-1.291-1.085-2.112-1.058h.881c.322-.469 1.013-.704 2.069-.704h.925l.176.177c-.235-.323-.353-.733-.353-1.233 0-.352.117-.763.353-1.233l-.176-.175h-.177c-.116 0-.294-.059-.528-.177-.235-.117-.411-.175-.527-.175h.527c1.526 0 2.977.432 3.797 1.136m-.984 4.498c-.733-1.408-2.084-2.114-4.049-2.114h-.353c.733.118 1.261.47 1.584 1.058.234.205.412.381.528.527.235.118.616.206 1.146.264.528.061.909.148 1.144.265zm9.333.353.175.175v.309c-.235 0-.587-.103-1.056-.309l-.22-.175h-.31c-.116.117-.234.175-.352.175-.235.118-.588.177-1.057.177l-.175-.088-.177-.089c-.353 0-1.116-.117-2.289-.352 1.056 0 2.054-.117 2.993-.352h.352v-.175c-.116 0-.204-.029-.264-.089l-.088-.087v-.175a3.08 3.08 0 0 0-1.057-.177c-1.174 0-1.937.293-2.288.881l-.178.175v.177c-.116.117-.234.175-.352.175-.235-.117-.367-.234-.396-.352 0-.117.133-.292.396-.527.235-.441.41-.969.529-1.585 0-.469-.061-1.115-.178-1.937 0-.235-.058-.529-.175-.881-.118-.352-.177-.644-.177-.879-.117-.354-.175-.822-.175-1.41a.755.755 0 0 1-.221-.352v-.175l.221.175c.968 1.292 1.495 2.349 1.585 3.17v.175c0 .118.043.177.132.177.116 0 .188-.059.22-.177l.175-.175c.117-.117.235-.177.353-.177l.881-.527c.557-.235 1.203-.352 1.937-.352h.133c.116 0 .424.117.924.352-.117 0-.323.021-.616.066a5.074 5.074 0 0 1-.617.066c0 .852-.059 1.453-.175 1.805l-.088.308-.089.22c-.117.352-.353.704-.704 1.058.852.117 1.497.469 1.937 1.056l.088.087c.059.06.117.147.177.265.06.114.148.232.266.35m-4.798-2.466a.709.709 0 0 0-.132.441.601.601 0 0 1-.178.44c.939-.352 1.644-.821 2.114-1.408.088 0 .196-.059.329-.177.132-.117.198-.234.198-.352l.088-.088c.06-.058.089-.146.089-.264.117-.117.233-.323.352-.617.117-.292.234-.439.353-.439-.939.352-1.879.939-2.818 1.76l-.395.352z" transform="translate(-2057.666 -882.09) scale(4.03315)"/><path style="fill:#00082d" d="M519.68 260.203h.704c.44.087 1.086.263 1.938.527l-2.466.177c-1.057 0-1.761.117-2.112.352-.118 0-.265.058-.441.175a2.856 2.856 0 0 0-.439.352 3.925 3.925 0 0 1-1.233.177c-.439 0-.852-.119-1.232-.352-.117 0-.235-.119-.353-.352 0-.117-.058-.177-.175-.177v-.352c0-.44.233-.85.704-1.233l.352-.527 1.057-.177c.116 0 .469.06 1.058.177 1.173.235 1.995.587 2.464 1.056h.177v.177zm18.84-7.925h1.585c.732 0 1.379.06 1.937.177-.558.117-1.379.294-2.464.527-.735.235-1.146.412-1.233.529-.118 0-.293.088-.528.265-.235.175-.411.264-.527.264-2.23 1.173-3.522 1.937-3.874 2.289a6.881 6.881 0 0 1 1.408-.529c.116 0 .352-.029.704-.087a3.16 3.16 0 0 0 .881-.265c.85-.235 1.73-.529 2.641-.881.235-.117.353-.117.353 0h-.176c-.471.558-1.352 1.262-2.643 2.114-.117 0-.204.029-.263.087-.06.059-.147.088-.265.088l-.352.089a2.445 2.445 0 0 1-.529.087.595.595 0 0 1-.439.175.757.757 0 0 0-.484.177c-1.174.352-1.923.646-2.246.881-.234.087-.352.263-.352.527v.177c0 .117-.117.293-.353.527h-.175c-.235 0-.471-.117-.704-.352 0-.117-.06-.175-.177-.175h-.704c-.704-.117-1.233-.177-1.585-.177h-.881c0-.117-.059-.175-.175-.175h-.704v.175h.483c.234.118.506.206.813.264.31.059.58.088.814.088.939 0 1.467.06 1.585.177a20.17 20.17 0 0 1 3.522 1.056l.265.177.263.175h.705c.969 0 1.848.118 2.642.352.557.118.989.323 1.297.616.31.293.463.617.463.969 0 .235-.059.41-.175.528-.119.117-.237.175-.354.175-.557.441-1.145.661-1.761.661h-.177l-1.231-.132c-.118-.118-.338-.177-.661-.177h-.748a4.505 4.505 0 0 1-2.112-.527h-.353c-.234-.235-.412-.352-.528-.352.116 0 .294.058.528.175h1.937c.469 0 1.524-.175 3.168-.527h.53c.116 0 .177-.06.177-.177 0-.088-.118-.206-.353-.352-.235-.235-.412-.352-.528-.352-.44-.119-1.204-.177-2.289-.177-.353 0-1.057.058-2.114.177h-2.641c-1.644 0-2.993-.119-4.049-.352-.559 0-1.146-.177-1.761-.529l-.705-.352c-.852-.323-1.849-.557-2.993-.704a5.804 5.804 0 0 1 1.408-.177c.733 0 1.38.118 1.937.352.733.235 1.263.412 1.585.529h1.762c.439 0 1.027.06 1.76.177h5.459c-2.582-.441-4.167-.675-4.755-.706-.234-.117-.571-.175-1.011-.175h-4.447c-.236 0-.528-.059-.881-.177-.352-.117-.587-.175-.704-.175a3.914 3.914 0 0 0-1.232-.177h-.353a4.412 4.412 0 0 1-1.056-.527c-.441-.323-.677-.852-.706-1.585.559.852 1.146 1.262 1.762 1.233.821 0 1.408.117 1.761.352.469.117 1.114.175 1.937.175a2.206 2.206 0 0 1-.881-.527c-.116-.235-.235-.471-.352-.706-.733-1.29-1.496-2.289-2.289-2.993-1.525-1.525-3.169-2.289-4.931-2.289h-.22a5.213 5.213 0 0 1 1.938-.352h.748c.821.119 1.644.471 2.465 1.056a20.616 20.616 0 0 1 2.994 2.995l.176.175v-.35l-.529-2.641-.352-1.408c-1.086-1.995-2.377-3.405-3.874-4.226l-.527-.397h-.353c-.352 0-1.056.484-2.113 1.453-.704.704-1.114 1.174-1.231 1.408 0 .235-.06.352-.177.352v-.527c0-.706.177-1.35.528-1.937.117-.117.321-.381.615-.793.294-.411.5-.733.616-.968l.177-.175v-.529c.117-.205.396-.323.837-.352.116.118.365.293.748.529.117 0 .265.058.44.175l.264.177c1.173.733 2.171 1.437 2.993 2.112 1.292 1.175 2.289 2.701 2.993 4.578.089.558.206 1.262.353 2.114.116.117.177.821.177 2.112 0 .118.058.177.175.177v-.352c0-.206.059-.667.177-1.387.117-.719.177-1.254.177-1.606.117-.118.176-.235.176-.354 0-.117-.059-.175-.176-.175-.471-.117-.764-.293-.881-.529v-.527c0-.469.059-.704.176-.704l.177.175h.352c0 .119.029.206.088.265l.089.087c.117.119.233.177.353.177h.175v-.177l-.527-.527-.616-.616c-.177-.177-.441-.323-.793-.441h.704c.47 0 1.026.206 1.674.617.644.412 1.202.616 1.673.616 0 .119.043.177.132.177h.747c.352 0 .646-.117.881-.352l.881-.881h.175c.117 0 .206-.029.265-.087l.088-.089c.117 0 .293.06.528.177l.133.175v1.233a.296.296 0 0 0-.22.088l-.09.089c-.234.117-.352.294-.352.527h.177l.308-.087.396-.088c.587-.235 1.35-.5 2.289-.793.939-.292 1.524-.498 1.76-.617a.773.773 0 0 0 .354-.087c.117-.059.234-.146.353-.265l.175-.175.177-.177h-.704c-.822-.233-1.351-.41-1.585-.527l-1.101-.529-.309-.177a5.679 5.679 0 0 0-.527-.175v.352a.792.792 0 0 1-.353-.087l-.177-.089a.59.59 0 0 1-.352-.13l-.22-.045c-1.057-.235-1.924-.352-2.599-.352h-.704c-.322 0-.558.058-.704.175l.31.177c.116.206.188.44.22.704v.177h-.22c-.089 0-.251-.058-.484-.177 0-.117-.06-.204-.177-.264l-.177-.088c-1.056-.204-1.702-.323-1.936-.352-.589 0-.999.117-1.232.352-.119 0-.235.06-.353.177l-.352.352h-.177v-.177c0-.556.177-.968.528-1.233.353-.233.938-.352 1.761-.352h.439c.265 0 .47.06.616.177h.177c.117 0 .175.058.175.175h.178l.352-.175c.235-.352.821-.529 1.76-.529.559 0 1.086.06 1.585.177.117 0 .265.058.441.175.176.119.321.177.439.177h.529c.586 0 1.348.235 2.289.704.352.206.644.323.879.352.323.119.793.235 1.41.352.938.119 1.466.177 1.585.177.469 0 .879-.117 1.231-.352-.205.235-.5.469-.88.704 0 .117-.118.206-.352.265a2.401 2.401 0 0 1-.529.087l-.177.088a.76.76 0 0 1-.352.087h-.527l-.177.352c-.588 1.293-1.585 2.056-2.993 2.289h-1.233c-.439 0-.91-.059-1.408-.175l-.352-.177h-.177l-.176.177c-.324 0-.499.059-.528.175v.529c.204 1.292.322 2.466.352 3.522.469-1.292 1.585-2.406 3.346-3.345.116 0 .352-.117.705-.352s.645-.354.88-.354a23.538 23.538 0 0 0 1.585-.572 93.529 93.529 0 0 1 1.408-.488zm-22.714 8.1c.586-.205 1.351-.323 2.289-.352.117 0 .323.029.617.087.292.06.498.089.616.089-.441-.235-1.101-.354-1.981-.354-.704 0-1.218.118-1.541.354a.416.416 0 0 0-.177.352zm9.683 1.937h1.585c.469 0 1.468.117 2.994.352-.236 0-.646.029-1.232.087-.587.059-.998.147-1.232.264h-1.233c-1.056 0-2.112-.235-3.17-.704h.354c.117 0 .233.058.353.177h.878c.089 0 .235-.031.441-.089zm0-3.697c-.117-.117-.294-.191-.527-.221.233.03.41.104.527.221zm-.175-.705-.177.177h.352c0-.352-.029-.529-.088-.529-.057 0-.087.118-.087.352zm1.76-1.584c.117-1.526.235-2.641.352-3.347a1.188 1.188 0 0 1-.879.352h-.352c.116 1.41.175 2.466.175 3.17v.352h.53c.116-.233.174-.41.174-.527zm-.175 1.76v-.352c0-.117-.074-.177-.221-.177h-.309v.529h.397zm1.717-4.578.22-.177v-.175h-.352l-.706-.396c.118.968.177 1.865.177 2.686v.881c0 .117-.029.205-.088.263-.06.06-.089.148-.089.265h.529c.117 0 .178-.117.178-.352-.001-1.262.042-2.261.131-2.995zm-.309 4.578v-.352h-.529v.352h.177c.117.118.235.177.352.177zm1.408-4.401v-.354c0-.117-.116-.175-.352-.175v2.994l-.176.352v.529h.527v-.352c0-.089-.029-.265-.087-.529l-.088-.352c.001-.469.06-1.174.176-2.113zm-.527 4.578h.527v-.529h-.527v.352z" transform="translate(-2057.666 -882.09) scale(4.03315)"/><path style="fill:#00082d" d="m531.125 249.814-.265-.177c-.177-.117-.322-.175-.439-.175h-.353c-.236 0-.354-.059-.354-.177 0-.117.177-.235.529-.352.117-.117.294-.177.528-.177.234 0 .47.06.704.177.234.088.411.199.527.331.119.132.177.257.177.374l-.177.177c0 .117-.116.175-.352.175h-.176c-.116-.001-.232-.059-.349-.176z" transform="translate(-2057.666 -882.09) scale(4.03315)"/><path style="fill:#870000" d="M536.407 224.751c.587.235.997.587 1.232 1.056l-.352.484.175 1.63v.352c0 .469-.175.879-.527 1.231h-.177c-.235 0-.412-.527-.528-1.583-.704 0-1.879.293-3.521.879v.529c1.524-.469 2.464-.704 2.816-.704.116 0 .235.117.352.352l-.879.527c-.559.706-.852 1.175-.881 1.41l1.76.704c.206-.469.323-.881.353-1.233l-.176-.352.176-.175h.177c.587.204.881.381.881.527l-.706 1.233-.175.529c.733.352 2.142.939 4.226 1.76v.175c-.558.354-1.087.529-1.585.529h-.352c-.471 0-1.408-.529-2.818-1.585-.968.704-1.73 1.056-2.289 1.056h-1.409v-.175c.939 0 1.938-.469 2.993-1.408v-.177l-1.232-1.056c-1.408 1.996-2.816 2.993-4.227 2.993 1.732-1.408 3.022-2.699 3.874-3.874l.177-.527c-.352 0-1.408.41-3.17 1.231v-.879l1.408-.529v-.529c0-1.173.235-2.229.706-3.168h.175v.175c1.293-.939 2.467-1.408 3.523-1.408zm1.408-2.289c.82 0 1.291.175 1.409.527v.354c0 .235-.293.411-.881.527l-1.585-.175c-.704 0-1.82.587-3.345 1.76h-.177l1.013-1.408h-.132l-2.114.527-.879-.175c0-.117 1.995-.763 5.986-1.937zm-4.93 5.282v.352c1.526-.587 2.406-.881 2.642-.881l.704.177v-.704c-.821 0-1.879.293-3.169.879-.119 0-.177.06-.177.177zm.177-.881 2.112-.704h.529l.527.132v-.307c0-.471-.117-.706-.353-.706-.852 0-1.789.47-2.816 1.41v.175z" transform="translate(-2057.666 -882.09) scale(4.03315)"/><path style="fill:#00082d" d="M538.696 246.997v.132l-.088.132-.089.088v.177c-.353.117-.646.175-.88.175a1.742 1.742 0 0 1-.793.177c-.294 0-.5-.059-.616-.177-.205 0-.315-.059-.329-.175-.016-.117.212-.294.681-.529l.706-.352a.786.786 0 0 0 .352-.088l.353-.177a.766.766 0 0 1 .352-.087c.353 0 .529.175.529.527zm-.529 1.232c.235 0 .353.117.353.352 0 .323-.191.5-.572.527l-.836-.175c-.469 0-.704-.117-.704-.352l.704-.177h.704c.116-.116.235-.175.351-.175zm-13.225-6.787c-.852-1.996-2.417-4.248-4.149-6.595-.352-.587-.587-.881-.704-.881v-.175l-.175-.089c-.118-.028-.235-.117-.353-.263-.118-.235-.235-.354-.352-.354l-.354.354c-1.761 1.496-3.11 2.493-4.05 2.993-.116.117-.764.352-1.937.704 1.614-.852 2.729-1.614 3.345-2.289.117-.117.206-.293.265-.529a3.41 3.41 0 0 1 .265-.704c.116-.235.228-.41.33-.529.102-.117.249-.321.44-.615.19-.293.344-.5.462-.616 0-.089.029-.177.088-.265l.177-.177c.059-.059.146-.087.263-.087h.177a.784.784 0 0 0 .353-.088l.177-.089.175.089a.586.586 0 0 1 .265.265.777.777 0 0 1 .088.352c.116.117.264.235.441.352.175.117.263.235.263.352.116.117.322.352.616.704s.5.587.616.704c.587.735 1.233 1.673 1.938 2.818v.175h.177c0-.233-.061-.41-.177-.527 0-.822.058-1.791.177-2.905.116-1.115.292-2.083.527-2.905.322-1.173.675-1.996 1.056-2.466a16.777 16.777 0 0 1 1.762-1.76c-1.175 1.174-1.879 3.463-2.113 6.867v1.584c0 1.408.116 3.345.352 5.811v.352m7.923 5.282c0-.117.175-.294.527-.529.822-.352 1.409-.704 1.762-1.056l.175-.175c0-.119.059-.177.177-.177l.265-.088c.175-.058.323-.147.439-.264.117 0 .265-.088.439-.265l.441-.439c.205-.117.433-.177.683-.177.249 0 .374.06.374.177v.175h.177c0 .118-.061.235-.177.352-.471.941-1.351 1.585-2.642 1.937-.969.235-1.732.412-2.289.529h-.351" transform="translate(-2057.666 -882.09) scale(4.03315)"/></svg>