<svg xmlns="http://www.w3.org/2000/svg" width="139.764" height="200" xml:space="preserve"><path d="M139.76 14.459V185.54c0 4.013-1.407 7.43-4.214 10.24-2.81 2.807-6.227 4.219-10.24 4.219H14.459c-4.017 0-7.433-1.412-10.244-4.219C1.404 192.971 0 189.554 0 185.541V14.46c0-4.013 1.404-7.43 4.215-10.244C7.025 1.408 10.438 0 14.459 0h110.843c4.013 0 7.429 1.408 10.24 4.215 2.811 2.815 4.219 6.23 4.219 10.244zM125.303 7.23H14.459c-2.09 0-3.82.686-5.183 2.05-1.367 1.367-2.049 3.093-2.049 5.182v171.082c0 2.085.682 3.816 2.05 5.183 1.362 1.363 3.093 2.049 5.182 2.049h110.843c2.085 0 3.815-.686 5.183-2.05 1.363-1.366 2.048-3.097 2.048-5.182V14.463c0-2.09-.685-3.815-2.048-5.183-1.368-1.367-3.098-2.049-5.183-2.049z"/><path d="M33.737 82.171c.319-.802.964-1.205 1.928-1.205.641 0 2.727.806 6.264 2.411 7.868-1.605 15.02-3.371 21.444-5.303-.165-.964-.242-2.727-.242-5.3-.484 0-1.686.242-3.614.722s-3.533.726-4.82.726c-3.052 0-5.061-1.125-6.025-3.376.641-.161 2.61-.44 5.905-.843 3.29-.399 5.98-1.004 8.07-1.806v-.722c0-5.623-1.444-10.519-4.336-14.701-2.891-4.175-4.335-8.51-4.335-13.015a79.522 79.522 0 0 0 13.733 4.94c4.658 1.206 7.63 2.134 8.913 2.771 1.282.646 1.928 1.932 1.928 3.856 0 .964-.444 1.686-1.327 2.17-.883.48-1.847.923-2.892 1.323-1.049.403-2.09 1.564-3.13 3.496-1.048 1.928-1.73 4.578-2.049 7.954 2.408-.642 4.255-1.57 5.542-2.775 1.283-1.206 2.25-1.807 2.892-1.807 1.444 0 3.013.52 4.698 1.565 1.686 1.049 2.53 1.972 2.53 2.775 0 .806-.686 1.444-2.05 1.928-1.367.48-3.533 1.004-6.505 1.564-2.977.565-5.42 1.166-7.349 1.807 0 .642-.084 1.61-.242 2.892-.16 1.287-.242 2.166-.242 2.65l20.485-3.614c1.444 0 3.452 1.412 6.025 4.219 2.57 2.81 3.856 5.182 3.856 7.11 0 1.605-1.77 2.65-5.3 3.13-1.125 3.053-2.891 6.106-5.3 9.16-2.41 3.052-3.613 5.299-3.613 6.747 0 2.569-.722 3.855-2.17 3.855-.964 0-2.17-.56-3.613-1.685-2.09.16-3.699.484-4.82.964 4.336 5.464 9.676 9.723 16.024 12.773 6.344 3.053 12.168 5.626 17.471 7.71 5.3 2.09 8.994 4.74 11.084 7.954-2.412-.322-4.86-1.044-7.349-2.17-2.492-1.12-4.215-1.685-5.182-1.685-.646 0-2.251.762-4.82 2.286-2.573 1.529-4.74 2.291-6.506 2.291-2.254 0-4.5-1.161-6.747-3.492-2.255-2.328-5.263-6.425-9.038-12.29-3.78-5.864-6.712-10.159-8.797-12.894-.322.166-.964.242-1.927.242 0 1.771-.085 4.022-.242 6.748-.166 2.73-.242 4.82-.242 6.263 0 4.501.6 10.325 1.806 17.472 1.206 7.147 1.807 11.128 1.807 11.93 0 7.393-1.528 11.083-4.577 11.083-1.77 0-3.457-2.246-5.062-6.743-1.605-4.497-2.408-8.514-2.408-12.047 0-1.605-3.94-7.792-11.809-18.557-8.675 7.074-15.503 10.603-20.484 10.603-2.73 0-4.659-.242-5.784-.722 10.76-5.46 18.633-10.28 23.614-14.458l-.964-3.134 2.17 1.686c2.892-2.412 5.461-5.865 7.712-10.361-1.606-.158-3.13-1.122-4.578-2.892-.165-.162-.121-.44.121-.843.242-.4.359-.682.359-.843 0-.319-1.17-1.843-3.493-4.578a391.508 391.508 0 0 1-7.47-9.034c-2.649-3.295-4.286-5.598-4.928-6.88zm29.64-.968c-6.59 1.287-12.612 3.134-18.073 5.546 2.73 2.735 4.336 4.501 4.82 5.3 1.444-.803 3.735-1.408 6.868-1.807 3.134-.4 5.34-.758 6.627-1.085 0-.803-.04-2.085-.121-3.856a89.743 89.743 0 0 1-.121-4.098zm.48 26.51c-.323 0-.924-.036-1.807-.12-.887-.081-1.569-.122-2.049-.122-1.928 3.372-5.384 8.115-10.361 14.217.803.807 1.964 2.17 3.493 4.098 1.524 1.928 2.892 3.416 4.097 4.457 1.202 1.048 2.207 1.568 3.013 1.568 1.444-.004 2.65-8.034 3.614-24.098zm-.242-13.978c-5.461.326-9.075.963-10.841 1.927 1.121 2.574 2.488 4.663 4.097 6.264.803.165 2.009.282 3.614.363 1.605.085 2.73.12 3.372.12 0-1.12-.04-2.649-.121-4.577-.08-1.928-.121-3.29-.121-4.097zm23.134-13.011c0-1.283-1.928-1.928-5.783-1.928-3.856 0-8.035.564-12.531 1.686-.162 1.125-.283 2.613-.36 4.46-.084 1.847-.12 3.094-.12 3.735 2.246-.323 4.053-.964 5.42-1.928 1.363-.964 2.928-1.448 4.699-1.448a3.63 3.63 0 0 1 1.807.484c.56.327 1.206.807 1.927 1.448.722.641 1.327 1.125 1.807 1.444 2.085-3.694 3.134-6.344 3.134-7.953zm-4.82 11.325c-1.286-.642-2.17-.964-2.653-.964-.807 0-2.57.322-5.3.964-2.734.64-4.662 1.044-5.783 1.202-.166.806-.242 2.17-.242 4.097 0 1.928.076 3.457.242 4.578 2.407 0 5.38-.4 8.913-1.202.484-.641 1.282-2.049 2.412-4.219 1.125-2.166 1.927-3.65 2.411-4.456z"/></svg>