<svg xmlns="http://www.w3.org/2000/svg" width="139.764" height="200" xml:space="preserve"><path d="M139.757 14.459V185.54c0 4.013-1.408 7.43-4.215 10.24-2.81 2.807-6.227 4.219-10.244 4.219H14.455c-4.017 0-7.43-1.412-10.24-4.219C1.404 192.971 0 189.554 0 185.541V14.46c0-4.013 1.404-7.43 4.215-10.244C7.025 1.408 10.438 0 14.455 0h110.843c4.017 0 7.429 1.408 10.244 4.215 2.803 2.815 4.215 6.23 4.215 10.244zM125.298 7.23H14.455c-2.09 0-3.816.686-5.179 2.05-1.367 1.367-2.049 3.093-2.049 5.182v171.082c0 2.085.682 3.816 2.05 5.183 1.362 1.363 3.089 2.049 5.178 2.049h110.843c2.09 0 3.815-.686 5.183-2.05 1.363-1.366 2.048-3.097 2.048-5.182V14.463c0-2.09-.685-3.815-2.048-5.183-1.372-1.367-3.098-2.049-5.183-2.049z"/><path d="M22.404 139.76c0-1.282 1.004-3.093 3.013-5.424 2.008-2.323 4.578-6.263 7.711-11.805 3.134-5.545 5.744-12.33 7.833-20.363-5.627-3.695-8.676-7.55-9.16-11.567 3.21 1.448 6.825 2.412 10.842 2.892a11.697 11.697 0 0 1 1.447-4.578c.48 1.125.803 2.972.964 5.541 4.497 1.448 6.748 3.215 6.748 5.304 0 2.25-2.573 3.372-7.712 3.372-.963 5.142-1.927 9.756-2.891 13.858a781.29 781.29 0 0 1-2.05 8.554c-.403 1.605-.6 2.734-.6 3.372 0 1.286.161 2.17.484 2.65 1.605-.158 4.537-1.565 8.796-4.215 4.255-2.654 7.59-4.94 9.998-6.869.964-1.6 1.444-5.061 1.444-10.36 0-1.126-.04-3.05-.12-5.784a210.11 210.11 0 0 1-.122-6.026c0-4.497-.403-8.15-1.206-10.962-.806-2.811-1.726-4.699-2.77-5.663a20.242 20.242 0 0 1-2.771-3.13c-.807-1.12-1.206-2.411-1.206-3.855 0-1.766.641-3.291 1.928-4.578a78.894 78.894 0 0 0 8.07 2.53c2.807.721 4.658 1.286 5.542 1.685.879.403 1.806 1.17 2.77 2.29.964 1.126 1.767 2.812 2.412 5.058-2.734 1.767-4.42 4.501-5.061 8.192-.646 3.698-1.126 12.047-1.444 25.062 1.6-.964 3.492-2.327 5.662-4.098 2.17-1.766 3.654-2.888 4.457-3.372 0-3.855.323-8.63.964-14.333.641-5.703.964-9.6.964-11.688 0-1.283-.085-2.449-.242-3.493-.162-1.045-.404-1.932-.722-2.654a90.837 90.837 0 0 1-.843-1.928c-.242-.56-.645-1.085-1.206-1.565a23.596 23.596 0 0 1-1.206-1.085c-.242-.242-.722-.56-1.444-.964-.726-.399-1.17-.677-1.327-.842.642-1.928 1.484-3.574 2.53-4.941 1.044-1.363 2.447-2.807 4.218-4.336 1.766-1.524 3.13-2.851 4.097-3.976C82.64 56.79 84.607 59 87.1 62.292c2.488 3.295 3.735 5.905 3.735 7.832 0 .646-.444 1.327-1.327 2.05a88.665 88.665 0 0 1-2.771 2.17c-.964.725-1.892 2.33-2.77 4.819-.884 2.492-1.328 5.662-1.328 9.518v13.975c1.122-.803 2.65-1.767 4.578-2.888a136.854 136.854 0 0 0 4.215-2.529c.879-.56 1.685-1.448 2.411-2.65.722-1.205 1.085-2.609 1.085-4.218 0-.319-.04-.641-.12-.964a3.76 3.76 0 0 1-.122-.964c.964-.964 2.65-1.444 5.058-1.444 2.25 0 4.578.762 6.99 2.287 2.411 1.528 3.613 3.335 3.613 5.42 0 .964-1.004 1.686-3.013 2.17-2.012.484-5.384 1.489-10.119 3.013-4.739 1.529-9.437 3.735-14.096 6.627v1.927c0 9.962.88 16.306 2.65 19.037 1.767 2.734 5.784 4.098 12.047 4.098 3.21 0 6.465-.36 9.76-1.085 3.291-.722 5.502-1.085 6.627-1.085 2.085 0 3.134.806 3.134 2.408 0 6.747-9.08 10.119-27.228 10.119-4.179 0-7.59-.88-10.24-2.65-2.65-1.767-3.977-4.178-3.977-7.227 0-1.122.036-2.53.12-4.215a88.05 88.05 0 0 0 .122-3.977c0-1.766-.121-4.053-.36-6.868-.241-2.811-.362-4.86-.362-6.147-3.053 2.255-6.425 4.981-10.12 8.196 0 .645.081 1.443.243 2.411.157.964.242 1.767.242 2.408 0 2.09-.686 3.896-2.05 5.42-1.366 1.53-2.528 2.372-3.496 2.53-.48 0-1.044-.279-1.686-.843-.645-.561-.964-1.166-.964-1.807 0-.803-.564-1.928-1.686-3.372-3.053 2.09-6.469 4.904-10.24 8.433-3.779 3.533-7.07 6.187-9.88 7.954-2.812 1.766-5.825 2.65-9.035 2.65-2.888-.013-4.336-1.698-4.336-5.07z"/></svg>