<?xml version="1.0" encoding="iso-8859-1"?>
<!-- Generator: Adobe Illustrator 18.0.0, SVG Export Plug-In . SVG Version: 6.00 Build 0)  -->
<!DOCTYPE svg PUBLIC "-//W3C//DTD SVG 1.1//EN" "http://www.w3.org/Graphics/SVG/1.1/DTD/svg11.dtd">
<svg version="1.1" id="Capa_1" xmlns="http://www.w3.org/2000/svg" xmlns:xlink="http://www.w3.org/1999/xlink" x="0px" y="0px"
	 viewBox="0 0 500.961 500.961" style="enable-background:new 0 0 500.961 500.961;" xml:space="preserve">
<path d="M493.528,458.853c-6.395-28.805-18.191-46.881-46.461-72.168c-0.302-2.668-0.958-5.332-2.19-7.888
	c-2.588-5.32-5.546-10.403-8.405-15.534c10.209-7.513,17.848-11.891,18.024-11.995c3.931-2.221,5.34-7.208,3.133-11.149
	c-2.222-3.931-7.222-5.346-11.139-3.125c-0.781,0.432-8.294,4.723-18.427,12.067c-3.501-5.522-6.985-11.059-10.806-16.326
	c10.326-11.89,18.125-21.862,20.061-24.347c2.763-3.575,2.109-8.711-1.456-11.483c-3.582-2.75-8.725-2.103-11.49,1.461
	c-3.932,5.076-10.278,12.859-17.531,21.297c-5.9-7.218-12.086-14.151-18.591-20.786c9.878-7.376,19.038-13.359,24.934-16.837
	c3.884-2.3,5.195-7.311,2.895-11.202c-2.287-3.899-7.322-5.17-11.204-2.895c-1.198,0.705-13.697,8.175-28.529,19.418
	c-3.963-3.626-7.96-7.247-12.114-10.659c5.993-6.088,11.125-12.024,14.525-17.396c2.43-3.812,1.297-8.87-2.509-11.293
	c-3.803-2.426-8.87-1.292-11.298,2.52c-3.117,4.889-8.01,10.451-13.826,16.222c-7.926-5.818-16.143-11.254-24.627-16.294
	c11.778-9.792,20.825-14.385,21.033-14.49c4.043-1.998,5.722-6.894,3.723-10.947c-1.982-4.036-6.871-5.72-10.914-3.748
	c-1.041,0.504-13.824,6.887-29.166,20.631c-5.818-3.002-11.607-6.022-17.615-8.661c-0.335-0.144-0.637-0.32-0.957-0.465
	c4.698-5.457,9.283-10.627,13.298-14.939c3.099-3.301,2.908-8.481-0.399-11.563c-3.31-3.07-8.488-2.908-11.556,0.407
	c-2.797,2.988-9.178,9.933-16.621,18.706c-5.052-2.542-10.008-5.227-14.897-8.006c9.623-8.989,16.719-15.102,16.909-15.271
	c3.438-2.941,3.834-8.11,0.897-11.538c-2.94-3.438-8.121-3.813-11.542-0.896c-0.91,0.785-9.65,8.312-20.966,19.025
	c-3.741-2.387-7.322-5.007-10.948-7.542c14.559-13.579,25.953-26.938,27.569-36.654c0.749-4.461-2.272-8.672-6.714-9.414
	c-4.474-0.831-8.693,2.261-9.428,6.729c-0.976,5.882-10.643,16.732-24.836,29.526c-5.784-4.5-11.458-9.133-16.927-14.007
	c7.77-5.163,14.466-10.213,18.874-14.746c3.165-3.244,3.104-8.42-0.143-11.577c-3.226-3.125-8.421-3.086-11.585,0.151
	c-4.14,4.259-11.057,9.317-19.337,14.63c-6.315-6.239-12.402-12.719-18.189-19.472c12.273-5.875,23.829-10.134,32.523-10.454
	c4.523-0.158,8.038-3.953,7.878-8.471c-0.161-4.521-4.124-8.327-8.47-7.877c-12.019,0.439-27.186,6.048-42.51,13.648
	c-3.165-4.108-6.348-8.208-9.335-12.474c7.351-4.737,14.846-10.245,22.345-16.869c3.368-2.995,3.689-8.168,0.701-11.556
	c-3.02-3.388-8.183-3.683-11.57-0.702c-6.857,6.073-13.744,11.098-20.504,15.422c-6.606-10.522-18.958-31.599-28.151-47.419
	c-0.721-1.241-1.539-2.394-2.429-3.464c4.102-10.23,11.76-26.689,22.65-39.141c4.776-5.461,10.07-8.452,15.215-9.93
	c1.721-0.494,2.815-2.181,2.564-3.954c-0.25-1.773-1.769-3.092-3.559-3.09c-8.033,0.012-16.945,2.866-25.282,11.679
	c-15.136,16.002-23.104,28.549-26.947,35.697c-4.881-0.782-10.03-0.136-14.794,2.147c-3.893,1.865-7.167,4.725-9.539,8.231
	c-8.2-1.743-22.421-3.696-43.125-2.888C21.599,55.34,13.583,60.169,8.287,66.208c-1.181,1.347-1.189,3.358-0.019,4.714
	s3.161,1.642,4.666,0.672c4.499-2.9,10.236-4.916,17.49-4.916c15.607,0,32.007,4.514,42.548,8.087
	c0.441,2.983,1.436,5.889,2.98,8.554c8.835,15.245,19.889,34.225,25.503,43.497c-14.911,3.675-24.804,3.596-24.995,3.622
	c-4.478-0.098-8.246,3.466-8.377,7.974c-0.093,4.514,3.438,8.262,7.947,8.392c0.125,0,0.43,0.007,0.877,0.007
	c3.484,0,16.43-0.432,34.073-5.465c3.834,5.76,7.769,11.434,11.892,16.956c-16.528,11.038-28.608,20.376-29.823,21.319
	c-3.563,2.783-4.188,7.927-1.422,11.491c1.613,2.07,4.025,3.15,6.473,3.15c1.758,0,3.514-0.569,5.018-1.725
	c6.554-5.108,17.42-12.996,29.837-21.232c5.449,6.689,11.189,13.118,17.085,19.4c-11.667,5.986-22.182,11.059-28.813,14.137
	c-4.107,1.894-5.902,6.761-3.982,10.861c1.377,2.988,4.33,4.745,7.415,4.745c1.152,0,2.335-0.237,3.439-0.76
	c1.356-0.622,16.059-7.455,33.976-16.765c7.175,6.984,14.641,13.658,22.36,20.034c-8.886,6.642-18.044,13.201-27.105,19.364
	c-3.74,2.542-4.702,7.632-2.175,11.369c1.599,2.326,4.153,3.581,6.776,3.581c1.597,0,3.197-0.456,4.603-1.414
	c5.146-3.499,17.148-11.812,31.004-22.273c5.101,3.845,10.421,7.387,15.727,10.973c-7.927,9.349-14.8,18.659-18.861,26.78
	c-2.012,4.042-0.38,8.956,3.661,10.979c1.167,0.583,2.413,0.861,3.661,0.861c3.004,0,5.879-1.652,7.319-4.522
	c3.709-7.408,10.308-16.174,17.996-25.091c6.71,4.129,13.49,8.189,20.473,11.915c-4.779,7.988-8.168,15.412-8.901,21.215
	c-0.576,4.481,2.588,8.581,7.08,9.158c0.35,0.04,0.703,0.065,1.037,0.065c4.061,0,7.592-3.013,8.121-7.146
	c0.479-3.812,3.355-9.547,7.445-16.142c3.87,1.847,7.624,3.87,11.573,5.595c1.79,0.785,3.484,1.756,5.241,2.581
	c-4.714,7.888-9.092,16.549-12.753,26.236c-1.6,4.226,0.544,8.949,4.762,10.548c0.957,0.36,1.935,0.525,2.895,0.525
	c3.31,0,6.408-2.012,7.654-5.288c3.452-9.159,7.672-17.359,12.211-24.757c6.427,3.517,12.69,7.318,18.763,11.354
	c-13.298,10.148-23.795,17.413-24.051,17.589c-3.727,2.556-4.669,7.653-2.114,11.379c1.586,2.308,4.141,3.546,6.761,3.546
	c1.599,0,3.198-0.46,4.619-1.436c1.138-0.785,13.54-9.342,28.562-21.016c4.764,3.628,9.317,7.456,13.777,11.412
	c-7.351,8.942-13.139,18.363-15.566,27.727c-1.15,4.371,1.47,8.838,5.85,9.983c0.685,0.176,1.372,0.263,2.078,0.263
	c3.61,0,6.934-2.438,7.895-6.12c1.742-6.657,5.994-13.705,11.667-20.707c7.272,7.33,14.061,15.113,20.408,23.277
	c-6.375,5.562-12.258,9.799-16.928,11.613c-4.217,1.638-6.295,6.375-4.664,10.587c1.263,3.237,4.349,5.216,7.638,5.216
	c0.992,0,1.985-0.172,2.96-0.558c6.073-2.358,13.201-7.369,20.599-13.648c3.133,4.627,6.235,9.285,9.061,14.127
	c-5.733,6.808-11.041,14.194-15.292,22.128c-2.142,3.986-0.64,8.95,3.355,11.084c1.213,0.655,2.557,0.965,3.852,0.965
	c2.924,0,5.739-1.565,7.225-4.316c2.668-4.961,5.846-9.71,9.317-14.238c0.319,0.663,0.735,1.271,1.055,1.934
	c2.636,5.464,7.128,9.295,12.291,11.556c0.125,2.379,0.333,5.011,0.701,7.895c3.673,31.845,18.918,61.17,45.247,78.152
	c2.589,1.742,4.059,2.743,4.059,2.743c2.365,1.552,4.905-1.764,2.718-3.614c-0.25-0.227-3.501-2.958-3.772-3.186
	c-22.484-18.223-33.563-45.983-33.753-75.045c-0.034-1.965,0.014-3.643,0.064-5.281c1.771-0.411,3.532-1.008,5.242-1.839
	c4.442-2.156,7.926-5.497,10.292-9.447c33.463,20.766,47.084,57.135,47.21,57.474C491.547,461.111,493.886,460.484,493.528,458.853z
	"/>
<g>
</g>
<g>
</g>
<g>
</g>
<g>
</g>
<g>
</g>
<g>
</g>
<g>
</g>
<g>
</g>
<g>
</g>
<g>
</g>
<g>
</g>
<g>
</g>
<g>
</g>
<g>
</g>
<g>
</g>
</svg>
