<svg xmlns="http://www.w3.org/2000/svg" viewBox="0 0 512.002 512.002" style="enable-background:new 0 0 512.002 512.002" xml:space="preserve"><path style="fill:#fbb0ad" d="M458.048 291.389c23.391 0 42.35 18.959 42.35 42.35 0 23.391-18.959 42.35-42.35 42.35h-25.131V291.39h25.131v-.001z"/><path style="fill:#fbcdcb" d="M432.917 291.389v84.699h-15.814c-28.554 0-54.811-10.025-75.44-26.732l.035-.035 55.31-64.209a35.166 35.166 0 0 0 20.096 6.277h15.813z"/><path style="fill:#fbb0ad" d="m397.007 285.112-55.31 64.209-.035.035c-22.08-17.868-37.72-43.394-42.825-72.505l.081-.012 81.706-37.001A119.978 119.978 0 0 1 381.715 256c-.001 12.056 6.056 22.719 15.292 29.112z"/><path style="fill:#fbcdcb" d="m380.624 239.839-81.706 37.001-.081.012a119.924 119.924 0 0 1-1.822-20.85c0-9.468-3.736-18.088-9.816-24.447l.035-.035 54.428-64.963c20.78 18.599 35.052 44.322 38.962 73.282z"/><path style="fill:#fbb0ad" d="M287.199 231.554c-6.451-6.741-15.524-10.941-25.572-10.941h-2.75v-84.699h2.75c30.712 0 58.779 11.591 80.035 30.643l-54.428 64.963-.035.034z"/><path style="fill:#fbcdcb" d="M258.877 135.914v84.699h-2.854c-10.025 0-19.086 4.189-25.526 10.895l-54.451-64.998c21.244-19.017 49.288-30.596 79.977-30.596h2.854z"/><path style="fill:#fbb0ad" d="m176.046 166.51 54.451 64.998c-6.103 6.358-9.862 15.002-9.862 24.493 0 7.101-.615 14.074-1.81 20.838l-81.798-37.036c3.922-28.971 18.216-54.705 39.019-73.293z"/><path style="fill:#fbcdcb" d="m137.027 239.804 81.798 37.036c-5.105 29.088-20.722 54.602-42.779 72.47l-55.333-64.232c9.189-6.405 15.223-17.044 15.223-29.076 0-5.489.371-10.896 1.091-16.198z"/><path style="fill:#fbb0ad" d="m120.714 285.077 55.333 64.232c-20.641 16.743-46.909 26.779-75.498 26.779H53.952c-23.391 0-42.35-18.959-42.35-42.35s18.959-42.35 42.35-42.35h46.596a35.206 35.206 0 0 0 20.166-6.311z"/><path d="M458.048 387.691h-40.946c-30.012 0-59.397-10.412-82.742-29.32-24.803-20.071-41.478-48.312-46.951-79.516a131.853 131.853 0 0 1-1.997-22.854 23.67 23.67 0 0 0-6.6-16.428c-4.539-4.743-10.644-7.357-17.187-7.357h-5.604c-6.526 0-12.619 2.602-17.157 7.328a23.66 23.66 0 0 0-6.629 16.457c0 7.706-.668 15.397-1.986 22.857-5.471 31.17-22.128 59.397-46.901 79.466-23.346 18.934-52.754 29.366-82.802 29.366H53.952C24.203 387.691 0 363.489 0 333.739s24.203-53.952 53.952-53.952h46.596c4.877 0 9.558-1.464 13.538-4.233 6.414-4.47 10.247-11.781 10.247-19.553 0-5.934.403-11.909 1.196-17.758 4.186-30.924 19.381-59.474 42.786-80.385 24.165-21.631 55.315-33.547 87.708-33.547h5.604c32.426 0 63.6 11.934 87.778 33.606 23.371 20.916 38.544 49.462 42.716 80.37a131.952 131.952 0 0 1 1.194 17.715c0 7.793 3.847 15.109 10.294 19.57a23.569 23.569 0 0 0 13.492 4.215h40.946c6.407 0 11.603 5.196 11.603 11.603s-5.196 11.603-11.603 11.603h-40.946c-9.595 0-18.83-2.884-26.705-8.343-12.7-8.79-20.286-23.24-20.286-38.647 0-4.885-.331-9.796-.985-14.598-3.436-25.451-15.937-48.957-35.202-66.201-19.922-17.855-45.596-27.685-72.298-27.685h-5.604c-26.672 0-52.328 9.816-72.239 27.639-19.295 17.239-31.814 40.748-35.26 66.206a109.276 109.276 0 0 0-.986 14.64c0 15.355-7.549 29.784-20.191 38.595-7.896 5.494-17.16 8.396-26.8 8.396H53.952c-16.954 0-30.747 13.793-30.747 30.747s13.793 30.747 30.747 30.747h46.596c25.101 0 48.681-8.364 68.19-24.188 20.426-16.549 34.156-39.796 38.66-65.464a108.482 108.482 0 0 0 1.636-18.832c0-12.178 4.65-23.731 13.095-32.528 8.956-9.327 20.994-14.463 33.896-14.463h5.604c12.935 0 24.993 5.157 33.955 14.522 8.407 8.792 13.036 20.323 13.036 32.469 0 6.308.555 12.645 1.645 18.833 4.506 25.695 18.25 48.953 38.699 65.501 19.228 15.574 43.427 24.148 68.141 24.148h40.946c16.954 0 30.747-13.793 30.747-30.747 0-6.407 5.196-11.603 11.603-11.603s11.603 5.196 11.603 11.603c-.004 29.749-24.207 53.951-53.956 53.951z"/><path d="M489.883 317.405c-3.22 0-6.423-1.332-8.717-3.94a32.42 32.42 0 0 0-1.706-1.793c-4.595-4.467-4.7-11.813-.233-16.407 4.466-4.595 11.813-4.699 16.407-.233a55.216 55.216 0 0 1 2.956 3.107c4.231 4.812 3.762 12.143-1.049 16.375a11.562 11.562 0 0 1-7.658 2.891zM70.521 351.143c-6.408 0-11.603-5.196-11.603-11.603v-10.825c0-6.407 5.194-11.603 11.603-11.603 6.408 0 11.603 5.196 11.603 11.603v10.825c-.001 6.407-5.195 11.603-11.603 11.603zm105.525 9.775a11.582 11.582 0 0 1-9.036-4.321l-55.023-63.874c-4.002-4.557-3.834-11.507.516-15.857 4.531-4.53 11.871-4.538 16.404-.006.203.204.41.426.598.644l55.333 64.232a11.605 11.605 0 0 1 2.811 7.572c0 6.408-5.194 11.61-11.603 11.61zm42.772-72.472c-1.6 0-3.226-.333-4.779-1.037l-81.798-37.036c-5.837-2.642-8.427-9.518-5.784-15.355 2.644-5.836 9.518-8.428 15.355-5.783l81.798 37.036c5.837 2.642 8.427 9.518 5.784 15.355-1.939 4.283-6.16 6.82-10.576 6.82zm40.061-56.23c-6.408 0-11.603-5.196-11.603-11.603v-84.699c0-6.407 5.194-11.603 11.603-11.603 6.407 0 11.603 5.196 11.603 11.603v84.699c-.001 6.407-5.196 11.603-11.603 11.603zm-28.376 10.903a11.557 11.557 0 0 1-8.58-3.795l-.012-.013a9.427 9.427 0 0 1-.309-.354l-54.451-64.998c-4.115-4.911-3.469-12.23 1.443-16.346 4.911-4.114 12.229-3.469 16.345 1.443l54.416 64.955c4.019 4.747 3.59 11.868-1.049 16.084a11.544 11.544 0 0 1-7.803 3.024zm111.189 117.805c-2.681 0-5.375-.925-7.566-2.812-4.856-4.182-5.4-11.507-1.218-16.363l55.239-64.129c3.9-4.62 10.779-5.516 15.73-1.895 5.171 3.784 6.313 11.02 2.529 16.191a12.85 12.85 0 0 1-.607.767l-55.31 64.209a11.577 11.577 0 0 1-8.797 4.032zm-42.767-72.478a11.604 11.604 0 0 1-10.576-6.82c-2.643-5.837-.055-12.712 5.783-15.355l81.706-37.001c.224-.102.453-.196.683-.283 5.996-2.265 12.736.738 15.002 6.732 2.224 5.884-.601 12.426-6.374 14.81l-81.443 36.881a11.608 11.608 0 0 1-4.781 1.036zm-11.697-45.324c-2.63 0-5.273-.889-7.445-2.709-4.911-4.115-5.558-11.433-1.442-16.345l54.384-64.911c3.934-4.761 10.98-5.64 15.952-1.88 5.111 3.865 6.14 11.119 2.275 16.23-.117.154-.272.352-.397.5l-54.428 64.963a11.571 11.571 0 0 1-8.899 4.152zm145.69 144.569c-6.407 0-11.603-5.196-11.603-11.603v-84.699c0-6.407 5.196-11.603 11.603-11.603s11.603 5.196 11.603 11.603v84.699c-.001 6.407-5.196 11.603-11.603 11.603z"/></svg>