<svg xmlns="http://www.w3.org/2000/svg" width="139.764" height="200" xml:space="preserve"><path d="M139.757 14.459V185.54c0 4.013-1.408 7.43-4.215 10.24-2.811 2.807-6.227 4.219-10.24 4.219H14.459c-4.017 0-7.433-1.412-10.244-4.219C1.404 192.971 0 189.554 0 185.541V14.46c0-4.013 1.404-7.43 4.215-10.244C7.025 1.408 10.438 0 14.459 0h110.843c4.013 0 7.429 1.408 10.24 4.215 2.807 2.815 4.215 6.23 4.215 10.244zm-14.46-7.228H14.46c-2.09 0-3.82.686-5.183 2.05-1.367 1.367-2.049 3.093-2.049 5.182v171.082c0 2.085.682 3.816 2.05 5.183 1.362 1.363 3.093 2.049 5.182 2.049h110.843c2.085 0 3.815-.686 5.183-2.05 1.363-1.366 2.048-3.097 2.048-5.182V14.463c0-2.09-.685-3.815-2.048-5.183-1.372-1.367-3.098-2.049-5.187-2.049z"/><path d="M65.059 131.086a73.16 73.16 0 0 1-3.13.963 76.105 76.105 0 0 0-2.77.843c-.727.242-1.328.363-1.808.363-1.125 0-2.089-.802-2.891-2.411.802-.48 2.327-1.041 4.577-1.686a88.654 88.654 0 0 0 6.026-1.928c-.162-.803-.323-1.928-.484-3.372-.161-1.444-.323-2.569-.48-3.372-1.448.323-2.735.722-3.856 1.206-1.125.484-1.968.884-2.529 1.202-.564.327-1.004.484-1.326.484-1.287 0-2.493-.722-3.614-2.17 1.121-.964 4.013-2.246 8.675-3.855-.327-3.215-2.012-6.51-5.061-9.882-2.251.646-4.9 1.807-7.95 3.497-3.053 1.686-4.582 3.013-4.582 3.977 0 2.412 1.686 6.985 5.062 13.737 3.372 6.743 5.062 11.406 5.062 13.975 0 1.125-.484 2.133-1.444 3.012-.964.884-1.928 1.327-2.892 1.327s-1.928-.44-2.892-1.327c-.964-.879-1.968-2.25-3.012-4.097a113.566 113.566 0 0 1-2.771-5.183c-.807-1.601-1.807-3.735-3.013-6.384a785.514 785.514 0 0 1-2.77-6.143c-3.215-6.102-5.784-12.128-7.712-18.072l1.444-.722c1.12 0 2.327.282 3.613.843 1.283.564 2.771 1.363 4.457 2.407 1.686 1.045 3.093 1.807 4.219 2.287 7.711-2.892 12.047-4.577 13.01-5.057-2.572-2.57-5.343-4.578-8.316-6.026-2.972-1.448-5.219-2.412-6.743-2.892-1.529-.484-2.291-1.044-2.291-1.686 0-.64.202-1.165.601-1.564.4-.4.758-.52 1.085-.363 11.724 4.98 18.23 8.594 19.516 10.845a30.886 30.886 0 0 1 4.098-1.686c1.121-5.784 1.928-11.33 2.408-16.629-3.856.964-7.712 1.448-11.567 1.448-.964 0-1.847-.484-2.65-1.448.48-.484 2.565-1.242 6.263-2.29 3.695-1.041 6.748-2.287 9.156-3.735.802-8.353 1.206-13.814 1.206-16.387 0-4.977-.884-7.473-2.65-7.473h-.718c2.246-4.82 5.3-8.994 9.16-12.527 1.6.645 3.891 3.174 6.868 7.59 2.968 4.42 4.456 8.07 4.456 10.966 0 .161-.04.48-.12.964-.085.484-.122.807-.122.964-.484.161-1.125.242-1.928.242-2.093 0-4.02-.722-5.783-2.17-.327 1.125-.843 3.372-1.569 6.744-.722 3.375-1.323 5.868-1.807 7.473 1.283-.641 3.13-2.049 5.542-4.219 2.412-2.17 4.013-3.254 4.82-3.254.963 0 2.048 1.048 3.254 3.133 1.206 2.094 1.888 3.78 2.049 5.062-4.178 2.25-10.204 4.497-18.073 6.747-1.443 3.699-2.891 7.873-4.335 12.531 2.73-.484 6.985-2.891 12.773-7.227 5.783-4.34 9.716-7.066 11.805-8.195 3.21 2.891 4.82 4.904 4.82 6.025 0 .964-.202 1.73-.602 2.291-.403.565-1.008 1.206-1.806 1.928-.807.722-1.444 1.407-1.928 2.049 2.892 0 4.94.117 6.142.363 1.206.242 2.529.964 3.977 2.165 1.444 1.206 3.049 3.255 4.82 6.147.802 1.287 1.806 2.69 3.012 4.215 1.202 1.528 2.05 2.77 2.53 3.734.479.964.721 2.09.721 3.372 0 2.734-3.053 9.482-9.16 20.242a170.228 170.228 0 0 0-4.577 8.192 8572.424 8572.424 0 0 1-3.614 6.868 47.224 47.224 0 0 1-2.77 4.578c-1.049 1.528-2.013 2.573-2.892 3.134-.883.564-1.888.843-3.013.843-1.444 0-2.811-.279-4.098-.843-1.286-.561-2.573-1.364-3.855-2.412-1.287-1.04-3.614-2.73-6.986-5.058-3.371-2.327-7.15-4.78-11.325-7.352 1.601 0 3.134.242 4.578.726.318-1.932.48-5.465.48-10.607zm13.015-29.64c-7.712.964-13.898 2.492-18.557 4.578 2.247 3.533 3.856 6.989 4.82 10.36 3.21-.64 5.94-1.524 8.191-2.65 2.412-4.492 4.255-8.59 5.546-12.288zM65.543 97.11c-.327.646-.722 2.17-1.206 4.578 7.711-2.085 13.091-4.178 16.145-6.264.322-.964.484-1.685.484-2.17 0-.963-.646-1.443-1.928-1.443-.484 0-1.368.322-2.65.964-1.287.64-2.973 1.407-5.058 2.286-2.093.888-4.02 1.57-5.787 2.05zm20 19.275c-4.98 0-9.397.564-13.253 1.686-.161.484-.403 2.815-.722 6.989 2.247-.48 4.215-1.04 5.905-1.686 1.686-.637 2.892-1.085 3.614-1.327.721-.242 1.242-.359 1.564-.359 2.09 0 3.134 1.287 3.134 3.856 0 1.125-.484 1.686-1.444 1.686-4.017 0-8.276.564-12.773 1.686-.326 7.07-.883 11.89-1.686 14.455 5.623 2.411 8.752 3.613 9.398 3.613.484 0 1.242-.56 2.29-1.686 1.041-1.125 2.412-3.053 4.098-5.787 1.686-2.727 3.332-5.86 4.94-9.397.642-1.444 1.485-3.175 2.53-5.183 1.044-2.009 1.726-3.412 2.048-4.215.323-.802.722-1.807 1.206-3.012.484-1.206.803-2.207.964-3.013a13.47 13.47 0 0 0 .242-2.65c0-1.448-2.815-5.219-8.433-11.325-1.605-.323-3.13-.323-4.578 0-.48.641-1.206 1.65-2.17 3.013a73.812 73.812 0 0 0-2.77 4.218 36.52 36.52 0 0 0-2.287 4.336c3.372-.641 5.699-.964 6.985-.964.964 0 1.847.363 2.65 1.085.803.722 1.206 1.565 1.206 2.529-.008.972-.891 1.452-2.658 1.452z"/></svg>