<svg xmlns="http://www.w3.org/2000/svg" width="139.764" height="200" xml:space="preserve"><path d="M139.757 14.459V185.54c0 4.013-1.408 7.43-4.215 10.24-2.811 2.807-6.227 4.219-10.244 4.219H14.455c-4.017 0-7.43-1.412-10.24-4.219C1.404 192.971 0 189.554 0 185.541V14.46c0-4.013 1.404-7.43 4.215-10.244C7.025 1.408 10.438 0 14.455 0h110.843c4.017 0 7.429 1.408 10.244 4.215 2.807 2.815 4.215 6.23 4.215 10.244zm-14.46-7.228H14.456c-2.09 0-3.816.686-5.179 2.05-1.367 1.367-2.049 3.093-2.049 5.182v171.082c0 2.085.682 3.816 2.05 5.183 1.362 1.363 3.089 2.049 5.178 2.049h110.843c2.09 0 3.815-.686 5.183-2.05 1.363-1.366 2.048-3.097 2.048-5.182V14.463c0-2.09-.685-3.815-2.048-5.183-1.368-1.367-3.094-2.049-5.183-2.049z"/><path d="M52.29 143.859c-6.106 0-9.16-1.606-9.16-4.82 0-.803 1.206-1.928 3.614-3.372a1470.406 1470.406 0 0 0-8.074-21.327c-2.65-6.828-4.537-11.648-5.663-14.459-1.125-2.807-1.77-4.699-1.928-5.663.158-.157.363-.358.601-.6.242-.242.4-.4.484-.48.081-.081.279-.04.601.117 4.82 3.214 7.869 6.025 9.16 8.433 5.46-1.767 9.796-3.53 13.01-5.3-.963-8.675-1.447-13.172-1.447-13.495 0-2.565.484-3.855 1.448-3.855 1.282 0 2.246 1.686 2.891 5.057.642 3.372.964 6.348.964 8.914 5.3-5.461 9.075-9.797 11.325-13.011.484-2.086.803-3.372.964-3.856l3.614-1.206c2.73-2.085 4.416-4.013 5.062-5.784-.807-.963-3.537-1.443-8.192-1.443-5.303 0-11.047.484-17.23 1.443-6.186.964-11.365 1.932-15.543 2.892-4.178.964-6.429 1.444-6.748 1.444-3.375 0-5.142-.964-5.3-2.892 3.211-.641 10.68-2.286 22.409-4.94a4224.754 4224.754 0 0 1 29.757-6.627c8.11-1.766 12.97-2.654 14.58-2.654 1.282 0 2.327.202 3.133.605.803.404 1.807 1.045 3.013 1.928 1.206.888 2.206 1.565 3.013 2.05 6.905 3.855 10.36 7.392 10.36 10.602 0 2.093-1.124 3.134-3.37 3.134-2.409 0-6.349-.363-11.81-1.085-5.46-.722-9.316-1.085-11.563-1.085-.645 0-1.928.161-3.856.484-1.286.807-2.012 1.686-2.17 2.65 2.892 1.61 4.34 3.214 4.34 4.82 0 1.125-.363 1.891-1.085 2.29-.722.404-1.847.722-3.371.964-1.529.242-2.69.525-3.493.843-.807 1.605-1.367 3.614-1.686 6.022 2.57-.48 4.735-1.202 6.506-2.17 1.766-.964 3.371-1.444 4.82-1.444 2.564 0 6.662 2.206 12.288 6.626 5.622 4.42 8.433 8.07 8.433 10.967 0 1.286-.564 2.569-1.685 3.855-1.126 1.287-2.614 2.69-4.457 4.215-1.847 1.529-4.336 4.662-7.47 9.397-3.133 4.743-6.227 10.567-9.276 17.472-1.125 2.892-4.097 4.34-8.913 4.34-1.287 0-3.134-.158-5.541-.484-2.412-.323-4.34-.48-5.784-.48-1.605 0-3.614.16-6.026.48-2.42.326-4.267.488-5.55.488zm-8.917-38.8c4.82 11.088 8.272 21.05 10.36 29.882h4.098c-.161-1.605-.564-4.577-1.206-8.917-.645-4.336-.963-8.107-.963-11.325 0-.48-.04-1.484-.121-3.013a426.565 426.565 0 0 0-.363-5.783c-.162-2.328-.242-4.22-.242-5.663-2.888.807-6.744 2.412-11.563 4.82zm16.144-6.505c.158 1.448.48 6.308.964 14.58.484 8.276.883 15.624 1.206 22.05.319 0 .964.04 1.928.12.964.085 1.601.121 1.928.121.318-4.977.681-9.958 1.085-14.939.399-4.977.802-9.796 1.206-14.458.399-4.659.681-7.954.843-9.878-.807.162-2.287.525-4.457 1.085-2.174.56-3.739 1-4.703 1.32zM69.64 86.991c-.963-.323-2.254-.08-3.855.722-.964 1.605-1.605 3.456-1.928 5.542.964-.158 2.008-.4 3.134-.722a78.518 78.518 0 0 0 2.407-.722c0-.323.037-.968.121-1.932.081-.964.121-1.686.121-2.17zm4.336 7.95c-2.573 20.722-4.098 34.378-4.578 40.964 1.444.166 2.73.085 3.856-.242 2.247-3.049 5.542-8.873 9.881-17.471 4.336-8.591 6.506-13.774 6.506-15.544 0-2.085-1.166-4.013-3.493-5.784-2.331-1.766-4.3-2.65-5.904-2.65-1.775.004-3.86.242-6.268.726z"/></svg>