<?xml version="1.0" encoding="iso-8859-1"?>
<!-- Generator: Adobe Illustrator 19.0.0, SVG Export Plug-In . SVG Version: 6.00 Build 0)  -->
<svg version="1.1" id="Layer_1" xmlns="http://www.w3.org/2000/svg" xmlns:xlink="http://www.w3.org/1999/xlink" x="0px" y="0px"
	 viewBox="0 0 490.975 490.975" style="enable-background:new 0 0 490.975 490.975;" xml:space="preserve">
<g id="XMLID_896_">
	<g id="XMLID_825_">
		<polygon style="fill:#F9B233;" points="307.665,483.475 121.518,483.475 121.518,64.644 121.518,18.107 175.809,64.644 
			261.128,64.644 307.665,18.107 307.665,64.644 		"/>
	</g>
	<g id="XMLID_846_">
		<circle style="fill:#FAD399;" cx="214.591" cy="289.572" r="46.537"/>
	</g>
	<g id="XMLID_942_">
		<polygon style="fill:#FAD399;" points="168.054,64.644 214.591,118.937 261.128,64.644 		"/>
	</g>
	<g id="XMLID_943_">
		<path style="fill:#FAD399;" d="M261.128,72.4h31.025V41.376C292.152,41.376,261.128,73.241,261.128,72.4z"/>
	</g>
	<g id="XMLID_946_">
		<path style="fill:#FAD399;" d="M137.03,41.376c0,0,31.025,31.865,31.025,31.025H137.03"/>
	</g>
	<g id="XMLID_944_">
		<path style="fill:#FAD399;" d="M237.86,142.205c-7.379,0-14.065,2.683-19.39,6.985c-5.325-4.302-12.012-6.985-19.39-6.985
			c-17.135,0-31.025,13.89-31.025,31.025c0,17.134,13.89,31.024,31.025,31.024c7.379,0,14.065-2.683,19.39-6.985
			c5.325,4.302,12.012,6.985,19.39,6.985c17.135,0,31.024-13.89,31.024-31.024C268.884,156.095,254.994,142.205,237.86,142.205z"/>
	</g>
	<g>
		<polygon style="fill:#1D1D1B;" points="168.311,320.34 160.298,320.34 160.298,305.34 183.311,305.34 183.311,475.975 
			199.079,475.975 199.079,490.975 168.311,490.975 		"/>
		<polygon style="fill:#1D1D1B;" points="260.872,320.34 268.884,320.34 268.884,305.34 245.872,305.34 245.872,475.975 
			230.104,475.975 230.104,490.975 260.872,490.975 		"/>
	</g>
	<g id="XMLID_21_">
		<rect x="168.054" y="111.437" style="fill:#1D1D1B;" width="15.513" height="15"/>
	</g>
	<g id="XMLID_22_">
		<rect x="245.616" y="111.437" style="fill:#1D1D1B;" width="15.513" height="15"/>
	</g>
	<g>
		<polygon style="fill:#1D1D1B;" points="199.079,157.462 207.091,157.462 207.091,180.986 222.091,180.986 222.091,157.462 
			230.104,157.462 230.104,142.462 199.079,142.462 		"/>
		<polygon style="fill:#1D1D1B;" points="385.226,165.218 385.226,150.218 315.164,150.218 315.164,0 258.022,57.144 171.16,57.144 
			114.018,0 114.018,150.218 43.956,150.218 43.956,165.218 114.018,165.218 114.018,173.486 90.493,173.486 90.493,188.486 
			114.018,188.486 114.018,490.975 160.298,490.975 160.298,475.975 129.018,475.975 129.018,188.486 183.567,188.486 
			183.567,173.486 129.018,173.486 129.018,165.218 183.567,165.218 183.567,150.218 129.018,150.218 129.018,36.214 
			164.947,72.144 264.235,72.144 300.164,36.214 300.164,150.218 245.615,150.218 245.615,165.218 300.164,165.218 300.164,173.486 
			245.615,173.486 245.615,188.486 300.164,188.486 300.164,475.975 268.884,475.975 268.884,490.975 315.164,490.975 
			315.164,188.486 338.69,188.486 338.69,173.486 315.164,173.486 315.164,165.218 		"/>
	</g>
	<g id="XMLID_50_">
		<path style="fill:#1D1D1B;" d="M338.69,490.975h-15.513v-15h15.513c8.694,0,15.769-7.074,15.769-15.768V312.84
			c0-25.52,20.762-46.281,46.28-46.281c25.519,0,46.28,20.761,46.28,46.281h-15c0-17.248-14.032-31.281-31.28-31.281
			s-31.28,14.033-31.28,31.281v147.367C369.458,477.172,355.655,490.975,338.69,490.975z"/>
	</g>
</g>
<g>
</g>
<g>
</g>
<g>
</g>
<g>
</g>
<g>
</g>
<g>
</g>
<g>
</g>
<g>
</g>
<g>
</g>
<g>
</g>
<g>
</g>
<g>
</g>
<g>
</g>
<g>
</g>
<g>
</g>
</svg>
