<?xml version="1.0" encoding="UTF-8" standalone="no"?>
<!-- Generator: Adobe Illustrator 16.0.0, SVG Export Plug-In . SVG Version: 6.00 Build 0)  -->

<svg
   xmlns:dc="http://purl.org/dc/elements/1.1/"
   xmlns:cc="http://creativecommons.org/ns#"
   xmlns:rdf="http://www.w3.org/1999/02/22-rdf-syntax-ns#"
   xmlns:svg="http://www.w3.org/2000/svg"
   xmlns="http://www.w3.org/2000/svg"
   xmlns:sodipodi="http://sodipodi.sourceforge.net/DTD/sodipodi-0.dtd"
   xmlns:inkscape="http://www.inkscape.org/namespaces/inkscape"
   version="1.1"
   id="图层_1"
   x="0px"
   y="0px"
   width="139.76401"
   height="200"
   viewBox="0 0 139.764 200"
   enable-background="new 0 0 714 341"
   xml:space="preserve"
   sodipodi:docname="0405中.svg"
   inkscape:version="0.92.3 (2405546, 2018-03-11)"><metadata
   id="metadata621"><rdf:RDF><cc:Work
       rdf:about=""><dc:format>image/svg+xml</dc:format><dc:type
         rdf:resource="http://purl.org/dc/dcmitype/StillImage" /><dc:title /></cc:Work></rdf:RDF></metadata><defs
   id="defs619" /><sodipodi:namedview
   pagecolor="#ffffff"
   bordercolor="#666666"
   borderopacity="1"
   objecttolerance="10"
   gridtolerance="10"
   guidetolerance="10"
   inkscape:pageopacity="0"
   inkscape:pageshadow="2"
   inkscape:window-width="1366"
   inkscape:window-height="705"
   id="namedview617"
   showgrid="false"
   inkscape:zoom="1"
   inkscape:cx="-23.49666"
   inkscape:cy="152.60966"
   inkscape:window-x="-8"
   inkscape:window-y="-8"
   inkscape:window-maximized="1"
   inkscape:current-layer="图层_1" />



















































































































































































































































































































<g
   transform="matrix(4.0331525,0,0,4.0331525,-992.04259,-900.64328)"
   id="g1958"><path
     inkscape:connector-curvature="0"
     id="path198"
     d="m 280.625,226.895 v 42.419 c 0,0.995 -0.349,1.842 -1.045,2.539 -0.697,0.696 -1.544,1.046 -2.54,1.046 h -27.483 c -0.996,0 -1.843,-0.35 -2.54,-1.046 -0.697,-0.697 -1.045,-1.544 -1.045,-2.539 v -42.419 c 0,-0.995 0.348,-1.842 1.045,-2.54 0.697,-0.696 1.543,-1.045 2.54,-1.045 h 27.483 c 0.995,0 1.842,0.349 2.54,1.045 0.696,0.698 1.045,1.545 1.045,2.54 z m -3.584,-1.792 h -27.483 c -0.519,0 -0.947,0.17 -1.285,0.508 -0.339,0.339 -0.508,0.767 -0.508,1.285 v 42.419 c 0,0.517 0.169,0.946 0.508,1.285 0.338,0.338 0.766,0.508 1.285,0.508 h 27.483 c 0.518,0 0.946,-0.17 1.284,-0.508 0.338,-0.339 0.508,-0.768 0.508,-1.285 v -42.419 c 0,-0.518 -0.17,-0.946 -0.508,-1.285 -0.339,-0.339 -0.767,-0.508 -1.284,-0.508 z" /><path
     style="fill:#870000"
     inkscape:connector-curvature="0"
     id="path200"
     d="m 262.343,233.766 c 0.796,0.319 1.573,0.977 2.33,1.972 0.756,0.996 1.135,1.773 1.135,2.33 0,0.239 -0.07,0.448 -0.209,0.627 -0.14,0.179 -0.298,0.349 -0.478,0.508 -0.179,0.16 -0.369,0.518 -0.568,1.075 -0.2,0.558 -0.339,1.275 -0.418,2.151 0.518,-0.158 1.195,-0.408 2.032,-0.747 0.836,-0.338 1.533,-0.606 2.091,-0.807 0.557,-0.199 0.976,-0.299 1.254,-0.299 0.318,0 0.757,0.359 1.315,1.075 0.12,0.16 0.378,0.439 0.776,0.837 0.398,0.398 0.667,0.687 0.807,0.866 0.139,0.179 0.288,0.418 0.448,0.717 0.159,0.299 0.239,0.567 0.239,0.807 0,0.358 -0.16,0.537 -0.479,0.537 -0.757,0 -1.314,0.14 -1.672,0.418 -0.279,0.439 -0.648,0.956 -1.105,1.554 -0.458,0.598 -0.827,1.076 -1.105,1.434 -0.28,0.359 -0.419,0.619 -0.419,0.777 0,0.717 -0.279,1.076 -0.836,1.076 -0.2,0 -0.608,-0.06 -1.225,-0.179 -0.618,-0.12 -1.404,-0.199 -2.36,-0.239 0,0.358 -0.021,1.205 -0.06,2.539 -0.04,1.335 -0.06,2.082 -0.06,2.24 0,0.279 0.039,1.036 0.12,2.271 0.08,1.235 0.12,2.071 0.12,2.509 0,1.036 -0.14,2.071 -0.418,3.107 -0.28,1.036 -0.578,1.713 -0.896,2.031 -0.478,-0.398 -0.717,-1.932 -0.717,-4.6 0,-0.278 0.02,-0.876 0.06,-1.792 0.04,-0.916 0.06,-1.753 0.06,-2.51 0,-0.438 -0.02,-1.344 -0.06,-2.718 -0.04,-1.374 -0.06,-2.379 -0.06,-3.017 -0.319,0 -0.856,0.13 -1.613,0.388 -0.757,0.26 -1.375,0.389 -1.852,0.389 -0.319,0 -0.479,-0.299 -0.479,-0.896 0,-0.358 -0.757,-1.195 -2.27,-2.509 -1.514,-1.314 -2.27,-2.31 -2.27,-2.987 0,-0.995 0.158,-1.673 0.478,-2.032 0.318,0.2 0.707,0.499 1.165,0.896 0.458,0.399 0.856,0.717 1.195,0.956 0.339,0.239 0.627,0.359 0.867,0.359 0.24,0 1.055,-0.259 2.45,-0.777 1.394,-0.518 2.17,-0.856 2.33,-1.016 0,-0.12 0,-0.419 0,-0.896 0,-0.477 -0.01,-0.826 -0.029,-1.046 -0.021,-0.218 -0.051,-0.538 -0.09,-0.956 -0.04,-0.418 -0.1,-0.737 -0.179,-0.956 -0.081,-0.219 -0.17,-0.458 -0.269,-0.717 -0.1,-0.259 -0.249,-0.458 -0.448,-0.598 -0.2,-0.139 -0.418,-0.209 -0.657,-0.209 0,-0.079 -0.041,-0.229 -0.12,-0.448 -0.079,-0.219 -0.119,-0.389 -0.119,-0.508 -0.002,-0.916 0.754,-1.912 2.268,-2.987 z m -4.421,12.008 c 0.875,1.235 1.593,2.43 2.151,3.585 0.637,-0.08 1.274,-0.199 1.912,-0.358 v -4.481 c -0.358,0.119 -0.806,0.309 -1.344,0.567 -0.538,0.26 -0.996,0.458 -1.374,0.598 -0.379,0.14 -0.667,0.209 -0.866,0.209 -0.161,0.001 -0.32,-0.039 -0.479,-0.12 z m 6.213,-1.971 c -0.159,1.912 -0.239,3.584 -0.239,5.018 0.159,0 0.438,0.011 0.836,0.03 0.398,0.021 0.756,0.03 1.076,0.03 0.119,-0.159 0.358,-0.487 0.717,-0.986 0.358,-0.498 0.637,-0.896 0.836,-1.195 0.199,-0.298 0.428,-0.657 0.687,-1.075 0.258,-0.418 0.448,-0.797 0.568,-1.135 0.12,-0.338 0.179,-0.627 0.179,-0.867 0,-0.478 -0.319,-0.716 -0.956,-0.716 -0.876,0 -2.111,0.299 -3.704,0.896 z" /></g></svg>