<?xml version="1.0" encoding="iso-8859-1"?>
<!-- Generator: Adobe Illustrator 19.0.0, SVG Export Plug-In . SVG Version: 6.00 Build 0)  -->
<svg version="1.1" id="Layer_1" xmlns="http://www.w3.org/2000/svg" xmlns:xlink="http://www.w3.org/1999/xlink" x="0px" y="0px"
	 viewBox="0 0 511.992 511.992" style="enable-background:new 0 0 511.992 511.992;" xml:space="preserve">
<path style="fill:#CCC2B8;" d="M228.05,352.91v19.844c0,8.304-6.723,15.037-15.027,15.037h-24.955h-37.264
	c0-19.27,15.611-34.882,34.871-34.882h2.393l-88.666-4.742c-19.054-0.931-36.333-8.769-49.302-21.133s-21.63-29.231-23.471-48.22
	c-0.282-2.858,0.454-5.597,1.927-7.849c1.7-2.63,4.417-4.591,7.687-5.283l101.961-21.695l27.877-5.933
	c4.699-0.996,9.376-2.1,14.02-3.28c96.082-24.402,180.31-83.069,240.351,0.542c31.916,44.463,21.143,93.376,4.385,126.666
	c-8.704,17.278-26.383,28.202-45.73,28.202H262.629c0-19.27,15.611-34.882,34.871-34.882h27.466v-0.152
	c-4.546-0.119-8.943-0.898-13.078-2.252v0.011L228.05,352.91L228.05,352.91z"/>
<path style="fill:#B3B3B3;" d="M179.473,232.295l0.628,2.479c-4.644,1.18-9.321,2.284-14.02,3.28l-27.877,5.933l-0.01-0.076v-61.482
	C138.193,182.43,173.974,188.34,179.473,232.295z"/>
<path d="M382.589,213.282c1.689,1.009,3.547,1.489,5.383,1.489c3.58,0,7.069-1.829,9.039-5.126
	c2.978-4.986,1.35-11.443-3.637-14.422c-1.819-1.087-3.692-2.123-5.565-3.079c-5.173-2.644-11.508-0.592-14.151,4.58
	c-2.643,5.172-0.592,11.508,4.58,14.151C379.7,211.622,381.164,212.432,382.589,213.282z"/>
<path d="M108.795,282.409v11.454c0,5.809,4.708,10.517,10.517,10.517s10.517-4.708,10.517-10.517v-11.454
	c0-5.809-4.708-10.517-10.517-10.517S108.795,276.601,108.795,282.409z"/>
<path d="M386.524,111.287c-15.051,0-30.236,0.911-45.138,2.706c-14.91,1.798-29.872,4.514-44.471,8.072
	c-5.643,1.376-9.103,7.065-7.728,12.708c1.376,5.643,7.065,9.102,12.708,7.728c13.791-3.361,27.925-5.926,42.008-7.625
	c14.067-1.695,28.407-2.556,42.62-2.556c27.894,0,54.12,10.864,73.845,30.586c19.727,19.737,30.591,45.968,30.591,73.86
	c0,25.265-17.032,45.625-40.083,49.683c-2.049-20.62-9.36-39.827-21.88-57.269c-3.161-4.402-6.472-8.546-9.84-12.316
	c-3.87-4.332-10.517-4.708-14.85-0.838c-4.332,3.869-4.707,10.517-0.838,14.85c2.873,3.217,5.714,6.775,8.441,10.573
	c31.622,44.054,15.788,91.465,3.536,115.802c-6.966,13.827-20.889,22.417-36.337,22.417H275.532
	c3.931-8.185,12.3-13.848,21.967-13.848h27.781c0.75,0,1.481-0.082,2.185-0.23c5.189-0.646,9.208-5.063,9.208-10.427
	c0-5.809-4.708-10.517-10.517-10.517c-0.307,0-0.603,0.001-0.916-0.007c-3.451-0.09-6.842-0.674-10.116-1.745
	c-5.271-1.705-10.153-4.702-14.118-8.668c-6.719-6.719-10.42-15.654-10.42-25.161c0-32.114,26.126-58.24,58.24-58.24
	c5.809,0,10.517-4.708,10.517-10.517c0-5.809-4.708-10.517-10.517-10.517c-43.712,0-79.274,35.562-79.274,79.274
	c0,12.148,3.806,23.707,10.843,33.328h-41.829v-11.135v-8.369c0-5.809-4.708-10.517-10.517-10.517
	c-5.809,0-10.517,4.708-10.517,10.517v8.369v41.497c0,2.493-2.023,4.52-4.51,4.52h-24.955h-24.357
	c3.931-8.185,12.3-13.848,21.967-13.848h2.383c0.006,0,0.013,0,0.019,0c0.357,0,0.709-0.019,1.058-0.055
	c0.053-0.005,0.103-0.017,0.156-0.023c0.291-0.034,0.582-0.075,0.866-0.133c0.114-0.023,0.222-0.056,0.334-0.083
	c0.219-0.052,0.438-0.102,0.65-0.167c0.14-0.043,0.273-0.096,0.41-0.144c0.179-0.063,0.36-0.123,0.534-0.196
	c0.148-0.061,0.29-0.133,0.435-0.201c0.157-0.074,0.316-0.144,0.468-0.225c0.146-0.077,0.285-0.164,0.427-0.247
	c0.145-0.086,0.29-0.169,0.43-0.262c0.137-0.09,0.267-0.187,0.399-0.284c0.137-0.099,0.273-0.198,0.406-0.303
	c0.125-0.1,0.243-0.207,0.363-0.312c0.129-0.114,0.259-0.227,0.383-0.347c0.111-0.109,0.218-0.223,0.325-0.337
	c0.121-0.128,0.242-0.257,0.357-0.391c0.099-0.117,0.192-0.237,0.286-0.358c0.11-0.142,0.22-0.284,0.323-0.432
	c0.087-0.125,0.169-0.252,0.251-0.382c0.097-0.152,0.191-0.305,0.281-0.463c0.077-0.135,0.147-0.272,0.218-0.41
	c0.081-0.159,0.16-0.32,0.232-0.483c0.065-0.146,0.125-0.293,0.184-0.443c0.064-0.163,0.125-0.327,0.181-0.494
	c0.053-0.158,0.101-0.318,0.146-0.479c0.046-0.166,0.09-0.332,0.129-0.502c0.039-0.168,0.073-0.337,0.103-0.508
	c0.031-0.17,0.057-0.342,0.079-0.514c0.022-0.172,0.04-0.345,0.054-0.521c0.006-0.087,0.022-0.171,0.026-0.259
	c0.005-0.096-0.002-0.188,0.001-0.284c0.002-0.094,0.014-0.184,0.014-0.278c0-0.083-0.011-0.164-0.013-0.247
	c-0.004-0.19-0.014-0.379-0.028-0.567c-0.013-0.165-0.028-0.329-0.048-0.492c-0.023-0.186-0.052-0.37-0.084-0.553
	c-0.029-0.163-0.061-0.324-0.097-0.484c-0.04-0.176-0.085-0.348-0.134-0.521c-0.046-0.163-0.095-0.324-0.148-0.484
	c-0.055-0.162-0.114-0.322-0.176-0.481c-0.063-0.162-0.129-0.322-0.2-0.48c-0.067-0.15-0.14-0.298-0.214-0.444
	c-0.08-0.157-0.162-0.312-0.249-0.464c-0.081-0.141-0.165-0.279-0.252-0.415c-0.094-0.147-0.189-0.293-0.29-0.435
	c-0.095-0.134-0.194-0.264-0.293-0.393c-0.105-0.136-0.212-0.268-0.325-0.399c-0.109-0.126-0.222-0.249-0.337-0.371
	c-0.116-0.121-0.232-0.241-0.353-0.357c-0.124-0.119-0.25-0.232-0.38-0.345c-0.123-0.107-0.248-0.212-0.376-0.314
	c-0.137-0.108-0.278-0.212-0.42-0.314c-0.131-0.094-0.265-0.186-0.401-0.273c-0.147-0.096-0.298-0.186-0.45-0.273
	c-0.142-0.082-0.285-0.162-0.431-0.237c-0.155-0.08-0.311-0.154-0.469-0.226c-0.155-0.07-0.309-0.138-0.467-0.2
	c-0.158-0.063-0.319-0.121-0.481-0.176c-0.167-0.057-0.334-0.11-0.505-0.159c-0.161-0.046-0.323-0.087-0.487-0.125
	c-0.178-0.042-0.358-0.079-0.538-0.111c-0.165-0.029-0.331-0.055-0.499-0.076c-0.184-0.024-0.368-0.043-0.554-0.058
	c-0.084-0.006-0.166-0.022-0.25-0.026l-88.715-4.744c-15.922-0.778-31.036-7.256-42.559-18.241
	c-11.529-10.99-18.723-25.771-20.262-41.638c-0.038-0.381,0.05-0.738,0.296-1.112c0.135-0.208,0.448-0.577,1.041-0.703
	l129.823-27.626c0.002,0,0.005-0.001,0.007-0.001c4.646-0.985,9.366-2.09,14.427-3.375c21.787-5.533,42.758-12.72,63.039-19.671
	c38.814-13.302,75.474-25.865,106.486-22.187c5.763,0.687,10.999-3.436,11.682-9.204c0.685-5.767-3.437-10.999-9.204-11.682
	c-35.773-4.248-74.637,9.075-115.783,23.176c-16.483,5.649-33.438,11.442-50.692,16.296c-8.108-34.011-34.455-47.354-48.31-49.642
	c-3.049-0.505-6.163,0.359-8.518,2.357c-2.356,1.998-3.714,4.93-3.714,8.019v53.045l-93.612,19.92
	c-2.053,0.435-3.993,1.154-5.802,2.093l-11.353-8.704c-4.609-3.535-11.211-2.662-14.745,1.948
	c-3.534,4.61-2.662,11.211,1.948,14.745l12.143,9.31c-0.212,1.668-0.258,3.359-0.093,5.044
	c2.023,20.876,11.499,40.344,26.683,54.818c15.177,14.468,35.081,23.001,55.998,24.022l49.981,2.673
	c-5.362,7.454-8.533,16.585-8.533,26.449c0,5.809,4.708,10.517,10.517,10.517h37.264h24.955c14.085,0,25.544-11.464,25.544-25.554
	v-9.327h22.297c-5.497,7.509-8.752,16.759-8.752,26.757c0,5.809,4.708,10.517,10.517,10.517h116.47
	c23.44,0,44.561-13.023,55.124-33.99c6.892-13.691,15.203-34.746,16.93-59.036c34.74-4.306,60.831-33.892,60.831-70.908
	c0-33.508-13.05-65.019-36.749-88.73C451.544,124.337,420.036,111.287,386.524,111.287z M148.71,198.096
	c7.205,4.681,15.552,13.288,19.139,28.805c-1.326,0.299-2.644,0.59-3.949,0.867c-0.003,0-0.005,0.001-0.008,0.002L148.709,231
	v-32.904H148.71z"/>
<g>
</g>
<g>
</g>
<g>
</g>
<g>
</g>
<g>
</g>
<g>
</g>
<g>
</g>
<g>
</g>
<g>
</g>
<g>
</g>
<g>
</g>
<g>
</g>
<g>
</g>
<g>
</g>
<g>
</g>
</svg>
