<svg width="167" height="167" viewBox="0 0 167 167" fill="none" xmlns="http://www.w3.org/2000/svg">
<g clip-path="url(#clip0_3_35)">
<path d="M-12 255V170.5L218 86V170.5L-12 255Z" fill="#CAC3BB"/>
<path d="M-12 171V105L169 39V105L-12 171Z" fill="#CAC3BB"/>
<path d="M27 121V80.5L138 40V80.5L27 121Z" fill="#CAC3BB"/>
<path d="M-12 121V55L169 -11V55L-12 121Z" fill="#CAC3BB"/>
<path d="M-12 66V0L169 -66V0L-12 66Z" fill="#CAC3BB"/>
<g style="mix-blend-mode:multiply">
<path d="M38.3841 160.478C34.732 160.478 31.6418 159.214 29.1135 156.686C26.5851 154.157 25.3209 151.067 25.3209 147.415V22.0502C25.3209 18.3981 26.5851 15.3079 29.1135 12.7795C31.6418 10.2511 34.732 8.98694 38.3841 8.98694H126.666C130.318 8.98694 133.408 10.2511 135.937 12.7795C138.465 15.3079 139.729 18.3981 139.729 22.0502V147.415C139.729 151.067 138.465 154.157 135.937 156.686C133.408 159.214 130.318 160.478 126.666 160.478H38.3841ZM38.5948 157.318H126.666C129.475 157.318 131.793 156.405 133.619 154.579C135.586 152.612 136.569 150.224 136.569 147.415V22.4716C136.569 19.6623 135.586 17.2744 133.619 15.3078C131.793 13.2009 129.475 12.1474 126.666 12.1474H38.5948C35.7855 12.1474 33.3976 13.1306 31.4311 15.0972C29.4646 17.0637 28.4814 19.4516 28.4814 22.2608V147.415C28.4814 150.224 29.4646 152.612 31.4311 154.579C33.3976 156.405 35.7855 157.318 38.5948 157.318ZM92.1119 140.673L91.4798 140.462C86.1421 133.439 81.6473 123.817 77.9952 111.596C76.1691 105.556 74.5538 100.5 73.1491 96.4262C71.885 92.2123 70.8315 88.9816 69.9887 86.7342H67.4603C68.3031 87.5769 68.7245 88.3495 68.7245 89.0518C72.2361 106.75 76.4501 121.008 81.3663 131.823L81.577 132.455L81.1556 132.666L80.7342 132.245C77.7845 128.171 75.0454 122.693 72.5171 115.81C70.1292 108.787 67.8817 100.359 65.7747 90.5267C65.7747 89.9648 65.6343 89.5434 65.3534 89.2625C65.0724 88.8411 64.7915 88.4197 64.5106 87.9983C61.2799 95.162 55.7315 99.9378 47.8655 102.326C47.4441 102.326 47.2334 102.185 47.2334 101.904L47.6548 101.272C52.9925 98.0416 57.1362 93.4062 60.0859 87.3662C54.8887 87.5067 51.5176 87.8579 49.9725 88.4197C49.4106 88.7007 48.8488 88.9114 48.2869 89.0518C47.725 89.0518 47.2334 89.0518 46.812 89.0518C44.705 89.0518 43.6516 88.0686 43.6516 86.1021C43.6516 84.4165 44.2836 82.8011 45.5478 81.256C46.812 79.7109 48.4274 78.9384 50.3939 78.9384C53.9055 78.9384 55.9422 80.7644 56.5041 84.4165L61.5608 83.9951C61.9822 82.0286 62.1929 79.9918 62.1929 77.8849C62.1929 74.6542 61.7715 71.4937 60.9287 68.4035C59.9455 65.4538 59.4538 62.9254 59.4538 60.8184C59.4538 54.9189 62.825 51.9691 69.5673 51.9691L73.5705 52.1798C73.0087 50.6347 71.7445 49.6515 69.778 49.2301C67.8115 48.6682 65.9854 48.3171 64.2999 48.1766L63.0357 47.7552C63.0357 47.4743 64.2296 47.1933 66.6175 46.9124C67.7413 46.7719 69.0054 46.7017 70.4101 46.7017C71.8147 46.7017 73.2194 46.7017 74.624 46.7017L75.2561 45.2268C73.4301 44.665 71.885 43.5413 70.6208 41.8557C69.4971 40.1701 68.9352 38.625 68.9352 37.2203C68.9352 33.1469 71.3231 31.1101 76.0989 31.1101C78.0654 31.1101 80.8045 32.0934 84.3161 34.0599C87.4063 36.1669 90.9179 37.2203 94.8509 37.2203C99.3458 37.2203 103.77 35.5348 108.125 32.1636L108.757 31.7422L108.968 31.9529L108.757 32.3743C105.245 37.9929 100.47 40.8022 94.4295 40.8022C90.0751 40.8022 85.2993 39.2571 80.1021 36.1669C78.838 35.3241 77.5738 34.9027 76.3096 34.9027C74.0622 34.9027 72.9384 35.8859 72.9384 37.8524C72.9384 39.8189 74.3431 41.645 77.1524 43.3306C78.838 41.5045 81.2961 40.5915 84.5268 40.5915C90.8477 40.5915 94.8509 44.665 96.5365 52.8119C97.8007 52.2501 99.2053 51.9691 100.75 51.9691C104.262 51.9691 106.018 54.0761 106.018 58.29C106.018 65.4537 103.419 71.1426 98.2221 75.3565C99.9077 75.497 101.102 77.1826 101.804 80.4132C104.894 79.7109 107.352 79.3598 109.178 79.3598C109.881 74.303 111.988 71.7747 115.499 71.7747C117.325 71.7747 118.73 72.5472 119.713 74.0923C120.837 75.6374 121.399 77.323 121.399 79.1491C121.399 81.3965 120.345 82.5202 118.238 82.5202L114.024 82.3095C109.951 82.3095 105.877 82.8011 101.804 83.7844C101.383 87.296 100.329 89.8946 98.6435 91.5802C99.0649 89.0518 99.2756 86.5937 99.2756 84.2058L92.9547 85.8914C94.4998 86.5937 96.0449 87.8579 97.59 89.6839L91.6905 87.9983C91.1286 91.6504 90.637 95.3727 90.2156 99.1653C89.7942 102.958 89.5835 106.821 89.5835 110.754C89.5835 114.687 89.8644 118.549 90.4263 122.342C91.1286 125.994 91.9714 129.646 92.9547 133.298V134.141L92.3226 133.509C90.2156 130.278 88.6705 126.837 87.6872 123.185C86.8445 119.533 86.4231 114.687 86.4231 108.647C86.4231 101.342 87.0552 94.249 88.3193 87.3662L87.0552 87.5769C85.0886 94.6002 84.1054 101.904 84.1054 109.489C84.1054 116.653 86.7742 126.837 92.1119 140.041V140.673ZM80.1021 65.6644C85.8612 65.6644 90.1454 64.0491 92.9547 60.8184V58.7114C92.9547 55.0594 92.3226 51.618 91.0584 48.3873C89.7942 45.1566 87.4063 43.5413 83.8947 43.5413C79.8212 43.5413 77.3631 45.6482 76.5203 49.8622C77.3631 52.8119 77.7845 55.4808 77.7845 57.8687C77.7845 60.397 77.3631 62.9254 76.5203 65.4538L80.1021 65.6644ZM83.0519 55.551C80.664 55.551 79.4701 54.357 79.4701 51.9691C79.4701 49.4408 80.664 48.1766 83.0519 48.1766C85.4398 48.1766 86.6338 49.3705 86.6338 51.7584C86.6338 54.2868 85.4398 55.551 83.0519 55.551ZM83.0519 53.0226C83.8947 53.0226 84.3161 52.6012 84.3161 51.7584C84.3161 50.7752 83.8947 50.2836 83.0519 50.2836C82.2091 50.2836 81.7877 50.7752 81.7877 51.7584C81.7877 52.6012 82.2091 53.0226 83.0519 53.0226ZM74.2026 59.5542L73.9919 55.1296C73.2896 54.5677 72.1659 54.2868 70.6208 54.2868C72.0254 56.8152 73.2194 58.571 74.2026 59.5542ZM73.3598 64.611L73.5705 63.3468C70.7612 61.2398 69.0757 58.3603 68.5138 54.7082L66.1961 55.9724C67.3199 60.1863 69.7078 63.0658 73.3598 64.611ZM94.6402 74.303C96.8877 72.6175 98.6435 70.37 99.9077 67.5607C101.172 64.7514 101.804 62.2231 101.804 59.9756C101.804 57.0259 100.68 55.551 98.4328 55.551L96.9579 55.7617L97.1686 59.3435C97.1686 63.1361 96.3258 68.1226 94.6402 74.303ZM66.6175 79.9918C68.865 76.3398 70.8315 72.2663 72.5171 67.7714C68.7245 66.2263 65.9152 63.2063 64.0892 58.7114C63.8082 59.1328 63.6678 59.9054 63.6678 61.0291C63.6678 62.7147 64.1594 65.1026 65.1427 68.1928C66.1259 71.283 66.6175 74.584 66.6175 78.0956V79.9918ZM77.7845 86.1021C78.9082 86.1021 80.5235 85.8914 82.6305 85.47C83.4733 85.189 84.3863 85.0486 85.3696 85.0486C86.4933 84.9081 87.617 84.8379 88.7407 84.8379L92.5333 65.0324L91.2691 65.8751L88.3193 78.3063L88.1086 67.1393H87.4765L85.1589 79.1491V67.5607L84.5268 67.7714L82.4198 77.6742V68.1928H81.9984L79.0487 78.3063L79.8914 68.4035H79.0487L76.5203 78.0956L76.731 68.1928H76.0989C73.8515 74.6542 71.0422 80.0621 67.671 84.4165L69.3566 84.2058C69.9185 84.2058 70.5505 84.276 71.2529 84.4165C71.9552 84.5569 72.5873 84.7676 73.1491 85.0486C74.4133 85.7509 75.9584 86.1021 77.7845 86.1021ZM112.76 79.1491L115.499 78.9384L117.817 79.1491C117.817 76.6207 116.904 75.3565 115.078 75.3565C113.533 75.3565 112.76 76.6207 112.76 79.1491ZM92.5333 82.9416L99.2756 80.8346C98.8542 78.8681 98.0114 77.8849 96.7472 77.8849C95.764 77.8849 94.6402 78.4467 93.3761 79.5705L92.5333 82.9416ZM47.2334 85.8914C49.0594 85.189 50.9557 84.8379 52.9222 84.8379C52.5008 83.1523 51.5878 82.3095 50.1832 82.3095C48.6381 82.3095 47.6548 83.5035 47.2334 85.8914ZM82.4198 93.4765L84.1054 87.7876C82.8412 87.9281 81.7877 88.1388 80.9449 88.4197C80.1021 88.5602 79.4701 88.6304 79.0487 88.6304L82.4198 93.4765ZM81.7877 98.1118L81.9984 96.2155C80.5938 94.6704 79.3296 93.2658 78.2059 92.0016C77.2226 90.5969 76.3798 89.403 75.6775 88.4197L73.7812 87.7876C74.0622 87.9281 74.2729 88.3495 74.4133 89.0518C74.6943 89.7541 75.1157 90.6672 75.6775 91.7909C76.6608 93.7574 78.6975 95.8644 81.7877 98.1118ZM81.3663 103.379L81.577 100.851C79.8915 99.5867 78.2059 98.1118 76.5203 96.4262L77.7845 100.64C79.0487 101.904 80.2426 102.817 81.3663 103.379ZM82.4198 118.549C81.577 115.178 81.1556 110.894 81.1556 105.697C80.0319 105.275 79.0487 104.643 78.2059 103.801C79.0487 107.453 79.8212 110.543 80.5235 113.071C81.2259 115.459 81.858 117.285 82.4198 118.549Z" fill="black"/>
</g>
<rect x="31" y="151" width="121.997" height="11.1422" transform="rotate(-0.350053 31 151)" fill="#CAC3BB"/>
<rect x="22" y="152" width="12.4539" height="14.174" transform="rotate(-16.6906 22 152)" fill="#CAC3BB"/>
<rect x="16" y="50" width="13" height="100" fill="#CAC3BB"/>
<path d="M36.8501 34.0255L41.3841 46.4885L7.41538 58.8462L2.88139 46.3833L36.8501 34.0255Z" fill="#CAC3BB"/>
<path d="M118.32 4L118.589 15.3712L19.6034 17.7121L19.3344 6.34089L118.32 4Z" fill="#CAC3BB"/>
<path d="M32.0921 44.1226L20.7207 44.3859L20 13.2633L31.3713 13L32.0921 44.1226Z" fill="#CAC3BB"/>
<rect x="48.0399" y="139.47" width="9" height="37.3111" transform="rotate(69.9051 48.0399 139.47)" fill="#CAC3BB"/>
<rect x="135" y="112" width="13" height="49" fill="#CAC3BB"/>
<rect x="152.757" y="101.152" width="9.14435" height="41.4358" transform="rotate(69.8675 152.757 101.152)" fill="#CAC3BB"/>
<rect x="136" y="28" width="12" height="82" fill="#CAC3BB"/>
<rect x="131" y="12" width="12" height="19" fill="#CAC3BB"/>
<path d="M133 1L136.894 11.687L106.519 22.7552L102.625 12.0682L133 1Z" fill="#CAC3BB"/>
</g>
<defs>
<clipPath id="clip0_3_35">
<rect width="167" height="167" fill="white"/>
</clipPath>
</defs>
</svg>
