<svg width="525" height="525" viewBox="0 0 525 525" fill="none" xmlns="http://www.w3.org/2000/svg">
<g clip-path="url(#clip0_21_17)">
<path d="M507.3 263.5C507.3 231 466.6 200.2 404.2 181.1C418.6 117.5 412.2 66.9 384 50.7C377.5 46.9 369.9 45.1 361.6 45.1V67.4C366.2 67.4 369.9 68.3 373 70C386.6 77.8 392.5 107.5 387.9 145.7C386.8 155.1 385 165 382.8 175.1C363.2 170.3 341.8 166.6 319.3 164.2C305.8 145.7 291.8 128.9 277.7 114.2C310.3 83.9 340.9 67.3 361.7 67.3V45C334.2 45 298.2 64.6 261.8 98.6C225.4 64.8 189.4 45.4 161.9 45.4V67.7C182.6 67.7 213.3 84.2 245.9 114.3C231.9 129 217.9 145.7 204.6 164.2C182 166.6 160.6 170.3 141 175.2C138.7 165.2 137 155.5 135.8 146.2C131.1 108 136.9 78.3 150.4 70.4C153.4 68.6 157.3 67.8 161.9 67.8V45.5C153.5 45.5 145.9 47.3 139.3 51.1C111.2 67.3 104.9 117.8 119.4 181.2C57.2 200.4 16.7 231.1 16.7 263.5C16.7 296 57.4 326.8 119.8 345.9C105.4 409.5 111.8 460.1 140 476.3C146.5 480.1 154.1 481.9 162.5 481.9C190 481.9 226 462.3 262.4 428.3C298.8 462.1 334.8 481.5 362.3 481.5C370.7 481.5 378.3 479.7 384.9 475.9C413 459.7 419.3 409.2 404.8 345.8C466.8 326.7 507.3 295.9 507.3 263.5ZM377.1 196.8C373.4 209.7 368.8 223 363.6 236.3C359.5 228.3 355.2 220.3 350.5 212.3C345.9 204.3 341 196.5 336.1 188.9C350.3 191 364 193.6 377.1 196.8ZM331.3 303.3C323.5 316.8 315.5 329.6 307.2 341.5C292.3 342.8 277.2 343.5 262 343.5C246.9 343.5 231.8 342.8 217 341.6C208.7 329.7 200.6 317 192.8 303.6C185.2 290.5 178.3 277.2 172 263.8C178.2 250.4 185.2 237 192.7 223.9C200.5 210.4 208.5 197.6 216.8 185.7C231.7 184.4 246.8 183.7 262 183.7C277.1 183.7 292.2 184.4 307 185.6C315.3 197.5 323.4 210.2 331.2 223.6C338.8 236.7 345.7 250 352 263.4C345.7 276.8 338.8 290.2 331.3 303.3ZM363.6 290.3C369 303.7 373.6 317.1 377.4 330.1C364.3 333.3 350.5 336 336.2 338.1C341.1 330.4 346 322.5 350.6 314.4C355.2 306.4 359.5 298.3 363.6 290.3ZM262.2 397C252.9 387.4 243.6 376.7 234.4 365C243.4 365.4 252.6 365.7 261.9 365.7C271.3 365.7 280.6 365.5 289.7 365C280.7 376.7 271.4 387.4 262.2 397ZM187.8 338.1C173.6 336 159.9 333.4 146.8 330.2C150.5 317.3 155.1 304 160.3 290.7C164.4 298.7 168.7 306.7 173.4 314.7C178.1 322.7 182.9 330.5 187.8 338.1ZM261.7 130C271 139.6 280.3 150.3 289.5 162C280.5 161.6 271.3 161.3 262 161.3C252.6 161.3 243.3 161.5 234.2 162C243.2 150.3 252.5 139.6 261.7 130ZM187.7 188.9C182.8 196.6 177.9 204.5 173.3 212.6C168.7 220.6 164.4 228.6 160.3 236.6C154.9 223.2 150.3 209.8 146.5 196.8C159.6 193.7 173.4 191 187.7 188.9ZM97.2 314.1C61.8 299 38.9 279.2 38.9 263.5C38.9 247.8 61.8 227.9 97.2 212.9C105.8 209.2 115.2 205.9 124.9 202.8C130.6 222.4 138.1 242.8 147.4 263.7C138.2 284.5 130.8 304.8 125.2 324.3C115.3 321.2 105.9 317.8 97.2 314.1ZM151 457C137.4 449.2 131.5 419.5 136.1 381.3C137.2 371.9 139 362 141.2 351.9C160.8 356.7 182.2 360.4 204.7 362.8C218.2 381.3 232.2 398.1 246.3 412.8C213.7 443.1 183.1 459.7 162.3 459.7C157.8 459.6 154 458.7 151 457ZM388.2 380.8C392.9 419 387.1 448.7 373.6 456.6C370.6 458.4 366.7 459.2 362.1 459.2C341.4 459.2 310.7 442.7 278.1 412.6C292.1 397.9 306.1 381.2 319.4 362.7C342 360.3 363.4 356.6 383 351.7C385.3 361.8 387.1 371.5 388.2 380.8ZM426.7 314.1C418.1 317.8 408.7 321.1 399 324.2C393.3 304.6 385.8 284.2 376.5 263.3C385.7 242.5 393.1 222.2 398.7 202.7C408.6 205.8 418 209.2 426.8 212.9C462.2 228 485.1 247.8 485.1 263.5C485 279.2 462.1 299.1 426.7 314.1Z" fill="#61DAFB"/>
<path d="M261.9 309.2C287.139 309.2 307.6 288.739 307.6 263.5C307.6 238.261 287.139 217.8 261.9 217.8C236.661 217.8 216.2 238.261 216.2 263.5C216.2 288.739 236.661 309.2 261.9 309.2Z" fill="#61DAFB"/>
</g>
<defs>
<clipPath id="clip0_21_17">
<rect width="525" height="525" fill="white"/>
</clipPath>
</defs>
</svg>
